# Blender v3.0.1 OBJ File: 'arrow2.blend'
# www.blender.org
mtllib arrow2.mtl
o Cone
v 0.000000 0.393093 -0.125000
v 0.024386 0.393093 -0.122598
v 0.047835 0.393093 -0.115485
v 0.069446 0.393093 -0.103934
v 0.088388 0.393093 -0.088388
v 0.103934 0.393093 -0.069446
v 0.115485 0.393093 -0.047835
v 0.122598 0.393093 -0.024386
v 0.125000 0.393093 0.000000
v 0.122598 0.393093 0.024386
v 0.115485 0.393093 0.047835
v 0.103934 0.393093 0.069446
v 0.088388 0.393093 0.088388
v 0.069446 0.393093 0.103934
v 0.047835 0.393093 0.115485
v 0.024386 0.393093 0.122598
v -0.000000 0.393093 0.125000
v -0.024386 0.393093 0.122598
v -0.047835 0.393093 0.115485
v -0.069446 0.393093 0.103934
v -0.088388 0.393093 0.088388
v -0.103934 0.393093 0.069446
v -0.115485 0.393093 0.047835
v -0.122598 0.393093 0.024386
v -0.125000 0.393093 -0.000000
v -0.122598 0.393093 -0.024386
v -0.115485 0.393093 -0.047835
v -0.103934 0.393093 -0.069446
v -0.088388 0.393093 -0.088388
v -0.069446 0.393093 -0.103934
v -0.047835 0.393093 -0.115485
v -0.024386 0.393093 -0.122598
v 0.000000 0.693093 0.000000
v 0.000000 -0.523561 -0.050000
v 0.000000 0.476439 -0.050000
v 0.009755 -0.523561 -0.049039
v 0.009755 0.476439 -0.049039
v 0.019134 -0.523561 -0.046194
v 0.019134 0.476439 -0.046194
v 0.027779 -0.523561 -0.041573
v 0.027779 0.476439 -0.041573
v 0.035355 -0.523561 -0.035355
v 0.035355 0.476439 -0.035355
v 0.041573 -0.523561 -0.027779
v 0.041573 0.476439 -0.027779
v 0.046194 -0.523561 -0.019134
v 0.046194 0.476439 -0.019134
v 0.049039 -0.523561 -0.009755
v 0.049039 0.476439 -0.009755
v 0.050000 -0.523561 0.000000
v 0.050000 0.476439 0.000000
v 0.049039 -0.523561 0.009755
v 0.049039 0.476439 0.009755
v 0.046194 -0.523561 0.019134
v 0.046194 0.476439 0.019134
v 0.041573 -0.523561 0.027779
v 0.041573 0.476439 0.027779
v 0.035355 -0.523561 0.035355
v 0.035355 0.476439 0.035355
v 0.027779 -0.523561 0.041573
v 0.027779 0.476439 0.041573
v 0.019134 -0.523561 0.046194
v 0.019134 0.476439 0.046194
v 0.009755 -0.523561 0.049039
v 0.009755 0.476439 0.049039
v -0.000000 -0.523561 0.050000
v -0.000000 0.476439 0.050000
v -0.009755 -0.523561 0.049039
v -0.009755 0.476439 0.049039
v -0.019134 -0.523561 0.046194
v -0.019134 0.476439 0.046194
v -0.027779 -0.523561 0.041573
v -0.027779 0.476439 0.041573
v -0.035355 -0.523561 0.035355
v -0.035355 0.476439 0.035355
v -0.041573 -0.523561 0.027779
v -0.041573 0.476439 0.027779
v -0.046194 -0.523561 0.019134
v -0.046194 0.476439 0.019134
v -0.049039 -0.523561 0.009755
v -0.049039 0.476439 0.009755
v -0.050000 -0.523561 -0.000000
v -0.050000 0.476439 -0.000000
v -0.049039 -0.523561 -0.009755
v -0.049039 0.476439 -0.009755
v -0.046194 -0.523561 -0.019134
v -0.046194 0.476439 -0.019134
v -0.041573 -0.523561 -0.027779
v -0.041573 0.476439 -0.027779
v -0.035355 -0.523561 -0.035355
v -0.035355 0.476439 -0.035355
v -0.027779 -0.523561 -0.041573
v -0.027779 0.476439 -0.041573
v -0.019134 -0.523561 -0.046194
v -0.019134 0.476439 -0.046194
v -0.009755 -0.523561 -0.049039
v -0.009755 0.476439 -0.049039
v -0.150000 -0.500000 0.010000
v -0.150000 -0.453094 0.010000
v -0.150000 -0.500000 -0.010000
v -0.150000 -0.453094 -0.010000
v 0.150000 -0.500000 0.010000
v 0.150000 -0.454946 0.010000
v 0.150000 -0.500000 -0.010000
v 0.150000 -0.454946 -0.010000
v 0.050000 -0.500000 -0.010000
v -0.050000 -0.500000 -0.010000
v -0.050000 -0.400000 -0.010000
v 0.050000 -0.400000 -0.010000
v -0.050000 -0.500000 0.010000
v 0.050000 -0.500000 0.010000
v 0.050000 -0.400000 0.010000
v -0.050000 -0.400000 0.010000
v 0.010000 -0.500000 0.150000
v 0.010000 -0.445712 0.150000
v -0.010000 -0.500000 0.150000
v -0.010000 -0.445712 0.150000
v 0.010000 -0.500000 -0.150000
v 0.010000 -0.457297 -0.150000
v -0.010000 -0.500000 -0.150000
v -0.010000 -0.457297 -0.150000
v -0.010000 -0.500000 -0.050000
v -0.010000 -0.500000 0.050000
v -0.010000 -0.400000 0.050000
v -0.010000 -0.400000 -0.050000
v 0.010000 -0.500000 0.050000
v 0.010000 -0.500000 -0.050000
v 0.010000 -0.400000 -0.050000
v 0.010000 -0.400000 0.050000
vt 0.393820 0.322007
vt 0.503736 0.368889
vt 0.393820 0.393326
vt 0.397950 0.463714
vt 0.406050 0.530466
vt 0.417811 0.591016
vt 0.432779 0.643039
vt 0.450380 0.684534
vt 0.469936 0.713907
vt 0.490698 0.730029
vt 0.511866 0.732281
vt 0.532627 0.720576
vt 0.552184 0.695364
vt 0.569785 0.657614
vt 0.584753 0.608776
vt 0.596513 0.550728
vt 0.604614 0.485699
vt 0.608743 0.416190
vt 0.608743 0.344872
vt 0.604614 0.274484
vt 0.596513 0.207732
vt 0.584753 0.147181
vt 0.569785 0.095159
vt 0.552184 0.053664
vt 0.532627 0.024291
vt 0.511866 0.008169
vt 0.490698 0.005917
vt 0.469936 0.017622
vt 0.450380 0.042834
vt 0.432779 0.080584
vt 0.417811 0.129422
vt 0.406050 0.187470
vt 0.267667 0.009795
vt 0.385931 0.313982
vt 0.288875 0.728743
vt 0.397950 0.252498
vt 0.624813 0.132353
vt 0.616632 0.161579
vt 0.616632 0.133051
vt 0.624813 0.160881
vt 0.618284 0.189734
vt 0.626464 0.189036
vt 0.621525 0.216435
vt 0.629705 0.215736
vt 0.626229 0.240655
vt 0.634409 0.239957
vt 0.632216 0.261464
vt 0.640396 0.260766
vt 0.639256 0.278062
vt 0.647436 0.277364
vt 0.647079 0.289811
vt 0.655259 0.289113
vt 0.655383 0.296260
vt 0.663564 0.295562
vt 0.663851 0.297161
vt 0.672258 0.313028
vt 0.680095 0.322492
vt 0.672258 0.313028
vt 0.680095 0.322492
vt 0.687148 0.337023
vt 0.687148 0.337023
vt 0.693146 0.356062
vt 0.693146 0.356062
vt 0.697859 0.378878
vt 0.697859 0.378878
vt 0.701105 0.404593
vt 0.701105 0.404593
vt 0.702760 0.432220
vt 0.702760 0.432220
vt 0.702760 0.460697
vt 0.702760 0.460697
vt 0.701105 0.488930
vt 0.701105 0.488930
vt 0.697859 0.515832
vt 0.697859 0.515832
vt 0.693146 0.540372
vt 0.693146 0.540372
vt 0.687148 0.561605
vt 0.687148 0.561605
vt 0.680095 0.578716
vt 0.680095 0.578716
vt 0.672258 0.591047
vt 0.672258 0.591047
vt 0.663938 0.598125
vt 0.663938 0.598125
vt 0.655455 0.599676
vt 0.655455 0.599676
vt 0.647135 0.595642
vt 0.663564 0.005917
vt 0.647079 0.011297
vt 0.655383 0.006615
vt 0.655259 0.010599
vt 0.639256 0.021382
vt 0.647436 0.020683
vt 0.632216 0.036482
vt 0.640396 0.035784
vt 0.626229 0.056017
vt 0.634409 0.055319
vt 0.621525 0.079236
vt 0.709130 0.113343
vt 0.629705 0.078538
vt 0.618284 0.105248
vt 0.626464 0.104549
vt 0.632245 0.571647
vt 0.616632 0.476450
vt 0.744751 0.005917
vt 0.762014 0.005917
vt 0.744751 0.005917
vt 0.736862 0.300260
vt 0.736495 0.010974
vt 0.736862 0.010888
vt 0.719485 0.005917
vt 0.744751 0.297225
vt 0.762014 0.879840
vt 0.744751 0.588532
vt 0.762014 0.588532
vt 0.736480 0.879094
vt 0.718671 0.584852
vt 0.736048 0.589823
vt 0.736048 0.300451
vt 0.719118 0.006003
vt 0.718671 0.295480
vt 0.762014 0.297225
vt 0.744751 0.879840
vt 0.744751 0.879840
vt 0.744751 0.588532
vt 0.736862 0.589632
vt 0.736862 0.879004
vt 0.829389 0.588532
vt 0.803495 0.588532
vt 0.829389 0.588532
vt 0.803495 0.200122
vt 0.803495 0.005917
vt 0.803495 0.005917
vt 0.795499 0.006682
vt 0.769903 0.013216
vt 0.795419 0.005917
vt 0.769903 0.407348
vt 0.770004 0.605387
vt 0.769903 0.604414
vt 0.829389 0.200122
vt 0.795520 0.598087
vt 0.770089 0.409141
vt 0.795606 0.401841
vt 0.795606 0.204776
vt 0.769982 0.013982
vt 0.770089 0.212075
vt 0.803495 0.394327
vt 0.829389 0.394327
vt 0.769903 0.210282
vt 0.803495 0.588532
vt 0.803495 0.394327
vt 0.170611 0.424556
vt 0.170611 0.353364
vt 0.174748 0.282783
vt 0.182864 0.215525
vt 0.194646 0.154176
vt 0.209642 0.101093
vt 0.227275 0.058316
vt 0.246868 0.027488
vt 0.288875 0.005917
vt 0.309674 0.016001
vt 0.329267 0.039662
vt 0.346900 0.075989
vt 0.361896 0.123587
vt 0.373678 0.180626
vt 0.381794 0.244915
vt 0.385931 0.385174
vt 0.381794 0.455755
vt 0.373678 0.523013
vt 0.361896 0.584362
vt 0.346900 0.637445
vt 0.329267 0.680222
vt 0.309674 0.711049
vt 0.267668 0.732621
vt 0.246868 0.722537
vt 0.227275 0.698876
vt 0.209642 0.662549
vt 0.194646 0.614951
vt 0.182864 0.557912
vt 0.174748 0.493623
vt 0.672031 0.296462
vt 0.647135 0.595642
vt 0.672031 0.006817
vt 0.680335 0.013266
vt 0.688158 0.025016
vt 0.695198 0.041614
vt 0.701186 0.062423
vt 0.705890 0.086643
vt 0.710782 0.141499
vt 0.710782 0.170026
vt 0.709130 0.197830
vt 0.705890 0.223841
vt 0.701186 0.247060
vt 0.695198 0.266596
vt 0.688158 0.281696
vt 0.680335 0.291780
vt 0.616632 0.447973
vt 0.618287 0.419741
vt 0.621534 0.392838
vt 0.626246 0.368298
vt 0.632245 0.347065
vt 0.639298 0.329954
vt 0.647135 0.317623
vt 0.655455 0.310546
vt 0.663938 0.308994
vt 0.639298 0.586178
vt 0.626246 0.552608
vt 0.621534 0.529792
vt 0.618287 0.504077
vt 0.762014 0.005917
vt 0.744751 0.297225
vt 0.719103 0.874122
vt 0.803495 0.200122
vt 0.829389 0.005917
vn 0.0905 0.3830 -0.9193
vn 0.2681 0.3830 -0.8840
vn 0.4354 0.3830 -0.8147
vn 0.5860 0.3830 -0.7141
vn 0.7141 0.3830 -0.5860
vn 0.8147 0.3830 -0.4354
vn 0.8840 0.3830 -0.2681
vn 0.9193 0.3830 -0.0905
vn 0.9193 0.3830 0.0905
vn 0.8840 0.3830 0.2681
vn 0.8147 0.3830 0.4354
vn 0.7141 0.3830 0.5860
vn 0.5860 0.3830 0.7141
vn 0.4354 0.3830 0.8147
vn 0.2681 0.3830 0.8840
vn 0.0905 0.3830 0.9193
vn -0.0905 0.3830 0.9193
vn -0.2681 0.3830 0.8840
vn -0.4354 0.3830 0.8147
vn -0.5860 0.3830 0.7141
vn -0.7141 0.3830 0.5860
vn -0.8147 0.3830 0.4354
vn -0.8840 0.3830 0.2681
vn -0.9193 0.3830 0.0905
vn -0.9193 0.3830 -0.0905
vn -0.8840 0.3830 -0.2681
vn -0.8147 0.3830 -0.4354
vn -0.7141 0.3830 -0.5860
vn -0.5860 0.3830 -0.7141
vn -0.4354 0.3830 -0.8147
vn 0.0000 -1.0000 0.0000
vn -0.2681 0.3830 -0.8840
vn -0.0905 0.3830 -0.9193
vn 0.0980 0.0000 -0.9952
vn 0.2903 0.0000 -0.9569
vn 0.4714 0.0000 -0.8819
vn 0.6344 0.0000 -0.7730
vn 0.7730 0.0000 -0.6344
vn 0.8819 0.0000 -0.4714
vn 0.9569 0.0000 -0.2903
vn 0.9952 0.0000 -0.0980
vn 0.9952 0.0000 0.0980
vn 0.9569 0.0000 0.2903
vn 0.8819 0.0000 0.4714
vn 0.7730 0.0000 0.6344
vn 0.6344 0.0000 0.7730
vn 0.4714 0.0000 0.8819
vn 0.2903 0.0000 0.9569
vn 0.0980 0.0000 0.9952
vn -0.0980 0.0000 0.9952
vn -0.2903 0.0000 0.9569
vn -0.4714 0.0000 0.8819
vn -0.6344 0.0000 0.7730
vn -0.7730 0.0000 0.6344
vn -0.8819 0.0000 0.4714
vn -0.9569 0.0000 0.2903
vn -0.9952 0.0000 0.0980
vn -0.9952 0.0000 -0.0980
vn -0.9569 0.0000 -0.2903
vn -0.8819 0.0000 -0.4714
vn -0.7730 0.0000 -0.6344
vn -0.6344 0.0000 -0.7730
vn -0.4714 0.0000 -0.8819
vn 0.0000 1.0000 -0.0000
vn -0.2903 0.0000 -0.9569
vn -0.0980 0.0000 -0.9952
vn -1.0000 0.0000 0.0000
vn 0.0000 0.0000 -1.0000
vn 1.0000 0.0000 0.0000
vn 0.0000 0.0000 1.0000
vn -0.4689 0.8832 0.0000
vn 0.4816 0.8764 0.0000
vn 0.0000 0.9095 0.4157
vn 0.0000 0.8677 -0.4971
vn 0.0000 -1.0000 -0.0001
usemtl BakedMaterial
s off
f 1/1/1 33/2/1 2/3/1
f 2/3/2 33/2/2 3/4/2
f 3/4/3 33/2/3 4/5/3
f 4/5/4 33/2/4 5/6/4
f 5/6/5 33/2/5 6/7/5
f 6/7/6 33/2/6 7/8/6
f 7/8/7 33/2/7 8/9/7
f 8/9/8 33/2/8 9/10/8
f 9/10/9 33/2/9 10/11/9
f 10/11/10 33/2/10 11/12/10
f 11/12/11 33/2/11 12/13/11
f 12/13/12 33/2/12 13/14/12
f 13/14/13 33/2/13 14/15/13
f 14/15/14 33/2/14 15/16/14
f 15/16/15 33/2/15 16/17/15
f 16/17/16 33/2/16 17/18/16
f 17/18/17 33/2/17 18/19/17
f 18/19/18 33/2/18 19/20/18
f 19/20/19 33/2/19 20/21/19
f 20/21/20 33/2/20 21/22/20
f 21/22/21 33/2/21 22/23/21
f 22/23/22 33/2/22 23/24/22
f 23/24/23 33/2/23 24/25/23
f 24/25/24 33/2/24 25/26/24
f 25/26/25 33/2/25 26/27/25
f 26/27/26 33/2/26 27/28/26
f 27/28/27 33/2/27 28/29/27
f 28/29/28 33/2/28 29/30/28
f 29/30/29 33/2/29 30/31/29
f 30/31/30 33/2/30 31/32/30
f 8/33/31 16/34/31 24/35/31
f 31/32/32 33/2/32 32/36/32
f 32/36/33 33/2/33 1/1/33
f 35/37/34 36/38/34 34/39/34
f 37/40/35 38/41/35 36/38/35
f 39/42/36 40/43/36 38/41/36
f 41/44/37 42/45/37 40/43/37
f 43/46/38 44/47/38 42/45/38
f 45/48/39 46/49/39 44/47/39
f 47/50/40 48/51/40 46/49/40
f 49/52/41 50/53/41 48/51/41
f 51/54/42 52/55/42 50/53/42
f 53/56/43 54/57/43 52/58/43
f 55/59/44 56/60/44 54/57/44
f 57/61/45 58/62/45 56/60/45
f 59/63/46 60/64/46 58/62/46
f 61/65/47 62/66/47 60/64/47
f 63/67/48 64/68/48 62/66/48
f 65/69/49 66/70/49 64/68/49
f 67/71/50 68/72/50 66/70/50
f 69/73/51 70/74/51 68/72/51
f 71/75/52 72/76/52 70/74/52
f 73/77/53 74/78/53 72/76/53
f 75/79/54 76/80/54 74/78/54
f 77/81/55 78/82/55 76/80/55
f 79/83/56 80/84/56 78/82/56
f 81/85/57 82/86/57 80/84/57
f 83/87/58 84/88/58 82/86/58
f 85/89/59 86/90/59 84/91/59
f 87/92/60 88/93/60 86/90/60
f 89/94/61 90/95/61 88/93/61
f 91/96/62 92/97/62 90/95/62
f 93/98/63 94/99/63 92/97/63
f 39/42/64 87/92/64 71/100/64
f 95/101/65 96/102/65 94/99/65
f 97/103/66 34/39/66 96/102/66
f 80/84/31 88/104/31 96/105/31
f 99/106/67 100/107/67 98/108/67
f 106/109/68 105/110/68 104/111/68
f 105/110/69 102/112/69 104/111/69
f 110/113/70 99/106/70 98/108/70
f 104/114/31 111/115/31 106/116/31
f 101/117/71 113/118/71 108/119/71
f 109/120/72 103/121/72 105/110/72
f 108/119/64 112/122/64 109/120/64
f 107/123/31 98/108/31 100/107/31
f 106/116/31 110/113/31 107/123/31
f 103/124/70 111/115/70 102/125/70
f 112/126/70 110/113/70 111/115/70
f 101/117/68 107/127/68 100/128/68
f 108/119/68 106/109/68 107/127/68
f 115/129/70 116/130/70 114/131/70
f 122/132/67 121/133/67 120/134/67
f 121/135/68 118/136/68 120/137/68
f 126/138/69 115/139/69 114/140/69
f 120/134/31 127/141/31 122/132/31
f 117/142/73 129/143/73 124/144/73
f 125/145/74 119/146/74 121/135/74
f 124/144/64 128/147/64 125/145/64
f 123/148/31 114/131/31 116/130/31
f 122/132/31 126/149/31 123/148/31
f 119/146/69 127/150/69 118/136/69
f 128/147/69 126/138/69 127/150/69
f 117/151/67 123/148/67 116/130/67
f 124/152/67 122/132/67 123/148/67
f 32/153/31 1/154/31 2/155/31
f 2/155/31 3/156/31 4/157/31
f 4/157/31 5/158/31 6/159/31
f 6/159/31 7/160/31 8/33/31
f 8/33/31 9/161/31 10/162/31
f 10/162/31 11/163/31 12/164/31
f 12/164/31 13/165/31 14/166/31
f 14/166/31 15/167/31 16/34/31
f 16/34/31 17/168/31 18/169/31
f 18/169/31 19/170/31 20/171/31
f 20/171/31 21/172/31 22/173/31
f 22/173/31 23/174/31 24/35/31
f 24/35/31 25/175/31 26/176/31
f 26/176/31 27/177/31 24/35/31
f 27/177/31 28/178/31 24/35/31
f 28/178/31 29/179/31 32/153/31
f 29/179/31 30/180/31 32/153/31
f 30/180/31 31/181/31 32/153/31
f 32/153/31 2/155/31 8/33/31
f 2/155/31 4/157/31 8/33/31
f 4/157/31 6/159/31 8/33/31
f 8/33/31 10/162/31 12/164/31
f 12/164/31 14/166/31 8/33/31
f 14/166/31 16/34/31 8/33/31
f 16/34/31 18/169/31 24/35/31
f 18/169/31 20/171/31 24/35/31
f 20/171/31 22/173/31 24/35/31
f 24/35/31 28/178/31 32/153/31
f 32/153/31 8/33/31 24/35/31
f 35/37/34 37/40/34 36/38/34
f 37/40/35 39/42/35 38/41/35
f 39/42/36 41/44/36 40/43/36
f 41/44/37 43/46/37 42/45/37
f 43/46/38 45/48/38 44/47/38
f 45/48/39 47/50/39 46/49/39
f 47/50/40 49/52/40 48/51/40
f 49/52/41 51/54/41 50/53/41
f 51/54/42 53/182/42 52/55/42
f 53/56/43 55/59/43 54/57/43
f 55/59/44 57/61/44 56/60/44
f 57/61/45 59/63/45 58/62/45
f 59/63/46 61/65/46 60/64/46
f 61/65/47 63/67/47 62/66/47
f 63/67/48 65/69/48 64/68/48
f 65/69/49 67/71/49 66/70/49
f 67/71/50 69/73/50 68/72/50
f 69/73/51 71/75/51 70/74/51
f 71/75/52 73/77/52 72/76/52
f 73/77/53 75/79/53 74/78/53
f 75/79/54 77/81/54 76/80/54
f 77/81/55 79/83/55 78/82/55
f 79/83/56 81/85/56 80/84/56
f 81/85/57 83/87/57 82/86/57
f 83/87/58 85/183/58 84/88/58
f 85/89/59 87/92/59 86/90/59
f 87/92/60 89/94/60 88/93/60
f 89/94/61 91/96/61 90/95/61
f 91/96/62 93/98/62 92/97/62
f 93/98/63 95/101/63 94/99/63
f 39/42/64 37/40/64 35/37/64
f 35/37/64 97/103/64 95/101/64
f 95/101/64 93/98/64 91/96/64
f 91/96/64 89/94/64 87/92/64
f 87/92/64 85/89/64 83/184/64
f 83/184/64 81/185/64 87/92/64
f 81/185/64 79/186/64 87/92/64
f 79/186/64 77/187/64 75/188/64
f 75/188/64 73/189/64 79/186/64
f 73/189/64 71/100/64 79/186/64
f 71/100/64 69/190/64 67/191/64
f 67/191/64 65/192/64 63/193/64
f 63/193/64 61/194/64 59/195/64
f 59/195/64 57/196/64 55/197/64
f 55/197/64 53/182/64 47/50/64
f 53/182/64 51/54/64 47/50/64
f 51/54/64 49/52/64 47/50/64
f 47/50/64 45/48/64 43/46/64
f 43/46/64 41/44/64 47/50/64
f 41/44/64 39/42/64 47/50/64
f 39/42/64 35/37/64 95/101/64
f 95/101/64 91/96/64 39/42/64
f 91/96/64 87/92/64 39/42/64
f 71/100/64 67/191/64 63/193/64
f 63/193/64 59/195/64 55/197/64
f 87/92/64 79/186/64 71/100/64
f 71/100/64 63/193/64 39/42/64
f 63/193/64 55/197/64 39/42/64
f 55/197/64 47/50/64 39/42/64
f 95/101/65 97/103/65 96/102/65
f 97/103/66 35/37/66 34/39/66
f 96/105/31 34/198/31 36/199/31
f 36/199/31 38/200/31 40/201/31
f 40/201/31 42/202/31 44/203/31
f 44/203/31 46/204/31 40/201/31
f 46/204/31 48/205/31 40/201/31
f 48/205/31 50/206/31 52/58/31
f 52/58/31 54/57/31 56/60/31
f 56/60/31 58/62/31 60/64/31
f 60/64/31 62/66/31 56/60/31
f 62/66/31 64/68/31 56/60/31
f 64/68/31 66/70/31 72/76/31
f 66/70/31 68/72/31 72/76/31
f 68/72/31 70/74/31 72/76/31
f 72/76/31 74/78/31 80/84/31
f 74/78/31 76/80/31 80/84/31
f 76/80/31 78/82/31 80/84/31
f 80/84/31 82/86/31 84/88/31
f 84/88/31 86/207/31 80/84/31
f 86/207/31 88/104/31 80/84/31
f 88/104/31 90/208/31 96/105/31
f 90/208/31 92/209/31 96/105/31
f 92/209/75 94/210/75 96/105/75
f 96/105/31 36/199/31 48/205/31
f 36/199/31 40/201/31 48/205/31
f 48/205/31 52/58/31 56/60/31
f 48/205/31 56/60/31 96/105/31
f 56/60/31 64/68/31 96/105/31
f 64/68/31 72/76/31 96/105/31
f 72/76/31 80/84/31 96/105/31
f 99/106/67 101/211/67 100/107/67
f 106/109/68 109/120/68 105/110/68
f 105/110/69 103/121/69 102/112/69
f 110/113/70 113/212/70 99/106/70
f 104/114/31 102/125/31 111/115/31
f 101/117/71 99/213/71 113/118/71
f 109/120/72 112/122/72 103/121/72
f 108/119/64 113/118/64 112/122/64
f 107/123/31 110/113/31 98/108/31
f 106/116/31 111/115/31 110/113/31
f 103/124/70 112/126/70 111/115/70
f 112/126/70 113/212/70 110/113/70
f 101/117/68 108/119/68 107/127/68
f 108/119/68 109/120/68 106/109/68
f 115/129/70 117/151/70 116/130/70
f 122/132/67 125/214/67 121/133/67
f 121/135/68 119/146/68 118/136/68
f 126/138/69 129/143/69 115/139/69
f 120/134/31 118/215/31 127/141/31
f 117/142/73 115/139/73 129/143/73
f 125/145/74 128/147/74 119/146/74
f 124/144/64 129/143/64 128/147/64
f 123/148/31 126/149/31 114/131/31
f 122/132/31 127/141/31 126/149/31
f 119/146/69 128/147/69 127/150/69
f 128/147/69 129/143/69 126/138/69
f 117/151/67 124/152/67 123/148/67
f 124/152/67 125/214/67 122/132/67
