# Blender 4.0.2
# www.blender.org
mtllib bullet.mtl
o Cylinder
v 0.000000 -0.150000 -0.050000
v -0.000573 0.149291 -0.013702
v 0.009755 -0.150000 -0.049039
v 0.002147 0.149291 -0.013434
v 0.019134 -0.150000 -0.046194
v 0.004761 0.149291 -0.012641
v 0.027779 -0.150000 -0.041573
v 0.007171 0.149291 -0.011353
v 0.035355 -0.150000 -0.035355
v 0.009283 0.149291 -0.009619
v 0.041573 -0.150000 -0.027779
v 0.011017 0.149291 -0.007507
v 0.046194 -0.150000 -0.019134
v 0.012305 0.149291 -0.005097
v 0.049039 -0.150000 -0.009755
v 0.013098 0.149291 -0.002482
v 0.050000 -0.150000 0.000000
v 0.013366 0.149291 0.000237
v 0.049039 -0.150000 0.009755
v 0.013098 0.149291 0.002957
v 0.046194 -0.150000 0.019134
v 0.012305 0.149291 0.005571
v 0.041573 -0.150000 0.027779
v 0.011017 0.149291 0.007981
v 0.035355 -0.150000 0.035355
v 0.009283 0.149291 0.010094
v 0.027779 -0.150000 0.041573
v 0.007171 0.149291 0.011827
v 0.019134 -0.150000 0.046194
v 0.004761 0.149291 0.013115
v 0.009755 -0.150000 0.049039
v 0.002147 0.149291 0.013908
v 0.000000 -0.150000 0.050000
v -0.000573 0.149291 0.014176
v -0.009755 -0.150000 0.049039
v -0.003292 0.149291 0.013908
v -0.019134 -0.150000 0.046194
v -0.005907 0.149291 0.013115
v -0.027779 -0.150000 0.041573
v -0.008317 0.149291 0.011827
v -0.035355 -0.150000 0.035355
v -0.010429 0.149291 0.010094
v -0.041573 -0.150000 0.027779
v -0.012163 0.149291 0.007981
v -0.046194 -0.150000 0.019134
v -0.013451 0.149291 0.005571
v -0.049039 -0.150000 0.009755
v -0.014244 0.149291 0.002957
v -0.050000 -0.150000 0.000000
v -0.014512 0.149291 0.000237
v -0.049039 -0.150000 -0.009755
v -0.014244 0.149291 -0.002482
v -0.046194 -0.150000 -0.019134
v -0.013451 0.149291 -0.005097
v -0.041573 -0.150000 -0.027779
v -0.012163 0.149291 -0.007507
v -0.035355 -0.150000 -0.035355
v -0.010429 0.149291 -0.009619
v -0.027779 -0.150000 -0.041573
v -0.008317 0.149291 -0.011353
v -0.019134 -0.150000 -0.046194
v -0.005907 0.149291 -0.012641
v -0.009755 -0.150000 -0.049039
v -0.003292 0.149291 -0.013434
v 0.000000 0.056710 -0.050000
v 0.009755 0.056710 -0.049039
v 0.019134 0.056710 -0.046194
v 0.027779 0.056710 -0.041573
v 0.035355 0.056710 -0.035355
v 0.041573 0.056710 -0.027779
v 0.046194 0.056710 -0.019134
v 0.049039 0.056710 -0.009755
v 0.050000 0.056710 0.000000
v 0.049039 0.056710 0.009755
v 0.046194 0.056710 0.019134
v 0.041573 0.056710 0.027779
v 0.035355 0.056710 0.035355
v 0.027779 0.056710 0.041573
v 0.019134 0.056710 0.046194
v 0.009755 0.056710 0.049039
v 0.000000 0.056710 0.050000
v -0.009755 0.056710 0.049039
v -0.019134 0.056710 0.046194
v -0.027779 0.056710 0.041573
v -0.035355 0.056710 0.035355
v -0.041573 0.056710 0.027779
v -0.046194 0.056710 0.019134
v -0.049039 0.056710 0.009755
v -0.050000 0.056710 0.000000
v -0.049039 0.056710 -0.009755
v -0.046194 0.056710 -0.019134
v -0.041573 0.056710 -0.027779
v -0.035355 0.056710 -0.035355
v -0.027779 0.056710 -0.041573
v -0.019134 0.056710 -0.046194
v -0.009755 0.056710 -0.049039
v 0.000000 0.105221 -0.039173
v 0.007642 0.105221 -0.038420
v 0.014991 0.105221 -0.036191
v 0.021763 0.105221 -0.032571
v 0.027700 0.105221 -0.027700
v 0.032571 0.105221 -0.021763
v 0.036191 0.105221 -0.014991
v 0.038420 0.105221 -0.007642
v 0.039173 0.105221 -0.000000
v 0.038420 0.105221 0.007642
v 0.036191 0.105221 0.014991
v 0.032571 0.105221 0.021763
v 0.027700 0.105221 0.027700
v 0.021763 0.105221 0.032571
v 0.014991 0.105221 0.036191
v 0.007642 0.105221 0.038420
v 0.000000 0.105221 0.039173
v -0.007642 0.105221 0.038420
v -0.014991 0.105221 0.036191
v -0.021763 0.105221 0.032571
v -0.027700 0.105221 0.027700
v -0.032571 0.105221 0.021763
v -0.017861 0.127900 0.007398
v -0.038420 0.105221 0.007642
v -0.039173 0.105221 -0.000000
v -0.038420 0.105221 -0.007642
v -0.036191 0.105221 -0.014991
v -0.032571 0.105221 -0.021763
v -0.027700 0.105221 -0.027700
v -0.021763 0.105221 -0.032571
v -0.014991 0.105221 -0.036191
v -0.007642 0.105221 -0.038420
vn 0.0849 0.4994 -0.8622
vn 0.2512 0.5009 -0.8282
vn 0.4076 0.5022 -0.7627
vn 0.5482 0.5032 -0.6680
vn 0.6677 0.5038 -0.5480
vn 0.7616 0.5042 -0.4071
vn 0.8264 0.5042 -0.2507
vn 0.8596 0.5038 -0.0847
vn 0.8600 0.5032 0.0847
vn 0.8275 0.5022 0.2510
vn 0.7633 0.5009 0.4080
vn 0.6697 0.4994 0.5496
vn 0.5502 0.4978 0.6704
vn 0.4093 0.4960 0.7658
vn 0.2524 0.4942 0.8319
vn 0.0853 0.4924 0.8662
vn -0.0854 0.4907 0.8671
vn -0.2532 0.4892 0.8346
vn -0.4115 0.4879 0.7698
vn -0.5541 0.4869 0.6752
vn -0.6755 0.4862 0.5544
vn -0.8918 0.2479 -0.3784
vn -0.3630 0.2479 0.8982
vn -0.8696 0.4862 0.0857
vn -0.8693 0.4869 -0.0856
vn -0.8353 0.4879 -0.2534
vn -0.7692 0.4892 -0.4111
vn -0.6735 0.4907 -0.5528
vn -0.5522 0.4924 -0.6728
vn -0.4098 0.4942 -0.7667
vn -0.0000 1.0000 -0.0000
vn -0.2521 0.4960 -0.8309
vn -0.0850 0.4978 -0.8631
vn -0.0000 -1.0000 -0.0000
vn -0.0980 -0.0000 -0.9952
vn -0.2903 -0.0000 -0.9569
vn -0.4714 -0.0000 -0.8819
vn -0.6344 -0.0000 -0.7730
vn -0.7730 -0.0000 -0.6344
vn -0.8819 -0.0000 -0.4714
vn -0.9569 -0.0000 -0.2903
vn -0.9952 -0.0000 -0.0980
vn -0.9952 -0.0000 0.0980
vn -0.9569 -0.0000 0.2903
vn -0.8819 -0.0000 0.4714
vn -0.7730 -0.0000 0.6344
vn -0.6344 -0.0000 0.7730
vn -0.4714 -0.0000 0.8819
vn -0.2903 -0.0000 0.9569
vn -0.0980 -0.0000 0.9952
vn 0.0980 -0.0000 0.9952
vn 0.2903 -0.0000 0.9569
vn 0.4714 -0.0000 0.8819
vn 0.6344 -0.0000 0.7730
vn 0.7730 -0.0000 0.6344
vn 0.8819 -0.0000 0.4714
vn 0.9569 -0.0000 0.2903
vn 0.9952 -0.0000 0.0980
vn 0.9952 -0.0000 -0.0980
vn 0.9569 -0.0000 -0.2903
vn 0.8819 -0.0000 -0.4714
vn 0.7730 -0.0000 -0.6344
vn 0.6344 -0.0000 -0.7730
vn 0.4714 -0.0000 -0.8819
vn 0.2903 -0.0000 -0.9569
vn 0.0980 -0.0000 -0.9952
vn -0.0957 0.2168 -0.9715
vn -0.2834 0.2168 -0.9342
vn -0.4602 0.2168 -0.8609
vn -0.6193 0.2168 -0.7546
vn -0.7546 0.2168 -0.6193
vn -0.8609 0.2168 -0.4602
vn -0.9342 0.2168 -0.2834
vn -0.9715 0.2168 -0.0957
vn -0.9715 0.2168 0.0957
vn -0.5689 0.2748 0.7752
vn -0.9504 0.2748 -0.1459
vn -0.7546 0.2168 0.6193
vn -0.6193 0.2168 0.7546
vn -0.4602 0.2168 0.8609
vn -0.2834 0.2168 0.9342
vn -0.0957 0.2168 0.9715
vn 0.0957 0.2168 0.9715
vn 0.2834 0.2168 0.9342
vn 0.4602 0.2168 0.8609
vn 0.6193 0.2168 0.7546
vn 0.7546 0.2168 0.6193
vn 0.8609 0.2168 0.4602
vn 0.9342 0.2168 0.2834
vn 0.9715 0.2168 0.0957
vn 0.9715 0.2168 -0.0957
vn 0.9342 0.2168 -0.2834
vn 0.8609 0.2168 -0.4602
vn 0.7546 0.2168 -0.6193
vn 0.6193 0.2168 -0.7546
vn 0.4602 0.2168 -0.8609
vn 0.2834 0.2168 -0.9342
vn 0.0957 0.2168 -0.9715
vt 0.078148 0.338527
vt 0.187978 0.274156
vt 0.195505 0.285416
vt 0.099301 0.370173
vt 0.205085 0.294993
vt 0.126225 0.397086
vt 0.216351 0.302517
vt 0.157885 0.418231
vt 0.228869 0.307699
vt 0.193065 0.432796
vt 0.242158 0.310341
vt 0.230413 0.440221
vt 0.255708 0.310341
vt 0.268493 0.440221
vt 0.268998 0.307699
vt 0.305843 0.432796
vt 0.281517 0.302517
vt 0.341026 0.418231
vt 0.292784 0.294993
vt 0.372690 0.397086
vt 0.302367 0.285416
vt 0.399620 0.370173
vt 0.309896 0.274156
vt 0.420779 0.338527
vt 0.315082 0.261644
vt 0.435356 0.303363
vt 0.317727 0.248361
vt 0.442789 0.266034
vt 0.317729 0.234818
vt 0.442792 0.227974
vt 0.315087 0.221535
vt 0.435367 0.190645
vt 0.309902 0.209023
vt 0.420798 0.155481
vt 0.302376 0.197762
vt 0.399645 0.123835
vt 0.292795 0.188186
vt 0.372721 0.096923
vt 0.281530 0.180662
vt 0.341061 0.075777
vt 0.269012 0.175479
vt 0.305881 0.061212
vt 0.255722 0.172837
vt 0.268533 0.053787
vt 0.242172 0.172837
vt 0.239967 0.150433
vt 0.228882 0.175479
vt 0.193104 0.061212
vt 0.216363 0.180662
vt 0.157921 0.075777
vt 0.205096 0.188186
vt 0.126256 0.096922
vt 0.195514 0.197762
vt 0.099327 0.123835
vt 0.187985 0.209023
vt 0.078167 0.155481
vt 0.182798 0.221535
vt 0.063591 0.190645
vt 0.180153 0.234818
vt 0.056158 0.227974
vt 0.180152 0.248361
vt 0.056154 0.266034
vt 0.182794 0.261644
vt 0.063579 0.303363
vt 0.774575 0.002979
vt 0.822247 0.012461
vt 0.867152 0.031062
vt 0.907566 0.058065
vt 0.941935 0.092434
vt 0.968939 0.132848
vt 0.987539 0.177754
vt 0.997021 0.225425
vt 0.997021 0.274030
vt 0.987539 0.321701
vt 0.968938 0.366607
vt 0.941935 0.407021
vt 0.907566 0.441390
vt 0.867152 0.468393
vt 0.822247 0.486994
vt 0.774575 0.496476
vt 0.725970 0.496476
vt 0.678299 0.486994
vt 0.633393 0.468393
vt 0.592980 0.441390
vt 0.558610 0.407020
vt 0.531607 0.366607
vt 0.513006 0.321701
vt 0.503524 0.274030
vt 0.503524 0.225425
vt 0.513007 0.177753
vt 0.531607 0.132848
vt 0.558611 0.092434
vt 0.592980 0.058065
vt 0.633393 0.031062
vt 0.678299 0.012461
vt 0.725970 0.002979
vt 0.013544 0.332588
vt 0.012456 0.321534
vt 0.031052 0.366416
vt 0.032140 0.377470
vt 0.004067 0.284942
vt 0.002979 0.273888
vt 0.497562 0.284942
vt 0.496473 0.273888
vt 0.496478 0.225308
vt 0.497567 0.236362
vt 0.488074 0.332588
vt 0.486986 0.321534
vt 0.469469 0.377470
vt 0.468381 0.366416
vt 0.442462 0.417863
vt 0.441374 0.406809
vt 0.408089 0.452214
vt 0.407001 0.441160
vt 0.367673 0.479203
vt 0.366585 0.468149
vt 0.322766 0.497794
vt 0.321678 0.486740
vt 0.275094 0.507271
vt 0.274006 0.496218
vt 0.226489 0.507271
vt 0.225401 0.496218
vt 0.178819 0.497794
vt 0.177731 0.486740
vt 0.133915 0.479203
vt 0.132827 0.468149
vt 0.093505 0.452214
vt 0.092417 0.441160
vt 0.059139 0.417863
vt 0.058051 0.406809
vt 0.002984 0.225308
vt 0.012471 0.177662
vt 0.031076 0.132780
vt 0.058084 0.092387
vt 0.092456 0.058036
vt 0.132872 0.031047
vt 0.177779 0.012456
vt 0.225451 0.002979
vt 0.274056 0.002979
vt 0.321727 0.012456
vt 0.366630 0.031047
vt 0.407041 0.058036
vt 0.441406 0.092387
vt 0.468405 0.132780
vt 0.487001 0.177662
s 0
usemtl bullet
f 97/1/1 2/2/1 4/3/1 98/4/1
f 98/4/2 4/3/2 6/5/2 99/6/2
f 99/6/3 6/5/3 8/7/3 100/8/3
f 100/8/4 8/7/4 10/9/4 101/10/4
f 101/10/5 10/9/5 12/11/5 102/12/5
f 102/12/6 12/11/6 14/13/6 103/14/6
f 103/14/7 14/13/7 16/15/7 104/16/7
f 104/16/8 16/15/8 18/17/8 105/18/8
f 105/18/9 18/17/9 20/19/9 106/20/9
f 106/20/10 20/19/10 22/21/10 107/22/10
f 107/22/11 22/21/11 24/23/11 108/24/11
f 108/24/12 24/23/12 26/25/12 109/26/12
f 109/26/13 26/25/13 28/27/13 110/28/13
f 110/28/14 28/27/14 30/29/14 111/30/14
f 111/30/15 30/29/15 32/31/15 112/32/15
f 112/32/16 32/31/16 34/33/16 113/34/16
f 113/34/17 34/33/17 36/35/17 114/36/17
f 114/36/18 36/35/18 38/37/18 115/38/18
f 115/38/19 38/37/19 40/39/19 116/40/19
f 116/40/20 40/39/20 42/41/20 117/42/20
f 117/42/21 42/41/21 44/43/21 118/44/21
f 118/44/22 44/43/22 46/45/22 119/46/22
f 119/46/23 46/45/23 48/47/23 120/48/23
f 120/48/24 48/47/24 50/49/24 121/50/24
f 121/50/25 50/49/25 52/51/25 122/52/25
f 122/52/26 52/51/26 54/53/26 123/54/26
f 123/54/27 54/53/27 56/55/27 124/56/27
f 124/56/28 56/55/28 58/57/28 125/58/28
f 125/58/29 58/57/29 60/59/29 126/60/29
f 126/60/30 60/59/30 62/61/30 127/62/30
f 4/3/31 2/2/31 64/63/31 62/61/31 60/59/31 58/57/31 56/55/31 54/53/31 52/51/31 50/49/31 48/47/31 46/45/31 44/43/31 42/41/31 40/39/31 38/37/31 36/35/31 34/33/31 32/31/31 30/29/31 28/27/31 26/25/31 24/23/31 22/21/31 20/19/31 18/17/31 16/15/31 14/13/31 12/11/31 10/9/31 8/7/31 6/5/31
f 127/62/32 62/61/32 64/63/32 128/64/32
f 128/64/33 64/63/33 2/2/33 97/1/33
f 1/65/34 3/66/34 5/67/34 7/68/34 9/69/34 11/70/34 13/71/34 15/72/34 17/73/34 19/74/34 21/75/34 23/76/34 25/77/34 27/78/34 29/79/34 31/80/34 33/81/34 35/82/34 37/83/34 39/84/34 41/85/34 43/86/34 45/87/34 47/88/34 49/89/34 51/90/34 53/91/34 55/92/34 57/93/34 59/94/34 61/95/34 63/96/34
f 63/97/35 96/98/35 65/99/35 1/100/35
f 61/101/36 95/102/36 96/98/36 63/97/36
f 59/94/37 94/94/37 95/95/37 61/95/37
f 57/93/38 93/93/38 94/94/38 59/94/38
f 55/92/39 92/92/39 93/93/39 57/93/39
f 53/91/40 91/91/40 92/92/40 55/92/40
f 51/90/41 90/90/41 91/91/41 53/91/41
f 49/89/42 89/89/42 90/90/42 51/90/42
f 47/88/43 88/88/43 89/89/43 49/89/43
f 45/87/44 87/87/44 88/88/44 47/88/44
f 43/86/45 86/86/45 87/87/45 45/87/45
f 41/85/46 85/85/46 86/86/46 43/86/46
f 39/84/47 84/84/47 85/85/47 41/85/47
f 37/83/48 83/83/48 84/84/48 39/84/48
f 35/82/49 82/82/49 83/83/49 37/83/49
f 33/81/50 81/81/50 82/82/50 35/82/50
f 31/80/51 80/80/51 81/81/51 33/81/51
f 29/79/52 79/79/52 80/80/52 31/80/52
f 27/103/53 78/104/53 79/105/53 29/106/53
f 25/107/54 77/108/54 78/104/54 27/103/54
f 23/109/55 76/110/55 77/108/55 25/107/55
f 21/111/56 75/112/56 76/110/56 23/109/56
f 19/113/57 74/114/57 75/112/57 21/111/57
f 17/115/58 73/116/58 74/114/58 19/113/58
f 15/117/59 72/118/59 73/116/59 17/115/59
f 13/119/60 71/120/60 72/118/60 15/117/60
f 11/121/61 70/122/61 71/120/61 13/119/61
f 9/123/62 69/124/62 70/122/62 11/121/62
f 7/125/63 68/126/63 69/124/63 9/123/63
f 5/127/64 67/128/64 68/126/64 7/125/64
f 3/129/65 66/130/65 67/128/65 5/127/65
f 1/100/66 65/99/66 66/130/66 3/129/66
f 96/98/67 128/64/67 97/1/67 65/99/67
f 95/102/68 127/62/68 128/64/68 96/98/68
f 94/131/69 126/60/69 127/62/69 95/102/69
f 93/132/70 125/58/70 126/60/70 94/131/70
f 92/133/71 124/56/71 125/58/71 93/132/71
f 91/134/72 123/54/72 124/56/72 92/133/72
f 90/135/73 122/52/73 123/54/73 91/134/73
f 89/136/74 121/50/74 122/52/74 90/135/74
f 88/137/75 120/48/75 121/50/75 89/136/75
f 87/138/76 119/46/76 120/48/76 88/137/76
f 86/139/77 118/44/77 119/46/77 87/138/77
f 85/140/78 117/42/78 118/44/78 86/139/78
f 84/141/79 116/40/79 117/42/79 85/140/79
f 83/142/80 115/38/80 116/40/80 84/141/80
f 82/143/81 114/36/81 115/38/81 83/142/81
f 81/144/82 113/34/82 114/36/82 82/143/82
f 80/145/83 112/32/83 113/34/83 81/144/83
f 79/105/84 111/30/84 112/32/84 80/145/84
f 78/104/85 110/28/85 111/30/85 79/105/85
f 77/108/86 109/26/86 110/28/86 78/104/86
f 76/110/87 108/24/87 109/26/87 77/108/87
f 75/112/88 107/22/88 108/24/88 76/110/88
f 74/114/89 106/20/89 107/22/89 75/112/89
f 73/116/90 105/18/90 106/20/90 74/114/90
f 72/118/91 104/16/91 105/18/91 73/116/91
f 71/120/92 103/14/92 104/16/92 72/118/92
f 70/122/93 102/12/93 103/14/93 71/120/93
f 69/124/94 101/10/94 102/12/94 70/122/94
f 68/126/95 100/8/95 101/10/95 69/124/95
f 67/128/96 99/6/96 100/8/96 68/126/96
f 66/130/97 98/4/97 99/6/97 67/128/97
f 65/99/98 97/1/98 98/4/98 66/130/98
