# Blender v3.0.1 OBJ File: 'jetBlue.blend'
# www.blender.org
mtllib jet_metal.mtl
o fuselage_Cylinder
v 0.000000 -4.500000 -0.447345
v 0.000000 4.500000 -0.585235
v 0.087273 -4.500000 -0.438750
v 0.114174 4.500000 -0.573990
v 0.171192 -4.500000 -0.413293
v 0.223960 4.500000 -0.540687
v 0.248532 -4.500000 -0.371954
v 0.325139 4.500000 -0.486605
v 0.316321 -4.500000 -0.316321
v 0.413824 4.500000 -0.413824
v 0.371954 -4.500000 -0.248532
v 0.486605 4.500000 -0.325139
v 0.413293 -4.500000 -0.171192
v 0.540687 4.500000 -0.223960
v 0.438750 -4.500000 -0.087273
v 0.573990 4.500000 -0.114174
v 0.447345 -4.500000 0.000000
v 0.585235 4.500000 0.000000
v 0.438750 -4.500000 0.087273
v 0.573990 4.500000 0.114174
v 0.413293 -4.500000 0.171192
v 0.540687 4.500000 0.223960
v 0.371954 -4.500000 0.248532
v 0.486605 4.500000 0.325139
v 0.316321 -4.500000 0.316321
v 0.413824 4.500000 0.413824
v 0.248532 -4.500000 0.371954
v 0.325139 4.500000 0.486606
v 0.171192 -4.500000 0.413293
v 0.223960 4.500000 0.540687
v 0.087273 -4.500000 0.438750
v 0.114174 4.500000 0.573990
v -0.000000 -4.500000 0.447345
v -0.000000 4.500000 0.585235
v -0.087273 -4.500000 0.438750
v -0.114174 4.500000 0.573990
v -0.171192 -4.500000 0.413293
v -0.223960 4.500000 0.540687
v -0.248532 -4.500000 0.371954
v -0.325139 4.500000 0.486605
v -0.316321 -4.500000 0.316321
v -0.413824 4.500000 0.413824
v -0.371954 -4.500000 0.248532
v -0.486605 4.500000 0.325140
v -0.413293 -4.500000 0.171192
v -0.540687 4.500000 0.223960
v -0.438750 -4.500000 0.087273
v -0.573990 4.500000 0.114174
v -0.447345 -4.500000 0.000000
v -0.585235 4.500000 0.000000
v -0.438750 -4.500000 -0.087273
v -0.573990 4.500000 -0.114174
v -0.413293 -4.500000 -0.171192
v -0.540687 4.500000 -0.223960
v -0.371954 -4.500000 -0.248532
v -0.486606 4.500000 -0.325139
v -0.316321 -4.500000 -0.316321
v -0.413824 4.500000 -0.413824
v -0.248532 -4.500000 -0.371954
v -0.325139 4.500000 -0.486605
v -0.171192 -4.500000 -0.413293
v -0.223960 4.500000 -0.540687
v -0.087273 -4.500000 -0.438750
v -0.114174 4.500000 -0.573990
v 0.000000 -1.719827 -1.000000
v 0.000000 1.280172 -1.000000
v 0.195090 1.280172 -0.980785
v 0.195090 -1.719827 -0.980785
v 0.382683 1.280172 -0.923880
v 0.382683 -1.719827 -0.923880
v 0.555570 1.280172 -0.831470
v 0.555570 -1.719827 -0.831470
v 0.707107 1.280172 -0.707107
v 0.707107 -1.719827 -0.707107
v 0.831470 1.280172 -0.555570
v 0.831470 -1.719827 -0.555570
v 0.923880 1.280172 -0.382683
v 0.923880 -1.719827 -0.382683
v 0.980785 1.280172 -0.195090
v 0.980785 -1.719827 -0.195090
v 1.000000 1.280172 0.000000
v 1.000000 -1.719827 0.000000
v 0.980785 1.280172 0.195090
v 0.980785 -1.719827 0.195090
v 0.923880 1.280172 0.382683
v 0.923880 -1.719827 0.382683
v 0.831470 1.280172 0.555570
v 0.831470 -1.719827 0.555570
v 0.707107 1.280172 0.707107
v 0.707107 -1.719827 0.707107
v 0.555570 1.280172 0.831470
v 0.555570 -1.719827 0.831470
v 0.382683 1.280172 0.923880
v 0.382683 -1.719827 0.923880
v 0.195090 1.280172 0.980785
v 0.195090 -1.719827 0.980785
v -0.000000 1.280172 1.000000
v -0.000000 -1.719827 1.000000
v -0.195090 1.280172 0.980785
v -0.195090 -1.719827 0.980785
v -0.382683 1.280172 0.923880
v -0.382683 -1.719827 0.923880
v -0.555570 1.280172 0.831470
v -0.555570 -1.719827 0.831470
v -0.707107 1.280172 0.707107
v -0.707107 -1.719827 0.707107
v -0.831469 1.280172 0.555570
v -0.831469 -1.719827 0.555570
v -0.923880 1.280172 0.382684
v -0.923880 -1.719827 0.382684
v -0.980785 1.280172 0.195090
v -0.980785 -1.719827 0.195090
v -1.000000 1.280172 -0.000000
v -1.000000 -1.719827 -0.000000
v -0.980785 1.280172 -0.195090
v -0.980785 -1.719827 -0.195090
v -0.923879 1.280172 -0.382684
v -0.923879 -1.719827 -0.382684
v -0.831470 1.280172 -0.555570
v -0.831470 -1.719827 -0.555570
v -0.707107 1.280172 -0.707107
v -0.707107 -1.719827 -0.707107
v -0.555570 1.280172 -0.831470
v -0.555570 -1.719827 -0.831470
v -0.382683 1.280172 -0.923880
v -0.382683 -1.719827 -0.923880
v -0.195090 1.280172 -0.980785
v -0.195090 -1.719827 -0.980785
vt 1.000000 1.000000
vt 0.968750 0.821121
vt 1.000000 0.821121
vt 0.968750 1.000000
vt 0.937500 0.821121
vt 0.937500 1.000000
vt 0.906250 0.821121
vt 0.906250 1.000000
vt 0.875000 0.821121
vt 0.875000 1.000000
vt 0.843750 0.821121
vt 0.843750 1.000000
vt 0.812500 0.821121
vt 0.812500 1.000000
vt 0.781250 0.821121
vt 0.781250 1.000000
vt 0.750000 0.821121
vt 0.542988 0.872292
vt 0.518105 0.851382
vt 0.525626 0.827569
vt 0.538587 0.886228
vt 0.511020 0.873814
vt 0.534441 0.899356
vt 0.504644 0.894002
vt 0.718451 0.622233
vt 0.744075 0.647523
vt 0.742856 0.673335
vt 0.719165 0.607127
vt 0.744915 0.617803
vt 0.719656 0.589734
vt 0.745343 0.585316
vt 0.719907 0.570721
vt 0.745343 0.551311
vt 0.719907 0.550820
vt 0.744915 0.517094
vt 0.719656 0.530795
vt 0.744075 0.483980
vt 0.719165 0.511416
vt 0.742856 0.453243
vt 0.437500 1.000000
vt 0.406250 0.821121
vt 0.437500 0.821121
vt 0.406250 1.000000
vt 0.375000 0.821121
vt 0.343750 1.000000
vt 0.343750 0.821121
vt 0.312500 0.821121
vt 0.281250 1.000000
vt 0.281250 0.821121
vt 0.250000 0.821121
vt 0.250000 1.000000
vt 0.218750 0.821121
vt 0.218750 1.000000
vt 0.187500 0.821121
vt 0.187500 1.000000
vt 0.156250 0.821121
vt 0.125000 1.000000
vt 0.125000 0.821121
vt 0.093750 0.821121
vt 0.093750 1.000000
vt 0.062500 0.821121
vt 0.341844 0.471731
vt 0.028269 0.341844
vt 0.158156 0.028269
vt 0.062500 1.000000
vt 0.031250 0.821121
vt 0.031250 1.000000
vt 0.000000 0.821121
vt 0.689725 0.581062
vt 0.705869 0.496995
vt 0.718371 0.567017
vt 0.031250 0.500000
vt 0.000000 0.654454
vt 0.000000 0.500000
vt 0.031250 0.654454
vt 0.062500 0.654454
vt 0.062500 0.500000
vt 0.093750 0.654454
vt 0.093750 0.500000
vt 0.125000 0.654454
vt 0.125000 0.500000
vt 0.156250 0.654454
vt 0.156250 0.500000
vt 0.187500 0.654454
vt 0.187500 0.500000
vt 0.218750 0.654454
vt 0.218750 0.500000
vt 0.250000 0.654454
vt 0.250000 0.500000
vt 0.281250 0.500000
vt 0.281250 0.654454
vt 0.703040 0.499845
vt 0.708119 0.401814
vt 0.312500 0.654454
vt 0.700249 0.505547
vt 0.701795 0.408186
vt 0.343750 0.654454
vt 0.697605 0.513881
vt 0.695557 0.420931
vt 0.375000 0.654454
vt 0.695208 0.524526
vt 0.689645 0.439560
vt 0.760698 0.424393
vt 0.739479 0.403484
vt 0.758873 0.401814
vt 0.693151 0.537075
vt 0.684287 0.463358
vt 0.762249 0.451573
vt 0.741304 0.426062
vt 0.691512 0.551044
vt 0.679688 0.491408
vt 0.763469 0.482311
vt 0.673440 0.555836
vt 0.690356 0.565896
vt 0.764309 0.515424
vt 0.672030 0.589737
vt 0.764737 0.549641
vt 0.671851 0.623035
vt 0.689645 0.595957
vt 0.764737 0.583646
vt 0.672909 0.654450
vt 0.690118 0.610011
vt 0.764309 0.616133
vt 0.675164 0.682775
vt 0.691127 0.622681
vt 0.763469 0.645854
vt 0.678529 0.706921
vt 0.692632 0.633483
vt 0.484526 0.864810
vt 0.489949 0.847641
vt 0.682875 0.725961
vt 0.694576 0.642000
vt 0.496325 0.827453
vt 0.503409 0.805022
vt 0.492896 0.752224
vt 0.496066 0.742189
vt 0.510930 0.781209
vt 0.499430 0.731536
vt 0.518598 0.756929
vt 0.502860 0.720675
vt 0.750000 0.654454
vt 0.781250 0.654454
vt 0.526119 0.733116
vt 0.506225 0.710022
vt 0.540815 0.779476
vt 0.533203 0.710684
vt 0.509394 0.699987
vt 0.812500 0.654454
vt 0.843750 0.654454
vt 0.718451 0.708518
vt 0.707847 0.642531
vt 0.710491 0.634198
vt 0.875000 0.654454
vt 0.906250 0.654454
vt 0.875000 0.500000
vt 0.906250 0.500000
vt 0.937500 0.654454
vt 0.937500 0.500000
vt 0.968750 0.654454
vt 0.968750 0.500000
vt 1.000000 0.654454
vt 1.000000 0.500000
vt 0.750000 1.000000
vt 0.530709 0.911170
vt 0.718451 0.493427
vt 0.296822 0.485388
vt 0.250000 0.490000
vt 0.203178 0.485388
vt 0.158156 0.471731
vt 0.116663 0.449553
vt 0.080294 0.419706
vt 0.050447 0.383337
vt 0.014612 0.296822
vt 0.010000 0.250000
vt 0.014612 0.203178
vt 0.028269 0.158156
vt 0.050447 0.116663
vt 0.080294 0.080294
vt 0.116663 0.050447
vt 0.203178 0.014612
vt 0.341844 0.028269
vt 0.250000 0.010000
vt 0.296822 0.014612
vt 0.383337 0.050447
vt 0.419706 0.080294
vt 0.449553 0.116663
vt 0.471731 0.158156
vt 0.485388 0.203178
vt 0.490000 0.250000
vt 0.485388 0.296822
vt 0.471731 0.341844
vt 0.449553 0.383337
vt 0.419706 0.419706
vt 0.383337 0.449553
vt 0.676025 0.522634
vt 0.499222 0.911170
vt 0.533294 0.803289
vt 0.712540 0.727147
vt 0.717741 0.582182
vt 0.716584 0.597035
vt 0.714945 0.611004
vt 0.712888 0.623552
vt 0.705056 0.648233
vt 0.702227 0.651083
vt 0.699468 0.650973
vt 0.696884 0.647906
vt 0.708629 0.497105
vt 0.711212 0.500172
vt 0.713520 0.506078
vt 0.715464 0.514595
vt 0.716969 0.525397
vt 0.717978 0.538068
vt 0.718451 0.552121
vt 0.000000 1.000000
vt 0.375000 1.000000
vt 0.312500 1.000000
vt 0.156250 1.000000
vn 0.0000 0.7309 -0.6824
vn 0.1947 0.0638 -0.9788
vn 0.0000 0.0638 -0.9980
vn 0.1331 0.7309 -0.6693
vn 0.3819 0.0638 -0.9220
vn 0.2611 0.7309 -0.6305
vn 0.5544 0.0638 -0.8298
vn 0.3791 0.7309 -0.5674
vn 0.7056 0.0638 -0.7056
vn 0.4826 0.7309 -0.4826
vn 0.8298 0.0638 -0.5544
vn 0.5674 0.7309 -0.3791
vn 0.9220 0.0638 -0.3819
vn 0.6305 0.7309 -0.2611
vn 0.9788 0.0638 -0.1947
vn 0.6693 0.7309 -0.1331
vn 0.9980 0.0638 0.0000
vn 0.6824 0.7309 0.0000
vn 0.9788 0.0638 0.1947
vn 0.6693 0.7309 0.1331
vn 0.9220 0.0638 0.3819
vn 0.6305 0.7309 0.2611
vn 0.8298 0.0638 0.5544
vn 0.5674 0.7309 0.3791
vn 0.7056 0.0638 0.7056
vn 0.4826 0.7309 0.4826
vn 0.5544 0.0638 0.8298
vn 0.3791 0.7309 0.5674
vn 0.3819 0.0638 0.9220
vn 0.2611 0.7309 0.6305
vn 0.1947 0.0638 0.9788
vn 0.1331 0.7309 0.6693
vn 0.0000 0.0638 0.9980
vn 0.0000 0.7309 0.6824
vn -0.1947 0.0638 0.9788
vn -0.1331 0.7309 0.6693
vn -0.3819 0.0638 0.9220
vn -0.2611 0.7309 0.6305
vn -0.5544 0.0638 0.8298
vn -0.3791 0.7309 0.5674
vn -0.7056 0.0638 0.7056
vn -0.5674 0.7309 0.3791
vn -0.8298 0.0638 0.5544
vn -0.9220 0.0638 0.3819
vn -0.6693 0.7309 0.1331
vn -0.9788 0.0638 0.1947
vn -0.9980 0.0638 0.0000
vn -0.6824 0.7309 0.0000
vn -0.9788 0.0638 -0.1947
vn -0.6693 0.7309 -0.1331
vn -0.9220 0.0638 -0.3819
vn -0.6305 0.7309 -0.2611
vn -0.8298 0.0638 -0.5544
vn -0.4826 0.7309 -0.4826
vn -0.7056 0.0638 -0.7056
vn -0.5544 0.0638 -0.8298
vn -0.3791 0.7309 -0.5674
vn -0.3819 0.0638 -0.9220
vn -0.2611 0.7309 -0.6305
vn -0.1947 0.0638 -0.9788
vn -0.1331 0.7309 -0.6693
vn 0.1281 -0.7539 0.6443
vn -0.6443 -0.7539 0.1281
vn -0.1281 -0.7539 -0.6443
vn 0.0000 -0.0974 -0.9952
vn 0.0000 -0.7539 -0.6570
vn -0.1942 -0.0974 -0.9761
vn -0.3808 -0.0974 -0.9195
vn -0.2514 -0.7539 -0.6069
vn -0.5529 -0.0974 -0.8275
vn -0.3650 -0.7539 -0.5463
vn -0.7037 -0.0974 -0.7037
vn -0.4646 -0.7539 -0.4645
vn -0.8275 -0.0974 -0.5529
vn -0.5463 -0.7539 -0.3650
vn -0.9195 -0.0974 -0.3808
vn -0.6070 -0.7539 -0.2514
vn -0.9761 -0.0974 -0.1942
vn -0.6443 -0.7539 -0.1281
vn -0.9952 -0.0974 0.0000
vn -0.6570 -0.7539 0.0000
vn -0.9761 -0.0974 0.1942
vn -0.6070 -0.7539 0.2514
vn -0.9195 -0.0974 0.3808
vn -0.5463 -0.7539 0.3650
vn -0.8275 -0.0974 0.5529
vn -0.4646 -0.7539 0.4646
vn -0.7037 -0.0974 0.7037
vn -0.3650 -0.7539 0.5463
vn -0.5529 -0.0974 0.8275
vn -0.2514 -0.7539 0.6069
vn -0.3808 -0.0974 0.9195
vn -0.1281 -0.7539 0.6443
vn -0.1942 -0.0974 0.9761
vn 0.0000 -0.0974 0.9952
vn 0.0000 -0.7539 0.6570
vn 0.1942 -0.0974 0.9761
vn 0.3808 -0.0974 0.9195
vn 0.2514 -0.7539 0.6070
vn 0.5529 -0.0974 0.8275
vn 0.3650 -0.7539 0.5463
vn 0.7037 -0.0974 0.7037
vn 0.4646 -0.7539 0.4645
vn 0.8275 -0.0974 0.5529
vn 0.5463 -0.7539 0.3650
vn 0.9195 -0.0974 0.3808
vn 0.6070 -0.7539 0.2514
vn 0.9761 -0.0974 0.1942
vn 0.6443 -0.7539 0.1281
vn 0.9952 -0.0974 0.0000
vn 0.6570 -0.7539 0.0000
vn 0.9761 -0.0974 -0.1942
vn 0.6443 -0.7539 -0.1281
vn 0.9195 -0.0974 -0.3808
vn 0.6070 -0.7539 -0.2514
vn 0.8275 -0.0974 -0.5529
vn 0.5463 -0.7539 -0.3650
vn 0.7037 -0.0974 -0.7037
vn 0.4646 -0.7539 -0.4646
vn 0.5529 -0.0974 -0.8275
vn 0.3650 -0.7539 -0.5463
vn 0.3808 -0.0974 -0.9195
vn 0.2514 -0.7539 -0.6070
vn 0.1942 -0.0974 -0.9761
vn 0.1281 -0.7539 -0.6443
vn -0.5674 0.7309 -0.3791
vn -0.6305 0.7309 0.2611
vn -0.4826 0.7309 0.4825
usemtl jetblue.001
s 1
f 2/1/1 67/2/2 66/3/3
f 4/4/4 69/5/5 67/2/2
f 6/6/6 71/7/7 69/5/5
f 8/8/8 73/9/9 71/7/7
f 10/10/10 75/11/11 73/9/9
f 12/12/12 77/13/13 75/11/11
f 14/14/14 79/15/15 77/13/13
f 16/16/16 81/17/17 79/15/15
f 18/18/18 83/19/19 81/20/17
f 20/21/20 85/22/21 83/19/19
f 22/23/22 87/24/23 85/22/21
f 24/25/24 89/26/25 87/27/23
f 26/28/26 91/29/27 89/26/25
f 28/30/28 93/31/29 91/29/27
f 30/32/30 95/33/31 93/31/29
f 32/34/32 97/35/33 95/33/31
f 34/36/34 99/37/35 97/35/33
f 36/38/36 101/39/37 99/37/35
f 38/40/38 103/41/39 101/42/37
f 40/43/40 105/44/41 103/41/39
f 105/44/41 44/45/42 107/46/43
f 44/45/42 109/47/44 107/46/43
f 109/47/44 48/48/45 111/49/46
f 48/48/45 113/50/47 111/49/46
f 50/51/48 115/52/49 113/50/47
f 52/53/50 117/54/51 115/52/49
f 54/55/52 119/56/53 117/54/51
f 119/56/53 58/57/54 121/58/55
f 58/57/54 123/59/56 121/58/55
f 60/60/57 125/61/58 123/59/56
f 6/62/6 54/63/52 38/64/38
f 62/65/59 127/66/60 125/61/58
f 64/67/61 66/68/3 127/66/60
f 31/69/62 47/70/63 63/71/64
f 63/72/64 65/73/65 1/74/66
f 127/66/60 65/73/65 128/75/67
f 126/76/68 63/72/64 61/77/69
f 125/61/58 128/75/67 126/76/68
f 124/78/70 61/77/69 59/79/71
f 123/59/56 126/76/68 124/78/70
f 122/80/72 59/79/71 57/81/73
f 121/58/55 124/78/70 122/80/72
f 120/82/74 57/81/73 55/83/75
f 119/56/53 122/80/72 120/82/74
f 118/84/76 55/83/75 53/85/77
f 117/54/51 120/82/74 118/84/76
f 116/86/78 53/85/77 51/87/79
f 115/52/49 118/84/76 116/86/78
f 114/88/80 51/87/79 49/89/81
f 113/50/47 116/86/78 114/88/80
f 47/90/63 114/88/80 49/89/81
f 111/49/46 114/88/80 112/91/82
f 45/92/83 112/93/82 47/70/63
f 109/47/44 112/91/82 110/94/84
f 43/95/85 110/96/84 45/92/83
f 107/46/43 110/94/84 108/97/86
f 41/98/87 108/99/86 43/95/85
f 105/44/41 108/97/86 106/100/88
f 39/101/89 106/102/88 41/98/87
f 104/103/90 105/104/41 106/105/88
f 37/106/91 104/107/90 39/101/89
f 102/108/92 103/109/39 104/103/90
f 35/110/93 102/111/92 37/106/91
f 99/37/35 102/108/92 100/112/94
f 98/113/95 35/110/93 33/114/96
f 97/35/33 100/112/94 98/115/95
f 96/116/97 33/114/96 31/69/62
f 95/33/31 98/115/95 96/117/97
f 94/118/98 31/69/62 29/119/99
f 93/31/29 96/117/97 94/120/98
f 92/121/100 29/119/99 27/122/101
f 91/29/27 94/120/98 92/123/100
f 90/124/102 27/122/101 25/125/103
f 89/26/25 92/123/100 90/126/102
f 88/127/104 25/125/103 23/128/105
f 87/24/23 90/129/102 88/130/104
f 86/131/106 23/128/105 21/132/107
f 85/22/21 88/130/104 86/133/106
f 84/134/108 21/135/107 19/136/109
f 83/19/19 86/133/106 84/134/108
f 82/137/110 19/136/109 17/138/111
f 81/20/17 84/134/108 82/137/110
f 80/139/112 17/138/111 15/140/113
f 79/15/15 82/141/110 80/142/112
f 78/143/114 15/140/113 13/144/115
f 77/145/13 80/139/112 78/143/114
f 76/146/116 13/144/115 11/147/117
f 75/11/11 78/148/114 76/149/116
f 74/150/118 11/151/117 9/152/119
f 73/9/9 76/149/116 74/153/118
f 72/154/120 9/155/119 7/156/121
f 71/7/7 74/153/118 72/154/120
f 70/157/122 7/156/121 5/158/123
f 69/5/5 72/154/120 70/157/122
f 68/159/124 5/158/123 3/160/125
f 67/2/2 70/157/122 68/159/124
f 65/161/65 3/160/125 1/162/66
f 66/3/3 68/159/124 65/161/65
f 6/6/6 8/8/8 71/7/7
f 8/8/8 10/10/10 73/9/9
f 10/10/10 12/12/12 75/11/11
f 12/12/12 14/14/14 77/13/13
f 14/14/14 16/16/16 79/15/15
f 16/16/16 18/163/18 81/17/17
f 18/18/18 20/21/20 83/19/19
f 20/21/20 22/23/22 85/22/21
f 22/23/22 24/164/24 87/24/23
f 24/25/24 26/28/26 89/26/25
f 26/28/26 28/30/28 91/29/27
f 28/30/28 30/32/30 93/31/29
f 30/32/30 32/34/32 95/33/31
f 32/34/32 34/36/34 97/35/33
f 34/36/34 36/38/36 99/37/35
f 36/38/36 38/165/38 101/39/37
f 6/62/6 4/166/4 2/167/1
f 2/167/1 64/168/61 6/62/6
f 64/168/61 62/169/59 6/62/6
f 62/169/59 60/170/57 58/171/54
f 58/171/54 56/172/126 54/63/52
f 54/63/52 52/173/50 50/174/48
f 50/174/48 48/175/45 46/176/127
f 46/176/127 44/177/42 38/64/38
f 44/177/42 42/178/128 38/64/38
f 42/178/128 40/179/40 38/64/38
f 38/64/38 36/180/36 30/181/30
f 36/180/36 34/182/34 30/181/30
f 34/182/34 32/183/32 30/181/30
f 30/181/30 28/184/28 26/185/26
f 26/185/26 24/186/24 22/187/22
f 22/187/22 20/188/20 18/189/18
f 18/189/18 16/190/16 14/191/14
f 14/191/14 12/192/12 10/193/10
f 10/193/10 8/194/8 6/62/6
f 62/169/59 58/171/54 6/62/6
f 58/171/54 54/63/52 6/62/6
f 54/63/52 50/174/48 38/64/38
f 50/174/48 46/176/127 38/64/38
f 30/181/30 26/185/26 22/187/22
f 22/187/22 18/189/18 14/191/14
f 14/191/14 10/193/10 6/62/6
f 38/64/38 30/181/30 22/187/22
f 22/187/22 14/191/14 38/64/38
f 14/191/14 6/62/6 38/64/38
f 99/37/35 101/39/37 102/108/92
f 98/113/95 100/195/94 35/110/93
f 97/35/33 99/37/35 100/112/94
f 96/116/97 98/113/95 33/114/96
f 95/33/31 97/35/33 98/115/95
f 94/118/98 96/116/97 31/69/62
f 93/31/29 95/33/31 96/117/97
f 92/121/100 94/118/98 29/119/99
f 91/29/27 93/31/29 94/120/98
f 90/124/102 92/121/100 27/122/101
f 89/26/25 91/29/27 92/123/100
f 88/127/104 90/124/102 25/125/103
f 87/24/23 89/196/25 90/129/102
f 86/131/106 88/127/104 23/128/105
f 85/22/21 87/24/23 88/130/104
f 84/134/108 86/133/106 21/135/107
f 83/19/19 85/22/21 86/133/106
f 82/137/110 84/134/108 19/136/109
f 81/20/17 83/19/19 84/134/108
f 80/139/112 82/137/110 17/138/111
f 79/197/15 81/20/17 82/137/110
f 78/143/114 80/139/112 15/140/113
f 77/145/13 79/197/15 80/139/112
f 76/146/116 78/143/114 13/144/115
f 75/11/11 77/13/13 78/148/114
f 74/150/118 76/198/116 11/151/117
f 73/9/9 75/11/11 76/149/116
f 72/154/120 74/153/118 9/155/119
f 71/7/7 73/9/9 74/153/118
f 70/157/122 72/154/120 7/156/121
f 69/5/5 71/7/7 72/154/120
f 63/71/64 1/199/66 3/200/125
f 3/200/125 5/201/123 7/202/121
f 7/202/121 9/152/119 11/151/117
f 11/151/117 13/203/115 15/204/113
f 15/204/113 17/205/111 19/206/109
f 19/206/109 21/132/107 23/128/105
f 23/128/105 25/125/103 27/122/101
f 27/122/101 29/119/99 31/69/62
f 31/69/62 33/114/96 35/110/93
f 35/110/93 37/106/91 39/101/89
f 39/101/89 41/98/87 43/95/85
f 43/95/85 45/92/83 47/70/63
f 47/70/63 49/207/81 51/208/79
f 51/208/79 53/209/77 55/210/75
f 55/210/75 57/211/73 59/212/71
f 59/212/71 61/213/69 63/71/64
f 63/71/64 3/200/125 7/202/121
f 7/202/121 11/151/117 15/204/113
f 15/204/113 19/206/109 23/128/105
f 23/128/105 27/122/101 31/69/62
f 31/69/62 35/110/93 39/101/89
f 39/101/89 43/95/85 47/70/63
f 47/70/63 51/208/79 55/210/75
f 55/210/75 59/212/71 63/71/64
f 63/71/64 7/202/121 15/204/113
f 15/204/113 23/128/105 31/69/62
f 31/69/62 39/101/89 47/70/63
f 47/70/63 55/210/75 63/71/64
f 63/71/64 15/204/113 31/69/62
f 45/92/83 110/96/84 112/93/82
f 43/95/85 108/99/86 110/96/84
f 41/98/87 106/102/88 108/99/86
f 39/101/89 104/107/90 106/102/88
f 104/103/90 103/109/39 105/104/41
f 37/106/91 102/111/92 104/107/90
f 102/108/92 101/39/37 103/109/39
f 35/110/93 100/195/94 102/111/92
f 2/1/1 4/4/4 67/2/2
f 4/4/4 6/6/6 69/5/5
f 62/65/59 64/67/61 127/66/60
f 64/67/61 2/214/1 66/68/3
f 63/72/64 128/75/67 65/73/65
f 127/66/60 66/68/3 65/73/65
f 126/76/68 128/75/67 63/72/64
f 125/61/58 127/66/60 128/75/67
f 124/78/70 126/76/68 61/77/69
f 68/159/124 70/157/122 5/158/123
f 67/2/2 69/5/5 70/157/122
f 65/161/65 68/159/124 3/160/125
f 66/3/3 67/2/2 68/159/124
f 38/40/38 40/43/40 103/41/39
f 40/43/40 42/215/128 105/44/41
f 105/44/41 42/215/128 44/45/42
f 44/45/42 46/216/127 109/47/44
f 109/47/44 46/216/127 48/48/45
f 48/48/45 50/51/48 113/50/47
f 50/51/48 52/53/50 115/52/49
f 52/53/50 54/55/52 117/54/51
f 54/55/52 56/217/126 119/56/53
f 119/56/53 56/217/126 58/57/54
f 58/57/54 60/60/57 123/59/56
f 60/60/57 62/65/59 125/61/58
f 123/59/56 125/61/58 126/76/68
f 122/80/72 124/78/70 59/79/71
f 121/58/55 123/59/56 124/78/70
f 120/82/74 122/80/72 57/81/73
f 119/56/53 121/58/55 122/80/72
f 118/84/76 120/82/74 55/83/75
f 117/54/51 119/56/53 120/82/74
f 116/86/78 118/84/76 53/85/77
f 115/52/49 117/54/51 118/84/76
f 114/88/80 116/86/78 51/87/79
f 113/50/47 115/52/49 116/86/78
f 47/90/63 112/91/82 114/88/80
f 111/49/46 113/50/47 114/88/80
f 109/47/44 111/49/46 112/91/82
f 107/46/43 109/47/44 110/94/84
f 105/44/41 107/46/43 108/97/86
o wingFront_Cube.002
v -2.276400 -2.000000 0.100000
v -4.500000 0.000000 0.100000
v -2.276400 -2.000000 -0.100000
v -4.500000 0.000000 -0.100000
v 2.234284 -2.000000 0.100000
v 4.500000 0.000000 0.100000
v 2.234284 -2.000000 -0.100000
v 4.500000 0.000000 -0.100000
vt 0.435356 0.349994
vt 0.371192 0.000000
vt 0.435356 0.000000
vt 0.307342 0.436465
vt 0.369633 0.699987
vt 0.307342 0.611878
vt 0.306957 0.349994
vt 0.371192 0.000000
vt 0.371192 0.349994
vt 0.369633 0.438103
vt 0.431925 0.699987
vt 0.369633 0.613515
vt 0.617559 0.803129
vt 0.562058 1.000000
vt 0.562058 0.803129
vt 0.875000 0.500000
vt 0.625000 0.750000
vt 0.625000 0.500000
vt 0.306957 0.000000
vt 0.431925 0.349994
vt 0.617559 1.000000
vt 0.617559 0.401564
vt 0.563268 0.305046
vt 0.617559 0.000000
vt 0.371192 0.349994
vt 0.369633 0.349994
vn -0.6687 -0.7435 0.0000
vn 0.0000 0.0000 -1.0000
vn 0.6618 -0.7497 0.0000
vn 0.0000 0.0000 1.0000
vn 0.0000 -1.0000 0.0000
vn 0.0000 1.0000 0.0000
usemtl jetblue.001
s off
f 129/218/129 132/219/129 131/220/129
f 131/221/130 136/222/130 135/223/130
f 136/224/131 133/225/131 135/226/131
f 133/227/132 130/228/132 129/229/132
f 135/230/133 129/231/133 131/232/133
f 132/233/134 134/234/134 136/235/134
f 136/224/131 134/236/131 133/225/131
f 133/227/132 134/237/132 130/228/132
f 135/230/133 133/238/133 129/231/133
f 132/239/134 130/240/134 134/241/134
f 129/218/129 130/242/129 132/219/129
f 131/221/130 132/243/130 136/222/130
o wingRear_Cube.003
v -1.829099 1.850000 0.100000
v -3.500000 3.150000 0.100000
v -1.829099 1.850000 -0.100000
v -3.500000 3.150000 -0.100000
v 1.914078 1.850000 0.100000
v 3.500000 3.150000 0.100000
v 1.914078 1.850000 -0.100000
v 3.500000 3.150000 -0.100000
vt 0.499398 0.349994
vt 0.435356 0.000000
vt 0.499398 0.000000
vt 0.435356 0.433537
vt 0.497648 0.699987
vt 0.435356 0.620692
vt 0.499398 0.349994
vt 0.563268 0.000000
vt 0.563268 0.349994
vt 0.561689 0.349994
vt 0.499398 0.616444
vt 0.499398 0.429288
vt 0.671851 0.727147
vt 0.731068 0.924019
vt 0.671851 0.924019
vt 0.875000 0.500000
vt 0.625000 0.750000
vt 0.625000 0.500000
vt 0.499398 0.000000
vt 0.561689 0.699987
vt 0.617559 0.803129
vt 0.563268 0.706610
vt 0.617559 0.401564
vt 0.435356 0.349994
vt 0.497648 0.349994
vt 0.731068 0.727147
vn -0.6141 -0.7893 0.0000
vn 0.0000 0.0000 -1.0000
vn 0.6339 -0.7734 0.0000
vn 0.0000 0.0000 1.0000
vn 0.0000 -1.0000 0.0000
vn 0.0000 1.0000 0.0000
usemtl jetblue.001
s off
f 137/244/135 140/245/135 139/246/135
f 139/247/136 144/248/136 143/249/136
f 144/250/137 141/251/137 143/252/137
f 142/253/138 137/254/138 141/255/138
f 139/256/139 141/257/139 137/258/139
f 140/259/140 142/260/140 144/261/140
f 144/250/137 142/262/137 141/251/137
f 142/253/138 138/263/138 137/254/138
f 140/264/140 138/265/140 142/266/140
f 137/244/135 138/267/135 140/245/135
f 139/247/136 140/268/136 144/248/136
f 139/256/139 143/269/139 141/257/139
o fin_Cube.004
v -0.100000 1.850000 -0.500000
v -0.100000 3.150000 -0.500000
v -0.100000 3.153360 -2.500000
v -0.100000 3.150000 -2.500000
v 0.100000 1.850000 -0.500000
v 0.100000 3.150000 -0.500000
v 0.100000 3.153360 -2.500000
v 0.100000 3.150000 -2.500000
vt 0.375000 0.000000
vt 0.625000 0.250000
vt 0.375000 0.250000
vt 0.375000 0.500000
vt 0.671817 0.401814
vt 0.617560 0.096708
vt 0.671817 0.000000
vt 0.625000 0.750000
vt 0.375000 1.000000
vt 0.375000 0.750000
vt 0.218750 0.000000
vt 0.306957 0.349994
vt 0.218750 0.349994
vt 0.671851 0.401814
vt 0.671851 0.803378
vt 0.617559 0.706860
vt 0.625000 0.000000
vt 0.625000 0.500000
vt 0.306957 0.000000
vt 0.875000 0.500000
vt 0.875000 0.750000
vt 0.625000 1.000000
vn 1.0000 0.0000 0.0000
vn 0.0000 0.0000 1.0000
vn 0.0000 -0.8378 -0.5460
vn 0.0000 1.0000 0.0000
vn -1.0000 0.0000 0.0000
usemtl jetblue.001
s off
f 145/270/141 148/271/141 147/272/141
f 148/271/142 151/273/142 147/272/142
f 151/274/141 150/275/141 149/276/141
f 150/277/142 145/278/142 149/279/142
f 151/280/143 145/281/143 147/282/143
f 148/283/144 150/284/144 152/285/144
f 145/270/145 146/286/145 148/271/145
f 151/273/145 152/287/145 150/277/145
f 151/280/143 149/288/143 145/281/143
f 148/289/144 146/290/144 150/277/144
f 148/271/142 152/287/142 151/273/142
f 150/277/142 146/291/142 145/278/142
o cockpit_Cube.005
v -0.600000 -2.000000 -0.400000
v -0.600000 0.000000 -0.400000
v -0.600000 -1.313612 -1.289084
v -0.600000 -0.586022 -1.376539
v 0.600000 -2.000000 -0.400000
v 0.600000 0.000000 -0.400000
v 0.600000 -1.313612 -1.289084
v 0.600000 -0.586022 -1.376539
vt 0.225998 0.900250
vt 0.308754 0.717922
vt 0.351995 0.900250
vt 0.744362 0.246089
vt 0.791111 0.000000
vt 0.791111 0.246089
vt 0.395237 0.717922
vt 0.477993 0.900250
vt 0.351995 0.900250
vt 0.100000 0.596083
vt 0.225998 0.349994
vt 0.225998 0.596083
vt 0.851847 0.000000
vt 0.851847 0.246089
vt 0.208979 0.842172
vt 0.208979 0.596083
vt 0.441074 0.699987
vt 0.100000 0.842172
vt 0.744362 0.000000
vt 0.262916 0.699987
vt 0.100000 0.349994
vn -0.5541 0.7244 0.4101
vn -0.6296 -0.3836 -0.6756
vn -0.5504 -0.7493 0.3681
vn -0.6027 0.3509 -0.7166
vn 0.6296 -0.3836 -0.6756
vn 0.5541 0.7244 0.4101
vn 0.5504 -0.7493 0.3681
vn 0.6027 0.3509 -0.7166
usemtl jetcockpit.001
s 1
f 154/292/146 155/293/147 153/294/148
f 156/295/149 159/296/150 155/297/147
f 159/298/150 158/299/151 157/300/152
f 158/301/151 153/302/148 157/303/152
f 155/297/147 157/304/152 153/305/148
f 156/306/149 158/301/151 160/307/153
f 159/298/150 160/308/153 158/299/151
f 156/306/149 154/309/146 158/301/151
f 155/297/147 159/296/150 157/304/152
f 156/295/149 160/310/153 159/296/150
f 154/292/146 156/311/149 155/293/147
f 158/301/151 154/312/146 153/302/148
