# Blender v3.0.1 OBJ File: 'jetCopper.blend'
# www.blender.org
mtllib jet_copper.mtl
o fuselage_Cylinder
v 0.000000 -4.500000 -0.458422
v 0.000000 4.500000 -0.371636
v 0.089434 -4.500000 -0.449614
v 0.072503 4.500000 -0.364495
v 0.175431 -4.500000 -0.423527
v 0.142219 4.500000 -0.343347
v 0.254686 -4.500000 -0.381164
v 0.206470 4.500000 -0.309004
v 0.324154 -4.500000 -0.324154
v 0.262787 4.500000 -0.262787
v 0.381164 -4.500000 -0.254686
v 0.309004 4.500000 -0.206470
v 0.423527 -4.500000 -0.175431
v 0.343347 4.500000 -0.142219
v 0.449614 -4.500000 -0.089434
v 0.364495 4.500000 -0.072503
v 0.458422 -4.500000 0.000000
v 0.371636 4.500000 0.000000
v 0.449614 -4.500000 0.089434
v 0.364495 4.500000 0.072503
v 0.423527 -4.500000 0.175431
v 0.343347 4.500000 0.142219
v 0.381164 -4.500000 0.254686
v 0.309004 4.500000 0.206470
v 0.324154 -4.500000 0.324154
v 0.262787 4.500000 0.262787
v 0.254686 -4.500000 0.381164
v 0.206470 4.500000 0.309004
v 0.175431 -4.500000 0.423527
v 0.142219 4.500000 0.343347
v 0.089434 -4.500000 0.449614
v 0.072503 4.500000 0.364495
v -0.000000 -4.500000 0.458422
v -0.000000 4.500000 0.371636
v -0.089434 -4.500000 0.449614
v -0.072503 4.500000 0.364495
v -0.175431 -4.500000 0.423527
v -0.142219 4.500000 0.343347
v -0.254686 -4.500000 0.381164
v -0.206470 4.500000 0.309004
v -0.324154 -4.500000 0.324154
v -0.262787 4.500000 0.262787
v -0.381164 -4.500000 0.254686
v -0.309004 4.500000 0.206470
v -0.423527 -4.500000 0.175431
v -0.343347 4.500000 0.142219
v -0.449614 -4.500000 0.089434
v -0.364495 4.500000 0.072503
v -0.458422 -4.500000 0.000000
v -0.371636 4.500000 0.000000
v -0.449614 -4.500000 -0.089434
v -0.364495 4.500000 -0.072503
v -0.423527 -4.500000 -0.175431
v -0.343347 4.500000 -0.142219
v -0.381164 -4.500000 -0.254686
v -0.309004 4.500000 -0.206470
v -0.324154 -4.500000 -0.324154
v -0.262787 4.500000 -0.262786
v -0.254686 -4.500000 -0.381164
v -0.206470 4.500000 -0.309004
v -0.175431 -4.500000 -0.423527
v -0.142219 4.500000 -0.343347
v -0.089434 -4.500000 -0.449614
v -0.072503 4.500000 -0.364495
v 0.000000 -2.250000 -1.000000
v 0.000000 0.000000 -1.000000
v 0.000000 2.250000 -1.000000
v 0.195090 2.250000 -0.980785
v 0.195090 0.000000 -0.980785
v 0.195090 -2.250000 -0.980785
v 0.382683 2.250000 -0.923880
v 0.382683 0.000000 -0.923880
v 0.382683 -2.250000 -0.923880
v 0.555570 2.250000 -0.831470
v 0.555570 0.000000 -0.831470
v 0.555570 -2.250000 -0.831470
v 0.707107 2.250000 -0.707107
v 0.707107 0.000000 -0.707107
v 0.707107 -2.250000 -0.707107
v 0.831470 2.250000 -0.555570
v 0.831470 0.000000 -0.555570
v 0.831470 -2.250000 -0.555570
v 0.923880 2.250000 -0.382683
v 0.923880 0.000000 -0.382683
v 0.923880 -2.250000 -0.382683
v 0.980785 2.250000 -0.195090
v 0.980785 0.000000 -0.195090
v 0.980785 -2.250000 -0.195090
v 1.000000 2.250000 0.000000
v 1.000000 0.000000 0.000000
v 1.000000 -2.250000 0.000000
v 0.980785 2.250000 0.195090
v 0.980785 0.000000 0.195090
v 0.980785 -2.250000 0.195090
v 0.923880 2.250000 0.382683
v 0.923880 0.000000 0.382683
v 0.923880 -2.250000 0.382683
v 0.831470 2.250000 0.555570
v 0.831470 0.000000 0.555570
v 0.831470 -2.250000 0.555570
v 0.707107 2.250000 0.707107
v 0.707107 0.000000 0.707107
v 0.707107 -2.250000 0.707107
v 0.555570 2.250000 0.831470
v 0.555570 0.000000 0.831470
v 0.555570 -2.250000 0.831470
v 0.382683 2.250000 0.923880
v 0.382683 0.000000 0.923880
v 0.382683 -2.250000 0.923880
v 0.195090 2.250000 0.980785
v 0.195090 0.000000 0.980785
v 0.195090 -2.250000 0.980785
v -0.000000 2.250000 1.000000
v -0.000000 0.000000 1.000000
v -0.000000 -2.250000 1.000000
v -0.195090 2.250000 0.980785
v -0.195090 0.000000 0.980785
v -0.195090 -2.250000 0.980785
v -0.382683 2.250000 0.923880
v -0.382683 0.000000 0.923880
v -0.382683 -2.250000 0.923880
v -0.555570 2.250000 0.831470
v -0.555570 0.000000 0.831470
v -0.555570 -2.250000 0.831470
v -0.707107 2.250000 0.707107
v -0.707107 0.000000 0.707107
v -0.707107 -2.250000 0.707107
v -0.831469 2.250000 0.555570
v -0.831469 0.000000 0.555570
v -0.831469 -2.250000 0.555570
v -0.923880 2.250000 0.382684
v -0.923880 0.000000 0.382684
v -0.923880 -2.250000 0.382684
v -0.980785 2.250000 0.195090
v -0.980785 0.000000 0.195090
v -0.980785 -2.250000 0.195090
v -1.000000 2.250000 -0.000000
v -1.000000 0.000000 -0.000000
v -1.000000 -2.250000 -0.000000
v -0.980785 2.250000 -0.195090
v -0.980785 0.000000 -0.195090
v -0.980785 -2.250000 -0.195090
v -0.923879 2.250000 -0.382684
v -0.923879 0.000000 -0.382684
v -0.923879 -2.250000 -0.382684
v -0.831470 2.250000 -0.555570
v -0.831470 0.000000 -0.555570
v -0.831470 -2.250000 -0.555570
v -0.707107 2.250000 -0.707107
v -0.707107 0.000000 -0.707107
v -0.707107 -2.250000 -0.707107
v -0.555570 2.250000 -0.831470
v -0.555570 0.000000 -0.831470
v -0.555570 -2.250000 -0.831470
v -0.382683 2.250000 -0.923880
v -0.382683 0.000000 -0.923880
v -0.382683 -2.250000 -0.923880
v -0.195090 2.250000 -0.980785
v -0.195090 0.000000 -0.980785
v -0.195090 -2.250000 -0.980785
v -4.500000 -1.075612 0.100000
v -4.500000 -0.356565 0.100000
v -4.500000 -1.075612 -0.100000
v -4.500000 -0.356565 -0.100000
v 4.500000 -1.086285 0.100000
v 4.500000 -0.332342 0.100000
v 4.500000 -1.086285 -0.100000
v 4.500000 -0.332342 -0.100000
v 2.250000 -2.000000 -0.100000
v 0.000000 -2.000000 -0.100000
v -2.250000 -2.000000 -0.100000
v -2.250000 0.000000 -0.100000
v 0.000000 0.000000 -0.100000
v 2.250000 0.000000 -0.100000
v -2.250000 -2.000000 0.100000
v 0.000000 -2.000000 0.100000
v 2.250000 -2.000000 0.100000
v 2.250000 0.000000 0.100000
v 0.000000 0.000000 0.100000
v -2.250000 0.000000 0.100000
v -3.000000 2.425382 0.100000
v -3.000000 2.647225 0.100000
v -3.000000 2.425382 -0.100000
v -3.000000 2.647225 -0.100000
v 3.000000 2.463768 0.100000
v 3.000000 2.641277 0.100000
v 3.000000 2.463768 -0.100000
v 3.000000 2.641277 -0.100000
v 1.500000 1.850000 -0.100000
v 0.000000 1.850000 -0.100000
v -1.500000 1.850000 -0.100000
v -1.500000 3.150000 -0.100000
v 0.000000 3.150000 -0.100000
v 1.500000 3.150000 -0.100000
v -1.500000 1.850000 0.100000
v 0.000000 1.850000 0.100000
v 1.500000 1.850000 0.100000
v 1.500000 3.150000 0.100000
v 0.000000 3.150000 0.100000
v -1.500000 3.150000 0.100000
v -0.100000 1.850000 -0.500000
v -0.100000 3.150000 -0.500000
v -0.100000 1.850000 -1.095187
v -0.100000 3.150000 -2.038870
v 0.100000 1.850000 -0.500000
v 0.100000 3.150000 -0.500000
v 0.100000 1.850000 -1.095187
v 0.100000 3.150000 -2.038870
v -0.600000 -2.000000 -0.400000
v -0.600000 0.000000 -0.400000
v -0.600000 -1.562123 -1.379197
v -0.600000 -0.460658 -1.379197
v 0.600000 -2.000000 -0.400000
v 0.600000 0.000000 -0.400000
v 0.600000 -1.562123 -1.379197
v 0.600000 -0.460658 -1.379197
v -0.600000 -1.500000 -0.400000
v -0.600000 -1.000000 -0.400000
v -0.600000 -0.500000 -0.400000
v -0.600000 -0.500000 -1.379197
v -0.600000 -1.000000 -1.379197
v -0.600000 -1.500000 -1.379197
v 0.600000 -0.500000 -1.379197
v 0.600000 -1.000000 -1.379197
v 0.600000 -1.500000 -1.379197
v 0.600000 -0.500000 -0.400000
v 0.600000 -1.000000 -0.400000
v 0.600000 -1.500000 -0.400000
vt 0.299775 0.114715
vt 0.291596 0.138626
vt 0.291064 0.117184
vt 0.299973 0.122683
vt 0.292638 0.159092
vt 0.300360 0.130289
vt 0.294152 0.177797
vt 0.300923 0.137241
vt 0.296078 0.194022
vt 0.301639 0.143270
vt 0.298344 0.207144
vt 0.302481 0.148147
vt 0.300861 0.216657
vt 0.304409 0.153741
vt 0.303533 0.222197
vt 0.306258 0.223550
vt 0.305422 0.154244
vt 0.308930 0.220665
vt 0.307350 0.150566
vt 0.311447 0.213653
vt 0.313712 0.202782
vt 0.308192 0.146526
vt 0.315639 0.188471
vt 0.308908 0.141208
vt 0.317152 0.171270
vt 0.309471 0.134815
vt 0.318195 0.151840
vt 0.309858 0.127594
vt 0.318727 0.130926
vt 0.310056 0.111797
vt 0.318727 0.109334
vt 0.309858 0.103829
vt 0.318195 0.087893
vt 0.317152 0.067427
vt 0.308908 0.089271
vt 0.315639 0.048722
vt 0.313712 0.032497
vt 0.308192 0.083242
vt 0.311447 0.019375
vt 0.307350 0.078365
vt 0.308930 0.009862
vt 0.306415 0.074830
vt 0.306258 0.004322
vt 0.305422 0.072771
vt 0.303533 0.002969
vt 0.303416 0.073340
vt 0.300861 0.005854
vt 0.298344 0.012866
vt 0.302481 0.075946
vt 0.296078 0.023736
vt 0.300923 0.085305
vt 0.294152 0.038048
vt 0.292638 0.055249
vt 0.300360 0.091697
vt 0.291596 0.074679
vt 0.309471 0.096223
vt 0.299973 0.098918
vt 0.291064 0.095592
vt 0.267931 0.124824
vt 0.272179 0.064042
vt 0.280126 0.101780
vt 0.287407 0.088155
vt 0.280370 0.111612
vt 0.287483 0.088142
vt 0.287938 0.109601
vt 0.287560 0.088128
vt 0.288015 0.109588
vt 0.286364 0.067674
vt 0.279648 0.092391
vt 0.286440 0.067661
vt 0.286517 0.067648
vt 0.284850 0.048947
vt 0.278954 0.083806
vt 0.284927 0.048933
vt 0.285003 0.048920
vt 0.282923 0.032692
vt 0.278071 0.076355
vt 0.283000 0.032678
vt 0.283076 0.032665
vt 0.280658 0.019534
vt 0.277032 0.070323
vt 0.280734 0.019521
vt 0.280811 0.019508
vt 0.278140 0.009979
vt 0.275878 0.065943
vt 0.278217 0.009966
vt 0.278293 0.009953
vt 0.275468 0.004395
vt 0.274653 0.063383
vt 0.275544 0.004382
vt 0.275621 0.004368
vt 0.272743 0.002995
vt 0.273404 0.062741
vt 0.272819 0.002982
vt 0.272896 0.002969
vt 0.270070 0.005834
vt 0.358717 0.005090
vt 0.365648 0.002969
vt 0.365648 0.005090
vt 0.351786 0.005090
vt 0.358717 0.002969
vt 0.267553 0.012802
vt 0.271025 0.067237
vt 0.358717 0.011375
vt 0.365648 0.011375
vt 0.351786 0.011375
vt 0.265287 0.023632
vt 0.269986 0.072201
vt 0.358717 0.021580
vt 0.365648 0.021580
vt 0.351786 0.021580
vt 0.263360 0.037907
vt 0.269103 0.078746
vt 0.358717 0.035314
vt 0.365648 0.035314
vt 0.351786 0.035314
vt 0.261847 0.055079
vt 0.268409 0.086618
vt 0.358717 0.052048
vt 0.365648 0.052048
vt 0.351786 0.052048
vt 0.260804 0.074489
vt 0.267931 0.095515
vt 0.358717 0.071141
vt 0.365648 0.071141
vt 0.351786 0.071141
vt 0.260272 0.095389
vt 0.267687 0.105096
vt 0.358717 0.091858
vt 0.365648 0.091858
vt 0.351786 0.091858
vt 0.260272 0.116977
vt 0.267687 0.114993
vt 0.358717 0.113402
vt 0.365648 0.113402
vt 0.351786 0.113402
vt 0.260804 0.138423
vt 0.358717 0.134946
vt 0.365648 0.134946
vt 0.351786 0.134946
vt 0.261847 0.158904
vt 0.268409 0.134213
vt 0.358717 0.155663
vt 0.365648 0.155663
vt 0.351786 0.155663
vt 0.269103 0.142798
vt 0.358717 0.174756
vt 0.365648 0.174756
vt 0.351786 0.174756
vt 0.265287 0.193886
vt 0.269986 0.150250
vt 0.358717 0.191490
vt 0.365648 0.191490
vt 0.351786 0.191490
vt 0.267553 0.207044
vt 0.271025 0.156282
vt 0.358717 0.205224
vt 0.365648 0.205224
vt 0.351786 0.205224
vt 0.270070 0.216599
vt 0.272179 0.160662
vt 0.358717 0.215429
vt 0.365648 0.215429
vt 0.351786 0.215429
vt 0.272743 0.222183
vt 0.273404 0.163222
vt 0.358717 0.221713
vt 0.365648 0.221713
vt 0.351786 0.221713
vt 0.275468 0.223583
vt 0.274653 0.163864
vt 0.358717 0.223835
vt 0.365648 0.223835
vt 0.351786 0.223835
vt 0.278140 0.220744
vt 0.275878 0.162562
vt 0.278217 0.220731
vt 0.278293 0.220718
vt 0.275544 0.223570
vt 0.280658 0.213776
vt 0.277032 0.159368
vt 0.280734 0.213763
vt 0.280811 0.213750
vt 0.282923 0.202946
vt 0.278071 0.154403
vt 0.283000 0.202933
vt 0.283076 0.202920
vt 0.284850 0.188671
vt 0.278954 0.147859
vt 0.284927 0.188658
vt 0.285003 0.188644
vt 0.286364 0.171499
vt 0.279648 0.139987
vt 0.286440 0.171485
vt 0.286517 0.171472
vt 0.287407 0.152090
vt 0.280126 0.131089
vt 0.287483 0.152076
vt 0.287560 0.152063
vt 0.287938 0.131189
vt 0.280370 0.121508
vt 0.288015 0.131176
vt 0.288091 0.131163
vt 0.288091 0.109575
vt 0.327516 0.997031
vt 0.330295 0.996790
vt 0.327522 0.997031
vt 0.321699 0.251624
vt 0.321736 0.003162
vt 0.321767 0.251626
vt 0.321711 0.003162
vt 0.324509 0.002969
vt 0.257299 0.748394
vt 0.253986 0.996869
vt 0.251139 0.748394
vt 0.324540 0.251432
vt 0.330288 0.996790
vt 0.327513 0.748576
vt 0.330285 0.748335
vt 0.330285 0.251424
vt 0.327516 0.003210
vt 0.330288 0.002969
vt 0.330285 0.499879
vt 0.327513 0.251665
vt 0.327513 0.500120
vt 0.321767 0.748551
vt 0.324508 0.996819
vt 0.321736 0.997012
vt 0.321767 0.500089
vt 0.324540 0.748357
vt 0.324540 0.499895
vt 0.253953 0.002969
vt 0.257299 0.251444
vt 0.251139 0.251444
vt 0.251139 0.499919
vt 0.257299 0.499919
vt 0.321699 0.748549
vt 0.321699 0.500087
vt 0.348809 0.002969
vt 0.346034 0.003210
vt 0.348807 0.002969
vt 0.340245 0.168803
vt 0.340268 0.003162
vt 0.340289 0.168805
vt 0.340262 0.003162
vt 0.343040 0.002969
vt 0.337272 0.499919
vt 0.335040 0.665569
vt 0.333267 0.499919
vt 0.343061 0.168611
vt 0.346036 0.003210
vt 0.348813 0.168606
vt 0.346040 0.168847
vt 0.346040 0.500121
vt 0.348808 0.665516
vt 0.346036 0.665757
vt 0.346040 0.334484
vt 0.348813 0.499880
vt 0.348813 0.334243
vt 0.340289 0.500088
vt 0.343042 0.665535
vt 0.340269 0.665729
vt 0.340289 0.334446
vt 0.343061 0.499894
vt 0.343061 0.334252
vt 0.335158 0.002969
vt 0.337272 0.168619
vt 0.333267 0.168619
vt 0.333267 0.334269
vt 0.337272 0.334269
vt 0.340245 0.500087
vt 0.340245 0.334445
vt 0.393729 0.002969
vt 0.393728 0.035935
vt 0.393728 0.003015
vt 0.385220 0.002969
vt 0.390755 0.055719
vt 0.385219 0.055332
vt 0.390756 0.088457
vt 0.390755 0.088634
vt 0.291064 0.251574
vt 0.295069 0.229487
vt 0.295069 0.251574
vt 0.385219 0.088247
vt 0.393729 0.088085
vt 0.399264 0.003450
vt 0.399264 0.088566
vt 0.368625 0.276058
vt 0.382199 0.274878
vt 0.382199 0.274878
vt 0.368620 0.136430
vt 0.368622 0.003917
vt 0.368622 0.136430
vt 0.368620 0.003917
vt 0.382195 0.002969
vt 0.385181 0.274888
vt 0.386722 0.142368
vt 0.386722 0.274888
vt 0.368658 0.003918
vt 0.382246 0.135484
vt 0.368658 0.136431
vt 0.368620 0.143548
vt 0.382199 0.142368
vt 0.389802 0.274888
vt 0.391342 0.142368
vt 0.391342 0.274888
vt 0.388262 0.274888
vt 0.389802 0.142368
vt 0.388262 0.142368
vt 0.382229 0.002970
vt 0.382246 0.002970
vt 0.368639 0.003917
vt 0.368656 0.003917
vt 0.382212 0.002969
vt 0.368656 0.136431
vt 0.368639 0.136430
vt 0.368634 0.276058
vt 0.382209 0.274878
vt 0.368638 0.276058
vt 0.368629 0.276058
vt 0.382208 0.274878
vt 0.382204 0.274878
vt 0.303416 0.151682
vt 0.306415 0.153172
vt 0.310056 0.119822
vt 0.304409 0.072268
vt 0.301639 0.079986
vt 0.299775 0.106690
vt 0.351786 0.002969
vt 0.263360 0.177631
vt 0.275621 0.223557
vt 0.324483 0.002969
vt 0.256201 0.996869
vt 0.256276 0.002969
vt 0.321711 0.997012
vt 0.343034 0.002969
vt 0.335723 0.665569
vt 0.335705 0.002969
vt 0.340262 0.665729
vt 0.390756 0.003355
vt 0.291064 0.229487
vt 0.368620 0.276058
vt 0.382178 0.002969
vt 0.385181 0.142368
vn 0.0944 0.2678 -0.9588
vn 0.2797 0.2678 -0.9220
vn 0.4542 0.2678 -0.8497
vn 0.6112 0.2678 -0.7448
vn 0.7448 0.2678 -0.6112
vn 0.8497 0.2678 -0.4542
vn 0.9220 0.2678 -0.2797
vn 0.9588 0.2678 -0.0944
vn 0.9588 0.2678 0.0944
vn 0.9220 0.2678 0.2797
vn 0.8497 0.2678 0.4542
vn 0.7448 0.2678 0.6112
vn 0.6112 0.2678 0.7448
vn 0.4542 0.2678 0.8497
vn 0.2797 0.2678 0.9220
vn 0.0944 0.2678 0.9588
vn -0.0944 0.2678 0.9588
vn -0.2797 0.2678 0.9220
vn -0.4542 0.2678 0.8497
vn -0.6112 0.2678 0.7448
vn -0.7448 0.2678 0.6112
vn -0.8497 0.2678 0.4542
vn -0.9220 0.2678 0.2797
vn -0.9588 0.2678 0.0944
vn -0.9588 0.2678 -0.0944
vn -0.9220 0.2678 -0.2797
vn -0.8497 0.2678 -0.4542
vn -0.7448 0.2678 -0.6112
vn -0.6112 0.2678 -0.7448
vn -0.4542 0.2678 -0.8497
vn 0.0000 1.0000 0.0000
vn -0.2797 0.2678 -0.9220
vn -0.0944 0.2678 -0.9588
vn 0.0000 -1.0000 0.0000
vn -0.0953 -0.2330 -0.9678
vn -0.0980 0.0000 -0.9952
vn -0.2823 -0.2330 -0.9306
vn -0.2903 0.0000 -0.9569
vn -0.4584 -0.2330 -0.8577
vn -0.4714 0.0000 -0.8819
vn -0.6169 -0.2330 -0.7517
vn -0.6344 0.0000 -0.7730
vn -0.7517 -0.2330 -0.6169
vn -0.7730 0.0000 -0.6344
vn -0.8577 -0.2330 -0.4584
vn -0.8819 0.0000 -0.4714
vn -0.9306 -0.2330 -0.2823
vn -0.9569 0.0000 -0.2903
vn -0.9678 -0.2330 -0.0953
vn -0.9952 0.0000 -0.0980
vn -0.9678 -0.2330 0.0953
vn -0.9952 0.0000 0.0980
vn -0.9306 -0.2330 0.2823
vn -0.9569 0.0000 0.2903
vn -0.8577 -0.2330 0.4584
vn -0.8819 0.0000 0.4714
vn -0.7517 -0.2330 0.6169
vn -0.7730 0.0000 0.6344
vn -0.6169 -0.2330 0.7517
vn -0.6344 0.0000 0.7730
vn -0.4584 -0.2330 0.8577
vn -0.4714 0.0000 0.8819
vn -0.2823 -0.2330 0.9306
vn -0.2903 0.0000 0.9569
vn -0.0953 -0.2330 0.9678
vn -0.0980 0.0000 0.9952
vn 0.0953 -0.2330 0.9678
vn 0.0980 0.0000 0.9952
vn 0.2823 -0.2330 0.9306
vn 0.2903 0.0000 0.9569
vn 0.4584 -0.2330 0.8577
vn 0.4714 0.0000 0.8819
vn 0.6169 -0.2330 0.7517
vn 0.6344 0.0000 0.7730
vn 0.7517 -0.2330 0.6169
vn 0.7730 0.0000 0.6344
vn 0.8577 -0.2330 0.4584
vn 0.8819 0.0000 0.4714
vn 0.9306 -0.2330 0.2823
vn 0.9569 0.0000 0.2903
vn 0.9678 -0.2330 0.0953
vn 0.9952 0.0000 0.0980
vn 0.9678 -0.2330 -0.0953
vn 0.9952 0.0000 -0.0980
vn 0.9306 -0.2330 -0.2823
vn 0.9569 0.0000 -0.2903
vn 0.8577 -0.2330 -0.4584
vn 0.8819 0.0000 -0.4714
vn 0.7517 -0.2330 -0.6169
vn 0.7730 0.0000 -0.6344
vn 0.6169 -0.2330 -0.7517
vn 0.6344 0.0000 -0.7730
vn 0.4584 -0.2330 -0.8577
vn 0.4714 0.0000 -0.8819
vn 0.2823 -0.2330 -0.9306
vn 0.2903 0.0000 -0.9569
vn 0.0953 -0.2330 -0.9678
vn 0.0980 0.0000 -0.9952
vn -1.0000 0.0000 0.0000
vn 0.0000 0.0000 -1.0000
vn 1.0000 0.0000 0.0000
vn 0.0000 0.0000 1.0000
vn 0.3763 -0.9265 0.0000
vn -0.1565 0.9877 0.0000
vn 0.1461 0.9893 0.0000
vn -0.3800 -0.9250 0.0000
vn 0.3787 -0.9255 0.0000
vn -0.3178 0.9482 0.0000
vn 0.3212 0.9470 0.0000
vn -0.3581 -0.9337 0.0000
vn 0.0000 -0.5874 -0.8093
vn 0.0000 -0.9129 -0.4082
vn 0.0000 0.9049 -0.4257
vn 0.0000 1.0000 0.0001
vn 0.0000 1.0000 -0.0001
usemtl BakedMaterial
s off
f 2/1/1 68/2/1 67/3/1
f 4/4/2 71/5/2 68/2/2
f 6/6/3 74/7/3 71/5/3
f 8/8/4 77/9/4 74/7/4
f 10/10/5 80/11/5 77/9/5
f 12/12/6 83/13/6 80/11/6
f 83/13/7 16/14/7 86/15/7
f 16/14/8 89/16/8 86/15/8
f 18/17/9 92/18/9 89/16/9
f 92/18/10 22/19/10 95/20/10
f 22/19/11 98/21/11 95/20/11
f 24/22/12 101/23/12 98/21/12
f 26/24/13 104/25/13 101/23/13
f 28/26/14 107/27/14 104/25/14
f 30/28/15 110/29/15 107/27/15
f 110/29/16 34/30/16 113/31/16
f 113/31/17 36/32/17 116/33/17
f 36/32/18 119/34/18 116/33/18
f 119/34/19 40/35/19 122/36/19
f 40/35/20 125/37/20 122/36/20
f 42/38/21 128/39/21 125/37/21
f 44/40/22 131/41/22 128/39/22
f 46/42/23 134/43/23 131/41/23
f 48/44/24 137/45/24 134/43/24
f 137/45/25 52/46/25 140/47/25
f 52/46/26 143/48/26 140/47/26
f 54/49/27 146/50/27 143/48/27
f 146/50/28 58/51/28 149/52/28
f 58/51/29 152/53/29 149/52/29
f 60/54/30 155/55/30 152/53/30
f 6/6/31 54/49/31 38/56/31
f 62/57/32 158/58/32 155/55/32
f 158/58/33 2/1/33 67/3/33
f 31/59/34 47/60/34 63/61/34
f 160/62/35 1/63/35 63/61/35
f 159/64/36 65/65/36 160/62/36
f 158/66/36 66/67/36 159/64/36
f 157/68/37 63/61/37 61/69/37
f 156/70/38 160/62/38 157/68/38
f 155/71/38 159/64/38 156/70/38
f 154/72/39 61/69/39 59/73/39
f 153/74/40 157/68/40 154/72/40
f 152/75/40 156/70/40 153/74/40
f 151/76/41 59/73/41 57/77/41
f 150/78/42 154/72/42 151/76/42
f 149/79/42 153/74/42 150/78/42
f 148/80/43 57/77/43 55/81/43
f 147/82/44 151/76/44 148/80/44
f 146/83/44 150/78/44 147/82/44
f 145/84/45 55/81/45 53/85/45
f 144/86/46 148/80/46 145/84/46
f 143/87/46 147/82/46 144/86/46
f 142/88/47 53/85/47 51/89/47
f 141/90/48 145/84/48 142/88/48
f 140/91/48 144/86/48 141/90/48
f 139/92/49 51/89/49 49/93/49
f 138/94/50 142/88/50 139/92/50
f 137/95/50 141/90/50 138/94/50
f 136/96/51 49/93/51 47/60/51
f 135/97/52 139/98/52 136/99/52
f 134/100/52 138/101/52 135/97/52
f 133/102/53 47/60/53 45/103/53
f 132/104/54 136/99/54 133/105/54
f 131/106/54 135/97/54 132/104/54
f 130/107/55 45/103/55 43/108/55
f 129/109/56 133/105/56 130/110/56
f 128/111/56 132/104/56 129/109/56
f 127/112/57 43/108/57 41/113/57
f 126/114/58 130/110/58 127/115/58
f 125/116/58 129/109/58 126/114/58
f 124/117/59 41/113/59 39/118/59
f 123/119/60 127/115/60 124/120/60
f 122/121/60 126/114/60 123/119/60
f 121/122/61 39/118/61 37/123/61
f 120/124/62 124/120/62 121/125/62
f 119/126/62 123/119/62 120/124/62
f 118/127/63 37/123/63 35/128/63
f 117/129/64 121/125/64 118/130/64
f 116/131/64 120/124/64 117/129/64
f 115/132/65 35/128/65 33/133/65
f 114/134/66 118/130/66 115/135/66
f 113/136/66 117/129/66 114/134/66
f 112/137/67 33/133/67 31/59/67
f 111/138/68 115/135/68 112/139/68
f 110/140/68 114/134/68 111/138/68
f 109/141/69 31/59/69 29/142/69
f 108/143/70 112/139/70 109/144/70
f 107/145/70 111/138/70 108/143/70
f 27/146/71 109/141/71 29/142/71
f 105/147/72 109/144/72 106/148/72
f 104/149/72 108/143/72 105/147/72
f 103/150/73 27/146/73 25/151/73
f 102/152/74 106/148/74 103/153/74
f 101/154/74 105/147/74 102/152/74
f 100/155/75 25/151/75 23/156/75
f 99/157/76 103/153/76 100/158/76
f 98/159/76 102/152/76 99/157/76
f 97/160/77 23/156/77 21/161/77
f 96/162/78 100/158/78 97/163/78
f 95/164/78 99/157/78 96/162/78
f 94/165/79 21/161/79 19/166/79
f 93/167/80 97/163/80 94/168/80
f 92/169/80 96/162/80 93/167/80
f 91/170/81 19/166/81 17/171/81
f 90/172/82 94/168/82 91/173/82
f 89/174/82 93/167/82 90/172/82
f 88/175/83 17/171/83 15/176/83
f 87/177/84 91/170/84 88/175/84
f 86/178/84 90/179/84 87/177/84
f 85/180/85 15/176/85 13/181/85
f 84/182/86 88/175/86 85/180/86
f 83/183/86 87/177/86 84/182/86
f 82/184/87 13/181/87 11/185/87
f 81/186/88 85/180/88 82/184/88
f 80/187/88 84/182/88 81/186/88
f 79/188/89 11/185/89 9/189/89
f 78/190/90 82/184/90 79/188/90
f 77/191/90 81/186/90 78/190/90
f 76/192/91 9/189/91 7/193/91
f 75/194/92 79/188/92 76/192/92
f 74/195/92 78/190/92 75/194/92
f 73/196/93 7/193/93 5/197/93
f 72/198/94 76/192/94 73/196/94
f 71/199/94 75/194/94 72/198/94
f 70/200/95 5/197/95 3/201/95
f 69/202/96 73/196/96 70/200/96
f 68/203/96 72/198/96 69/202/96
f 65/65/97 3/201/97 1/63/97
f 66/67/98 70/200/98 65/65/98
f 67/204/98 69/202/98 66/67/98
f 162/205/99 163/206/99 161/207/99
f 174/208/100 167/209/100 169/210/100
f 168/211/101 165/212/101 167/209/101
f 180/213/102 161/214/102 175/215/102
f 167/209/103 177/216/103 169/210/103
f 164/217/104 180/218/104 172/219/104
f 174/220/105 166/221/105 168/222/105
f 173/223/31 178/224/31 174/220/31
f 172/219/31 179/225/31 173/223/31
f 171/226/106 161/227/106 163/228/106
f 170/229/34 175/230/34 171/226/34
f 169/210/34 176/231/34 170/229/34
f 165/232/102 178/233/102 177/234/102
f 178/233/102 176/235/102 177/234/102
f 179/236/102 175/215/102 176/235/102
f 163/228/100 172/237/100 171/226/100
f 172/237/100 170/229/100 171/226/100
f 173/238/100 169/210/100 170/229/100
f 182/239/99 183/240/99 181/241/99
f 194/242/100 187/243/100 189/244/100
f 188/245/101 185/246/101 187/243/101
f 200/247/102 181/248/102 195/249/102
f 187/243/107 197/250/107 189/244/107
f 184/251/108 200/252/108 192/253/108
f 194/254/109 186/255/109 188/256/109
f 193/257/31 198/258/31 194/254/31
f 192/253/31 199/259/31 193/257/31
f 191/260/110 181/261/110 183/262/110
f 190/263/34 195/264/34 191/260/34
f 189/244/34 196/265/34 190/263/34
f 185/266/102 198/267/102 197/268/102
f 198/267/102 196/269/102 197/268/102
f 199/270/102 195/249/102 196/269/102
f 183/262/100 192/271/100 191/260/100
f 192/271/100 190/263/100 191/260/100
f 193/272/100 189/244/100 190/263/100
f 202/273/99 203/274/99 201/275/99
f 204/276/111 207/277/111 203/278/111
f 207/277/101 206/279/101 205/280/101
f 206/281/102 201/282/102 205/283/102
f 207/277/34 201/284/34 203/278/34
f 204/285/31 206/286/31 208/287/31
f 219/288/99 212/289/99 220/290/99
f 212/291/100 223/292/100 220/293/100
f 216/294/101 226/295/101 223/292/101
f 214/296/102 219/297/102 226/298/102
f 215/299/112 209/300/112 211/301/112
f 212/289/113 214/302/113 216/303/113
f 228/304/102 209/305/102 213/306/102
f 227/307/102 217/308/102 228/304/102
f 226/298/102 218/309/102 227/307/102
f 215/299/101 228/310/101 213/311/101
f 224/312/101 228/310/101 225/313/101
f 223/292/101 227/314/101 224/312/101
f 222/315/100 215/299/100 211/301/100
f 221/316/100 225/313/100 222/315/100
f 220/293/100 224/312/100 221/316/100
f 217/317/99 211/318/99 209/319/99
f 218/320/99 222/321/99 217/317/99
f 219/288/99 221/322/99 218/320/99
f 2/1/1 4/4/1 68/2/1
f 4/4/2 6/6/2 71/5/2
f 6/6/3 8/8/3 74/7/3
f 8/8/4 10/10/4 77/9/4
f 10/10/5 12/12/5 80/11/5
f 12/12/6 14/323/6 83/13/6
f 83/13/7 14/323/7 16/14/7
f 16/14/8 18/17/8 89/16/8
f 18/17/9 20/324/9 92/18/9
f 92/18/10 20/324/10 22/19/10
f 22/19/11 24/22/11 98/21/11
f 24/22/12 26/24/12 101/23/12
f 26/24/13 28/26/13 104/25/13
f 28/26/14 30/28/14 107/27/14
f 30/28/15 32/325/15 110/29/15
f 110/29/16 32/325/16 34/30/16
f 113/31/17 34/30/17 36/32/17
f 36/32/18 38/56/18 119/34/18
f 119/34/19 38/56/19 40/35/19
f 40/35/20 42/38/20 125/37/20
f 42/38/21 44/40/21 128/39/21
f 44/40/22 46/42/22 131/41/22
f 46/42/23 48/44/23 134/43/23
f 48/44/24 50/326/24 137/45/24
f 137/45/25 50/326/25 52/46/25
f 52/46/26 54/49/26 143/48/26
f 54/49/27 56/327/27 146/50/27
f 146/50/28 56/327/28 58/51/28
f 58/51/29 60/54/29 152/53/29
f 60/54/30 62/57/30 155/55/30
f 6/6/114 4/4/114 2/1/114
f 2/1/115 64/328/115 62/57/115
f 62/57/31 60/54/31 54/49/31
f 60/54/31 58/51/31 54/49/31
f 58/51/31 56/327/31 54/49/31
f 54/49/31 52/46/31 50/326/31
f 50/326/31 48/44/31 54/49/31
f 48/44/31 46/42/31 54/49/31
f 46/42/31 44/40/31 38/56/31
f 44/40/31 42/38/31 38/56/31
f 42/38/115 40/35/115 38/56/115
f 38/56/115 36/32/115 34/30/115
f 34/30/31 32/325/31 38/56/31
f 32/325/31 30/28/31 38/56/31
f 30/28/31 28/26/31 26/24/31
f 26/24/31 24/22/31 30/28/31
f 24/22/31 22/19/31 30/28/31
f 22/19/31 20/324/31 14/323/31
f 20/324/31 18/17/31 14/323/31
f 18/17/31 16/14/31 14/323/31
f 14/323/31 12/12/31 10/10/31
f 10/10/31 8/8/31 14/323/31
f 8/8/31 6/6/31 14/323/31
f 6/6/31 2/1/31 54/49/31
f 2/1/31 62/57/31 54/49/31
f 54/49/31 46/42/31 38/56/31
f 38/56/31 30/28/31 22/19/31
f 22/19/31 14/323/31 38/56/31
f 14/323/31 6/6/31 38/56/31
f 62/57/32 64/328/32 158/58/32
f 158/58/33 64/328/33 2/1/33
f 63/61/34 1/63/34 3/201/34
f 3/201/34 5/197/34 7/193/34
f 7/193/34 9/189/34 15/176/34
f 9/189/34 11/185/34 15/176/34
f 11/185/34 13/181/34 15/176/34
f 15/176/34 17/171/34 23/156/34
f 17/171/34 19/166/34 23/156/34
f 19/166/34 21/161/34 23/156/34
f 23/156/34 25/151/34 27/146/34
f 27/146/34 29/142/34 23/156/34
f 29/142/34 31/59/34 23/156/34
f 31/59/34 33/133/34 35/128/34
f 35/128/34 37/123/34 31/59/34
f 37/123/34 39/118/34 31/59/34
f 39/118/34 41/113/34 47/60/34
f 41/113/34 43/108/34 47/60/34
f 43/108/34 45/103/34 47/60/34
f 47/60/34 49/93/34 55/81/34
f 49/93/34 51/89/34 55/81/34
f 51/89/34 53/85/34 55/81/34
f 55/81/34 57/77/34 59/73/34
f 59/73/34 61/69/34 55/81/34
f 61/69/34 63/61/34 55/81/34
f 63/61/34 3/201/34 15/176/34
f 3/201/34 7/193/34 15/176/34
f 15/176/34 23/156/34 63/61/34
f 23/156/34 31/59/34 63/61/34
f 31/59/34 39/118/34 47/60/34
f 47/60/34 55/81/34 63/61/34
f 160/62/35 65/65/35 1/63/35
f 159/64/36 66/67/36 65/65/36
f 158/66/36 67/204/36 66/67/36
f 157/68/37 160/62/37 63/61/37
f 156/70/38 159/64/38 160/62/38
f 155/71/38 158/66/38 159/64/38
f 154/72/39 157/68/39 61/69/39
f 153/74/40 156/70/40 157/68/40
f 152/75/40 155/71/40 156/70/40
f 151/76/41 154/72/41 59/73/41
f 150/78/42 153/74/42 154/72/42
f 149/79/42 152/75/42 153/74/42
f 148/80/43 151/76/43 57/77/43
f 147/82/44 150/78/44 151/76/44
f 146/83/44 149/79/44 150/78/44
f 145/84/45 148/80/45 55/81/45
f 144/86/46 147/82/46 148/80/46
f 143/87/46 146/83/46 147/82/46
f 142/88/47 145/84/47 53/85/47
f 141/90/48 144/86/48 145/84/48
f 140/91/48 143/87/48 144/86/48
f 139/92/49 142/88/49 51/89/49
f 138/94/50 141/90/50 142/88/50
f 137/95/50 140/91/50 141/90/50
f 136/96/51 139/92/51 49/93/51
f 135/97/52 138/101/52 139/98/52
f 134/100/52 137/329/52 138/101/52
f 133/102/53 136/96/53 47/60/53
f 132/104/54 135/97/54 136/99/54
f 131/106/54 134/100/54 135/97/54
f 130/107/55 133/102/55 45/103/55
f 129/109/56 132/104/56 133/105/56
f 128/111/56 131/106/56 132/104/56
f 127/112/57 130/107/57 43/108/57
f 126/114/58 129/109/58 130/110/58
f 125/116/58 128/111/58 129/109/58
f 124/117/59 127/112/59 41/113/59
f 123/119/60 126/114/60 127/115/60
f 122/121/60 125/116/60 126/114/60
f 121/122/61 124/117/61 39/118/61
f 120/124/62 123/119/62 124/120/62
f 119/126/62 122/121/62 123/119/62
f 118/127/63 121/122/63 37/123/63
f 117/129/64 120/124/64 121/125/64
f 116/131/64 119/126/64 120/124/64
f 115/132/65 118/127/65 35/128/65
f 114/134/66 117/129/66 118/130/66
f 113/136/66 116/131/66 117/129/66
f 112/137/67 115/132/67 33/133/67
f 111/138/68 114/134/68 115/135/68
f 110/140/68 113/136/68 114/134/68
f 109/141/69 112/137/69 31/59/69
f 108/143/70 111/138/70 112/139/70
f 107/145/70 110/140/70 111/138/70
f 27/146/71 106/330/71 109/141/71
f 105/147/72 108/143/72 109/144/72
f 104/149/72 107/145/72 108/143/72
f 103/150/73 106/330/73 27/146/73
f 102/152/74 105/147/74 106/148/74
f 101/154/74 104/149/74 105/147/74
f 100/155/75 103/150/75 25/151/75
f 99/157/76 102/152/76 103/153/76
f 98/159/76 101/154/76 102/152/76
f 97/160/77 100/155/77 23/156/77
f 96/162/78 99/157/78 100/158/78
f 95/164/78 98/159/78 99/157/78
f 94/165/79 97/160/79 21/161/79
f 93/167/80 96/162/80 97/163/80
f 92/169/80 95/164/80 96/162/80
f 91/170/81 94/165/81 19/166/81
f 90/172/82 93/167/82 94/168/82
f 89/174/82 92/169/82 93/167/82
f 88/175/83 91/170/83 17/171/83
f 87/177/84 90/179/84 91/170/84
f 86/178/84 89/331/84 90/179/84
f 85/180/85 88/175/85 15/176/85
f 84/182/86 87/177/86 88/175/86
f 83/183/86 86/178/86 87/177/86
f 82/184/87 85/180/87 13/181/87
f 81/186/88 84/182/88 85/180/88
f 80/187/88 83/183/88 84/182/88
f 79/188/89 82/184/89 11/185/89
f 78/190/90 81/186/90 82/184/90
f 77/191/90 80/187/90 81/186/90
f 76/192/91 79/188/91 9/189/91
f 75/194/92 78/190/92 79/188/92
f 74/195/92 77/191/92 78/190/92
f 73/196/93 76/192/93 7/193/93
f 72/198/94 75/194/94 76/192/94
f 71/199/94 74/195/94 75/194/94
f 70/200/95 73/196/95 5/197/95
f 69/202/96 72/198/96 73/196/96
f 68/203/96 71/199/96 72/198/96
f 65/65/97 70/200/97 3/201/97
f 66/67/98 69/202/98 70/200/98
f 67/204/98 68/203/98 69/202/98
f 162/205/99 164/217/99 163/206/99
f 174/208/100 168/211/100 167/209/100
f 168/211/101 166/332/101 165/212/101
f 180/213/102 162/333/102 161/214/102
f 167/209/103 165/212/103 177/216/103
f 164/217/104 162/205/104 180/218/104
f 174/220/105 178/224/105 166/221/105
f 173/223/31 179/225/31 178/224/31
f 172/219/31 180/218/31 179/225/31
f 171/226/106 175/230/106 161/227/106
f 170/229/34 176/231/34 175/230/34
f 169/210/34 177/216/34 176/231/34
f 165/232/102 166/334/102 178/233/102
f 178/233/102 179/236/102 176/235/102
f 179/236/102 180/213/102 175/215/102
f 163/228/100 164/335/100 172/237/100
f 172/237/100 173/238/100 170/229/100
f 173/238/100 174/208/100 169/210/100
f 182/239/99 184/251/99 183/240/99
f 194/242/100 188/245/100 187/243/100
f 188/245/101 186/336/101 185/246/101
f 200/247/102 182/337/102 181/248/102
f 187/243/107 185/246/107 197/250/107
f 184/251/108 182/239/108 200/252/108
f 194/254/109 198/258/109 186/255/109
f 193/257/31 199/259/31 198/258/31
f 192/253/31 200/252/31 199/259/31
f 191/260/110 195/264/110 181/261/110
f 190/263/34 196/265/34 195/264/34
f 189/244/34 197/250/34 196/265/34
f 185/266/102 186/338/102 198/267/102
f 198/267/102 199/270/102 196/269/102
f 199/270/102 200/247/102 195/249/102
f 183/262/100 184/339/100 192/271/100
f 192/271/100 193/272/100 190/263/100
f 193/272/100 194/242/100 189/244/100
f 202/273/99 204/285/99 203/274/99
f 204/276/111 208/340/111 207/277/111
f 207/277/101 208/340/101 206/279/101
f 206/281/102 202/341/102 201/282/102
f 207/277/34 205/280/34 201/284/34
f 204/285/31 202/273/31 206/286/31
f 219/288/99 210/342/99 212/289/99
f 212/291/100 216/294/100 223/292/100
f 216/294/101 214/343/101 226/295/101
f 214/296/102 210/344/102 219/297/102
f 215/299/112 213/311/112 209/300/112
f 212/289/113 210/342/113 214/302/113
f 228/304/102 217/308/102 209/305/102
f 227/307/102 218/309/102 217/308/102
f 226/298/102 219/297/102 218/309/102
f 215/299/101 225/313/101 228/310/101
f 224/312/101 227/314/101 228/310/101
f 223/292/101 226/295/101 227/314/101
f 222/315/100 225/313/100 215/299/100
f 221/316/100 224/312/100 225/313/100
f 220/293/100 223/292/100 224/312/100
f 217/317/99 222/321/99 211/318/99
f 218/320/99 221/322/99 222/321/99
f 219/288/99 220/290/99 221/322/99
