# Blender v3.0.1 OBJ File: 'jetBlue.blend'
# www.blender.org
mtllib jetblue.mtl
o fuselage_Cylinder
v 0.000000 -4.500000 -0.447345
v 0.000000 4.500000 -0.585235
v 0.087273 -4.500000 -0.438750
v 0.114174 4.500000 -0.573990
v 0.171192 -4.500000 -0.413293
v 0.223960 4.500000 -0.540687
v 0.248532 -4.500000 -0.371954
v 0.325139 4.500000 -0.486605
v 0.316321 -4.500000 -0.316321
v 0.413824 4.500000 -0.413824
v 0.371954 -4.500000 -0.248532
v 0.486605 4.500000 -0.325139
v 0.413293 -4.500000 -0.171192
v 0.540687 4.500000 -0.223960
v 0.438750 -4.500000 -0.087273
v 0.573990 4.500000 -0.114174
v 0.447345 -4.500000 0.000000
v 0.585235 4.500000 0.000000
v 0.438750 -4.500000 0.087273
v 0.573990 4.500000 0.114174
v 0.413293 -4.500000 0.171192
v 0.540687 4.500000 0.223960
v 0.371954 -4.500000 0.248532
v 0.486605 4.500000 0.325139
v 0.316321 -4.500000 0.316321
v 0.413824 4.500000 0.413824
v 0.248532 -4.500000 0.371954
v 0.325139 4.500000 0.486606
v 0.171192 -4.500000 0.413293
v 0.223960 4.500000 0.540687
v 0.087273 -4.500000 0.438750
v 0.114174 4.500000 0.573990
v -0.000000 -4.500000 0.447345
v -0.000000 4.500000 0.585235
v -0.087273 -4.500000 0.438750
v -0.114174 4.500000 0.573990
v -0.171192 -4.500000 0.413293
v -0.223960 4.500000 0.540687
v -0.248532 -4.500000 0.371954
v -0.325139 4.500000 0.486605
v -0.316321 -4.500000 0.316321
v -0.413824 4.500000 0.413824
v -0.371954 -4.500000 0.248532
v -0.486605 4.500000 0.325140
v -0.413293 -4.500000 0.171192
v -0.540687 4.500000 0.223960
v -0.438750 -4.500000 0.087273
v -0.573990 4.500000 0.114174
v -0.447345 -4.500000 0.000000
v -0.585235 4.500000 0.000000
v -0.438750 -4.500000 -0.087273
v -0.573990 4.500000 -0.114174
v -0.413293 -4.500000 -0.171192
v -0.540687 4.500000 -0.223960
v -0.371954 -4.500000 -0.248532
v -0.486606 4.500000 -0.325139
v -0.316321 -4.500000 -0.316321
v -0.413824 4.500000 -0.413824
v -0.248532 -4.500000 -0.371954
v -0.325139 4.500000 -0.486605
v -0.171192 -4.500000 -0.413293
v -0.223960 4.500000 -0.540687
v -0.087273 -4.500000 -0.438750
v -0.114174 4.500000 -0.573990
v 0.000000 -1.719827 -1.000000
v 0.000000 1.280172 -1.000000
v 0.195090 1.280172 -0.980785
v 0.195090 -1.719827 -0.980785
v 0.382683 1.280172 -0.923880
v 0.382683 -1.719827 -0.923880
v 0.555570 1.280172 -0.831470
v 0.555570 -1.719827 -0.831470
v 0.707107 1.280172 -0.707107
v 0.707107 -1.719827 -0.707107
v 0.831470 1.280172 -0.555570
v 0.831470 -1.719827 -0.555570
v 0.923880 1.280172 -0.382683
v 0.923880 -1.719827 -0.382683
v 0.980785 1.280172 -0.195090
v 0.980785 -1.719827 -0.195090
v 1.000000 1.280172 0.000000
v 1.000000 -1.719827 0.000000
v 0.980785 1.280172 0.195090
v 0.980785 -1.719827 0.195090
v 0.923880 1.280172 0.382683
v 0.923880 -1.719827 0.382683
v 0.831470 1.280172 0.555570
v 0.831470 -1.719827 0.555570
v 0.707107 1.280172 0.707107
v 0.707107 -1.719827 0.707107
v 0.555570 1.280172 0.831470
v 0.555570 -1.719827 0.831470
v 0.382683 1.280172 0.923880
v 0.382683 -1.719827 0.923880
v 0.195090 1.280172 0.980785
v 0.195090 -1.719827 0.980785
v -0.000000 1.280172 1.000000
v -0.000000 -1.719827 1.000000
v -0.195090 1.280172 0.980785
v -0.195090 -1.719827 0.980785
v -0.382683 1.280172 0.923880
v -0.382683 -1.719827 0.923880
v -0.555570 1.280172 0.831470
v -0.555570 -1.719827 0.831470
v -0.707107 1.280172 0.707107
v -0.707107 -1.719827 0.707107
v -0.831469 1.280172 0.555570
v -0.831469 -1.719827 0.555570
v -0.923880 1.280172 0.382684
v -0.923880 -1.719827 0.382684
v -0.980785 1.280172 0.195090
v -0.980785 -1.719827 0.195090
v -1.000000 1.280172 -0.000000
v -1.000000 -1.719827 -0.000000
v -0.980785 1.280172 -0.195090
v -0.980785 -1.719827 -0.195090
v -0.923879 1.280172 -0.382684
v -0.923879 -1.719827 -0.382684
v -0.831470 1.280172 -0.555570
v -0.831470 -1.719827 -0.555570
v -0.707107 1.280172 -0.707107
v -0.707107 -1.719827 -0.707107
v -0.555570 1.280172 -0.831470
v -0.555570 -1.719827 -0.831470
v -0.382683 1.280172 -0.923880
v -0.382683 -1.719827 -0.923880
v -0.195090 1.280172 -0.980785
v -0.195090 -1.719827 -0.980785
vt 1.000000 1.000000
vt 0.968750 0.821121
vt 1.000000 0.821121
vt 0.968750 1.000000
vt 0.937500 0.821121
vt 0.937500 1.000000
vt 0.906250 0.821121
vt 0.906250 1.000000
vt 0.875000 0.821121
vt 0.875000 1.000000
vt 0.843750 0.821121
vt 0.843750 1.000000
vt 0.812500 0.821121
vt 0.812500 1.000000
vt 0.781250 0.821121
vt 0.781250 1.000000
vt 0.750000 0.821121
vt 0.750000 1.000000
vt 0.718750 0.821121
vt 0.718750 1.000000
vt 0.687500 0.821121
vt 0.687500 1.000000
vt 0.656250 0.821121
vt 0.656250 1.000000
vt 0.625000 0.821121
vt 0.625000 1.000000
vt 0.593750 0.821121
vt 0.593750 1.000000
vt 0.562500 0.821121
vt 0.562500 1.000000
vt 0.531250 0.821121
vt 0.531250 1.000000
vt 0.500000 0.821121
vt 0.500000 1.000000
vt 0.468750 0.821121
vt 0.468750 1.000000
vt 0.437500 0.821121
vt 0.437500 1.000000
vt 0.406250 0.821121
vt 0.406250 1.000000
vt 0.375000 0.821121
vt 0.343750 1.000000
vt 0.343750 0.821121
vt 0.312500 0.821121
vt 0.281250 1.000000
vt 0.281250 0.821121
vt 0.250000 0.821121
vt 0.250000 1.000000
vt 0.218750 0.821121
vt 0.218750 1.000000
vt 0.187500 0.821121
vt 0.187500 1.000000
vt 0.156250 0.821121
vt 0.125000 1.000000
vt 0.125000 0.821121
vt 0.093750 0.821121
vt 0.093750 1.000000
vt 0.062500 0.821121
vt 0.341844 0.471731
vt 0.028269 0.341844
vt 0.158156 0.028269
vt 0.062500 1.000000
vt 0.031250 0.821121
vt 0.031250 1.000000
vt 0.000000 0.821121
vt 0.796822 0.014612
vt 0.514612 0.203178
vt 0.703178 0.485388
vt 0.031250 0.500000
vt 0.000000 0.654454
vt 0.000000 0.500000
vt 0.031250 0.654454
vt 0.062500 0.654454
vt 0.062500 0.500000
vt 0.093750 0.654454
vt 0.093750 0.500000
vt 0.125000 0.654454
vt 0.125000 0.500000
vt 0.156250 0.654454
vt 0.156250 0.500000
vt 0.187500 0.654454
vt 0.187500 0.500000
vt 0.218750 0.654454
vt 0.218750 0.500000
vt 0.250000 0.654454
vt 0.250000 0.500000
vt 0.281250 0.500000
vt 0.281250 0.654454
vt 0.312500 0.500000
vt 0.312500 0.654454
vt 0.343750 0.500000
vt 0.343750 0.654454
vt 0.375000 0.500000
vt 0.375000 0.654454
vt 0.406250 0.500000
vt 0.406250 0.654454
vt 0.437500 0.500000
vt 0.437500 0.654454
vt 0.468750 0.500000
vt 0.468750 0.654454
vt 0.500000 0.654454
vt 0.500000 0.500000
vt 0.531250 0.654454
vt 0.531250 0.500000
vt 0.562500 0.654454
vt 0.562500 0.500000
vt 0.593750 0.654454
vt 0.593750 0.500000
vt 0.625000 0.654454
vt 0.625000 0.500000
vt 0.656250 0.654454
vt 0.656250 0.500000
vt 0.687500 0.654454
vt 0.687500 0.500000
vt 0.718750 0.654454
vt 0.718750 0.500000
vt 0.750000 0.654454
vt 0.750000 0.500000
vt 0.781250 0.654454
vt 0.781250 0.500000
vt 0.812500 0.654454
vt 0.812500 0.500000
vt 0.843750 0.654454
vt 0.843750 0.500000
vt 0.875000 0.654454
vt 0.875000 0.500000
vt 0.906250 0.654454
vt 0.906250 0.500000
vt 0.937500 0.654454
vt 0.937500 0.500000
vt 0.968750 0.654454
vt 0.968750 0.500000
vt 1.000000 0.654454
vt 1.000000 0.500000
vt 0.296822 0.485388
vt 0.250000 0.490000
vt 0.203178 0.485388
vt 0.158156 0.471731
vt 0.116663 0.449553
vt 0.080294 0.419706
vt 0.050447 0.383337
vt 0.014612 0.296822
vt 0.010000 0.250000
vt 0.014612 0.203178
vt 0.028269 0.158156
vt 0.050447 0.116663
vt 0.080294 0.080294
vt 0.116663 0.050447
vt 0.203178 0.014612
vt 0.341844 0.028269
vt 0.250000 0.010000
vt 0.296822 0.014612
vt 0.383337 0.050447
vt 0.419706 0.080294
vt 0.449553 0.116663
vt 0.471731 0.158156
vt 0.485388 0.203178
vt 0.490000 0.250000
vt 0.485388 0.296822
vt 0.471731 0.341844
vt 0.449553 0.383337
vt 0.419706 0.419706
vt 0.383337 0.449553
vt 0.750000 0.490000
vt 0.796822 0.485388
vt 0.841844 0.471731
vt 0.883337 0.449553
vt 0.919706 0.419706
vt 0.949553 0.383337
vt 0.971731 0.341844
vt 0.985388 0.296822
vt 0.990000 0.250000
vt 0.985388 0.203178
vt 0.971731 0.158156
vt 0.949553 0.116663
vt 0.919706 0.080294
vt 0.883337 0.050447
vt 0.841844 0.028269
vt 0.750000 0.010000
vt 0.703178 0.014612
vt 0.658156 0.028269
vt 0.616663 0.050447
vt 0.580294 0.080294
vt 0.550447 0.116663
vt 0.528269 0.158156
vt 0.510000 0.250000
vt 0.514612 0.296822
vt 0.528269 0.341844
vt 0.550447 0.383337
vt 0.580294 0.419706
vt 0.616663 0.449553
vt 0.658156 0.471731
vt 0.375000 1.000000
vt 0.312500 1.000000
vt 0.156250 1.000000
vt 0.000000 1.000000
vn 0.0000 0.7309 -0.6824
vn 0.1947 0.0638 -0.9788
vn 0.0000 0.0638 -0.9980
vn 0.1331 0.7309 -0.6693
vn 0.3819 0.0638 -0.9220
vn 0.2611 0.7309 -0.6305
vn 0.5544 0.0638 -0.8298
vn 0.3791 0.7309 -0.5674
vn 0.7056 0.0638 -0.7056
vn 0.4826 0.7309 -0.4826
vn 0.8298 0.0638 -0.5544
vn 0.5674 0.7309 -0.3791
vn 0.9220 0.0638 -0.3819
vn 0.6305 0.7309 -0.2611
vn 0.9788 0.0638 -0.1947
vn 0.6693 0.7309 -0.1331
vn 0.9980 0.0638 0.0000
vn 0.6824 0.7309 0.0000
vn 0.9788 0.0638 0.1947
vn 0.6693 0.7309 0.1331
vn 0.9220 0.0638 0.3819
vn 0.6305 0.7309 0.2611
vn 0.8298 0.0638 0.5544
vn 0.5674 0.7309 0.3791
vn 0.7056 0.0638 0.7056
vn 0.4826 0.7309 0.4826
vn 0.5544 0.0638 0.8298
vn 0.3791 0.7309 0.5674
vn 0.3819 0.0638 0.9220
vn 0.2611 0.7309 0.6305
vn 0.1947 0.0638 0.9788
vn 0.1331 0.7309 0.6693
vn 0.0000 0.0638 0.9980
vn 0.0000 0.7309 0.6824
vn -0.1947 0.0638 0.9788
vn -0.1331 0.7309 0.6693
vn -0.3819 0.0638 0.9220
vn -0.2611 0.7309 0.6305
vn -0.5544 0.0638 0.8298
vn -0.3791 0.7309 0.5674
vn -0.7056 0.0638 0.7056
vn -0.5674 0.7309 0.3791
vn -0.8298 0.0638 0.5544
vn -0.9220 0.0638 0.3819
vn -0.6693 0.7309 0.1331
vn -0.9788 0.0638 0.1947
vn -0.9980 0.0638 0.0000
vn -0.6824 0.7309 0.0000
vn -0.9788 0.0638 -0.1947
vn -0.6693 0.7309 -0.1331
vn -0.9220 0.0638 -0.3819
vn -0.6305 0.7309 -0.2611
vn -0.8298 0.0638 -0.5544
vn -0.4826 0.7309 -0.4826
vn -0.7056 0.0638 -0.7056
vn -0.5544 0.0638 -0.8298
vn -0.3791 0.7309 -0.5674
vn -0.3819 0.0638 -0.9220
vn -0.2611 0.7309 -0.6305
vn -0.1947 0.0638 -0.9788
vn -0.1331 0.7309 -0.6693
vn 0.1281 -0.7539 0.6443
vn -0.6443 -0.7539 0.1281
vn -0.1281 -0.7539 -0.6443
vn 0.0000 -0.0974 -0.9952
vn 0.0000 -0.7539 -0.6570
vn -0.1942 -0.0974 -0.9761
vn -0.3808 -0.0974 -0.9195
vn -0.2514 -0.7539 -0.6069
vn -0.5529 -0.0974 -0.8275
vn -0.3650 -0.7539 -0.5463
vn -0.7037 -0.0974 -0.7037
vn -0.4646 -0.7539 -0.4645
vn -0.8275 -0.0974 -0.5529
vn -0.5463 -0.7539 -0.3650
vn -0.9195 -0.0974 -0.3808
vn -0.6070 -0.7539 -0.2514
vn -0.9761 -0.0974 -0.1942
vn -0.6443 -0.7539 -0.1281
vn -0.9952 -0.0974 0.0000
vn -0.6570 -0.7539 0.0000
vn -0.9761 -0.0974 0.1942
vn -0.6070 -0.7539 0.2514
vn -0.9195 -0.0974 0.3808
vn -0.5463 -0.7539 0.3650
vn -0.8275 -0.0974 0.5529
vn -0.4646 -0.7539 0.4646
vn -0.7037 -0.0974 0.7037
vn -0.3650 -0.7539 0.5463
vn -0.5529 -0.0974 0.8275
vn -0.2514 -0.7539 0.6069
vn -0.3808 -0.0974 0.9195
vn -0.1281 -0.7539 0.6443
vn -0.1942 -0.0974 0.9761
vn 0.0000 -0.0974 0.9952
vn 0.0000 -0.7539 0.6570
vn 0.1942 -0.0974 0.9761
vn 0.3808 -0.0974 0.9195
vn 0.2514 -0.7539 0.6070
vn 0.5529 -0.0974 0.8275
vn 0.3650 -0.7539 0.5463
vn 0.7037 -0.0974 0.7037
vn 0.4646 -0.7539 0.4645
vn 0.8275 -0.0974 0.5529
vn 0.5463 -0.7539 0.3650
vn 0.9195 -0.0974 0.3808
vn 0.6070 -0.7539 0.2514
vn 0.9761 -0.0974 0.1942
vn 0.6443 -0.7539 0.1281
vn 0.9952 -0.0974 0.0000
vn 0.6570 -0.7539 0.0000
vn 0.9761 -0.0974 -0.1942
vn 0.6443 -0.7539 -0.1281
vn 0.9195 -0.0974 -0.3808
vn 0.6070 -0.7539 -0.2514
vn 0.8275 -0.0974 -0.5529
vn 0.5463 -0.7539 -0.3650
vn 0.7037 -0.0974 -0.7037
vn 0.4646 -0.7539 -0.4646
vn 0.5529 -0.0974 -0.8275
vn 0.3650 -0.7539 -0.5463
vn 0.3808 -0.0974 -0.9195
vn 0.2514 -0.7539 -0.6070
vn 0.1942 -0.0974 -0.9761
vn 0.1281 -0.7539 -0.6443
vn -0.5674 0.7309 -0.3791
vn -0.6305 0.7309 0.2611
vn -0.4826 0.7309 0.4825
usemtl jetblue.001
s 1
f 2/1/1 67/2/2 66/3/3
f 4/4/4 69/5/5 67/2/2
f 6/6/6 71/7/7 69/5/5
f 8/8/8 73/9/9 71/7/7
f 10/10/10 75/11/11 73/9/9
f 12/12/12 77/13/13 75/11/11
f 14/14/14 79/15/15 77/13/13
f 16/16/16 81/17/17 79/15/15
f 18/18/18 83/19/19 81/17/17
f 20/20/20 85/21/21 83/19/19
f 22/22/22 87/23/23 85/21/21
f 24/24/24 89/25/25 87/23/23
f 26/26/26 91/27/27 89/25/25
f 28/28/28 93/29/29 91/27/27
f 30/30/30 95/31/31 93/29/29
f 32/32/32 97/33/33 95/31/31
f 34/34/34 99/35/35 97/33/33
f 36/36/36 101/37/37 99/35/35
f 38/38/38 103/39/39 101/37/37
f 40/40/40 105/41/41 103/39/39
f 105/41/41 44/42/42 107/43/43
f 44/42/42 109/44/44 107/43/43
f 109/44/44 48/45/45 111/46/46
f 48/45/45 113/47/47 111/46/46
f 50/48/48 115/49/49 113/47/47
f 52/50/50 117/51/51 115/49/49
f 54/52/52 119/53/53 117/51/51
f 119/53/53 58/54/54 121/55/55
f 58/54/54 123/56/56 121/55/55
f 60/57/57 125/58/58 123/56/56
f 6/59/6 54/60/52 38/61/38
f 62/62/59 127/63/60 125/58/58
f 64/64/61 66/65/3 127/63/60
f 31/66/62 47/67/63 63/68/64
f 63/69/64 65/70/65 1/71/66
f 127/63/60 65/70/65 128/72/67
f 126/73/68 63/69/64 61/74/69
f 125/58/58 128/72/67 126/73/68
f 124/75/70 61/74/69 59/76/71
f 123/56/56 126/73/68 124/75/70
f 122/77/72 59/76/71 57/78/73
f 121/55/55 124/75/70 122/77/72
f 120/79/74 57/78/73 55/80/75
f 119/53/53 122/77/72 120/79/74
f 118/81/76 55/80/75 53/82/77
f 117/51/51 120/79/74 118/81/76
f 116/83/78 53/82/77 51/84/79
f 115/49/49 118/81/76 116/83/78
f 114/85/80 51/84/79 49/86/81
f 113/47/47 116/83/78 114/85/80
f 47/87/63 114/85/80 49/86/81
f 111/46/46 114/85/80 112/88/82
f 45/89/83 112/88/82 47/87/63
f 109/44/44 112/88/82 110/90/84
f 43/91/85 110/90/84 45/89/83
f 107/43/43 110/90/84 108/92/86
f 41/93/87 108/92/86 43/91/85
f 105/41/41 108/92/86 106/94/88
f 39/95/89 106/94/88 41/93/87
f 104/96/90 105/41/41 106/94/88
f 37/97/91 104/96/90 39/95/89
f 102/98/92 103/39/39 104/96/90
f 35/99/93 102/98/92 37/97/91
f 99/35/35 102/98/92 100/100/94
f 98/101/95 35/99/93 33/102/96
f 97/33/33 100/100/94 98/101/95
f 96/103/97 33/102/96 31/104/62
f 95/31/31 98/101/95 96/103/97
f 94/105/98 31/104/62 29/106/99
f 93/29/29 96/103/97 94/105/98
f 92/107/100 29/106/99 27/108/101
f 91/27/27 94/105/98 92/107/100
f 90/109/102 27/108/101 25/110/103
f 89/25/25 92/107/100 90/109/102
f 88/111/104 25/110/103 23/112/105
f 87/23/23 90/109/102 88/111/104
f 86/113/106 23/112/105 21/114/107
f 85/21/21 88/111/104 86/113/106
f 84/115/108 21/114/107 19/116/109
f 83/19/19 86/113/106 84/115/108
f 82/117/110 19/116/109 17/118/111
f 81/17/17 84/115/108 82/117/110
f 80/119/112 17/118/111 15/120/113
f 79/15/15 82/117/110 80/119/112
f 78/121/114 15/120/113 13/122/115
f 77/13/13 80/119/112 78/121/114
f 76/123/116 13/122/115 11/124/117
f 75/11/11 78/121/114 76/123/116
f 74/125/118 11/124/117 9/126/119
f 73/9/9 76/123/116 74/125/118
f 72/127/120 9/126/119 7/128/121
f 71/7/7 74/125/118 72/127/120
f 70/129/122 7/128/121 5/130/123
f 69/5/5 72/127/120 70/129/122
f 68/131/124 5/130/123 3/132/125
f 67/2/2 70/129/122 68/131/124
f 65/133/65 3/132/125 1/134/66
f 66/3/3 68/131/124 65/133/65
f 6/6/6 8/8/8 71/7/7
f 8/8/8 10/10/10 73/9/9
f 10/10/10 12/12/12 75/11/11
f 12/12/12 14/14/14 77/13/13
f 14/14/14 16/16/16 79/15/15
f 16/16/16 18/18/18 81/17/17
f 18/18/18 20/20/20 83/19/19
f 20/20/20 22/22/22 85/21/21
f 22/22/22 24/24/24 87/23/23
f 24/24/24 26/26/26 89/25/25
f 26/26/26 28/28/28 91/27/27
f 28/28/28 30/30/30 93/29/29
f 30/30/30 32/32/32 95/31/31
f 32/32/32 34/34/34 97/33/33
f 34/34/34 36/36/36 99/35/35
f 36/36/36 38/38/38 101/37/37
f 6/59/6 4/135/4 2/136/1
f 2/136/1 64/137/61 6/59/6
f 64/137/61 62/138/59 6/59/6
f 62/138/59 60/139/57 58/140/54
f 58/140/54 56/141/126 54/60/52
f 54/60/52 52/142/50 50/143/48
f 50/143/48 48/144/45 46/145/127
f 46/145/127 44/146/42 38/61/38
f 44/146/42 42/147/128 38/61/38
f 42/147/128 40/148/40 38/61/38
f 38/61/38 36/149/36 30/150/30
f 36/149/36 34/151/34 30/150/30
f 34/151/34 32/152/32 30/150/30
f 30/150/30 28/153/28 26/154/26
f 26/154/26 24/155/24 22/156/22
f 22/156/22 20/157/20 18/158/18
f 18/158/18 16/159/16 14/160/14
f 14/160/14 12/161/12 10/162/10
f 10/162/10 8/163/8 6/59/6
f 62/138/59 58/140/54 6/59/6
f 58/140/54 54/60/52 6/59/6
f 54/60/52 50/143/48 38/61/38
f 50/143/48 46/145/127 38/61/38
f 30/150/30 26/154/26 22/156/22
f 22/156/22 18/158/18 14/160/14
f 14/160/14 10/162/10 6/59/6
f 38/61/38 30/150/30 22/156/22
f 22/156/22 14/160/14 38/61/38
f 14/160/14 6/59/6 38/61/38
f 99/35/35 101/37/37 102/98/92
f 98/101/95 100/100/94 35/99/93
f 97/33/33 99/35/35 100/100/94
f 96/103/97 98/101/95 33/102/96
f 95/31/31 97/33/33 98/101/95
f 94/105/98 96/103/97 31/104/62
f 93/29/29 95/31/31 96/103/97
f 92/107/100 94/105/98 29/106/99
f 91/27/27 93/29/29 94/105/98
f 90/109/102 92/107/100 27/108/101
f 89/25/25 91/27/27 92/107/100
f 88/111/104 90/109/102 25/110/103
f 87/23/23 89/25/25 90/109/102
f 86/113/106 88/111/104 23/112/105
f 85/21/21 87/23/23 88/111/104
f 84/115/108 86/113/106 21/114/107
f 83/19/19 85/21/21 86/113/106
f 82/117/110 84/115/108 19/116/109
f 81/17/17 83/19/19 84/115/108
f 80/119/112 82/117/110 17/118/111
f 79/15/15 81/17/17 82/117/110
f 78/121/114 80/119/112 15/120/113
f 77/13/13 79/15/15 80/119/112
f 76/123/116 78/121/114 13/122/115
f 75/11/11 77/13/13 78/121/114
f 74/125/118 76/123/116 11/124/117
f 73/9/9 75/11/11 76/123/116
f 72/127/120 74/125/118 9/126/119
f 71/7/7 73/9/9 74/125/118
f 70/129/122 72/127/120 7/128/121
f 69/5/5 71/7/7 72/127/120
f 63/68/64 1/164/66 3/165/125
f 3/165/125 5/166/123 7/167/121
f 7/167/121 9/168/119 11/169/117
f 11/169/117 13/170/115 15/171/113
f 15/171/113 17/172/111 19/173/109
f 19/173/109 21/174/107 23/175/105
f 23/175/105 25/176/103 27/177/101
f 27/177/101 29/178/99 31/66/62
f 31/66/62 33/179/96 35/180/93
f 35/180/93 37/181/91 39/182/89
f 39/182/89 41/183/87 43/184/85
f 43/184/85 45/185/83 47/67/63
f 47/67/63 49/186/81 51/187/79
f 51/187/79 53/188/77 55/189/75
f 55/189/75 57/190/73 59/191/71
f 59/191/71 61/192/69 63/68/64
f 63/68/64 3/165/125 7/167/121
f 7/167/121 11/169/117 15/171/113
f 15/171/113 19/173/109 23/175/105
f 23/175/105 27/177/101 31/66/62
f 31/66/62 35/180/93 39/182/89
f 39/182/89 43/184/85 47/67/63
f 47/67/63 51/187/79 55/189/75
f 55/189/75 59/191/71 63/68/64
f 63/68/64 7/167/121 15/171/113
f 15/171/113 23/175/105 31/66/62
f 31/66/62 39/182/89 47/67/63
f 47/67/63 55/189/75 63/68/64
f 63/68/64 15/171/113 31/66/62
f 45/89/83 110/90/84 112/88/82
f 43/91/85 108/92/86 110/90/84
f 41/93/87 106/94/88 108/92/86
f 39/95/89 104/96/90 106/94/88
f 104/96/90 103/39/39 105/41/41
f 37/97/91 102/98/92 104/96/90
f 102/98/92 101/37/37 103/39/39
f 35/99/93 100/100/94 102/98/92
f 2/1/1 4/4/4 67/2/2
f 4/4/4 6/6/6 69/5/5
f 38/38/38 40/40/40 103/39/39
f 40/40/40 42/193/128 105/41/41
f 105/41/41 42/193/128 44/42/42
f 44/42/42 46/194/127 109/44/44
f 109/44/44 46/194/127 48/45/45
f 48/45/45 50/48/48 113/47/47
f 50/48/48 52/50/50 115/49/49
f 52/50/50 54/52/52 117/51/51
f 54/52/52 56/195/126 119/53/53
f 119/53/53 56/195/126 58/54/54
f 58/54/54 60/57/57 123/56/56
f 60/57/57 62/62/59 125/58/58
f 62/62/59 64/64/61 127/63/60
f 64/64/61 2/196/1 66/65/3
f 63/69/64 128/72/67 65/70/65
f 127/63/60 66/65/3 65/70/65
f 126/73/68 128/72/67 63/69/64
f 125/58/58 127/63/60 128/72/67
f 124/75/70 126/73/68 61/74/69
f 123/56/56 125/58/58 126/73/68
f 122/77/72 124/75/70 59/76/71
f 121/55/55 123/56/56 124/75/70
f 120/79/74 122/77/72 57/78/73
f 119/53/53 121/55/55 122/77/72
f 118/81/76 120/79/74 55/80/75
f 117/51/51 119/53/53 120/79/74
f 116/83/78 118/81/76 53/82/77
f 115/49/49 117/51/51 118/81/76
f 114/85/80 116/83/78 51/84/79
f 113/47/47 115/49/49 116/83/78
f 47/87/63 112/88/82 114/85/80
f 111/46/46 113/47/47 114/85/80
f 109/44/44 111/46/46 112/88/82
f 107/43/43 109/44/44 110/90/84
f 105/41/41 107/43/43 108/92/86
f 68/131/124 70/129/122 5/130/123
f 67/2/2 69/5/5 70/129/122
f 65/133/65 68/131/124 3/132/125
f 66/3/3 67/2/2 68/131/124
o wingFront_Cube.002
v -2.276400 -2.000000 0.100000
v -4.500000 0.000000 0.100000
v -2.276400 -2.000000 -0.100000
v -4.500000 0.000000 -0.100000
v 2.234284 -2.000000 0.100000
v 4.500000 0.000000 0.100000
v 2.234284 -2.000000 -0.100000
v 4.500000 0.000000 -0.100000
vt 0.375000 0.000000
vt 0.625000 0.250000
vt 0.375000 0.250000
vt 0.625000 0.500000
vt 0.375000 0.500000
vt 0.375000 0.750000
vt 0.625000 1.000000
vt 0.375000 1.000000
vt 0.125000 0.750000
vt 0.125000 0.500000
vt 0.875000 0.500000
vt 0.625000 0.750000
vt 0.875000 0.750000
vt 0.625000 0.000000
vn -0.6687 -0.7435 0.0000
vn 0.0000 0.0000 -1.0000
vn 0.6618 -0.7497 0.0000
vn 0.0000 0.0000 1.0000
vn 0.0000 -1.0000 0.0000
vn 0.0000 1.0000 0.0000
usemtl jetblue.001
s off
f 129/197/129 132/198/129 131/199/129
f 131/199/130 136/200/130 135/201/130
f 136/200/131 133/202/131 135/201/131
f 133/202/132 130/203/132 129/204/132
f 135/201/133 129/205/133 131/206/133
f 132/207/134 134/208/134 136/200/134
f 136/200/131 134/208/131 133/202/131
f 133/202/132 134/208/132 130/203/132
f 135/201/133 133/202/133 129/205/133
f 132/207/134 130/209/134 134/208/134
f 129/197/129 130/210/129 132/198/129
f 131/199/130 132/198/130 136/200/130
o wingRear_Cube.003
v -1.829099 1.850000 0.100000
v -3.500000 3.150000 0.100000
v -1.829099 1.850000 -0.100000
v -3.500000 3.150000 -0.100000
v 1.914078 1.850000 0.100000
v 3.500000 3.150000 0.100000
v 1.914078 1.850000 -0.100000
v 3.500000 3.150000 -0.100000
vt 0.375000 0.000000
vt 0.625000 0.250000
vt 0.375000 0.250000
vt 0.625000 0.500000
vt 0.375000 0.500000
vt 0.375000 0.750000
vt 0.625000 0.750000
vt 0.375000 1.000000
vt 0.125000 0.500000
vt 0.125000 0.750000
vt 0.875000 0.500000
vt 0.625000 1.000000
vt 0.875000 0.750000
vt 0.625000 0.000000
vn -0.6141 -0.7893 0.0000
vn 0.0000 0.0000 -1.0000
vn 0.6339 -0.7734 0.0000
vn 0.0000 0.0000 1.0000
vn 0.0000 -1.0000 0.0000
vn 0.0000 1.0000 0.0000
usemtl jetblue.001
s off
f 137/211/135 140/212/135 139/213/135
f 139/213/136 144/214/136 143/215/136
f 144/214/137 141/216/137 143/215/137
f 142/217/138 137/218/138 141/216/138
f 139/219/139 141/216/139 137/220/139
f 140/221/140 142/217/140 144/214/140
f 144/214/137 142/217/137 141/216/137
f 142/217/138 138/222/138 137/218/138
f 140/221/140 138/223/140 142/217/140
f 137/211/135 138/224/135 140/212/135
f 139/213/136 140/212/136 144/214/136
f 139/219/139 143/215/139 141/216/139
o fin_Cube.004
v -0.100000 1.850000 -0.500000
v -0.100000 3.150000 -0.500000
v -0.100000 3.153360 -2.500000
v -0.100000 3.150000 -2.500000
v 0.100000 1.850000 -0.500000
v 0.100000 3.150000 -0.500000
v 0.100000 3.153360 -2.500000
v 0.100000 3.150000 -2.500000
vt 0.375000 0.000000
vt 0.625000 0.250000
vt 0.375000 0.250000
vt 0.375000 0.500000
vt 0.625000 0.750000
vt 0.375000 0.750000
vt 0.375000 1.000000
vt 0.125000 0.750000
vt 0.125000 0.500000
vt 0.875000 0.500000
vt 0.625000 0.500000
vt 0.625000 0.000000
vt 0.875000 0.750000
vt 0.625000 1.000000
vn 1.0000 0.0000 0.0000
vn 0.0000 0.0000 1.0000
vn 0.0000 -0.8378 -0.5460
vn 0.0000 1.0000 0.0000
vn -1.0000 0.0000 0.0000
usemtl jetblue.001
s off
f 145/225/141 148/226/141 147/227/141
f 148/226/142 151/228/142 147/227/142
f 151/228/141 150/229/141 149/230/141
f 150/229/142 145/231/142 149/230/142
f 151/228/143 145/232/143 147/233/143
f 148/234/144 150/229/144 152/235/144
f 145/225/145 146/236/145 148/226/145
f 151/228/145 152/235/145 150/229/145
f 151/228/143 149/230/143 145/232/143
f 148/234/144 146/237/144 150/229/144
f 148/226/142 152/235/142 151/228/142
f 150/229/142 146/238/142 145/231/142
o cockpit_Cube.005
v -0.600000 -2.000000 -0.400000
v -0.600000 0.000000 -0.400000
v -0.600000 -1.313612 -1.289084
v -0.600000 -0.586022 -1.376539
v 0.600000 -2.000000 -0.400000
v 0.600000 0.000000 -0.400000
v 0.600000 -1.313612 -1.289084
v 0.600000 -0.586022 -1.376539
vt 0.625000 0.000000
vt 0.375000 0.250000
vt 0.375000 0.000000
vt 0.625000 0.250000
vt 0.375000 0.500000
vt 0.625000 0.750000
vt 0.375000 0.750000
vt 0.375000 1.000000
vt 0.125000 0.500000
vt 0.125000 0.750000
vt 0.875000 0.500000
vt 0.625000 0.500000
vt 0.875000 0.750000
vt 0.625000 1.000000
vn -0.5541 0.7244 0.4101
vn -0.6296 -0.3836 -0.6756
vn -0.5504 -0.7493 0.3681
vn -0.6027 0.3509 -0.7166
vn 0.6296 -0.3836 -0.6756
vn 0.5541 0.7244 0.4101
vn 0.5504 -0.7493 0.3681
vn 0.6027 0.3509 -0.7166
usemtl jetcockpit.001
s 1
f 154/239/146 155/240/147 153/241/148
f 156/242/149 159/243/150 155/240/147
f 159/243/150 158/244/151 157/245/152
f 158/244/151 153/246/148 157/245/152
f 155/247/147 157/245/152 153/248/148
f 156/249/149 158/244/151 160/250/153
f 159/243/150 160/250/153 158/244/151
f 156/249/149 154/251/146 158/244/151
f 155/247/147 159/243/150 157/245/152
f 154/239/146 156/242/149 155/240/147
f 156/242/149 160/250/153 159/243/150
f 158/244/151 154/252/146 153/246/148
