# Blender v3.0.1 OBJ File: 'ring.blend'
# www.blender.org
mtllib ring.mtl
o Torus
v 3.125000 0.000000 0.000000
v 3.041266 0.031250 0.000000
v 2.812500 0.054127 0.000000
v 2.500000 0.062500 0.000000
v 2.187500 0.054127 0.000000
v 1.958734 0.031250 0.000000
v 1.875000 0.000000 0.000000
v 1.958734 -0.031250 0.000000
v 2.187500 -0.054127 0.000000
v 2.500000 -0.062500 0.000000
v 2.812500 -0.054127 0.000000
v 3.041266 -0.031250 0.000000
v 3.098265 0.000000 -0.407894
v 3.015248 0.031250 -0.396965
v 2.788439 0.054127 -0.367105
v 2.478612 0.062500 -0.326315
v 2.168786 0.054127 -0.285526
v 1.941977 0.031250 -0.255666
v 1.858959 0.000000 -0.244737
v 1.941977 -0.031250 -0.255666
v 2.168786 -0.054127 -0.285526
v 2.478612 -0.062500 -0.326315
v 2.788439 -0.054127 -0.367105
v 3.015248 -0.031250 -0.396965
v 3.018518 0.000000 -0.808809
v 2.937637 0.031250 -0.787137
v 2.716666 0.054127 -0.727928
v 2.414814 0.062500 -0.647047
v 2.112963 0.054127 -0.566167
v 1.891992 0.031250 -0.506958
v 1.811111 0.000000 -0.485286
v 1.891992 -0.031250 -0.506958
v 2.112963 -0.054127 -0.566167
v 2.414814 -0.062500 -0.647047
v 2.716666 -0.054127 -0.727928
v 2.937637 -0.031250 -0.787137
v 2.887124 0.000000 -1.195886
v 2.809763 0.031250 -1.163842
v 2.598411 0.054127 -1.076297
v 2.309699 0.062500 -0.956708
v 2.020987 0.054127 -0.837120
v 1.809634 0.031250 -0.749575
v 1.732274 0.000000 -0.717531
v 1.809634 -0.031250 -0.749575
v 2.020987 -0.054127 -0.837120
v 2.309699 -0.062500 -0.956708
v 2.598411 -0.054127 -1.076297
v 2.809763 -0.031250 -1.163842
v 2.706329 0.000000 -1.562500
v 2.633813 0.031250 -1.520633
v 2.435696 0.054127 -1.406250
v 2.165063 0.062500 -1.250000
v 1.894430 0.054127 -1.093750
v 1.696313 0.031250 -0.979367
v 1.623797 0.000000 -0.937500
v 1.696313 -0.031250 -0.979367
v 1.894430 -0.054127 -1.093750
v 2.165063 -0.062500 -1.250000
v 2.435696 -0.054127 -1.406250
v 2.633813 -0.031250 -1.520633
v 2.479229 0.000000 -1.902379
v 2.412799 0.031250 -1.851405
v 2.231307 0.054127 -1.712141
v 1.983384 0.062500 -1.521903
v 1.735461 0.054127 -1.331665
v 1.553968 0.031250 -1.192402
v 1.487538 0.000000 -1.141428
v 1.553968 -0.031250 -1.192402
v 1.735461 -0.054127 -1.331665
v 1.983384 -0.062500 -1.521903
v 2.231307 -0.054127 -1.712141
v 2.412799 -0.031250 -1.851405
v 2.209708 0.000000 -2.209709
v 2.150500 0.031250 -2.150500
v 1.988738 0.054127 -1.988738
v 1.767767 0.062500 -1.767767
v 1.546796 0.054127 -1.546796
v 1.385034 0.031250 -1.385034
v 1.325825 0.000000 -1.325825
v 1.385034 -0.031250 -1.385034
v 1.546796 -0.054127 -1.546796
v 1.767767 -0.062500 -1.767767
v 1.988738 -0.054127 -1.988738
v 2.150500 -0.031250 -2.150500
v 1.902380 0.000000 -2.479229
v 1.851406 0.031250 -2.412798
v 1.712142 0.054127 -2.231306
v 1.521904 0.062500 -1.983383
v 1.331666 0.054127 -1.735460
v 1.192402 0.031250 -1.553968
v 1.141428 0.000000 -1.487537
v 1.192402 -0.031250 -1.553968
v 1.331666 -0.054127 -1.735460
v 1.521904 -0.062500 -1.983383
v 1.712142 -0.054127 -2.231306
v 1.851406 -0.031250 -2.412798
v 1.562500 0.000000 -2.706330
v 1.520633 0.031250 -2.633814
v 1.406250 0.054127 -2.435697
v 1.250000 0.062500 -2.165064
v 1.093750 0.054127 -1.894431
v 0.979367 0.031250 -1.696314
v 0.937500 0.000000 -1.623798
v 0.979367 -0.031250 -1.696314
v 1.093750 -0.054127 -1.894431
v 1.250000 -0.062500 -2.165064
v 1.406250 -0.054127 -2.435697
v 1.520633 -0.031250 -2.633814
v 1.195886 0.000000 -2.887123
v 1.163843 0.031250 -2.809763
v 1.076298 0.054127 -2.598411
v 0.956709 0.062500 -2.309699
v 0.837120 0.054127 -2.020986
v 0.749576 0.031250 -1.809634
v 0.717532 0.000000 -1.732274
v 0.749576 -0.031250 -1.809634
v 0.837120 -0.054127 -2.020986
v 0.956709 -0.062500 -2.309699
v 1.076298 -0.054127 -2.598411
v 1.163843 -0.031250 -2.809763
v 0.808810 0.000000 -3.018518
v 0.787138 0.031250 -2.937637
v 0.727929 0.054127 -2.716666
v 0.647048 0.062500 -2.414814
v 0.566167 0.054127 -2.112963
v 0.506958 0.031250 -1.891992
v 0.485286 0.000000 -1.811111
v 0.506958 -0.031250 -1.891992
v 0.566167 -0.054127 -2.112963
v 0.647048 -0.062500 -2.414814
v 0.727929 -0.054127 -2.716666
v 0.787138 -0.031250 -2.937637
v 0.407894 0.000000 -3.098265
v 0.396964 0.031250 -3.015248
v 0.367104 0.054127 -2.788439
v 0.326315 0.062500 -2.478612
v 0.285526 0.054127 -2.168786
v 0.255666 0.031250 -1.941977
v 0.244736 0.000000 -1.858959
v 0.255666 -0.031250 -1.941977
v 0.285526 -0.054127 -2.168786
v 0.326315 -0.062500 -2.478612
v 0.367104 -0.054127 -2.788439
v 0.396964 -0.031250 -3.015248
v 0.000000 0.000000 -3.125000
v 0.000000 0.031250 -3.041266
v 0.000000 0.054127 -2.812500
v 0.000000 0.062500 -2.500000
v 0.000000 0.054127 -2.187500
v 0.000000 0.031250 -1.958734
v 0.000000 0.000000 -1.875000
v 0.000000 -0.031250 -1.958734
v 0.000000 -0.054127 -2.187500
v 0.000000 -0.062500 -2.500000
v 0.000000 -0.054127 -2.812500
v 0.000000 -0.031250 -3.041266
v -0.407895 0.000000 -3.098265
v -0.396965 0.031250 -3.015247
v -0.367105 0.054127 -2.788439
v -0.326316 0.062500 -2.478612
v -0.285526 0.054127 -2.168786
v -0.255666 0.031250 -1.941977
v -0.244737 0.000000 -1.858959
v -0.255666 -0.031250 -1.941977
v -0.285526 -0.054127 -2.168786
v -0.326316 -0.062500 -2.478612
v -0.367105 -0.054127 -2.788439
v -0.396965 -0.031250 -3.015247
v -0.808809 0.000000 -3.018518
v -0.787137 0.031250 -2.937638
v -0.727928 0.054127 -2.716666
v -0.647047 0.062500 -2.414815
v -0.566166 0.054127 -2.112963
v -0.506957 0.031250 -1.891992
v -0.485285 0.000000 -1.811111
v -0.506957 -0.031250 -1.891992
v -0.566166 -0.054127 -2.112963
v -0.647047 -0.062500 -2.414815
v -0.727928 -0.054127 -2.716666
v -0.787137 -0.031250 -2.937638
v -1.195886 0.000000 -2.887124
v -1.163842 0.031250 -2.809763
v -1.076297 0.054127 -2.598411
v -0.956709 0.062500 -2.309699
v -0.837120 0.054127 -2.020986
v -0.749575 0.031250 -1.809634
v -0.717532 0.000000 -1.732274
v -0.749575 -0.031250 -1.809634
v -0.837120 -0.054127 -2.020986
v -0.956709 -0.062500 -2.309699
v -1.076297 -0.054127 -2.598411
v -1.163842 -0.031250 -2.809763
v -1.562500 0.000000 -2.706330
v -1.520633 0.031250 -2.633814
v -1.406250 0.054127 -2.435697
v -1.250000 0.062500 -2.165064
v -1.093750 0.054127 -1.894431
v -0.979367 0.031250 -1.696314
v -0.937500 0.000000 -1.623798
v -0.979367 -0.031250 -1.696314
v -1.093750 -0.054127 -1.894431
v -1.250000 -0.062500 -2.165064
v -1.406250 -0.054127 -2.435697
v -1.520633 -0.031250 -2.633814
v -1.902379 0.000000 -2.479229
v -1.851405 0.031250 -2.412798
v -1.712142 0.054127 -2.231306
v -1.521904 0.062500 -1.983383
v -1.331666 0.054127 -1.735461
v -1.192402 0.031250 -1.553968
v -1.141428 0.000000 -1.487538
v -1.192402 -0.031250 -1.553968
v -1.331666 -0.054127 -1.735461
v -1.521904 -0.062500 -1.983383
v -1.712142 -0.054127 -2.231306
v -1.851405 -0.031250 -2.412798
v -2.209709 0.000000 -2.209708
v -2.150500 0.031250 -2.150499
v -1.988738 0.054127 -1.988737
v -1.767767 0.062500 -1.767766
v -1.546796 0.054127 -1.546796
v -1.385034 0.031250 -1.385034
v -1.325825 0.000000 -1.325825
v -1.385034 -0.031250 -1.385034
v -1.546796 -0.054127 -1.546796
v -1.767767 -0.062500 -1.767766
v -1.988738 -0.054127 -1.988737
v -2.150500 -0.031250 -2.150499
v -2.479229 0.000000 -1.902379
v -2.412798 0.031250 -1.851405
v -2.231306 0.054127 -1.712142
v -1.983383 0.062500 -1.521904
v -1.735461 0.054127 -1.331666
v -1.553968 0.031250 -1.192402
v -1.487538 0.000000 -1.141428
v -1.553968 -0.031250 -1.192402
v -1.735461 -0.054127 -1.331666
v -1.983383 -0.062500 -1.521904
v -2.231306 -0.054127 -1.712142
v -2.412798 -0.031250 -1.851405
v -2.706329 0.000000 -1.562501
v -2.633813 0.031250 -1.520634
v -2.435696 0.054127 -1.406251
v -2.165063 0.062500 -1.250001
v -1.894430 0.054127 -1.093750
v -1.696313 0.031250 -0.979367
v -1.623797 0.000000 -0.937500
v -1.696313 -0.031250 -0.979367
v -1.894430 -0.054127 -1.093750
v -2.165063 -0.062500 -1.250001
v -2.435696 -0.054127 -1.406251
v -2.633813 -0.031250 -1.520634
v -2.887124 0.000000 -1.195886
v -2.809763 0.031250 -1.163842
v -2.598411 0.054127 -1.076297
v -2.309699 0.062500 -0.956709
v -2.020986 0.054127 -0.837120
v -1.809634 0.031250 -0.749575
v -1.732274 0.000000 -0.717532
v -1.809634 -0.031250 -0.749575
v -2.020986 -0.054127 -0.837120
v -2.309699 -0.062500 -0.956709
v -2.598411 -0.054127 -1.076297
v -2.809763 -0.031250 -1.163842
v -3.018518 0.000000 -0.808809
v -2.937638 0.031250 -0.787137
v -2.716666 0.054127 -0.727928
v -2.414815 0.062500 -0.647047
v -2.112963 0.054127 -0.566166
v -1.891992 0.031250 -0.506957
v -1.811111 0.000000 -0.485285
v -1.891992 -0.031250 -0.506957
v -2.112963 -0.054127 -0.566166
v -2.414815 -0.062500 -0.647047
v -2.716666 -0.054127 -0.727928
v -2.937638 -0.031250 -0.787137
v -3.098265 0.000000 -0.407895
v -3.015247 0.031250 -0.396965
v -2.788439 0.054127 -0.367105
v -2.478612 0.062500 -0.326316
v -2.168786 0.054127 -0.285526
v -1.941977 0.031250 -0.255666
v -1.858959 0.000000 -0.244737
v -1.941977 -0.031250 -0.255666
v -2.168786 -0.054127 -0.285526
v -2.478612 -0.062500 -0.326316
v -2.788439 -0.054127 -0.367105
v -3.015247 -0.031250 -0.396965
v -3.125000 0.000000 -0.000000
v -3.041266 0.031250 -0.000000
v -2.812500 0.054127 -0.000000
v -2.500000 0.062500 -0.000000
v -2.187500 0.054127 -0.000000
v -1.958734 0.031250 -0.000000
v -1.875000 0.000000 -0.000000
v -1.958734 -0.031250 -0.000000
v -2.187500 -0.054127 -0.000000
v -2.500000 -0.062500 -0.000000
v -2.812500 -0.054127 -0.000000
v -3.041266 -0.031250 -0.000000
v -3.098265 0.000000 0.407895
v -3.015247 0.031250 0.396965
v -2.788439 0.054127 0.367105
v -2.478612 0.062500 0.326316
v -2.168786 0.054127 0.285526
v -1.941977 0.031250 0.255666
v -1.858959 0.000000 0.244737
v -1.941977 -0.031250 0.255666
v -2.168786 -0.054127 0.285526
v -2.478612 -0.062500 0.326316
v -2.788439 -0.054127 0.367105
v -3.015247 -0.031250 0.396965
v -3.018518 0.000000 0.808809
v -2.937638 0.031250 0.787137
v -2.716666 0.054127 0.727928
v -2.414815 0.062500 0.647047
v -2.112963 0.054127 0.566166
v -1.891992 0.031250 0.506957
v -1.811111 0.000000 0.485285
v -1.891992 -0.031250 0.506957
v -2.112963 -0.054127 0.566166
v -2.414815 -0.062500 0.647047
v -2.716666 -0.054127 0.727928
v -2.937638 -0.031250 0.787137
v -2.887124 0.000000 1.195885
v -2.809764 0.031250 1.163841
v -2.598412 0.054127 1.076296
v -2.309699 0.062500 0.956708
v -2.020987 0.054127 0.837119
v -1.809635 0.031250 0.749574
v -1.732274 0.000000 0.717531
v -1.809635 -0.031250 0.749574
v -2.020987 -0.054127 0.837119
v -2.309699 -0.062500 0.956708
v -2.598412 -0.054127 1.076296
v -2.809764 -0.031250 1.163841
v -2.706330 0.000000 1.562499
v -2.633814 0.031250 1.520632
v -2.435697 0.054127 1.406250
v -2.165064 0.062500 1.250000
v -1.894431 0.054127 1.093750
v -1.696314 0.031250 0.979367
v -1.623798 0.000000 0.937500
v -1.696314 -0.031250 0.979367
v -1.894431 -0.054127 1.093750
v -2.165064 -0.062500 1.250000
v -2.435697 -0.054127 1.406250
v -2.633814 -0.031250 1.520632
v -2.479229 0.000000 1.902379
v -2.412798 0.031250 1.851405
v -2.231306 0.054127 1.712142
v -1.983383 0.062500 1.521904
v -1.735461 0.054127 1.331666
v -1.553968 0.031250 1.192402
v -1.487538 0.000000 1.141428
v -1.553968 -0.031250 1.192402
v -1.735461 -0.054127 1.331666
v -1.983383 -0.062500 1.521904
v -2.231306 -0.054127 1.712142
v -2.412798 -0.031250 1.851405
v -2.209709 0.000000 2.209708
v -2.150500 0.031250 2.150499
v -1.988738 0.054127 1.988737
v -1.767767 0.062500 1.767766
v -1.546796 0.054127 1.546796
v -1.385034 0.031250 1.385034
v -1.325825 0.000000 1.325825
v -1.385034 -0.031250 1.385034
v -1.546796 -0.054127 1.546796
v -1.767767 -0.062500 1.767766
v -1.988738 -0.054127 1.988737
v -2.150500 -0.031250 2.150499
v -1.902381 0.000000 2.479228
v -1.851407 0.031250 2.412797
v -1.712143 0.054127 2.231305
v -1.521905 0.062500 1.983383
v -1.331667 0.054127 1.735460
v -1.192403 0.031250 1.553968
v -1.141428 0.000000 1.487537
v -1.192403 -0.031250 1.553968
v -1.331667 -0.054127 1.735460
v -1.521905 -0.062500 1.983383
v -1.712143 -0.054127 2.231305
v -1.851407 -0.031250 2.412797
v -1.562500 0.000000 2.706330
v -1.520633 0.031250 2.633814
v -1.406250 0.054127 2.435697
v -1.250000 0.062500 2.165064
v -1.093750 0.054127 1.894431
v -0.979367 0.031250 1.696314
v -0.937500 0.000000 1.623798
v -0.979367 -0.031250 1.696314
v -1.093750 -0.054127 1.894431
v -1.250000 -0.062500 2.165064
v -1.406250 -0.054127 2.435697
v -1.520633 -0.031250 2.633814
v -1.195886 0.000000 2.887124
v -1.163842 0.031250 2.809763
v -1.076297 0.054127 2.598411
v -0.956709 0.062500 2.309699
v -0.837120 0.054127 2.020986
v -0.749575 0.031250 1.809634
v -0.717532 0.000000 1.732274
v -0.749575 -0.031250 1.809634
v -0.837120 -0.054127 2.020986
v -0.956709 -0.062500 2.309699
v -1.076297 -0.054127 2.598411
v -1.163842 -0.031250 2.809763
v -0.808811 0.000000 3.018518
v -0.787139 0.031250 2.937637
v -0.727929 0.054127 2.716666
v -0.647048 0.062500 2.414814
v -0.566167 0.054127 2.112963
v -0.506958 0.031250 1.891992
v -0.485286 0.000000 1.811111
v -0.506958 -0.031250 1.891992
v -0.566167 -0.054127 2.112963
v -0.647048 -0.062500 2.414814
v -0.727929 -0.054127 2.716666
v -0.787139 -0.031250 2.937637
v -0.407896 0.000000 3.098265
v -0.396967 0.031250 3.015247
v -0.367107 0.054127 2.788439
v -0.326317 0.062500 2.478612
v -0.285527 0.054127 2.168786
v -0.255667 0.031250 1.941977
v -0.244738 0.000000 1.858959
v -0.255667 -0.031250 1.941977
v -0.285527 -0.054127 2.168786
v -0.326317 -0.062500 2.478612
v -0.367107 -0.054127 2.788439
v -0.396967 -0.031250 3.015247
v 0.000000 0.000000 3.125000
v 0.000000 0.031250 3.041266
v 0.000000 0.054127 2.812500
v 0.000000 0.062500 2.500000
v 0.000000 0.054127 2.187500
v 0.000000 0.031250 1.958734
v 0.000000 0.000000 1.875000
v 0.000000 -0.031250 1.958734
v 0.000000 -0.054127 2.187500
v 0.000000 -0.062500 2.500000
v 0.000000 -0.054127 2.812500
v 0.000000 -0.031250 3.041266
v 0.407894 0.000000 3.098265
v 0.396964 0.031250 3.015248
v 0.367104 0.054127 2.788439
v 0.326315 0.062500 2.478612
v 0.285526 0.054127 2.168786
v 0.255666 0.031250 1.941977
v 0.244736 0.000000 1.858959
v 0.255666 -0.031250 1.941977
v 0.285526 -0.054127 2.168786
v 0.326315 -0.062500 2.478612
v 0.367104 -0.054127 2.788439
v 0.396964 -0.031250 3.015248
v 0.808808 0.000000 3.018519
v 0.787136 0.031250 2.937638
v 0.727927 0.054127 2.716667
v 0.647047 0.062500 2.414815
v 0.566166 0.054127 2.112963
v 0.506957 0.031250 1.891992
v 0.485285 0.000000 1.811111
v 0.506957 -0.031250 1.891992
v 0.566166 -0.054127 2.112963
v 0.647047 -0.062500 2.414815
v 0.727927 -0.054127 2.716667
v 0.787136 -0.031250 2.937638
v 1.195886 0.000000 2.887123
v 1.163843 0.031250 2.809763
v 1.076298 0.054127 2.598411
v 0.956709 0.062500 2.309699
v 0.837120 0.054127 2.020986
v 0.749576 0.031250 1.809634
v 0.717532 0.000000 1.732274
v 0.749576 -0.031250 1.809634
v 0.837120 -0.054127 2.020986
v 0.956709 -0.062500 2.309699
v 1.076298 -0.054127 2.598411
v 1.163843 -0.031250 2.809763
v 1.562500 0.000000 2.706330
v 1.520633 0.031250 2.633814
v 1.406250 0.054127 2.435697
v 1.250000 0.062500 2.165064
v 1.093750 0.054127 1.894431
v 0.979367 0.031250 1.696314
v 0.937500 0.000000 1.623798
v 0.979367 -0.031250 1.696314
v 1.093750 -0.054127 1.894431
v 1.250000 -0.062500 2.165064
v 1.406250 -0.054127 2.435697
v 1.520633 -0.031250 2.633814
v 1.902379 0.000000 2.479230
v 1.851405 0.031250 2.412799
v 1.712141 0.054127 2.231307
v 1.521903 0.062500 1.983384
v 1.331665 0.054127 1.735461
v 1.192401 0.031250 1.553968
v 1.141427 0.000000 1.487538
v 1.192401 -0.031250 1.553968
v 1.331665 -0.054127 1.735461
v 1.521903 -0.062500 1.983384
v 1.712141 -0.054127 2.231307
v 1.851405 -0.031250 2.412799
v 2.209707 0.000000 2.209710
v 2.150499 0.031250 2.150501
v 1.988737 0.054127 1.988739
v 1.767766 0.062500 1.767768
v 1.546795 0.054127 1.546797
v 1.385033 0.031250 1.385035
v 1.325824 0.000000 1.325826
v 1.385033 -0.031250 1.385035
v 1.546795 -0.054127 1.546797
v 1.767766 -0.062500 1.767768
v 1.988737 -0.054127 1.988739
v 2.150499 -0.031250 2.150501
v 2.479229 0.000000 1.902379
v 2.412799 0.031250 1.851405
v 2.231307 0.054127 1.712141
v 1.983384 0.062500 1.521903
v 1.735461 0.054127 1.331665
v 1.553968 0.031250 1.192402
v 1.487538 0.000000 1.141428
v 1.553968 -0.031250 1.192402
v 1.735461 -0.054127 1.331665
v 1.983384 -0.062500 1.521903
v 2.231307 -0.054127 1.712141
v 2.412799 -0.031250 1.851405
v 2.706329 0.000000 1.562500
v 2.633813 0.031250 1.520633
v 2.435696 0.054127 1.406250
v 2.165063 0.062500 1.250000
v 1.894430 0.054127 1.093750
v 1.696313 0.031250 0.979367
v 1.623797 0.000000 0.937500
v 1.696313 -0.031250 0.979367
v 1.894430 -0.054127 1.093750
v 2.165063 -0.062500 1.250000
v 2.435696 -0.054127 1.406250
v 2.633813 -0.031250 1.520633
v 2.887123 0.000000 1.195887
v 2.809763 0.031250 1.163843
v 2.598411 0.054127 1.076298
v 2.309699 0.062500 0.956710
v 2.020986 0.054127 0.837121
v 1.809634 0.031250 0.749576
v 1.732274 0.000000 0.717532
v 1.809634 -0.031250 0.749576
v 2.020986 -0.054127 0.837121
v 2.309699 -0.062500 0.956710
v 2.598411 -0.054127 1.076298
v 2.809763 -0.031250 1.163843
v 3.018518 0.000000 0.808809
v 2.937638 0.031250 0.787137
v 2.716666 0.054127 0.727928
v 2.414815 0.062500 0.647047
v 2.112963 0.054127 0.566166
v 1.891992 0.031250 0.506957
v 1.811111 0.000000 0.485285
v 1.891992 -0.031250 0.506957
v 2.112963 -0.054127 0.566166
v 2.414815 -0.062500 0.647047
v 2.716666 -0.054127 0.727928
v 2.937638 -0.031250 0.787137
v 3.098265 0.000000 0.407894
v 3.015248 0.031250 0.396965
v 2.788439 0.054127 0.367105
v 2.478612 0.062500 0.326315
v 2.168786 0.054127 0.285526
v 1.941977 0.031250 0.255666
v 1.858959 0.000000 0.244737
v 1.941977 -0.031250 0.255666
v 2.168786 -0.054127 0.285526
v 2.478612 -0.062500 0.326315
v 2.788439 -0.054127 0.367105
v 3.015248 -0.031250 0.396965
vt 0.123154 0.126278
vt 0.094618 0.097771
vt 0.139445 0.086696
vt 0.051815 0.163650
vt 0.066476 0.128027
vt 0.854823 0.163651
vt 0.844078 0.169357
vt 0.840162 0.128027
vt 0.857110 0.201023
vt 0.822719 0.210687
vt 0.834122 0.238395
vt 0.781808 0.240943
vt 0.742082 0.275767
vt 0.732307 0.252018
vt 0.687481 0.240943
vt 0.697692 0.265753
vt 0.659339 0.210687
vt 0.235895 0.238395
vt 0.251215 0.169357
vt 0.247299 0.210687
vt 0.238182 0.201023
vt 0.229856 0.128027
vt 0.215194 0.163650
vt 0.188945 0.097771
vt 0.173091 0.136292
vt 0.108634 0.172255
vt 0.078764 0.136292
vt 0.064633 0.181037
vt 0.867891 0.205029
vt 0.868726 0.237804
vt 0.801120 0.294571
vt 0.792019 0.265753
vt 0.750794 0.303353
vt 0.706793 0.294571
vt 0.670743 0.238395
vt 0.226566 0.237804
vt 0.202126 0.205029
vt 0.158960 0.181037
vt 0.052467 0.231239
vt 0.038747 0.205029
vt 0.879142 0.251455
vt 0.853037 0.306687
vt 0.844286 0.270578
vt 0.808955 0.326904
vt 0.758294 0.334304
vt 0.714628 0.326904
vt 0.680906 0.270578
vt 0.225732 0.270578
vt 0.216566 0.279071
vt 0.190876 0.251455
vt 0.146795 0.231239
vt 0.096134 0.223839
vt 0.042475 0.286040
vt 0.018256 0.302134
vt 0.027496 0.251455
vt 0.886940 0.324119
vt 0.878727 0.279071
vt 0.815391 0.362198
vt 0.764454 0.368089
vt 0.721063 0.362198
vt 0.689657 0.306687
vt 0.216981 0.306687
vt 0.208352 0.324119
vt 0.181636 0.302134
vt 0.136803 0.286040
vt 0.078008 0.340220
vt 0.085866 0.280149
vt 0.011184 0.356198
vt 0.895454 0.356198
vt 0.888382 0.302134
vt 0.893227 0.372176
vt 0.860224 0.346104
vt 0.820316 0.399851
vt 0.769169 0.404132
vt 0.725989 0.399851
vt 0.696844 0.346104
vt 0.204294 0.388154
vt 0.209794 0.346104
vt 0.202066 0.372176
vt 0.174563 0.356198
vt 0.072694 0.403025
vt 0.034828 0.344501
vt 0.029655 0.405624
vt 0.900238 0.412723
vt 0.897479 0.422420
vt 0.865724 0.388154
vt 0.869444 0.432118
vt 0.823647 0.439217
vt 0.729320 0.439217
vt 0.702344 0.388154
vt 0.200573 0.432118
vt 0.197814 0.422420
vt 0.123983 0.405624
vt 0.129155 0.344501
vt 0.070013 0.467490
vt 0.003988 0.470741
vt 0.006400 0.412723
vt 0.902650 0.470741
vt 0.899623 0.473992
vt 0.825327 0.479623
vt 0.772358 0.441815
vt 0.773966 0.480494
vt 0.731000 0.479623
vt 0.706065 0.432118
vt 0.195670 0.473992
vt 0.167368 0.470741
vt 0.169780 0.412723
vt 0.121374 0.468361
vt 0.070013 0.532510
vt 0.027047 0.468361
vt 0.003988 0.529259
vt 0.899623 0.526008
vt 0.871321 0.477243
vt 0.825327 0.520377
vt 0.773966 0.519506
vt 0.731000 0.520377
vt 0.707941 0.477243
vt 0.198697 0.522757
vt 0.198697 0.477243
vt 0.195670 0.526008
vt 0.167368 0.529259
vt 0.121374 0.531639
vt 0.029655 0.594376
vt 0.027047 0.531639
vt 0.900238 0.587277
vt 0.902650 0.529259
vt 0.897479 0.577580
vt 0.871321 0.522757
vt 0.869444 0.567882
vt 0.823647 0.560783
vt 0.772358 0.558185
vt 0.729320 0.560783
vt 0.707941 0.522757
vt 0.197814 0.577580
vt 0.169780 0.587277
vt 0.123983 0.594376
vt 0.078008 0.659780
vt 0.072694 0.596975
vt 0.034828 0.655499
vt 0.006400 0.587277
vt 0.895454 0.643802
vt 0.893227 0.627824
vt 0.820316 0.600149
vt 0.769169 0.595868
vt 0.725989 0.600149
vt 0.706065 0.567882
vt 0.204294 0.611846
vt 0.200573 0.567882
vt 0.202066 0.627824
vt 0.174563 0.643802
vt 0.129155 0.655499
vt 0.085866 0.719851
vt 0.042475 0.713960
vt 0.011183 0.643802
vt 0.886940 0.675881
vt 0.865724 0.611846
vt 0.860224 0.653896
vt 0.815391 0.637802
vt 0.721063 0.637802
vt 0.702344 0.611846
vt 0.208352 0.675881
vt 0.181636 0.697866
vt 0.136803 0.713960
vt 0.096134 0.776161
vt 0.052467 0.768761
vt 0.018256 0.697866
vt 0.879142 0.748545
vt 0.888382 0.697866
vt 0.853037 0.693313
vt 0.808955 0.673096
vt 0.764454 0.631911
vt 0.758294 0.665696
vt 0.714628 0.673096
vt 0.696844 0.653896
vt 0.216981 0.693312
vt 0.209794 0.653896
vt 0.216566 0.720929
vt 0.190876 0.748545
vt 0.108634 0.827745
vt 0.064633 0.818963
vt 0.027496 0.748545
vt 0.867891 0.794971
vt 0.878727 0.720929
vt 0.868726 0.762196
vt 0.844286 0.729422
vt 0.801120 0.705429
vt 0.706793 0.705429
vt 0.689657 0.693313
vt 0.226566 0.762196
vt 0.202126 0.794971
vt 0.158960 0.818963
vt 0.146795 0.768761
vt 0.123154 0.873722
vt 0.051815 0.836349
vt 0.038747 0.794971
vt 0.857110 0.798977
vt 0.834122 0.761605
vt 0.792019 0.734247
vt 0.750794 0.696647
vt 0.742082 0.724233
vt 0.697692 0.734247
vt 0.680906 0.729422
vt 0.235895 0.761605
vt 0.225732 0.729422
vt 0.238182 0.798977
vt 0.215194 0.836349
vt 0.173091 0.863708
vt 0.139445 0.913304
vt 0.078764 0.863708
vt 0.094618 0.902229
vt 0.840162 0.871974
vt 0.854823 0.836350
vt 0.822719 0.789313
vt 0.781808 0.759057
vt 0.732307 0.747982
vt 0.687480 0.759057
vt 0.670743 0.761605
vt 0.251215 0.830643
vt 0.188945 0.902229
vt 0.157228 0.945814
vt 0.082481 0.901233
vt 0.066476 0.871973
vt 0.824157 0.901233
vt 0.844078 0.830643
vt 0.829851 0.856651
vt 0.810270 0.812070
vt 0.770661 0.779434
vt 0.721637 0.767488
vt 0.676334 0.779434
vt 0.659339 0.789313
vt 0.259747 0.812070
vt 0.247299 0.789313
vt 0.265442 0.856651
vt 0.229856 0.871973
vt 0.245861 0.901233
vt 0.206252 0.933868
vt 0.176199 0.970696
vt 0.111925 0.933868
vt 0.130388 0.958084
vt 0.807083 0.923627
vt 0.814674 0.876557
vt 0.796991 0.829488
vt 0.710255 0.782418
vt 0.633611 0.829488
vt 0.646891 0.812070
vt 0.280619 0.876557
vt 0.262935 0.923627
vt 0.224715 0.958084
vt 0.196034 0.987525
vt 0.756947 0.974462
vt 0.776250 0.958084
vt 0.798806 0.890020
vt 0.783106 0.841268
vt 0.758770 0.795030
vt 0.746338 0.805578
vt 0.698354 0.792515
vt 0.664443 0.795030
vt 0.242195 0.795030
vt 0.286911 0.841268
vt 0.273027 0.829487
vt 0.296486 0.890020
vt 0.280786 0.938773
vt 0.244018 0.974462
vt 0.216392 0.996012
vt 0.149691 0.974462
vt 0.737134 0.982721
vt 0.789231 0.938773
vt 0.770909 0.946411
vt 0.768855 0.847208
vt 0.733577 0.810898
vt 0.686139 0.797607
vt 0.652011 0.805578
vt 0.254627 0.805578
vt 0.301162 0.847208
vt 0.312773 0.896810
vt 0.263831 0.982721
vt 0.690246 0.996012
vt 0.717150 0.982721
vt 0.766092 0.896810
vt 0.782520 0.896810
vt 0.754481 0.847208
vt 0.720707 0.810898
vt 0.232820 0.797607
vt 0.267388 0.810898
vt 0.220499 0.797607
vt 0.280259 0.810898
vt 0.329201 0.896810
vt 0.299109 0.946411
vt 0.317590 0.946411
vt 0.283815 0.982721
vt 0.649353 0.987525
vt 0.669711 0.996012
vt 0.697337 0.974462
vt 0.752428 0.946411
vt 0.734105 0.938773
vt 0.740230 0.841268
vt 0.198692 0.805578
vt 0.185931 0.810898
vt 0.293019 0.805578
vt 0.315536 0.847208
vt 0.329787 0.841268
vt 0.345487 0.890020
vt 0.303628 0.974462
vt 0.603010 0.974462
vt 0.622823 0.982721
vt 0.678034 0.958084
vt 0.716254 0.923627
vt 0.749805 0.890020
vt 0.726346 0.829488
vt 0.707946 0.805578
vt 0.211124 0.795030
vt 0.245035 0.792515
vt 0.256936 0.782418
vt 0.305451 0.795030
vt 0.343672 0.829487
vt 0.353764 0.923627
vt 0.335913 0.938773
vt 0.583706 0.958084
vt 0.610547 0.945814
vt 0.629518 0.970697
vt 0.659571 0.933869
vt 0.699180 0.901233
vt 0.733938 0.876557
vt 0.718761 0.856651
vt 0.193572 0.812070
vt 0.180292 0.829487
vt 0.223015 0.779434
vt 0.268318 0.767488
vt 0.356951 0.812070
vt 0.376532 0.856651
vt 0.361355 0.876557
vt 0.370838 0.901233
vt 0.552874 0.923627
vt 0.565244 0.933869
vt 0.642264 0.902229
vt 0.683175 0.871973
vt 0.704534 0.830643
vt 0.713066 0.812070
vt 0.206020 0.789313
vt 0.234162 0.759057
vt 0.278988 0.747982
vt 0.317342 0.779434
vt 0.369400 0.789313
vt 0.390759 0.830643
vt 0.519795 0.871973
vt 0.535800 0.901233
vt 0.547937 0.902229
vt 0.576473 0.873722
vt 0.592764 0.913304
vt 0.626410 0.863708
vt 0.668513 0.836349
vt 0.691501 0.798977
vt 0.700618 0.789313
vt 0.217424 0.761605
vt 0.244373 0.734247
vt 0.338700 0.734247
vt 0.328489 0.759057
vt 0.403791 0.798977
vt 0.401504 0.836349
vt 0.386843 0.871973
vt 0.532083 0.863708
vt 0.612279 0.818963
vt 0.655445 0.794971
vt 0.679885 0.762196
vt 0.679050 0.729422
vt 0.689214 0.761605
vt 0.253474 0.705429
vt 0.288763 0.724233
vt 0.297475 0.696647
vt 0.347801 0.705429
vt 0.380803 0.761605
vt 0.390967 0.729422
vt 0.415407 0.762196
vt 0.492066 0.794971
vt 0.505133 0.836349
vt 0.561953 0.827745
vt 0.549452 0.776161
vt 0.600114 0.768761
vt 0.669885 0.720929
vt 0.236338 0.693313
vt 0.227587 0.729422
vt 0.261309 0.673096
vt 0.304975 0.665697
vt 0.399718 0.693313
vt 0.425408 0.720929
vt 0.414572 0.794971
vt 0.505786 0.768761
vt 0.517952 0.818963
vt 0.539185 0.719851
vt 0.590122 0.713960
vt 0.644195 0.748545
vt 0.634955 0.697866
vt 0.661671 0.675881
vt 0.670300 0.693313
vt 0.243525 0.653896
vt 0.311135 0.631911
vt 0.355636 0.673096
vt 0.362072 0.637802
vt 0.406905 0.653896
vt 0.435063 0.697866
vt 0.425823 0.748545
vt 0.480815 0.748545
vt 0.495794 0.713960
vt 0.531327 0.659780
vt 0.582474 0.655499
vt 0.627882 0.643802
vt 0.657612 0.611846
vt 0.663113 0.653896
vt 0.249026 0.611846
vt 0.267744 0.637802
vt 0.272670 0.600149
vt 0.315850 0.595868
vt 0.412405 0.611846
vt 0.433621 0.675881
vt 0.439908 0.627824
vt 0.471575 0.697866
vt 0.488147 0.655499
vt 0.526013 0.596975
vt 0.623099 0.587277
vt 0.655385 0.627824
vt 0.651133 0.577580
vt 0.252746 0.567882
vt 0.276001 0.560783
vt 0.319039 0.558185
vt 0.366997 0.600149
vt 0.370328 0.560783
vt 0.444160 0.577580
vt 0.442136 0.643802
vt 0.459719 0.587277
vt 0.464502 0.643802
vt 0.482974 0.594376
vt 0.574693 0.531639
vt 0.577302 0.594376
vt 0.620687 0.529260
vt 0.652016 0.522757
vt 0.653892 0.567882
vt 0.254622 0.522757
vt 0.277681 0.520378
vt 0.320647 0.519506
vt 0.372008 0.520378
vt 0.416126 0.567882
vt 0.418002 0.522757
vt 0.446304 0.526008
vt 0.446919 0.587277
vt 0.457307 0.529260
vt 0.480366 0.531639
vt 0.523332 0.532511
vt 0.574693 0.468361
vt 0.620687 0.470741
vt 0.648989 0.526008
vt 0.648989 0.473992
vt 0.277681 0.479623
vt 0.320647 0.480494
vt 0.372008 0.479623
vt 0.418002 0.477243
vt 0.449331 0.470741
vt 0.449331 0.529260
vt 0.480366 0.468361
vt 0.526013 0.403025
vt 0.523332 0.467490
vt 0.577302 0.405624
vt 0.623099 0.412723
vt 0.651133 0.422420
vt 0.652016 0.477243
vt 0.252746 0.432118
vt 0.254622 0.477243
vt 0.276001 0.439217
vt 0.319039 0.441815
vt 0.370328 0.439217
vt 0.444160 0.422420
vt 0.446304 0.473992
vt 0.457307 0.470741
vt 0.482974 0.405624
vt 0.531327 0.340220
vt 0.582474 0.344502
vt 0.627882 0.356198
vt 0.655385 0.372176
vt 0.653892 0.432118
vt 0.272670 0.399851
vt 0.315850 0.404132
vt 0.366997 0.399851
vt 0.416126 0.432118
vt 0.412405 0.388154
vt 0.439908 0.372176
vt 0.446919 0.412723
vt 0.459719 0.412723
vt 0.488147 0.344502
vt 0.539185 0.280149
vt 0.634955 0.302134
vt 0.661671 0.324119
vt 0.657612 0.388154
vt 0.249026 0.388154
vt 0.267744 0.362199
vt 0.311135 0.368089
vt 0.362072 0.362199
vt 0.433621 0.324119
vt 0.442136 0.356198
vt 0.471575 0.302134
vt 0.464502 0.356198
vt 0.495794 0.286040
vt 0.549452 0.223839
vt 0.590122 0.286040
vt 0.600114 0.231239
vt 0.669885 0.279071
vt 0.670300 0.306687
vt 0.663113 0.346104
vt 0.236338 0.306687
vt 0.243525 0.346104
vt 0.304975 0.334303
vt 0.355636 0.326904
vt 0.406905 0.346104
vt 0.399718 0.306687
vt 0.425408 0.279071
vt 0.435063 0.302134
vt 0.480815 0.251455
vt 0.505786 0.231239
vt 0.612279 0.181037
vt 0.644195 0.251455
vt 0.655445 0.205029
vt 0.679885 0.237804
vt 0.227588 0.270579
vt 0.261309 0.326904
vt 0.253474 0.294571
vt 0.297475 0.303353
vt 0.390967 0.270579
vt 0.415407 0.237804
vt 0.425823 0.251455
vt 0.492066 0.205029
vt 0.517952 0.181037
vt 0.576473 0.126278
vt 0.561953 0.172255
vt 0.626410 0.136292
vt 0.668513 0.163651
vt 0.691501 0.201023
vt 0.679050 0.270578
vt 0.217424 0.238395
vt 0.288763 0.275767
vt 0.347801 0.294571
vt 0.338700 0.265753
vt 0.403791 0.201023
vt 0.401504 0.163651
vt 0.414572 0.205029
vt 0.505133 0.163651
vt 0.532083 0.136292
vt 0.592764 0.086696
vt 0.642264 0.097771
vt 0.683175 0.128027
vt 0.704534 0.169357
vt 0.689214 0.238395
vt 0.206020 0.210687
vt 0.244373 0.265753
vt 0.234162 0.240943
vt 0.278988 0.252018
vt 0.328489 0.240943
vt 0.380803 0.238395
vt 0.369400 0.210687
vt 0.386843 0.128027
vt 0.547937 0.097771
vt 0.610547 0.054186
vt 0.659571 0.066131
vt 0.718761 0.143349
vt 0.713066 0.187930
vt 0.700618 0.210687
vt 0.193572 0.187930
vt 0.223015 0.220566
vt 0.268318 0.232512
vt 0.317343 0.220566
vt 0.356951 0.187930
vt 0.390759 0.169357
vt 0.376532 0.143349
vt 0.535800 0.098767
vt 0.519795 0.128027
vt 0.678034 0.041916
vt 0.699180 0.098767
vt 0.716254 0.076373
vt 0.733938 0.123443
vt 0.180292 0.170513
vt 0.211124 0.204970
vt 0.256936 0.217582
vt 0.305451 0.204970
vt 0.343672 0.170513
vt 0.361355 0.123443
vt 0.370838 0.098767
vt 0.583706 0.041916
vt 0.565244 0.066131
vt 0.629518 0.029304
vt 0.697337 0.025538
vt 0.749805 0.109980
vt 0.740230 0.158733
vt 0.726346 0.170513
vt 0.707946 0.194422
vt 0.695514 0.204970
vt 0.198692 0.194422
vt 0.245035 0.207485
vt 0.293019 0.194422
vt 0.329787 0.158733
vt 0.345488 0.109980
vt 0.353764 0.076373
vt 0.303628 0.025538
vt 0.322931 0.041916
vt 0.603010 0.025538
vt 0.649353 0.012475
vt 0.717150 0.017279
vt 0.734105 0.061227
vt 0.766092 0.103190
vt 0.754481 0.152792
vt 0.185931 0.189102
vt 0.232820 0.202393
vt 0.315536 0.152792
vt 0.329201 0.103190
vt 0.335913 0.061227
vt 0.317590 0.053589
vt 0.622823 0.017279
vt 0.690246 0.003988
vt 0.669711 0.003988
vt 0.737134 0.017279
vt 0.752428 0.053589
vt 0.770909 0.053589
vt 0.782520 0.103191
vt 0.768855 0.152792
vt 0.720707 0.189102
vt 0.733577 0.189102
vt 0.673818 0.202393
vt 0.220499 0.202393
vt 0.280259 0.189102
vt 0.301162 0.152792
vt 0.312773 0.103190
vt 0.263831 0.017279
vt 0.283815 0.017279
vt 0.236927 0.003988
vt 0.196034 0.012475
vt 0.169504 0.017279
vt 0.216392 0.003988
vt 0.756947 0.025538
vt 0.798806 0.109980
vt 0.783106 0.158732
vt 0.746338 0.194422
vt 0.686139 0.202393
vt 0.698354 0.207485
vt 0.639250 0.189102
vt 0.254627 0.194422
vt 0.267388 0.189102
vt 0.286911 0.158732
vt 0.296486 0.109980
vt 0.299109 0.053589
vt 0.280786 0.061227
vt 0.244018 0.025538
vt 0.176199 0.029304
vt 0.149691 0.025538
vt 0.776250 0.041916
vt 0.789231 0.061227
vt 0.807083 0.076373
vt 0.814674 0.123443
vt 0.796991 0.170513
vt 0.758770 0.204970
vt 0.710255 0.217582
vt 0.652011 0.194422
vt 0.273027 0.170513
vt 0.280619 0.123443
vt 0.262935 0.076373
vt 0.224715 0.041916
vt 0.111925 0.066131
vt 0.130388 0.041916
vt 0.082481 0.098767
vt 0.099555 0.076373
vt 0.829851 0.143349
vt 0.810270 0.187930
vt 0.721637 0.232512
vt 0.664443 0.204970
vt 0.676334 0.220566
vt 0.633611 0.170513
vt 0.265442 0.143349
vt 0.245861 0.098767
vt 0.206252 0.066131
vt 0.157228 0.054186
vt 0.824157 0.098767
vt 0.770661 0.220566
vt 0.646891 0.187930
vt 0.259747 0.187930
vt 0.099555 0.923627
vt 0.169504 0.982721
vt 0.639250 0.810898
vt 0.673818 0.797607
vt 0.236927 0.996012
vt 0.695514 0.795030
vt 0.322931 0.958084
vt 0.552874 0.076373
vt 0.242195 0.204970
vn 0.3496 0.9366 -0.0229
vn 0.0995 0.9950 -0.0065
vn 0.0268 0.9996 -0.0018
vn -0.0268 0.9996 0.0018
vn -0.0995 0.9950 0.0065
vn -0.3496 0.9366 0.0229
vn -0.3496 -0.9366 0.0229
vn -0.0995 -0.9950 0.0065
vn -0.0268 -0.9996 0.0018
vn 0.0268 -0.9996 -0.0018
vn 0.0995 -0.9950 -0.0065
vn 0.3496 -0.9366 -0.0229
vn 0.3436 0.9366 -0.0683
vn 0.0978 0.9950 -0.0195
vn 0.0263 0.9996 -0.0052
vn -0.0263 0.9996 0.0052
vn -0.0978 0.9950 0.0195
vn -0.3436 0.9366 0.0683
vn -0.3436 -0.9366 0.0683
vn -0.0978 -0.9950 0.0195
vn -0.0263 -0.9996 0.0052
vn 0.0263 -0.9996 -0.0052
vn 0.0978 -0.9950 -0.0195
vn 0.3436 -0.9366 -0.0683
vn 0.3317 0.9366 -0.1126
vn 0.0944 0.9950 -0.0321
vn 0.0254 0.9996 -0.0086
vn -0.0254 0.9996 0.0086
vn -0.0944 0.9950 0.0321
vn -0.3317 0.9366 0.1126
vn -0.3317 -0.9366 0.1126
vn -0.0944 -0.9950 0.0321
vn -0.0254 -0.9996 0.0086
vn 0.0254 -0.9996 -0.0086
vn 0.0944 -0.9950 -0.0321
vn 0.3317 -0.9366 -0.1126
vn 0.3142 0.9366 -0.1549
vn 0.0894 0.9950 -0.0441
vn 0.0241 0.9996 -0.0119
vn -0.0241 0.9996 0.0119
vn -0.0894 0.9950 0.0441
vn -0.3142 0.9366 0.1549
vn -0.3142 -0.9366 0.1549
vn -0.0894 -0.9950 0.0441
vn -0.0241 -0.9996 0.0119
vn 0.0241 -0.9996 -0.0119
vn 0.0894 -0.9950 -0.0441
vn 0.3142 -0.9366 -0.1549
vn 0.2913 0.9366 -0.1946
vn 0.0829 0.9950 -0.0554
vn 0.0223 0.9996 -0.0149
vn -0.0223 0.9996 0.0149
vn -0.0829 0.9950 0.0554
vn -0.2913 0.9366 0.1946
vn -0.2913 -0.9366 0.1946
vn -0.0829 -0.9950 0.0554
vn -0.0223 -0.9996 0.0149
vn 0.0223 -0.9996 -0.0149
vn 0.0829 -0.9950 -0.0554
vn 0.2913 -0.9366 -0.1946
vn 0.2634 0.9366 -0.2310
vn 0.0750 0.9950 -0.0657
vn 0.0202 0.9996 -0.0177
vn -0.0202 0.9996 0.0177
vn -0.0750 0.9950 0.0657
vn -0.2634 0.9366 0.2310
vn -0.2634 -0.9366 0.2310
vn -0.0750 -0.9950 0.0657
vn -0.0202 -0.9996 0.0177
vn 0.0202 -0.9996 -0.0177
vn 0.0750 -0.9950 -0.0657
vn 0.2634 -0.9366 -0.2310
vn 0.2310 0.9366 -0.2634
vn 0.0657 0.9950 -0.0750
vn 0.0177 0.9996 -0.0202
vn -0.0177 0.9996 0.0202
vn -0.0657 0.9950 0.0750
vn -0.2310 0.9366 0.2634
vn -0.2310 -0.9366 0.2634
vn -0.0657 -0.9950 0.0750
vn -0.0177 -0.9996 0.0202
vn 0.0177 -0.9996 -0.0202
vn 0.0657 -0.9950 -0.0750
vn 0.2310 -0.9366 -0.2634
vn 0.1946 0.9366 -0.2913
vn 0.0554 0.9950 -0.0829
vn 0.0149 0.9996 -0.0223
vn -0.0149 0.9996 0.0223
vn -0.0554 0.9950 0.0829
vn -0.1946 0.9366 0.2913
vn -0.1946 -0.9366 0.2913
vn -0.0554 -0.9950 0.0829
vn -0.0149 -0.9996 0.0223
vn 0.0149 -0.9996 -0.0223
vn 0.0554 -0.9950 -0.0829
vn 0.1946 -0.9366 -0.2913
vn 0.1549 0.9366 -0.3142
vn 0.0441 0.9950 -0.0894
vn 0.0119 0.9996 -0.0241
vn -0.0119 0.9996 0.0241
vn -0.0441 0.9950 0.0894
vn -0.1549 0.9366 0.3142
vn -0.1549 -0.9366 0.3142
vn -0.0441 -0.9950 0.0894
vn -0.0119 -0.9996 0.0241
vn 0.0119 -0.9996 -0.0241
vn 0.0441 -0.9950 -0.0894
vn 0.1549 -0.9366 -0.3142
vn 0.1126 0.9366 -0.3317
vn 0.0321 0.9950 -0.0944
vn 0.0086 0.9996 -0.0254
vn -0.0086 0.9996 0.0254
vn -0.0321 0.9950 0.0944
vn -0.1126 0.9366 0.3317
vn -0.1126 -0.9366 0.3317
vn -0.0321 -0.9950 0.0944
vn -0.0086 -0.9996 0.0254
vn 0.0086 -0.9996 -0.0254
vn 0.0321 -0.9950 -0.0944
vn 0.1126 -0.9366 -0.3317
vn 0.0683 0.9366 -0.3436
vn 0.0195 0.9950 -0.0978
vn 0.0052 0.9996 -0.0263
vn -0.0052 0.9996 0.0263
vn -0.0195 0.9950 0.0978
vn -0.0683 0.9366 0.3436
vn -0.0683 -0.9366 0.3436
vn -0.0195 -0.9950 0.0978
vn -0.0052 -0.9996 0.0263
vn 0.0052 -0.9996 -0.0263
vn 0.0195 -0.9950 -0.0978
vn 0.0683 -0.9366 -0.3436
vn 0.0229 0.9366 -0.3496
vn 0.0065 0.9950 -0.0995
vn 0.0018 0.9996 -0.0268
vn -0.0018 0.9996 0.0268
vn -0.0065 0.9950 0.0995
vn -0.0229 0.9366 0.3496
vn -0.0229 -0.9366 0.3496
vn -0.0065 -0.9950 0.0995
vn -0.0018 -0.9996 0.0268
vn 0.0018 -0.9996 -0.0268
vn 0.0065 -0.9950 -0.0995
vn 0.0229 -0.9366 -0.3496
vn -0.0229 0.9366 -0.3496
vn -0.0065 0.9950 -0.0995
vn -0.0018 0.9996 -0.0268
vn 0.0018 0.9996 0.0268
vn 0.0065 0.9950 0.0995
vn 0.0229 0.9366 0.3496
vn 0.0229 -0.9366 0.3496
vn 0.0065 -0.9950 0.0995
vn 0.0018 -0.9996 0.0268
vn -0.0018 -0.9996 -0.0268
vn -0.0065 -0.9950 -0.0995
vn -0.0229 -0.9366 -0.3496
vn -0.0683 0.9366 -0.3436
vn -0.0195 0.9950 -0.0978
vn -0.0052 0.9996 -0.0263
vn 0.0052 0.9996 0.0263
vn 0.0195 0.9950 0.0978
vn 0.0683 0.9366 0.3436
vn 0.0683 -0.9366 0.3436
vn 0.0195 -0.9950 0.0978
vn 0.0052 -0.9996 0.0263
vn -0.0052 -0.9996 -0.0263
vn -0.0195 -0.9950 -0.0978
vn -0.0683 -0.9366 -0.3436
vn -0.1126 0.9366 -0.3317
vn -0.0321 0.9950 -0.0944
vn -0.0086 0.9996 -0.0254
vn 0.0086 0.9996 0.0254
vn 0.0321 0.9950 0.0944
vn 0.1126 0.9366 0.3317
vn 0.1126 -0.9366 0.3317
vn 0.0321 -0.9950 0.0944
vn 0.0086 -0.9996 0.0254
vn -0.0086 -0.9996 -0.0254
vn -0.0321 -0.9950 -0.0944
vn -0.1126 -0.9366 -0.3317
vn -0.1549 0.9366 -0.3142
vn -0.0441 0.9950 -0.0894
vn -0.0119 0.9996 -0.0241
vn 0.0119 0.9996 0.0241
vn 0.0441 0.9950 0.0894
vn 0.1549 0.9366 0.3142
vn 0.1549 -0.9366 0.3142
vn 0.0441 -0.9950 0.0894
vn 0.0119 -0.9996 0.0241
vn -0.0119 -0.9996 -0.0241
vn -0.0441 -0.9950 -0.0894
vn -0.1549 -0.9366 -0.3142
vn -0.1946 0.9366 -0.2913
vn -0.0554 0.9950 -0.0829
vn -0.0149 0.9996 -0.0223
vn 0.0149 0.9996 0.0223
vn 0.0554 0.9950 0.0829
vn 0.1946 0.9366 0.2913
vn 0.1946 -0.9366 0.2913
vn 0.0554 -0.9950 0.0829
vn 0.0149 -0.9996 0.0223
vn -0.0149 -0.9996 -0.0223
vn -0.0554 -0.9950 -0.0829
vn -0.1946 -0.9366 -0.2913
vn -0.2310 0.9366 -0.2634
vn -0.0657 0.9950 -0.0750
vn -0.0177 0.9996 -0.0202
vn 0.0177 0.9996 0.0202
vn 0.0657 0.9950 0.0750
vn 0.2310 0.9366 0.2634
vn 0.2310 -0.9366 0.2634
vn 0.0657 -0.9950 0.0750
vn 0.0177 -0.9996 0.0202
vn -0.0177 -0.9996 -0.0202
vn -0.0657 -0.9950 -0.0750
vn -0.2310 -0.9366 -0.2634
vn -0.2634 0.9366 -0.2310
vn -0.0750 0.9950 -0.0657
vn -0.0202 0.9996 -0.0177
vn 0.0202 0.9996 0.0177
vn 0.0750 0.9950 0.0657
vn 0.2634 0.9366 0.2310
vn 0.2634 -0.9366 0.2310
vn 0.0750 -0.9950 0.0657
vn 0.0202 -0.9996 0.0177
vn -0.0202 -0.9996 -0.0177
vn -0.0750 -0.9950 -0.0657
vn -0.2634 -0.9366 -0.2310
vn -0.2913 0.9366 -0.1946
vn -0.0829 0.9950 -0.0554
vn -0.0223 0.9996 -0.0149
vn 0.0223 0.9996 0.0149
vn 0.0829 0.9950 0.0554
vn 0.2913 0.9366 0.1946
vn 0.2913 -0.9366 0.1946
vn 0.0829 -0.9950 0.0554
vn 0.0223 -0.9996 0.0149
vn -0.0223 -0.9996 -0.0149
vn -0.0829 -0.9950 -0.0554
vn -0.2913 -0.9366 -0.1946
vn -0.3142 0.9366 -0.1549
vn -0.0894 0.9950 -0.0441
vn -0.0241 0.9996 -0.0119
vn 0.0241 0.9996 0.0119
vn 0.0894 0.9950 0.0441
vn 0.3142 0.9366 0.1549
vn 0.3142 -0.9366 0.1549
vn 0.0894 -0.9950 0.0441
vn 0.0241 -0.9996 0.0119
vn -0.0241 -0.9996 -0.0119
vn -0.0894 -0.9950 -0.0441
vn -0.3142 -0.9366 -0.1549
vn -0.3317 0.9366 -0.1126
vn -0.0944 0.9950 -0.0321
vn -0.0254 0.9996 -0.0086
vn 0.0254 0.9996 0.0086
vn 0.0944 0.9950 0.0321
vn 0.3317 0.9366 0.1126
vn 0.3317 -0.9366 0.1126
vn 0.0944 -0.9950 0.0321
vn 0.0254 -0.9996 0.0086
vn -0.0254 -0.9996 -0.0086
vn -0.0944 -0.9950 -0.0321
vn -0.3317 -0.9366 -0.1126
vn -0.3436 0.9366 -0.0683
vn -0.0978 0.9950 -0.0195
vn -0.0263 0.9996 -0.0052
vn 0.0263 0.9996 0.0052
vn 0.0978 0.9950 0.0195
vn 0.3436 0.9366 0.0683
vn 0.3436 -0.9366 0.0683
vn 0.0978 -0.9950 0.0195
vn 0.0263 -0.9996 0.0052
vn -0.0263 -0.9996 -0.0052
vn -0.0978 -0.9950 -0.0195
vn -0.3436 -0.9366 -0.0683
vn -0.3496 0.9366 -0.0229
vn -0.0995 0.9950 -0.0065
vn -0.0268 0.9996 -0.0018
vn 0.0268 0.9996 0.0018
vn 0.0995 0.9950 0.0065
vn 0.3496 0.9366 0.0229
vn 0.3496 -0.9366 0.0229
vn 0.0995 -0.9950 0.0065
vn 0.0268 -0.9996 0.0018
vn -0.0268 -0.9996 -0.0018
vn -0.0995 -0.9950 -0.0065
vn -0.3496 -0.9366 -0.0229
usemtl BakedMaterial
s off
f 13/1/1 2/2/1 1/3/1
f 2/2/2 15/4/2 3/5/2
f 15/6/3 4/7/3 3/8/3
f 16/9/4 5/10/4 4/7/4
f 17/11/5 6/12/5 5/10/5
f 6/12/6 19/13/6 7/14/6
f 19/13/7 8/15/7 7/14/7
f 20/16/8 9/17/8 8/15/8
f 21/18/9 10/19/9 9/20/9
f 22/21/10 11/22/10 10/19/10
f 23/23/11 12/24/11 11/22/11
f 24/25/12 1/3/12 12/24/12
f 25/26/13 14/27/13 13/1/13
f 26/28/14 15/4/14 14/27/14
f 27/29/15 16/9/15 15/6/15
f 28/30/16 17/11/16 16/9/16
f 17/11/17 30/31/17 18/32/17
f 30/31/18 19/13/18 18/32/18
f 31/33/19 20/16/19 19/13/19
f 32/34/20 21/35/20 20/16/20
f 21/18/21 34/36/21 22/21/21
f 22/21/22 35/37/22 23/23/22
f 23/23/23 36/38/23 24/25/23
f 36/38/24 13/1/24 24/25/24
f 25/26/25 38/39/25 26/28/25
f 38/39/26 27/40/26 26/28/26
f 39/41/27 28/30/27 27/29/27
f 28/30/28 41/42/28 29/43/28
f 29/43/29 42/44/29 30/31/29
f 30/31/30 43/45/30 31/33/30
f 43/45/31 32/34/31 31/33/31
f 44/46/32 33/47/32 32/34/32
f 33/48/33 46/49/33 34/36/33
f 34/36/34 47/50/34 35/37/34
f 35/37/35 48/51/35 36/38/35
f 48/51/36 25/26/36 36/38/36
f 37/52/37 50/53/37 38/39/37
f 38/39/38 51/54/38 39/55/38
f 39/41/39 52/56/39 40/57/39
f 52/56/40 41/42/40 40/57/40
f 41/42/41 54/58/41 42/44/41
f 54/58/42 43/45/42 42/44/42
f 55/59/43 44/46/43 43/45/43
f 56/60/44 45/61/44 44/46/44
f 45/62/45 58/63/45 46/49/45
f 58/63/46 47/50/46 46/49/46
f 59/64/47 48/51/47 47/50/47
f 60/65/48 37/52/48 48/51/48
f 61/66/49 50/53/49 49/67/49
f 50/53/50 63/68/50 51/54/50
f 63/69/51 52/56/51 51/70/51
f 64/71/52 53/72/52 52/56/52
f 53/72/53 66/73/53 54/58/53
f 66/73/54 55/59/54 54/58/54
f 67/74/55 56/60/55 55/59/55
f 68/75/56 57/76/56 56/60/56
f 69/77/57 58/63/57 57/78/57
f 70/79/58 59/64/58 58/63/58
f 71/80/59 60/65/59 59/64/59
f 60/65/60 61/66/60 49/67/60
f 73/81/61 62/82/61 61/66/61
f 74/83/62 63/68/62 62/82/62
f 75/84/63 64/71/63 63/69/63
f 76/85/64 65/86/64 64/71/64
f 77/87/65 66/73/65 65/86/65
f 78/88/66 67/74/66 66/73/66
f 67/74/67 80/89/67 68/75/67
f 80/89/68 69/90/68 68/75/68
f 81/91/69 70/79/69 69/77/69
f 82/92/70 71/80/70 70/79/70
f 71/80/71 84/93/71 72/94/71
f 84/93/72 61/66/72 72/94/72
f 85/95/73 74/83/73 73/81/73
f 74/83/74 87/96/74 75/97/74
f 87/98/75 76/85/75 75/84/75
f 88/99/76 77/87/76 76/85/76
f 77/87/77 90/100/77 78/88/77
f 90/100/78 79/101/78 78/88/78
f 91/102/79 80/89/79 79/101/79
f 92/103/80 81/104/80 80/89/80
f 81/91/81 94/105/81 82/92/81
f 82/92/82 95/106/82 83/107/82
f 95/106/83 84/93/83 83/107/83
f 96/108/84 73/81/84 84/93/84
f 97/109/85 86/110/85 85/95/85
f 86/110/86 99/111/86 87/96/86
f 87/98/87 100/112/87 88/99/87
f 100/112/88 89/113/88 88/99/88
f 89/113/89 102/114/89 90/100/89
f 102/114/90 91/102/90 90/100/90
f 103/115/91 92/103/91 91/102/91
f 104/116/92 93/117/92 92/103/92
f 105/118/93 94/105/93 93/119/93
f 106/120/94 95/106/94 94/105/94
f 107/121/95 96/108/95 95/106/95
f 108/122/96 85/95/96 96/108/96
f 97/109/97 110/123/97 98/124/97
f 110/123/98 99/111/98 98/124/98
f 111/125/99 100/112/99 99/126/99
f 112/127/100 101/128/100 100/112/100
f 113/129/101 102/114/101 101/128/101
f 114/130/102 103/115/102 102/114/102
f 115/131/103 104/116/103 103/115/103
f 116/132/104 105/133/104 104/116/104
f 105/118/105 118/134/105 106/120/105
f 106/120/106 119/135/106 107/121/106
f 119/135/107 108/122/107 107/121/107
f 120/136/108 97/109/108 108/122/108
f 121/137/109 110/123/109 109/138/109
f 122/139/110 111/140/110 110/123/110
f 123/141/111 112/127/111 111/125/111
f 124/142/112 113/129/112 112/127/112
f 113/129/113 126/143/113 114/130/113
f 126/143/114 115/131/114 114/130/114
f 127/144/115 116/132/115 115/131/115
f 128/145/116 117/146/116 116/132/116
f 129/147/117 118/134/117 117/148/117
f 130/149/118 119/135/118 118/134/118
f 131/150/119 120/136/119 119/135/119
f 132/151/120 109/138/120 120/136/120
f 133/152/121 122/139/121 121/137/121
f 134/153/122 123/154/122 122/139/122
f 123/141/123 136/155/123 124/142/123
f 136/155/124 125/156/124 124/142/124
f 137/157/125 126/143/125 125/156/125
f 138/158/126 127/144/126 126/143/126
f 127/144/127 140/159/127 128/145/127
f 140/159/128 129/160/128 128/145/128
f 129/147/129 142/161/129 130/149/129
f 142/161/130 131/150/130 130/149/130
f 143/162/131 132/151/131 131/150/131
f 144/163/132 121/137/132 132/151/132
f 145/164/133 134/153/133 133/152/133
f 146/165/134 135/166/134 134/153/134
f 147/167/135 136/155/135 135/168/135
f 136/155/136 149/169/136 137/157/136
f 137/157/137 150/170/137 138/158/137
f 150/170/138 139/171/138 138/158/138
f 151/172/139 140/159/139 139/171/139
f 152/173/140 141/174/140 140/159/140
f 153/175/141 142/161/141 141/176/141
f 154/177/142 143/162/142 142/161/142
f 155/178/143 144/163/143 143/162/143
f 144/163/144 145/164/144 133/152/144
f 157/179/145 146/165/145 145/164/145
f 158/180/146 147/181/146 146/165/146
f 159/182/147 148/183/147 147/167/147
f 160/184/148 149/169/148 148/183/148
f 161/185/149 150/170/149 149/169/149
f 162/186/150 151/172/150 150/170/150
f 151/172/151 164/187/151 152/173/151
f 164/187/152 153/188/152 152/173/152
f 153/175/153 166/189/153 154/177/153
f 154/177/154 167/190/154 155/178/154
f 155/178/155 168/191/155 156/192/155
f 156/192/156 157/179/156 145/164/156
f 169/193/157 158/180/157 157/179/157
f 158/180/158 171/194/158 159/195/158
f 159/182/159 172/196/159 160/184/159
f 172/196/160 161/185/160 160/184/160
f 173/197/161 162/186/161 161/185/161
f 174/198/162 163/199/162 162/186/162
f 175/200/163 164/187/163 163/199/163
f 176/201/164 165/202/164 164/187/164
f 177/203/165 166/189/165 165/204/165
f 178/205/166 167/190/166 166/189/166
f 179/206/167 168/191/167 167/190/167
f 180/207/168 157/179/168 168/191/168
f 181/208/169 170/209/169 169/193/169
f 182/210/170 171/194/170 170/209/170
f 183/211/171 172/196/171 171/212/171
f 172/196/172 185/213/172 173/197/172
f 185/213/173 174/198/173 173/197/173
f 186/214/174 175/200/174 174/198/174
f 187/215/175 176/201/175 175/200/175
f 188/216/176 177/217/176 176/201/176
f 177/203/177 190/218/177 178/205/177
f 190/218/178 179/206/178 178/205/178
f 179/206/179 192/219/179 180/207/179
f 192/219/180 169/193/180 180/207/180
f 193/220/181 182/210/181 181/208/181
f 182/210/182 195/221/182 183/222/182
f 195/223/183 184/224/183 183/211/183
f 196/225/184 185/213/184 184/224/184
f 197/226/185 186/214/185 185/213/185
f 198/227/186 187/215/186 186/214/186
f 199/228/187 188/216/187 187/215/187
f 200/229/188 189/230/188 188/216/188
f 201/231/189 190/218/189 189/232/189
f 202/233/190 191/234/190 190/218/190
f 203/235/191 192/219/191 191/234/191
f 204/236/192 181/208/192 192/219/192
f 205/237/193 194/238/193 193/220/193
f 206/239/194 195/221/194 194/238/194
f 207/240/195 196/225/195 195/223/195
f 208/241/196 197/226/196 196/225/196
f 209/242/197 198/227/197 197/226/197
f 198/227/198 211/243/198 199/228/198
f 211/243/199 200/229/199 199/228/199
f 200/229/200 213/244/200 201/245/200
f 201/231/201 214/246/201 202/233/201
f 202/233/202 215/247/202 203/235/202
f 203/235/203 216/248/203 204/236/203
f 216/248/204 193/220/204 204/236/204
f 217/249/205 206/239/205 205/237/205
f 218/250/206 207/240/206 206/251/206
f 207/240/207 220/252/207 208/241/207
f 220/252/208 209/242/208 208/241/208
f 221/253/209 210/254/209 209/242/209
f 222/255/210 211/243/210 210/254/210
f 223/256/211 212/257/211 211/243/211
f 212/258/212 225/259/212 213/260/212
f 225/259/213 214/246/213 213/260/213
f 226/261/214 215/247/214 214/246/214
f 227/262/215 216/248/215 215/247/215
f 228/263/216 205/237/216 216/248/216
f 229/264/217 218/265/217 217/249/217
f 230/266/218 219/267/218 218/250/218
f 231/268/219 220/252/219 219/267/219
f 220/252/220 233/269/220 221/253/220
f 233/269/221 222/255/221 221/253/221
f 234/270/222 223/256/222 222/255/222
f 235/271/223 224/272/223 223/256/223
f 224/273/224 237/274/224 225/259/224
f 237/274/225 226/261/225 225/259/225
f 238/275/226 227/262/226 226/261/226
f 227/262/227 240/276/227 228/263/227
f 240/276/228 217/249/228 228/263/228
f 229/277/229 242/278/229 230/266/229
f 242/278/230 231/268/230 230/266/230
f 231/268/231 244/279/231 232/280/231
f 244/279/232 233/269/232 232/280/232
f 245/281/233 234/270/233 233/269/233
f 246/282/234 235/271/234 234/270/234
f 247/283/235 236/284/235 235/285/235
f 248/286/236 237/274/236 236/284/236
f 237/274/237 250/287/237 238/275/237
f 250/287/238 239/288/238 238/275/238
f 251/289/239 240/276/239 239/288/239
f 252/290/240 229/264/240 240/276/240
f 253/291/241 242/278/241 241/292/241
f 254/293/242 243/294/242 242/278/242
f 255/295/243 244/279/243 243/294/243
f 244/279/244 257/296/244 245/281/244
f 257/296/245 246/282/245 245/281/245
f 258/297/246 247/283/246 246/298/246
f 247/283/247 260/299/247 248/286/247
f 260/299/248 249/300/248 248/286/248
f 261/301/249 250/287/249 249/300/249
f 262/302/250 251/289/250 250/287/250
f 251/289/251 264/303/251 252/290/251
f 264/304/252 241/292/252 252/305/252
f 253/291/253 266/306/253 254/293/253
f 266/306/254 255/295/254 254/293/254
f 267/307/255 256/308/255 255/295/255
f 256/308/256 269/309/256 257/296/256
f 269/309/257 258/310/257 257/296/257
f 270/311/258 259/312/258 258/297/258
f 271/313/259 260/299/259 259/312/259
f 272/314/260 261/301/260 260/299/260
f 273/315/261 262/302/261 261/301/261
f 262/302/262 275/316/262 263/317/262
f 275/316/263 264/303/263 263/317/263
f 276/318/264 253/291/264 264/304/264
f 277/319/265 266/306/265 265/320/265
f 278/321/266 267/307/266 266/306/266
f 279/322/267 268/323/267 267/307/267
f 280/324/268 269/309/268 268/323/268
f 281/325/269 270/311/269 269/326/269
f 282/327/270 271/313/270 270/311/270
f 283/328/271 272/314/271 271/313/271
f 272/314/272 285/329/272 273/315/272
f 273/315/273 286/330/273 274/331/273
f 274/331/274 287/332/274 275/316/274
f 275/333/275 288/334/275 276/318/275
f 276/318/276 277/319/276 265/320/276
f 277/319/277 290/335/277 278/321/277
f 290/335/278 279/322/278 278/321/278
f 291/336/279 280/324/279 279/322/279
f 292/337/280 281/338/280 280/324/280
f 293/339/281 282/327/281 281/325/281
f 294/340/282 283/328/282 282/327/282
f 295/341/283 284/342/283 283/328/283
f 284/342/284 297/343/284 285/329/284
f 297/343/285 286/330/285 285/329/285
f 298/344/286 287/332/286 286/330/286
f 299/345/287 288/334/287 287/346/287
f 300/347/288 277/319/288 288/334/288
f 301/348/6 290/335/6 289/349/6
f 302/350/5 291/336/5 290/335/5
f 303/351/4 292/337/4 291/336/4
f 304/352/3 293/353/3 292/337/3
f 305/354/2 294/340/2 293/339/2
f 306/355/1 295/341/1 294/340/1
f 295/341/12 308/356/12 296/357/12
f 308/356/11 297/343/11 296/357/11
f 297/343/10 310/358/10 298/344/10
f 298/344/9 311/359/9 299/360/9
f 299/345/8 312/361/8 300/347/8
f 300/347/7 301/348/7 289/349/7
f 301/348/18 314/362/18 302/350/18
f 302/350/17 315/363/17 303/351/17
f 303/351/16 316/364/16 304/352/16
f 304/352/15 317/365/15 305/366/15
f 305/354/14 318/367/14 306/355/14
f 318/367/13 307/368/13 306/355/13
f 319/369/24 308/356/24 307/368/24
f 320/370/23 309/371/23 308/356/23
f 321/372/22 310/358/22 309/371/22
f 322/373/21 311/359/21 310/358/21
f 323/374/20 312/361/20 311/375/20
f 312/361/19 313/376/19 301/348/19
f 325/377/30 314/362/30 313/376/30
f 326/378/29 315/363/29 314/362/29
f 315/363/28 328/379/28 316/364/28
f 328/379/27 317/365/27 316/364/27
f 329/380/26 318/367/26 317/381/26
f 330/382/25 319/369/25 318/367/25
f 331/383/36 320/370/36 319/369/36
f 320/370/35 333/384/35 321/372/35
f 333/384/34 322/373/34 321/372/34
f 334/385/33 323/386/33 322/373/33
f 323/374/32 336/387/32 324/388/32
f 324/388/31 325/377/31 313/376/31
f 337/389/42 326/378/42 325/377/42
f 338/390/41 327/391/41 326/378/41
f 339/392/40 328/379/40 327/391/40
f 340/393/39 329/394/39 328/379/39
f 341/395/38 330/382/38 329/380/38
f 330/382/37 343/396/37 331/383/37
f 343/396/48 332/397/48 331/383/48
f 344/398/47 333/384/47 332/397/47
f 345/399/46 334/385/46 333/384/46
f 334/385/45 347/400/45 335/401/45
f 335/402/44 348/403/44 336/387/44
f 348/403/43 325/377/43 336/387/43
f 349/404/54 338/390/54 337/389/54
f 350/405/53 339/392/53 338/390/53
f 351/406/52 340/393/52 339/392/52
f 340/393/51 353/407/51 341/408/51
f 353/409/50 342/410/50 341/395/50
f 354/411/49 343/396/49 342/410/49
f 355/412/60 344/398/60 343/396/60
f 344/398/59 357/413/59 345/399/59
f 357/413/58 346/414/58 345/399/58
f 358/415/57 347/400/57 346/414/57
f 347/416/56 360/417/56 348/403/56
f 360/417/55 337/389/55 348/403/55
f 361/418/66 350/405/66 349/404/66
f 350/405/65 363/419/65 351/406/65
f 363/419/64 352/420/64 351/406/64
f 364/421/63 353/407/63 352/420/63
f 365/422/62 354/411/62 353/409/62
f 366/423/61 355/412/61 354/411/61
f 367/424/72 356/425/72 355/412/72
f 368/426/71 357/413/71 356/425/71
f 357/413/70 370/427/70 358/415/70
f 370/427/69 359/428/69 358/415/69
f 371/429/68 360/417/68 359/430/68
f 372/431/67 349/404/67 360/417/67
f 361/418/78 374/432/78 362/433/78
f 362/433/77 375/434/77 363/419/77
f 375/434/76 364/421/76 363/419/76
f 364/421/75 377/435/75 365/436/75
f 377/437/74 366/423/74 365/422/74
f 378/438/73 367/424/73 366/423/73
f 379/439/84 368/426/84 367/424/84
f 380/440/83 369/441/83 368/426/83
f 381/442/82 370/427/82 369/441/82
f 382/443/81 371/444/81 370/427/81
f 383/445/80 372/431/80 371/429/80
f 384/446/79 361/418/79 372/431/79
f 373/447/90 386/448/90 374/432/90
f 386/448/89 375/434/89 374/432/89
f 387/449/88 376/450/88 375/434/88
f 388/451/87 377/435/87 376/450/87
f 377/437/86 390/452/86 378/438/86
f 390/452/85 379/439/85 378/438/85
f 391/453/96 380/440/96 379/439/96
f 392/454/95 381/442/95 380/440/95
f 393/455/94 382/443/94 381/442/94
f 382/443/93 395/456/93 383/457/93
f 383/445/92 396/458/92 384/446/92
f 396/458/91 373/447/91 384/446/91
f 397/459/102 386/448/102 385/460/102
f 398/461/101 387/449/101 386/448/101
f 399/462/100 388/451/100 387/449/100
f 400/463/99 389/464/99 388/451/99
f 401/465/98 390/452/98 389/466/98
f 402/467/97 391/453/97 390/452/97
f 403/468/108 392/454/108 391/453/108
f 404/469/107 393/455/107 392/454/107
f 393/455/106 406/470/106 394/471/106
f 406/470/105 395/456/105 394/471/105
f 395/472/104 408/473/104 396/458/104
f 408/473/103 385/460/103 396/458/103
f 409/474/114 398/461/114 397/459/114
f 410/475/113 399/462/113 398/461/113
f 411/476/112 400/463/112 399/462/112
f 412/477/111 401/478/111 400/463/111
f 401/465/110 414/479/110 402/467/110
f 414/479/109 403/468/109 402/467/109
f 415/480/120 404/469/120 403/468/120
f 416/481/119 405/482/119 404/469/119
f 417/483/118 406/470/118 405/482/118
f 418/484/117 407/485/117 406/470/117
f 407/486/116 420/487/116 408/473/116
f 420/487/115 397/459/115 408/473/115
f 421/488/126 410/475/126 409/474/126
f 410/475/125 423/489/125 411/476/125
f 423/489/124 412/477/124 411/476/124
f 424/490/123 413/491/123 412/477/123
f 413/492/122 426/493/122 414/479/122
f 426/493/121 415/480/121 414/479/121
f 427/494/132 416/481/132 415/480/132
f 428/495/131 417/483/131 416/481/131
f 417/483/130 430/496/130 418/484/130
f 430/496/129 419/497/129 418/484/129
f 431/498/128 420/487/128 419/499/128
f 432/500/127 409/474/127 420/487/127
f 433/501/138 422/502/138 421/488/138
f 434/503/137 423/489/137 422/502/137
f 423/489/136 436/504/136 424/490/136
f 424/490/135 437/505/135 425/506/135
f 437/507/134 426/493/134 425/508/134
f 426/493/133 439/509/133 427/494/133
f 439/509/144 428/495/144 427/494/144
f 440/510/143 429/511/143 428/495/143
f 441/512/142 430/496/142 429/511/142
f 442/513/141 431/514/141 430/496/141
f 443/515/140 432/500/140 431/498/140
f 444/516/139 421/488/139 432/500/139
f 433/501/150 446/517/150 434/503/150
f 446/517/149 435/518/149 434/503/149
f 447/519/148 436/504/148 435/518/148
f 448/520/147 437/505/147 436/504/147
f 449/521/146 438/522/146 437/507/146
f 450/523/145 439/509/145 438/522/145
f 451/524/156 440/510/156 439/509/156
f 440/510/155 453/525/155 441/512/155
f 441/512/154 454/526/154 442/513/154
f 454/526/153 443/527/153 442/513/153
f 455/528/152 444/516/152 443/515/152
f 456/529/151 433/501/151 444/516/151
f 457/530/162 446/517/162 445/531/162
f 458/532/161 447/519/161 446/517/161
f 459/533/160 448/520/160 447/519/160
f 460/534/159 449/535/159 448/520/159
f 461/536/158 450/523/158 449/521/158
f 450/523/157 463/537/157 451/524/157
f 463/537/168 452/538/168 451/524/168
f 464/539/167 453/525/167 452/538/167
f 453/525/166 466/540/166 454/526/166
f 454/526/165 467/541/165 455/542/165
f 467/543/164 456/529/164 455/528/164
f 468/544/163 445/531/163 456/529/163
f 469/545/174 458/532/174 457/530/174
f 470/546/173 459/533/173 458/532/173
f 471/547/172 460/534/172 459/533/172
f 472/548/171 461/549/171 460/534/171
f 473/550/170 462/551/170 461/536/170
f 474/552/169 463/537/169 462/551/169
f 475/553/180 464/539/180 463/537/180
f 476/554/179 465/555/179 464/539/179
f 477/556/178 466/540/178 465/555/178
f 466/540/177 479/557/177 467/541/177
f 467/543/176 480/558/176 468/544/176
f 480/558/175 457/530/175 468/544/175
f 481/559/186 470/546/186 469/545/186
f 482/560/185 471/547/185 470/546/185
f 471/547/184 484/561/184 472/548/184
f 472/548/183 485/562/183 473/563/183
f 485/564/182 474/552/182 473/550/182
f 486/565/181 475/553/181 474/552/181
f 487/566/192 476/554/192 475/553/192
f 488/567/191 477/556/191 476/554/191
f 489/568/190 478/569/190 477/556/190
f 490/570/189 479/557/189 478/569/189
f 491/571/188 480/558/188 479/572/188
f 480/558/187 481/559/187 469/545/187
f 481/559/198 494/573/198 482/560/198
f 494/573/197 483/574/197 482/560/197
f 495/575/196 484/561/196 483/574/196
f 496/576/195 485/562/195 484/561/195
f 497/577/194 486/565/194 485/564/194
f 498/578/193 487/566/193 486/565/193
f 499/579/204 488/567/204 487/566/204
f 500/580/203 489/568/203 488/567/203
f 501/581/202 490/570/202 489/568/202
f 502/582/201 491/583/201 490/570/201
f 491/571/200 504/584/200 492/585/200
f 504/584/199 481/559/199 492/585/199
f 493/586/210 506/587/210 494/573/210
f 506/587/209 495/575/209 494/573/209
f 495/575/208 508/588/208 496/576/208
f 496/576/207 509/589/207 497/590/207
f 497/590/206 510/591/206 498/592/206
f 510/593/205 499/579/205 498/578/205
f 511/594/216 500/580/216 499/579/216
f 512/595/215 501/581/215 500/580/215
f 513/596/214 502/582/214 501/581/214
f 514/597/213 503/598/213 502/582/213
f 503/598/212 516/599/212 504/600/212
f 516/601/211 493/586/211 504/584/211
f 505/602/222 518/603/222 506/587/222
f 518/603/221 507/604/221 506/587/221
f 507/604/220 520/605/220 508/588/220
f 520/605/219 509/589/219 508/588/219
f 521/606/218 510/591/218 509/589/218
f 522/607/217 511/594/217 510/593/217
f 523/608/228 512/595/228 511/594/228
f 512/595/227 525/609/227 513/596/227
f 513/596/226 526/610/226 514/597/226
f 526/610/225 515/611/225 514/597/225
f 527/612/224 516/599/224 515/611/224
f 528/613/223 505/602/223 516/601/223
f 529/614/234 518/603/234 517/615/234
f 530/616/233 519/617/233 518/603/233
f 531/618/232 520/605/232 519/617/232
f 532/619/231 521/606/231 520/605/231
f 533/620/230 522/621/230 521/606/230
f 534/622/229 523/623/229 522/621/229
f 535/624/240 524/625/240 523/608/240
f 524/625/239 537/626/239 525/609/239
f 537/626/238 526/610/238 525/609/238
f 538/627/237 527/612/237 526/610/237
f 527/612/236 540/628/236 528/629/236
f 540/628/235 517/630/235 528/629/235
f 541/631/246 530/632/246 529/633/246
f 542/634/245 531/618/245 530/616/245
f 531/618/244 544/635/244 532/619/244
f 544/635/243 533/620/243 532/619/243
f 545/636/242 534/622/242 533/620/242
f 546/637/241 535/638/241 534/622/241
f 547/639/252 536/640/252 535/638/252
f 548/641/251 537/626/251 536/642/251
f 549/643/250 538/627/250 537/626/250
f 550/644/249 539/645/249 538/627/249
f 551/646/248 540/628/248 539/645/248
f 552/647/247 529/633/247 540/628/247
f 553/648/258 542/649/258 541/631/258
f 554/650/257 543/651/257 542/634/257
f 555/652/256 544/635/256 543/651/256
f 556/653/255 545/636/255 544/635/255
f 557/654/254 546/637/254 545/636/254
f 558/655/253 547/639/253 546/637/253
f 559/656/264 548/657/264 547/639/264
f 548/641/263 561/658/263 549/643/263
f 561/658/262 550/644/262 549/643/262
f 562/659/261 551/646/261 550/644/261
f 563/660/260 552/647/260 551/646/260
f 564/661/259 541/631/259 552/647/259
f 553/648/270 566/662/270 554/663/270
f 554/663/269 567/664/269 555/665/269
f 555/652/268 568/666/268 556/653/268
f 568/666/267 557/654/267 556/653/267
f 569/667/266 558/655/266 557/654/266
f 558/655/265 571/668/265 559/656/265
f 571/668/276 560/669/276 559/656/276
f 572/670/275 561/671/275 560/669/275
f 561/658/274 574/672/274 562/659/274
f 574/672/273 563/660/273 562/659/273
f 575/673/272 564/661/272 563/660/272
f 576/674/271 553/648/271 564/661/271
f 1/3/282 566/662/282 565/675/282
f 2/2/281 567/664/281 566/662/281
f 3/8/280 568/666/280 567/676/280
f 4/7/279 569/667/279 568/666/279
f 5/10/278 570/677/278 569/667/278
f 6/12/277 571/668/277 570/677/277
f 571/668/288 8/15/288 572/670/288
f 8/15/287 573/678/287 572/670/287
f 9/20/286 574/672/286 573/679/286
f 10/19/285 575/673/285 574/672/285
f 575/673/284 12/24/284 576/674/284
f 576/674/283 1/3/283 565/675/283
f 13/1/1 14/27/1 2/2/1
f 2/2/2 14/27/2 15/4/2
f 15/6/3 16/9/3 4/7/3
f 16/9/4 17/11/4 5/10/4
f 17/11/5 18/32/5 6/12/5
f 6/12/6 18/32/6 19/13/6
f 19/13/7 20/16/7 8/15/7
f 20/16/8 21/35/8 9/17/8
f 21/18/9 22/21/9 10/19/9
f 22/21/10 23/23/10 11/22/10
f 23/23/11 24/25/11 12/24/11
f 24/25/12 13/1/12 1/3/12
f 25/26/13 26/28/13 14/27/13
f 26/28/14 27/40/14 15/4/14
f 27/29/15 28/30/15 16/9/15
f 28/30/16 29/43/16 17/11/16
f 17/11/17 29/43/17 30/31/17
f 30/31/18 31/33/18 19/13/18
f 31/33/19 32/34/19 20/16/19
f 32/34/20 33/47/20 21/35/20
f 21/18/21 33/48/21 34/36/21
f 22/21/22 34/36/22 35/37/22
f 23/23/23 35/37/23 36/38/23
f 36/38/24 25/26/24 13/1/24
f 25/26/25 37/52/25 38/39/25
f 38/39/26 39/55/26 27/40/26
f 39/41/27 40/57/27 28/30/27
f 28/30/28 40/57/28 41/42/28
f 29/43/29 41/42/29 42/44/29
f 30/31/30 42/44/30 43/45/30
f 43/45/31 44/46/31 32/34/31
f 44/46/32 45/61/32 33/47/32
f 33/48/33 45/62/33 46/49/33
f 34/36/34 46/49/34 47/50/34
f 35/37/35 47/50/35 48/51/35
f 48/51/36 37/52/36 25/26/36
f 37/52/37 49/67/37 50/53/37
f 38/39/38 50/53/38 51/54/38
f 39/41/39 51/70/39 52/56/39
f 52/56/40 53/72/40 41/42/40
f 41/42/41 53/72/41 54/58/41
f 54/58/42 55/59/42 43/45/42
f 55/59/43 56/60/43 44/46/43
f 56/60/44 57/76/44 45/61/44
f 45/62/45 57/78/45 58/63/45
f 58/63/46 59/64/46 47/50/46
f 59/64/47 60/65/47 48/51/47
f 60/65/48 49/67/48 37/52/48
f 61/66/49 62/82/49 50/53/49
f 50/53/50 62/82/50 63/68/50
f 63/69/51 64/71/51 52/56/51
f 64/71/52 65/86/52 53/72/52
f 53/72/53 65/86/53 66/73/53
f 66/73/54 67/74/54 55/59/54
f 67/74/55 68/75/55 56/60/55
f 68/75/56 69/90/56 57/76/56
f 69/77/57 70/79/57 58/63/57
f 70/79/58 71/80/58 59/64/58
f 71/80/59 72/94/59 60/65/59
f 60/65/60 72/94/60 61/66/60
f 73/81/61 74/83/61 62/82/61
f 74/83/62 75/97/62 63/68/62
f 75/84/63 76/85/63 64/71/63
f 76/85/64 77/87/64 65/86/64
f 77/87/65 78/88/65 66/73/65
f 78/88/66 79/101/66 67/74/66
f 67/74/67 79/101/67 80/89/67
f 80/89/68 81/104/68 69/90/68
f 81/91/69 82/92/69 70/79/69
f 82/92/70 83/107/70 71/80/70
f 71/80/71 83/107/71 84/93/71
f 84/93/72 73/81/72 61/66/72
f 85/95/73 86/110/73 74/83/73
f 74/83/74 86/110/74 87/96/74
f 87/98/75 88/99/75 76/85/75
f 88/99/76 89/113/76 77/87/76
f 77/87/77 89/113/77 90/100/77
f 90/100/78 91/102/78 79/101/78
f 91/102/79 92/103/79 80/89/79
f 92/103/80 93/117/80 81/104/80
f 81/91/81 93/119/81 94/105/81
f 82/92/82 94/105/82 95/106/82
f 95/106/83 96/108/83 84/93/83
f 96/108/84 85/95/84 73/81/84
f 97/109/85 98/124/85 86/110/85
f 86/110/86 98/124/86 99/111/86
f 87/98/87 99/126/87 100/112/87
f 100/112/88 101/128/88 89/113/88
f 89/113/89 101/128/89 102/114/89
f 102/114/90 103/115/90 91/102/90
f 103/115/91 104/116/91 92/103/91
f 104/116/92 105/133/92 93/117/92
f 105/118/93 106/120/93 94/105/93
f 106/120/94 107/121/94 95/106/94
f 107/121/95 108/122/95 96/108/95
f 108/122/96 97/109/96 85/95/96
f 97/109/97 109/138/97 110/123/97
f 110/123/98 111/140/98 99/111/98
f 111/125/99 112/127/99 100/112/99
f 112/127/100 113/129/100 101/128/100
f 113/129/101 114/130/101 102/114/101
f 114/130/102 115/131/102 103/115/102
f 115/131/103 116/132/103 104/116/103
f 116/132/104 117/146/104 105/133/104
f 105/118/105 117/148/105 118/134/105
f 106/120/106 118/134/106 119/135/106
f 119/135/107 120/136/107 108/122/107
f 120/136/108 109/138/108 97/109/108
f 121/137/109 122/139/109 110/123/109
f 122/139/110 123/154/110 111/140/110
f 123/141/111 124/142/111 112/127/111
f 124/142/112 125/156/112 113/129/112
f 113/129/113 125/156/113 126/143/113
f 126/143/114 127/144/114 115/131/114
f 127/144/115 128/145/115 116/132/115
f 128/145/116 129/160/116 117/146/116
f 129/147/117 130/149/117 118/134/117
f 130/149/118 131/150/118 119/135/118
f 131/150/119 132/151/119 120/136/119
f 132/151/120 121/137/120 109/138/120
f 133/152/121 134/153/121 122/139/121
f 134/153/122 135/166/122 123/154/122
f 123/141/123 135/168/123 136/155/123
f 136/155/124 137/157/124 125/156/124
f 137/157/125 138/158/125 126/143/125
f 138/158/126 139/171/126 127/144/126
f 127/144/127 139/171/127 140/159/127
f 140/159/128 141/174/128 129/160/128
f 129/147/129 141/176/129 142/161/129
f 142/161/130 143/162/130 131/150/130
f 143/162/131 144/163/131 132/151/131
f 144/163/132 133/152/132 121/137/132
f 145/164/133 146/165/133 134/153/133
f 146/165/134 147/181/134 135/166/134
f 147/167/135 148/183/135 136/155/135
f 136/155/136 148/183/136 149/169/136
f 137/157/137 149/169/137 150/170/137
f 150/170/138 151/172/138 139/171/138
f 151/172/139 152/173/139 140/159/139
f 152/173/140 153/188/140 141/174/140
f 153/175/141 154/177/141 142/161/141
f 154/177/142 155/178/142 143/162/142
f 155/178/143 156/192/143 144/163/143
f 144/163/144 156/192/144 145/164/144
f 157/179/145 158/180/145 146/165/145
f 158/180/146 159/195/146 147/181/146
f 159/182/147 160/184/147 148/183/147
f 160/184/148 161/185/148 149/169/148
f 161/185/149 162/186/149 150/170/149
f 162/186/150 163/199/150 151/172/150
f 151/172/151 163/199/151 164/187/151
f 164/187/152 165/202/152 153/188/152
f 153/175/153 165/204/153 166/189/153
f 154/177/154 166/189/154 167/190/154
f 155/178/155 167/190/155 168/191/155
f 156/192/156 168/191/156 157/179/156
f 169/193/157 170/209/157 158/180/157
f 158/180/158 170/209/158 171/194/158
f 159/182/159 171/212/159 172/196/159
f 172/196/160 173/197/160 161/185/160
f 173/197/161 174/198/161 162/186/161
f 174/198/162 175/200/162 163/199/162
f 175/200/163 176/201/163 164/187/163
f 176/201/164 177/217/164 165/202/164
f 177/203/165 178/205/165 166/189/165
f 178/205/166 179/206/166 167/190/166
f 179/206/167 180/207/167 168/191/167
f 180/207/168 169/193/168 157/179/168
f 181/208/169 182/210/169 170/209/169
f 182/210/170 183/222/170 171/194/170
f 183/211/171 184/224/171 172/196/171
f 172/196/172 184/224/172 185/213/172
f 185/213/173 186/214/173 174/198/173
f 186/214/174 187/215/174 175/200/174
f 187/215/175 188/216/175 176/201/175
f 188/216/176 189/230/176 177/217/176
f 177/203/177 189/232/177 190/218/177
f 190/218/178 191/234/178 179/206/178
f 179/206/179 191/234/179 192/219/179
f 192/219/180 181/208/180 169/193/180
f 193/220/181 194/238/181 182/210/181
f 182/210/182 194/238/182 195/221/182
f 195/223/183 196/225/183 184/224/183
f 196/225/184 197/226/184 185/213/184
f 197/226/185 198/227/185 186/214/185
f 198/227/186 199/228/186 187/215/186
f 199/228/187 200/229/187 188/216/187
f 200/229/188 201/245/188 189/230/188
f 201/231/189 202/233/189 190/218/189
f 202/233/190 203/235/190 191/234/190
f 203/235/191 204/236/191 192/219/191
f 204/236/192 193/220/192 181/208/192
f 205/237/193 206/239/193 194/238/193
f 206/239/194 207/680/194 195/221/194
f 207/240/195 208/241/195 196/225/195
f 208/241/196 209/242/196 197/226/196
f 209/242/197 210/254/197 198/227/197
f 198/227/198 210/254/198 211/243/198
f 211/243/199 212/257/199 200/229/199
f 200/229/200 212/257/200 213/244/200
f 201/231/201 213/260/201 214/246/201
f 202/233/202 214/246/202 215/247/202
f 203/235/203 215/247/203 216/248/203
f 216/248/204 205/237/204 193/220/204
f 217/249/205 218/265/205 206/239/205
f 218/250/206 219/267/206 207/240/206
f 207/240/207 219/267/207 220/252/207
f 220/252/208 221/253/208 209/242/208
f 221/253/209 222/255/209 210/254/209
f 222/255/210 223/256/210 211/243/210
f 223/256/211 224/272/211 212/257/211
f 212/258/212 224/273/212 225/259/212
f 225/259/213 226/261/213 214/246/213
f 226/261/214 227/262/214 215/247/214
f 227/262/215 228/263/215 216/248/215
f 228/263/216 217/249/216 205/237/216
f 229/264/217 230/681/217 218/265/217
f 230/266/218 231/268/218 219/267/218
f 231/268/219 232/280/219 220/252/219
f 220/252/220 232/280/220 233/269/220
f 233/269/221 234/270/221 222/255/221
f 234/270/222 235/271/222 223/256/222
f 235/271/223 236/682/223 224/272/223
f 224/273/224 236/284/224 237/274/224
f 237/274/225 238/275/225 226/261/225
f 238/275/226 239/288/226 227/262/226
f 227/262/227 239/288/227 240/276/227
f 240/276/228 229/264/228 217/249/228
f 229/277/229 241/292/229 242/278/229
f 242/278/230 243/294/230 231/268/230
f 231/268/231 243/294/231 244/279/231
f 244/279/232 245/281/232 233/269/232
f 245/281/233 246/282/233 234/270/233
f 246/282/234 247/683/234 235/271/234
f 247/283/235 248/286/235 236/284/235
f 248/286/236 249/300/236 237/274/236
f 237/274/237 249/300/237 250/287/237
f 250/287/238 251/289/238 239/288/238
f 251/289/239 252/290/239 240/276/239
f 252/290/240 241/684/240 229/264/240
f 253/291/241 254/293/241 242/278/241
f 254/293/242 255/295/242 243/294/242
f 255/295/243 256/308/243 244/279/243
f 244/279/244 256/308/244 257/296/244
f 257/296/245 258/310/245 246/282/245
f 258/297/246 259/312/246 247/283/246
f 247/283/247 259/312/247 260/299/247
f 260/299/248 261/301/248 249/300/248
f 261/301/249 262/302/249 250/287/249
f 262/302/250 263/317/250 251/289/250
f 251/289/251 263/317/251 264/303/251
f 264/304/252 253/291/252 241/292/252
f 253/291/253 265/320/253 266/306/253
f 266/306/254 267/307/254 255/295/254
f 267/307/255 268/323/255 256/308/255
f 256/308/256 268/323/256 269/309/256
f 269/309/257 270/685/257 258/310/257
f 270/311/258 271/313/258 259/312/258
f 271/313/259 272/314/259 260/299/259
f 272/314/260 273/315/260 261/301/260
f 273/315/261 274/331/261 262/302/261
f 262/302/262 274/331/262 275/316/262
f 275/316/263 276/686/263 264/303/263
f 276/318/264 265/320/264 253/291/264
f 277/319/265 278/321/265 266/306/265
f 278/321/266 279/322/266 267/307/266
f 279/322/267 280/324/267 268/323/267
f 280/324/268 281/338/268 269/309/268
f 281/325/269 282/327/269 270/311/269
f 282/327/270 283/328/270 271/313/270
f 283/328/271 284/342/271 272/314/271
f 272/314/272 284/342/272 285/329/272
f 273/315/273 285/329/273 286/330/273
f 274/331/274 286/330/274 287/332/274
f 275/333/275 287/346/275 288/334/275
f 276/318/276 288/334/276 277/319/276
f 277/319/277 289/349/277 290/335/277
f 290/335/278 291/336/278 279/322/278
f 291/336/279 292/337/279 280/324/279
f 292/337/280 293/353/280 281/338/280
f 293/339/281 294/340/281 282/327/281
f 294/340/282 295/341/282 283/328/282
f 295/341/283 296/357/283 284/342/283
f 284/342/284 296/357/284 297/343/284
f 297/343/285 298/344/285 286/330/285
f 298/344/286 299/360/286 287/332/286
f 299/345/287 300/347/287 288/334/287
f 300/347/288 289/349/288 277/319/288
f 301/348/6 302/350/6 290/335/6
f 302/350/5 303/351/5 291/336/5
f 303/351/4 304/352/4 292/337/4
f 304/352/3 305/366/3 293/353/3
f 305/354/2 306/355/2 294/340/2
f 306/355/1 307/368/1 295/341/1
f 295/341/12 307/368/12 308/356/12
f 308/356/11 309/371/11 297/343/11
f 297/343/10 309/371/10 310/358/10
f 298/344/9 310/358/9 311/359/9
f 299/345/8 311/375/8 312/361/8
f 300/347/7 312/361/7 301/348/7
f 301/348/18 313/376/18 314/362/18
f 302/350/17 314/362/17 315/363/17
f 303/351/16 315/363/16 316/364/16
f 304/352/15 316/364/15 317/365/15
f 305/354/14 317/381/14 318/367/14
f 318/367/13 319/369/13 307/368/13
f 319/369/24 320/370/24 308/356/24
f 320/370/23 321/372/23 309/371/23
f 321/372/22 322/373/22 310/358/22
f 322/373/21 323/386/21 311/359/21
f 323/374/20 324/388/20 312/361/20
f 312/361/19 324/388/19 313/376/19
f 325/377/30 326/378/30 314/362/30
f 326/378/29 327/391/29 315/363/29
f 315/363/28 327/391/28 328/379/28
f 328/379/27 329/394/27 317/365/27
f 329/380/26 330/382/26 318/367/26
f 330/382/25 331/383/25 319/369/25
f 331/383/36 332/397/36 320/370/36
f 320/370/35 332/397/35 333/384/35
f 333/384/34 334/385/34 322/373/34
f 334/385/33 335/401/33 323/386/33
f 323/374/32 335/402/32 336/387/32
f 324/388/31 336/387/31 325/377/31
f 337/389/42 338/390/42 326/378/42
f 338/390/41 339/392/41 327/391/41
f 339/392/40 340/393/40 328/379/40
f 340/393/39 341/408/39 329/394/39
f 341/395/38 342/410/38 330/382/38
f 330/382/37 342/410/37 343/396/37
f 343/396/48 344/398/48 332/397/48
f 344/398/47 345/399/47 333/384/47
f 345/399/46 346/414/46 334/385/46
f 334/385/45 346/414/45 347/400/45
f 335/402/44 347/416/44 348/403/44
f 348/403/43 337/389/43 325/377/43
f 349/404/54 350/405/54 338/390/54
f 350/405/53 351/406/53 339/392/53
f 351/406/52 352/420/52 340/393/52
f 340/393/51 352/420/51 353/407/51
f 353/409/50 354/411/50 342/410/50
f 354/411/49 355/412/49 343/396/49
f 355/412/60 356/425/60 344/398/60
f 344/398/59 356/425/59 357/413/59
f 357/413/58 358/415/58 346/414/58
f 358/415/57 359/428/57 347/400/57
f 347/416/56 359/430/56 360/417/56
f 360/417/55 349/404/55 337/389/55
f 361/418/66 362/433/66 350/405/66
f 350/405/65 362/433/65 363/419/65
f 363/419/64 364/421/64 352/420/64
f 364/421/63 365/436/63 353/407/63
f 365/422/62 366/423/62 354/411/62
f 366/423/61 367/424/61 355/412/61
f 367/424/72 368/426/72 356/425/72
f 368/426/71 369/441/71 357/413/71
f 357/413/70 369/441/70 370/427/70
f 370/427/69 371/444/69 359/428/69
f 371/429/68 372/431/68 360/417/68
f 372/431/67 361/418/67 349/404/67
f 361/418/78 373/447/78 374/432/78
f 362/433/77 374/432/77 375/434/77
f 375/434/76 376/450/76 364/421/76
f 364/421/75 376/450/75 377/435/75
f 377/437/74 378/438/74 366/423/74
f 378/438/73 379/439/73 367/424/73
f 379/439/84 380/440/84 368/426/84
f 380/440/83 381/442/83 369/441/83
f 381/442/82 382/443/82 370/427/82
f 382/443/81 383/457/81 371/444/81
f 383/445/80 384/446/80 372/431/80
f 384/446/79 373/447/79 361/418/79
f 373/447/90 385/460/90 386/448/90
f 386/448/89 387/449/89 375/434/89
f 387/449/88 388/451/88 376/450/88
f 388/451/87 389/464/87 377/435/87
f 377/437/86 389/466/86 390/452/86
f 390/452/85 391/453/85 379/439/85
f 391/453/96 392/454/96 380/440/96
f 392/454/95 393/455/95 381/442/95
f 393/455/94 394/471/94 382/443/94
f 382/443/93 394/471/93 395/456/93
f 383/445/92 395/472/92 396/458/92
f 396/458/91 385/460/91 373/447/91
f 397/459/102 398/461/102 386/448/102
f 398/461/101 399/462/101 387/449/101
f 399/462/100 400/463/100 388/451/100
f 400/463/99 401/478/99 389/464/99
f 401/465/98 402/467/98 390/452/98
f 402/467/97 403/468/97 391/453/97
f 403/468/108 404/469/108 392/454/108
f 404/469/107 405/482/107 393/455/107
f 393/455/106 405/482/106 406/470/106
f 406/470/105 407/485/105 395/456/105
f 395/472/104 407/486/104 408/473/104
f 408/473/103 397/459/103 385/460/103
f 409/474/114 410/475/114 398/461/114
f 410/475/113 411/476/113 399/462/113
f 411/476/112 412/477/112 400/463/112
f 412/477/111 413/491/111 401/478/111
f 401/465/110 413/492/110 414/479/110
f 414/479/109 415/480/109 403/468/109
f 415/480/120 416/481/120 404/469/120
f 416/481/119 417/483/119 405/482/119
f 417/483/118 418/484/118 406/470/118
f 418/484/117 419/497/117 407/485/117
f 407/486/116 419/499/116 420/487/116
f 420/487/115 409/474/115 397/459/115
f 421/488/126 422/502/126 410/475/126
f 410/475/125 422/502/125 423/489/125
f 423/489/124 424/490/124 412/477/124
f 424/490/123 425/506/123 413/491/123
f 413/492/122 425/508/122 426/493/122
f 426/493/121 427/494/121 415/480/121
f 427/494/132 428/495/132 416/481/132
f 428/495/131 429/511/131 417/483/131
f 417/483/130 429/511/130 430/496/130
f 430/496/129 431/514/129 419/497/129
f 431/498/128 432/500/128 420/487/128
f 432/500/127 421/488/127 409/474/127
f 433/501/138 434/503/138 422/502/138
f 434/503/137 435/518/137 423/489/137
f 423/489/136 435/518/136 436/504/136
f 424/490/135 436/504/135 437/505/135
f 437/507/134 438/522/134 426/493/134
f 426/493/133 438/522/133 439/509/133
f 439/509/144 440/510/144 428/495/144
f 440/510/143 441/512/143 429/511/143
f 441/512/142 442/513/142 430/496/142
f 442/513/141 443/527/141 431/514/141
f 443/515/140 444/516/140 432/500/140
f 444/516/139 433/501/139 421/488/139
f 433/501/150 445/531/150 446/517/150
f 446/517/149 447/519/149 435/518/149
f 447/519/148 448/520/148 436/504/148
f 448/520/147 449/535/147 437/505/147
f 449/521/146 450/523/146 438/522/146
f 450/523/145 451/524/145 439/509/145
f 451/524/156 452/538/156 440/510/156
f 440/510/155 452/538/155 453/525/155
f 441/512/154 453/525/154 454/526/154
f 454/526/153 455/542/153 443/527/153
f 455/528/152 456/529/152 444/516/152
f 456/529/151 445/531/151 433/501/151
f 457/530/162 458/532/162 446/517/162
f 458/532/161 459/533/161 447/519/161
f 459/533/160 460/534/160 448/520/160
f 460/534/159 461/549/159 449/535/159
f 461/536/158 462/551/158 450/523/158
f 450/523/157 462/551/157 463/537/157
f 463/537/168 464/539/168 452/538/168
f 464/539/167 465/555/167 453/525/167
f 453/525/166 465/555/166 466/540/166
f 454/526/165 466/540/165 467/541/165
f 467/543/164 468/544/164 456/529/164
f 468/544/163 457/530/163 445/531/163
f 469/545/174 470/546/174 458/532/174
f 470/546/173 471/547/173 459/533/173
f 471/547/172 472/548/172 460/534/172
f 472/548/171 473/563/171 461/549/171
f 473/550/170 474/552/170 462/551/170
f 474/552/169 475/553/169 463/537/169
f 475/553/180 476/554/180 464/539/180
f 476/554/179 477/556/179 465/555/179
f 477/556/178 478/569/178 466/540/178
f 466/540/177 478/569/177 479/557/177
f 467/543/176 479/572/176 480/558/176
f 480/558/175 469/545/175 457/530/175
f 481/559/186 482/560/186 470/546/186
f 482/560/185 483/574/185 471/547/185
f 471/547/184 483/574/184 484/561/184
f 472/548/183 484/561/183 485/562/183
f 485/564/182 486/565/182 474/552/182
f 486/565/181 487/566/181 475/553/181
f 487/566/192 488/567/192 476/554/192
f 488/567/191 489/568/191 477/556/191
f 489/568/190 490/570/190 478/569/190
f 490/570/189 491/583/189 479/557/189
f 491/571/188 492/585/188 480/558/188
f 480/558/187 492/585/187 481/559/187
f 481/559/198 493/586/198 494/573/198
f 494/573/197 495/575/197 483/574/197
f 495/575/196 496/576/196 484/561/196
f 496/576/195 497/590/195 485/562/195
f 497/577/194 498/578/194 486/565/194
f 498/578/193 499/579/193 487/566/193
f 499/579/204 500/580/204 488/567/204
f 500/580/203 501/581/203 489/568/203
f 501/581/202 502/582/202 490/570/202
f 502/582/201 503/598/201 491/583/201
f 491/571/200 503/687/200 504/584/200
f 504/584/199 493/586/199 481/559/199
f 493/586/210 505/602/210 506/587/210
f 506/587/209 507/604/209 495/575/209
f 495/575/208 507/604/208 508/588/208
f 496/576/207 508/588/207 509/589/207
f 497/590/206 509/589/206 510/591/206
f 510/593/205 511/594/205 499/579/205
f 511/594/216 512/595/216 500/580/216
f 512/595/215 513/596/215 501/581/215
f 513/596/214 514/597/214 502/582/214
f 514/597/213 515/611/213 503/598/213
f 503/598/212 515/611/212 516/599/212
f 516/601/211 505/602/211 493/586/211
f 505/602/222 517/615/222 518/603/222
f 518/603/221 519/617/221 507/604/221
f 507/604/220 519/617/220 520/605/220
f 520/605/219 521/606/219 509/589/219
f 521/606/218 522/621/218 510/591/218
f 522/607/217 523/608/217 511/594/217
f 523/608/228 524/625/228 512/595/228
f 512/595/227 524/625/227 525/609/227
f 513/596/226 525/609/226 526/610/226
f 526/610/225 527/612/225 515/611/225
f 527/612/224 528/629/224 516/599/224
f 528/613/223 517/615/223 505/602/223
f 529/614/234 530/616/234 518/603/234
f 530/616/233 531/618/233 519/617/233
f 531/618/232 532/619/232 520/605/232
f 532/619/231 533/620/231 521/606/231
f 533/620/230 534/622/230 522/621/230
f 534/622/229 535/638/229 523/623/229
f 535/624/240 536/642/240 524/625/240
f 524/625/239 536/642/239 537/626/239
f 537/626/238 538/627/238 526/610/238
f 538/627/237 539/645/237 527/612/237
f 527/612/236 539/645/236 540/628/236
f 540/628/235 529/633/235 517/630/235
f 541/631/246 542/649/246 530/632/246
f 542/634/245 543/651/245 531/618/245
f 531/618/244 543/651/244 544/635/244
f 544/635/243 545/636/243 533/620/243
f 545/636/242 546/637/242 534/622/242
f 546/637/241 547/639/241 535/638/241
f 547/639/252 548/657/252 536/640/252
f 548/641/251 549/643/251 537/626/251
f 549/643/250 550/644/250 538/627/250
f 550/644/249 551/646/249 539/645/249
f 551/646/248 552/647/248 540/628/248
f 552/647/247 541/631/247 529/633/247
f 553/648/258 554/663/258 542/649/258
f 554/650/257 555/652/257 543/651/257
f 555/652/256 556/653/256 544/635/256
f 556/653/255 557/654/255 545/636/255
f 557/654/254 558/655/254 546/637/254
f 558/655/253 559/656/253 547/639/253
f 559/656/264 560/669/264 548/657/264
f 548/641/263 560/688/263 561/658/263
f 561/658/262 562/659/262 550/644/262
f 562/659/261 563/660/261 551/646/261
f 563/660/260 564/661/260 552/647/260
f 564/661/259 553/648/259 541/631/259
f 553/648/270 565/675/270 566/662/270
f 554/663/269 566/662/269 567/664/269
f 555/652/268 567/676/268 568/666/268
f 568/666/267 569/667/267 557/654/267
f 569/667/266 570/677/266 558/655/266
f 558/655/265 570/677/265 571/668/265
f 571/668/276 572/670/276 560/669/276
f 572/670/275 573/678/275 561/671/275
f 561/658/274 573/679/274 574/672/274
f 574/672/273 575/673/273 563/660/273
f 575/673/272 576/674/272 564/661/272
f 576/674/271 565/675/271 553/648/271
f 1/3/282 2/2/282 566/662/282
f 2/2/281 3/5/281 567/664/281
f 3/8/280 4/7/280 568/666/280
f 4/7/279 5/10/279 569/667/279
f 5/10/278 6/12/278 570/677/278
f 6/12/277 7/14/277 571/668/277
f 571/668/288 7/14/288 8/15/288
f 8/15/287 9/17/287 573/678/287
f 9/20/286 10/19/286 574/672/286
f 10/19/285 11/22/285 575/673/285
f 575/673/284 11/22/284 12/24/284
f 576/674/283 12/24/283 1/3/283
