# Blender 4.0.2
# www.blender.org
mtllib sphere.mtl
o Sphere
v 0.000000 0.831470 -0.555570
v 0.000000 0.555570 -0.831470
v 0.000000 0.195090 -0.980785
v 0.000000 0.000000 -1.000000
v 0.000000 -0.195090 -0.980785
v 0.000000 -0.555570 -0.831470
v 0.038060 0.980785 -0.191342
v 0.074658 0.923880 -0.375330
v 0.108386 0.831470 -0.544895
v 0.137950 0.707107 -0.693520
v 0.162212 0.555570 -0.815493
v 0.180240 0.382683 -0.906127
v 0.191342 0.195090 -0.961940
v 0.195090 0.000000 -0.980785
v 0.191342 -0.195090 -0.961940
v 0.180240 -0.382683 -0.906127
v 0.162212 -0.555570 -0.815493
v 0.137950 -0.707107 -0.693520
v 0.108386 -0.831470 -0.544895
v 0.074658 -0.923880 -0.375330
v 0.038060 -0.980785 -0.191342
v 0.074658 0.980785 -0.180240
v 0.146447 0.923880 -0.353553
v 0.212608 0.831470 -0.513280
v 0.270598 0.707107 -0.653281
v 0.318190 0.555570 -0.768178
v 0.353553 0.382683 -0.853553
v 0.375330 0.195090 -0.906127
v 0.382683 0.000000 -0.923879
v 0.375330 -0.195090 -0.906127
v 0.353553 -0.382683 -0.853553
v 0.318190 -0.555570 -0.768178
v 0.270598 -0.707107 -0.653281
v 0.212608 -0.831470 -0.513280
v 0.146447 -0.923880 -0.353553
v 0.074658 -0.980785 -0.180240
v 0.108386 0.980785 -0.162212
v 0.212608 0.923880 -0.318190
v 0.308658 0.831470 -0.461940
v 0.392847 0.707107 -0.587938
v 0.461940 0.555570 -0.691342
v 0.513280 0.382683 -0.768178
v 0.544895 0.195090 -0.815493
v 0.555570 0.000000 -0.831469
v 0.544895 -0.195090 -0.815493
v 0.513280 -0.382683 -0.768178
v 0.461940 -0.555570 -0.691342
v 0.392847 -0.707107 -0.587938
v 0.308658 -0.831470 -0.461940
v 0.212608 -0.923880 -0.318190
v 0.108386 -0.980785 -0.162212
v 0.137950 0.980785 -0.137950
v 0.270598 0.923880 -0.270598
v 0.392847 0.831470 -0.392847
v 0.500000 0.707107 -0.500000
v 0.587938 0.555570 -0.587938
v 0.653281 0.382683 -0.653281
v 0.693520 0.195090 -0.693520
v 0.707107 0.000000 -0.707107
v 0.693520 -0.195090 -0.693520
v 0.653281 -0.382683 -0.653281
v 0.587938 -0.555570 -0.587938
v 0.500000 -0.707107 -0.500000
v 0.392847 -0.831470 -0.392847
v 0.270598 -0.923880 -0.270598
v 0.137950 -0.980785 -0.137950
v 0.162212 0.980785 -0.108386
v 0.318190 0.923880 -0.212608
v 0.461940 0.831470 -0.308658
v 0.587938 0.707107 -0.392847
v 0.691342 0.555570 -0.461940
v 0.768178 0.382683 -0.513280
v 0.815493 0.195090 -0.544895
v 0.831470 0.000000 -0.555570
v 0.815493 -0.195090 -0.544895
v 0.768178 -0.382683 -0.513280
v 0.691342 -0.555570 -0.461940
v 0.587938 -0.707107 -0.392847
v 0.461940 -0.831470 -0.308658
v 0.318190 -0.923880 -0.212608
v 0.162212 -0.980785 -0.108386
v 0.000000 1.000000 0.000000
v 0.180240 0.980785 -0.074658
v 0.353553 0.923880 -0.146447
v 0.513280 0.831470 -0.212607
v 0.653281 0.707107 -0.270598
v 0.768178 0.555570 -0.318190
v 0.853553 0.382683 -0.353553
v 0.906127 0.195090 -0.375330
v 0.923879 0.000000 -0.382683
v 0.906127 -0.195090 -0.375330
v 0.853553 -0.382683 -0.353553
v 0.768178 -0.555570 -0.318190
v 0.653281 -0.707107 -0.270598
v 0.513280 -0.831470 -0.212607
v 0.353553 -0.923880 -0.146447
v 0.180240 -0.980785 -0.074658
v 0.191342 0.980785 -0.038060
v 0.375330 0.923880 -0.074658
v 0.544895 0.831470 -0.108386
v 0.693520 0.707107 -0.137950
v 0.815493 0.555570 -0.162212
v 0.906127 0.382683 -0.180240
v 0.961940 0.195090 -0.191342
v 0.980785 0.000000 -0.195090
v 0.961940 -0.195090 -0.191342
v 0.906127 -0.382683 -0.180240
v 0.815493 -0.555570 -0.162212
v 0.693520 -0.707107 -0.137950
v 0.544895 -0.831470 -0.108386
v 0.375330 -0.923880 -0.074658
v 0.191342 -0.980785 -0.038060
v 0.195090 0.980785 0.000000
v 0.382683 0.923880 0.000000
v 0.555570 0.831470 0.000000
v 0.707107 0.707107 -0.000000
v 0.831469 0.555570 0.000000
v 0.923879 0.382683 -0.000000
v 0.980785 0.195090 0.000000
v 1.000000 0.000000 0.000000
v 0.980785 -0.195090 0.000000
v 0.923879 -0.382683 -0.000000
v 0.831469 -0.555570 0.000000
v 0.707107 -0.707107 -0.000000
v 0.555570 -0.831470 0.000000
v 0.382683 -0.923880 0.000000
v 0.195090 -0.980785 0.000000
v 0.191342 0.980785 0.038060
v 0.375330 0.923880 0.074658
v 0.544895 0.831470 0.108386
v 0.693520 0.707107 0.137950
v 0.815493 0.555570 0.162212
v 0.906127 0.382683 0.180240
v 0.961940 0.195090 0.191342
v 0.980785 0.000000 0.195090
v 0.961940 -0.195090 0.191342
v 0.906127 -0.382683 0.180240
v 0.815493 -0.555570 0.162212
v 0.693520 -0.707107 0.137950
v 0.544895 -0.831470 0.108386
v 0.375330 -0.923880 0.074658
v 0.191342 -0.980785 0.038060
v 0.180240 0.980785 0.074658
v 0.353553 0.923880 0.146447
v 0.513280 0.831470 0.212608
v 0.653281 0.707107 0.270598
v 0.768178 0.555570 0.318190
v 0.853553 0.382683 0.353553
v 0.906127 0.195090 0.375330
v 0.923879 0.000000 0.382683
v 0.906127 -0.195090 0.375330
v 0.853553 -0.382683 0.353553
v 0.768178 -0.555570 0.318190
v 0.653281 -0.707107 0.270598
v 0.513280 -0.831470 0.212608
v 0.353553 -0.923880 0.146447
v 0.180240 -0.980785 0.074658
v 0.162212 0.980785 0.108386
v 0.318190 0.923880 0.212608
v 0.461940 0.831470 0.308658
v 0.587938 0.707107 0.392847
v 0.691341 0.555570 0.461940
v 0.768178 0.382683 0.513280
v 0.815493 0.195090 0.544895
v 0.831469 0.000000 0.555570
v 0.815493 -0.195090 0.544895
v 0.768178 -0.382683 0.513280
v 0.691341 -0.555570 0.461940
v 0.587938 -0.707107 0.392847
v 0.461940 -0.831470 0.308658
v 0.318190 -0.923880 0.212608
v 0.162212 -0.980785 0.108386
v 0.137950 0.980785 0.137950
v 0.270598 0.923880 0.270598
v 0.392847 0.831470 0.392847
v 0.500000 0.707107 0.500000
v 0.587938 0.555570 0.587938
v 0.653281 0.382683 0.653281
v 0.693520 0.195090 0.693520
v 0.707106 0.000000 0.707107
v 0.693520 -0.195090 0.693520
v 0.653281 -0.382683 0.653281
v 0.587938 -0.555570 0.587938
v 0.500000 -0.707107 0.500000
v 0.392847 -0.831470 0.392847
v 0.270598 -0.923880 0.270598
v 0.137950 -0.980785 0.137950
v 0.108386 0.980785 0.162212
v 0.212607 0.923880 0.318190
v 0.308658 0.831470 0.461940
v 0.392847 0.707107 0.587938
v 0.461940 0.555570 0.691342
v 0.513280 0.382683 0.768178
v 0.544895 0.195090 0.815493
v 0.555570 0.000000 0.831469
v 0.544895 -0.195090 0.815493
v 0.513280 -0.382683 0.768178
v 0.461940 -0.555570 0.691342
v 0.392847 -0.707107 0.587938
v 0.308658 -0.831470 0.461940
v 0.212607 -0.923880 0.318190
v 0.108386 -0.980785 0.162212
v 0.074658 0.980785 0.180240
v 0.146447 0.923880 0.353553
v 0.212607 0.831470 0.513280
v 0.270598 0.707107 0.653281
v 0.318189 0.555570 0.768178
v 0.353553 0.382683 0.853553
v 0.375330 0.195090 0.906127
v 0.382683 0.000000 0.923879
v 0.375330 -0.195090 0.906127
v 0.353553 -0.382683 0.853553
v 0.318189 -0.555570 0.768178
v 0.270598 -0.707107 0.653281
v 0.212607 -0.831470 0.513280
v 0.146447 -0.923880 0.353553
v 0.074658 -0.980785 0.180240
v 0.038060 0.980785 0.191342
v 0.074658 0.923880 0.375330
v 0.108386 0.831470 0.544895
v 0.137950 0.707107 0.693520
v 0.162212 0.555570 0.815493
v 0.180240 0.382683 0.906127
v 0.191342 0.195090 0.961939
v 0.195090 0.000000 0.980785
v 0.191342 -0.195090 0.961939
v 0.180240 -0.382683 0.906127
v 0.162212 -0.555570 0.815493
v 0.137950 -0.707107 0.693520
v 0.108386 -0.831470 0.544895
v 0.074658 -0.923880 0.375330
v 0.038060 -0.980785 0.191342
v -0.000000 0.980785 0.195090
v -0.000000 0.923880 0.382683
v -0.000000 0.831470 0.555570
v -0.000000 0.707107 0.707107
v -0.000000 0.555570 0.831469
v 0.000000 0.382683 0.923879
v -0.000000 0.195090 0.980785
v -0.000000 0.000000 0.999999
v -0.000000 -0.195090 0.980785
v 0.000000 -0.382683 0.923879
v -0.000000 -0.555570 0.831469
v -0.000000 -0.707107 0.707107
v -0.000000 -0.831470 0.555570
v -0.000000 -0.923880 0.382683
v -0.000000 -0.980785 0.195090
v -0.038060 0.980785 0.191342
v -0.074658 0.923880 0.375330
v -0.108386 0.831470 0.544895
v -0.137950 0.707107 0.693520
v -0.162212 0.555570 0.815493
v -0.180240 0.382683 0.906127
v -0.191342 0.195090 0.961939
v -0.195091 0.000000 0.980785
v -0.191342 -0.195090 0.961939
v -0.180240 -0.382683 0.906127
v -0.162212 -0.555570 0.815493
v -0.137950 -0.707107 0.693520
v -0.108386 -0.831470 0.544895
v -0.074658 -0.923880 0.375330
v -0.038060 -0.980785 0.191342
v -0.074658 0.980785 0.180240
v -0.146447 0.923880 0.353553
v -0.212608 0.831470 0.513280
v -0.270598 0.707107 0.653281
v -0.318190 0.555570 0.768177
v -0.353553 0.382683 0.853553
v -0.375330 0.195090 0.906127
v -0.382683 0.000000 0.923879
v -0.375330 -0.195090 0.906127
v -0.353553 -0.382683 0.853553
v -0.318190 -0.555570 0.768177
v -0.270598 -0.707107 0.653281
v -0.212608 -0.831470 0.513280
v -0.146447 -0.923880 0.353553
v -0.074658 -0.980785 0.180240
v -0.108386 0.980785 0.162212
v -0.212608 0.923880 0.318190
v -0.308658 0.831470 0.461939
v -0.392847 0.707107 0.587938
v -0.461940 0.555570 0.691341
v -0.513280 0.382683 0.768178
v -0.544895 0.195090 0.815493
v -0.555570 0.000000 0.831469
v -0.544895 -0.195090 0.815493
v -0.513280 -0.382683 0.768178
v -0.461940 -0.555570 0.691341
v -0.392847 -0.707107 0.587938
v -0.308658 -0.831470 0.461939
v -0.212608 -0.923880 0.318190
v -0.108386 -0.980785 0.162212
v -0.137950 0.980785 0.137950
v -0.270598 0.923880 0.270598
v -0.392847 0.831470 0.392847
v -0.500000 0.707107 0.500000
v -0.587938 0.555570 0.587937
v -0.653281 0.382683 0.653281
v -0.693520 0.195090 0.693520
v -0.707106 0.000000 0.707106
v -0.693520 -0.195090 0.693520
v -0.653281 -0.382683 0.653281
v -0.587938 -0.555570 0.587937
v -0.500000 -0.707107 0.500000
v -0.392847 -0.831470 0.392847
v -0.270598 -0.923880 0.270598
v -0.137950 -0.980785 0.137950
v 0.000000 -1.000000 0.000000
v -0.162212 0.980785 0.108386
v -0.318190 0.923880 0.212607
v -0.461940 0.831470 0.308658
v -0.587938 0.707107 0.392847
v -0.691341 0.555570 0.461939
v -0.768177 0.382683 0.513280
v -0.815493 0.195090 0.544895
v -0.831469 0.000000 0.555569
v -0.815493 -0.195090 0.544895
v -0.768177 -0.382683 0.513280
v -0.691341 -0.555570 0.461939
v -0.587938 -0.707107 0.392847
v -0.461940 -0.831470 0.308658
v -0.318190 -0.923880 0.212607
v -0.162212 -0.980785 0.108386
v -0.180240 0.980785 0.074658
v -0.353553 0.923880 0.146447
v -0.513280 0.831470 0.212607
v -0.653281 0.707107 0.270598
v -0.768177 0.555570 0.318189
v -0.853553 0.382683 0.353553
v -0.906127 0.195090 0.375330
v -0.923879 0.000000 0.382683
v -0.906127 -0.195090 0.375330
v -0.853553 -0.382683 0.353553
v -0.768177 -0.555570 0.318189
v -0.653281 -0.707107 0.270598
v -0.513280 -0.831470 0.212607
v -0.353553 -0.923880 0.146447
v -0.180240 -0.980785 0.074658
v -0.191342 0.980785 0.038060
v -0.375330 0.923880 0.074658
v -0.544895 0.831470 0.108386
v -0.693520 0.707107 0.137950
v -0.815493 0.555570 0.162211
v -0.906127 0.382683 0.180240
v -0.961939 0.195090 0.191341
v -0.980784 0.000000 0.195090
v -0.961939 -0.195090 0.191341
v -0.906127 -0.382683 0.180240
v -0.815493 -0.555570 0.162211
v -0.693520 -0.707107 0.137950
v -0.544895 -0.831470 0.108386
v -0.375330 -0.923880 0.074658
v -0.191342 -0.980785 0.038060
v -0.195090 0.980785 -0.000000
v -0.382683 0.923880 -0.000000
v -0.555570 0.831470 -0.000000
v -0.707107 0.707107 -0.000000
v -0.831469 0.555570 -0.000000
v -0.923879 0.382683 -0.000000
v -0.980785 0.195090 -0.000000
v -0.999999 0.000000 -0.000000
v -0.980785 -0.195090 -0.000000
v -0.923879 -0.382683 -0.000000
v -0.831469 -0.555570 -0.000000
v -0.707107 -0.707107 -0.000000
v -0.555570 -0.831470 -0.000000
v -0.382683 -0.923880 -0.000000
v -0.195090 -0.980785 -0.000000
v -0.191342 0.980785 -0.038060
v -0.375330 0.923880 -0.074658
v -0.544895 0.831470 -0.108386
v -0.693520 0.707107 -0.137950
v -0.815493 0.555570 -0.162212
v -0.906127 0.382683 -0.180240
v -0.961939 0.195090 -0.191342
v -0.980784 0.000000 -0.195091
v -0.961939 -0.195090 -0.191342
v -0.906127 -0.382683 -0.180240
v -0.815493 -0.555570 -0.162212
v -0.693520 -0.707107 -0.137950
v -0.544895 -0.831470 -0.108386
v -0.375330 -0.923880 -0.074658
v -0.191342 -0.980785 -0.038060
v -0.180240 0.980785 -0.074658
v -0.353553 0.923880 -0.146447
v -0.513279 0.831470 -0.212607
v -0.653281 0.707107 -0.270598
v -0.768177 0.555570 -0.318190
v -0.853553 0.382683 -0.353553
v -0.906127 0.195090 -0.375330
v -0.923878 0.000000 -0.382683
v -0.906127 -0.195090 -0.375330
v -0.853553 -0.382683 -0.353553
v -0.768177 -0.555570 -0.318190
v -0.653281 -0.707107 -0.270598
v -0.513279 -0.831470 -0.212607
v -0.353553 -0.923880 -0.146447
v -0.180240 -0.980785 -0.074658
v -0.162212 0.980785 -0.108386
v -0.318189 0.923880 -0.212607
v -0.461939 0.831470 -0.308658
v -0.587938 0.707107 -0.392847
v -0.691341 0.555570 -0.461940
v -0.768177 0.382683 -0.513280
v -0.815493 0.195090 -0.544895
v -0.831468 0.000000 -0.555570
v -0.815493 -0.195090 -0.544895
v -0.768177 -0.382683 -0.513280
v -0.691341 -0.555570 -0.461940
v -0.587938 -0.707107 -0.392847
v -0.461939 -0.831470 -0.308658
v -0.318189 -0.923880 -0.212607
v -0.162212 -0.980785 -0.108386
v -0.137950 0.980785 -0.137950
v -0.270598 0.923880 -0.270598
v -0.392847 0.831470 -0.392847
v -0.500000 0.707107 -0.500000
v -0.587937 0.555570 -0.587938
v -0.653281 0.382683 -0.653281
v -0.693519 0.195090 -0.693520
v -0.707106 0.000000 -0.707106
v -0.693519 -0.195090 -0.693520
v -0.653281 -0.382683 -0.653281
v -0.587937 -0.555570 -0.587938
v -0.500000 -0.707107 -0.500000
v -0.392847 -0.831470 -0.392847
v -0.270598 -0.923880 -0.270598
v -0.137950 -0.980785 -0.137950
v -0.108386 0.980785 -0.162212
v -0.212607 0.923880 -0.318190
v -0.308658 0.831470 -0.461939
v -0.392847 0.707107 -0.587938
v -0.461939 0.555570 -0.691341
v -0.513280 0.382683 -0.768177
v -0.544895 0.195090 -0.815493
v -0.555569 0.000000 -0.831469
v -0.544895 -0.195090 -0.815493
v -0.513280 -0.382683 -0.768177
v -0.461939 -0.555570 -0.691341
v -0.392847 -0.707107 -0.587938
v -0.308658 -0.831470 -0.461939
v -0.212607 -0.923880 -0.318190
v -0.108386 -0.980785 -0.162212
v -0.074658 0.980785 -0.180240
v -0.146446 0.923880 -0.353553
v -0.212607 0.831470 -0.513279
v -0.270598 0.707107 -0.653281
v -0.318189 0.555570 -0.768177
v -0.353553 0.382683 -0.853553
v -0.375330 0.195090 -0.906127
v -0.382683 0.000000 -0.923879
v -0.375330 -0.195090 -0.906127
v -0.353553 -0.382683 -0.853553
v -0.318189 -0.555570 -0.768177
v -0.270598 -0.707107 -0.653281
v -0.212607 -0.831470 -0.513279
v -0.146446 -0.923880 -0.353553
v -0.074658 -0.980785 -0.180240
v -0.038060 0.980785 -0.191342
v -0.074658 0.923880 -0.375330
v -0.108386 0.831470 -0.544895
v -0.137950 0.707107 -0.693520
v -0.162211 0.555570 -0.815493
v -0.180240 0.382683 -0.906127
v -0.191341 0.195090 -0.961939
v -0.195090 0.000000 -0.980784
v -0.191341 -0.195090 -0.961939
v -0.180240 -0.382683 -0.906127
v -0.162211 -0.555570 -0.815493
v -0.137950 -0.707107 -0.693520
v -0.108386 -0.831470 -0.544895
v -0.074658 -0.923880 -0.375330
v -0.038060 -0.980785 -0.191342
v 0.000000 0.980785 -0.195090
v 0.000000 0.923880 -0.382683
v 0.000000 0.707107 -0.707107
v 0.000000 0.382683 -0.923879
v 0.000000 -0.382683 -0.923879
v 0.000000 -0.707107 -0.707107
v 0.000000 -0.831470 -0.555570
v 0.000000 -0.923880 -0.382683
v 0.000000 -0.980785 -0.195090
vn 0.0865 0.4696 -0.8786
vn 0.0464 -0.8810 -0.4709
vn 0.0938 0.2890 -0.9527
vn 0.0286 -0.9565 -0.2902
vn 0.0975 0.0975 -0.9904
vn 0.0097 0.9951 -0.0980
vn 0.0097 -0.9951 -0.0980
vn 0.0975 -0.0976 -0.9904
vn 0.0286 0.9565 -0.2902
vn 0.0938 -0.2890 -0.9527
vn 0.0464 0.8810 -0.4709
vn 0.0865 -0.4696 -0.8786
vn 0.0624 0.7715 -0.6332
vn 0.0759 -0.6326 -0.7708
vn 0.0759 0.6326 -0.7708
vn 0.0624 -0.7715 -0.6332
vn 0.2248 -0.6326 -0.7412
vn 0.2248 0.6326 -0.7412
vn 0.1847 -0.7715 -0.6088
vn 0.2563 0.4696 -0.8448
vn 0.1374 -0.8810 -0.4528
vn 0.2779 0.2890 -0.9161
vn 0.0846 -0.9565 -0.2790
vn 0.2889 0.0976 -0.9524
vn 0.0286 0.9951 -0.0942
vn 0.0286 -0.9951 -0.0942
vn 0.2889 -0.0976 -0.9524
vn 0.0846 0.9565 -0.2790
vn 0.2779 -0.2890 -0.9161
vn 0.1374 0.8810 -0.4528
vn 0.2563 -0.4696 -0.8448
vn 0.1847 0.7715 -0.6088
vn 0.0464 -0.9951 -0.0869
vn 0.4691 -0.0975 -0.8777
vn 0.1374 0.9565 -0.2571
vn 0.4513 -0.2890 -0.8443
vn 0.2231 0.8810 -0.4173
vn 0.4162 -0.4696 -0.7786
vn 0.2999 0.7715 -0.5611
vn 0.3651 -0.6326 -0.6831
vn 0.3651 0.6326 -0.6831
vn 0.2999 -0.7715 -0.5611
vn 0.4162 0.4696 -0.7786
vn 0.2230 -0.8810 -0.4173
vn 0.4513 0.2890 -0.8443
vn 0.1374 -0.9565 -0.2571
vn 0.4691 0.0975 -0.8777
vn 0.0464 0.9951 -0.0869
vn 0.4036 -0.7715 -0.4918
vn 0.5601 0.4696 -0.6825
vn 0.3002 -0.8810 -0.3658
vn 0.6073 0.2890 -0.7400
vn 0.1850 -0.9565 -0.2254
vn 0.6314 0.0975 -0.7693
vn 0.0625 0.9951 -0.0761
vn 0.0625 -0.9951 -0.0761
vn 0.6314 -0.0975 -0.7693
vn 0.1850 0.9565 -0.2254
vn 0.6073 -0.2890 -0.7400
vn 0.3002 0.8810 -0.3658
vn 0.5601 -0.4696 -0.6825
vn 0.4036 0.7715 -0.4918
vn 0.4913 -0.6326 -0.5987
vn 0.4913 0.6326 -0.5987
vn 0.2254 0.9565 -0.1850
vn 0.7400 -0.2890 -0.6073
vn 0.3658 0.8810 -0.3002
vn 0.6825 -0.4696 -0.5601
vn 0.4918 0.7715 -0.4036
vn 0.5987 -0.6326 -0.4913
vn 0.5987 0.6326 -0.4913
vn 0.4918 -0.7715 -0.4036
vn 0.6825 0.4696 -0.5601
vn 0.3658 -0.8810 -0.3002
vn 0.7400 0.2890 -0.6073
vn 0.2254 -0.9566 -0.1850
vn 0.7693 0.0975 -0.6314
vn 0.0761 0.9951 -0.0625
vn 0.0761 -0.9951 -0.0625
vn 0.7693 -0.0975 -0.6314
vn 0.7786 0.4696 -0.4162
vn 0.4173 -0.8810 -0.2230
vn 0.8443 0.2890 -0.4513
vn 0.2571 -0.9565 -0.1374
vn 0.8777 0.0975 -0.4691
vn 0.0869 0.9951 -0.0464
vn 0.0869 -0.9951 -0.0464
vn 0.8777 -0.0975 -0.4691
vn 0.2571 0.9565 -0.1374
vn 0.8443 -0.2890 -0.4513
vn 0.4173 0.8810 -0.2230
vn 0.7786 -0.4696 -0.4162
vn 0.5611 0.7715 -0.2999
vn 0.6831 -0.6326 -0.3651
vn 0.6831 0.6326 -0.3651
vn 0.5611 -0.7715 -0.2999
vn 0.9161 -0.2890 -0.2779
vn 0.4528 0.8810 -0.1374
vn 0.8448 -0.4696 -0.2563
vn 0.6088 0.7715 -0.1847
vn 0.7412 -0.6326 -0.2248
vn 0.7412 0.6326 -0.2248
vn 0.6088 -0.7715 -0.1847
vn 0.8448 0.4696 -0.2563
vn 0.4528 -0.8810 -0.1374
vn 0.9161 0.2890 -0.2779
vn 0.2790 -0.9565 -0.0846
vn 0.9524 0.0975 -0.2889
vn 0.0942 0.9951 -0.0286
vn 0.0942 -0.9951 -0.0286
vn 0.9524 -0.0975 -0.2889
vn 0.2790 0.9565 -0.0846
vn 0.4709 -0.8810 -0.0464
vn 0.9527 0.2890 -0.0938
vn 0.2902 -0.9565 -0.0286
vn 0.9904 0.0975 -0.0975
vn 0.0980 0.9951 -0.0097
vn 0.0980 -0.9951 -0.0097
vn 0.9904 -0.0975 -0.0975
vn 0.2902 0.9565 -0.0286
vn 0.9527 -0.2890 -0.0938
vn 0.4709 0.8810 -0.0464
vn 0.8786 -0.4696 -0.0865
vn 0.6332 0.7715 -0.0624
vn 0.7708 -0.6326 -0.0759
vn 0.7708 0.6326 -0.0759
vn 0.6332 -0.7715 -0.0624
vn 0.8786 0.4696 -0.0865
vn 0.4709 0.8810 0.0464
vn 0.8786 -0.4696 0.0865
vn 0.6332 0.7715 0.0624
vn 0.7708 -0.6326 0.0759
vn 0.7708 0.6326 0.0759
vn 0.6332 -0.7715 0.0624
vn 0.8786 0.4696 0.0865
vn 0.4709 -0.8810 0.0464
vn 0.9527 0.2890 0.0938
vn 0.2902 -0.9565 0.0286
vn 0.9904 0.0975 0.0976
vn 0.0980 0.9951 0.0097
vn 0.0980 -0.9951 0.0097
vn 0.9904 -0.0975 0.0976
vn 0.2902 0.9565 0.0286
vn 0.9527 -0.2890 0.0938
vn 0.9161 0.2890 0.2779
vn 0.2790 -0.9565 0.0846
vn 0.9524 0.0975 0.2889
vn 0.0942 0.9951 0.0286
vn 0.0942 -0.9951 0.0286
vn 0.9524 -0.0975 0.2889
vn 0.2790 0.9565 0.0846
vn 0.9161 -0.2890 0.2779
vn 0.4528 0.8810 0.1374
vn 0.8448 -0.4696 0.2563
vn 0.6088 0.7715 0.1847
vn 0.7412 -0.6326 0.2248
vn 0.7412 0.6326 0.2248
vn 0.6088 -0.7715 0.1847
vn 0.8448 0.4696 0.2563
vn 0.4528 -0.8810 0.1374
vn 0.7786 -0.4696 0.4162
vn 0.5611 0.7715 0.2999
vn 0.6831 -0.6326 0.3651
vn 0.6831 0.6326 0.3651
vn 0.5611 -0.7715 0.2999
vn 0.7786 0.4696 0.4162
vn 0.4173 -0.8810 0.2230
vn 0.8443 0.2890 0.4513
vn 0.2571 -0.9565 0.1374
vn 0.8777 0.0975 0.4691
vn 0.0869 0.9951 0.0464
vn 0.0869 -0.9951 0.0464
vn 0.8777 -0.0975 0.4691
vn 0.2571 0.9565 0.1374
vn 0.8443 -0.2890 0.4513
vn 0.4173 0.8810 0.2231
vn 0.2254 -0.9565 0.1850
vn 0.7693 0.0975 0.6314
vn 0.0761 0.9951 0.0625
vn 0.0761 -0.9951 0.0625
vn 0.7693 -0.0975 0.6314
vn 0.2254 0.9565 0.1850
vn 0.7400 -0.2890 0.6073
vn 0.3658 0.8810 0.3002
vn 0.6825 -0.4696 0.5601
vn 0.4918 0.7715 0.4036
vn 0.5987 -0.6326 0.4913
vn 0.5987 0.6326 0.4913
vn 0.4918 -0.7715 0.4036
vn 0.6825 0.4696 0.5601
vn 0.3658 -0.8810 0.3002
vn 0.7400 0.2890 0.6073
vn 0.4913 -0.6326 0.5987
vn 0.4913 0.6326 0.5987
vn 0.4036 -0.7715 0.4918
vn 0.5601 0.4696 0.6825
vn 0.3002 -0.8810 0.3658
vn 0.6073 0.2890 0.7400
vn 0.1850 -0.9565 0.2254
vn 0.6314 0.0975 0.7693
vn 0.0625 0.9951 0.0761
vn 0.0625 -0.9951 0.0761
vn 0.6314 -0.0975 0.7693
vn 0.1850 0.9565 0.2254
vn 0.6073 -0.2890 0.7400
vn 0.3002 0.8810 0.3658
vn 0.5601 -0.4696 0.6825
vn 0.4036 0.7715 0.4918
vn 0.0464 0.9951 0.0869
vn 0.0464 -0.9951 0.0869
vn 0.4691 -0.0975 0.8777
vn 0.1374 0.9565 0.2571
vn 0.4513 -0.2890 0.8443
vn 0.2230 0.8810 0.4173
vn 0.4162 -0.4696 0.7786
vn 0.2999 0.7715 0.5611
vn 0.3651 -0.6326 0.6831
vn 0.3651 0.6326 0.6831
vn 0.2999 -0.7715 0.5611
vn 0.4162 0.4696 0.7786
vn 0.2230 -0.8810 0.4173
vn 0.4513 0.2890 0.8443
vn 0.1374 -0.9565 0.2571
vn 0.4691 0.0975 0.8777
vn 0.2248 0.6326 0.7412
vn 0.1847 -0.7715 0.6088
vn 0.2563 0.4696 0.8448
vn 0.1374 -0.8810 0.4528
vn 0.2779 0.2890 0.9161
vn 0.0846 -0.9565 0.2790
vn 0.2889 0.0975 0.9524
vn 0.0286 0.9951 0.0942
vn 0.0286 -0.9951 0.0942
vn 0.2889 -0.0975 0.9524
vn 0.0846 0.9565 0.2790
vn 0.2779 -0.2890 0.9161
vn 0.1374 0.8810 0.4528
vn 0.2563 -0.4696 0.8448
vn 0.1847 0.7715 0.6088
vn 0.2248 -0.6326 0.7412
vn 0.0975 -0.0975 0.9904
vn 0.0286 0.9565 0.2902
vn 0.0938 -0.2890 0.9527
vn 0.0464 0.8810 0.4709
vn 0.0865 -0.4696 0.8786
vn 0.0624 0.7715 0.6332
vn 0.0759 -0.6326 0.7708
vn 0.0759 0.6326 0.7708
vn 0.0624 -0.7715 0.6332
vn 0.0865 0.4696 0.8786
vn 0.0464 -0.8810 0.4709
vn 0.0938 0.2890 0.9527
vn 0.0286 -0.9565 0.2902
vn 0.0975 0.0975 0.9904
vn 0.0097 0.9951 0.0980
vn 0.0097 -0.9951 0.0980
vn -0.0624 -0.7715 0.6332
vn -0.0865 0.4696 0.8786
vn -0.0464 -0.8810 0.4709
vn -0.0938 0.2890 0.9527
vn -0.0286 -0.9565 0.2902
vn -0.0976 0.0975 0.9904
vn -0.0097 0.9951 0.0980
vn -0.0097 -0.9951 0.0980
vn -0.0975 -0.0975 0.9904
vn -0.0286 0.9565 0.2902
vn -0.0938 -0.2890 0.9527
vn -0.0464 0.8810 0.4709
vn -0.0865 -0.4696 0.8786
vn -0.0624 0.7715 0.6332
vn -0.0759 -0.6326 0.7708
vn -0.0759 0.6326 0.7708
vn -0.0846 0.9565 0.2790
vn -0.2779 -0.2890 0.9161
vn -0.1374 0.8810 0.4528
vn -0.2563 -0.4696 0.8448
vn -0.1847 0.7715 0.6088
vn -0.2248 -0.6326 0.7412
vn -0.2248 0.6326 0.7412
vn -0.1847 -0.7715 0.6088
vn -0.2563 0.4696 0.8448
vn -0.1374 -0.8810 0.4528
vn -0.2779 0.2890 0.9161
vn -0.0846 -0.9565 0.2790
vn -0.2889 0.0975 0.9524
vn -0.0286 0.9951 0.0942
vn -0.0286 -0.9951 0.0942
vn -0.2889 -0.0975 0.9524
vn -0.4162 0.4696 0.7786
vn -0.2230 -0.8810 0.4173
vn -0.4513 0.2890 0.8443
vn -0.1374 -0.9565 0.2571
vn -0.4691 0.0975 0.8777
vn -0.0464 0.9951 0.0869
vn -0.0464 -0.9951 0.0869
vn -0.4691 -0.0975 0.8777
vn -0.1374 0.9565 0.2571
vn -0.4513 -0.2890 0.8443
vn -0.2230 0.8810 0.4173
vn -0.4162 -0.4696 0.7786
vn -0.2999 0.7715 0.5611
vn -0.3651 -0.6326 0.6831
vn -0.3651 0.6326 0.6831
vn -0.2999 -0.7715 0.5611
vn -0.6073 -0.2890 0.7400
vn -0.3002 0.8810 0.3658
vn -0.5601 -0.4696 0.6825
vn -0.4036 0.7715 0.4918
vn -0.4913 -0.6326 0.5987
vn -0.4913 0.6326 0.5987
vn -0.4036 -0.7715 0.4918
vn -0.5601 0.4696 0.6825
vn -0.3002 -0.8810 0.3658
vn -0.6073 0.2890 0.7400
vn -0.1850 -0.9565 0.2254
vn -0.6314 0.0975 0.7693
vn -0.0625 0.9951 0.0761
vn -0.0625 -0.9951 0.0761
vn -0.6314 -0.0975 0.7693
vn -0.1850 0.9565 0.2254
vn -0.3658 -0.8810 0.3002
vn -0.7400 0.2890 0.6073
vn -0.2254 -0.9566 0.1850
vn -0.7693 0.0975 0.6314
vn -0.0761 0.9951 0.0625
vn -0.0761 -0.9951 0.0625
vn -0.7693 -0.0975 0.6314
vn -0.2254 0.9565 0.1850
vn -0.7400 -0.2890 0.6073
vn -0.3658 0.8810 0.3002
vn -0.6825 -0.4696 0.5601
vn -0.4918 0.7715 0.4036
vn -0.5987 -0.6326 0.4913
vn -0.5987 0.6326 0.4913
vn -0.4918 -0.7715 0.4036
vn -0.6825 0.4696 0.5601
vn -0.7786 -0.4696 0.4162
vn -0.5611 0.7715 0.2999
vn -0.6831 -0.6326 0.3651
vn -0.6831 0.6326 0.3651
vn -0.5611 -0.7715 0.2999
vn -0.7786 0.4696 0.4162
vn -0.4173 -0.8810 0.2231
vn -0.8443 0.2890 0.4513
vn -0.2571 -0.9565 0.1374
vn -0.8777 0.0975 0.4691
vn -0.0869 0.9951 0.0464
vn -0.0869 -0.9951 0.0464
vn -0.8777 -0.0975 0.4691
vn -0.2571 0.9565 0.1374
vn -0.8443 -0.2890 0.4513
vn -0.4173 0.8810 0.2230
vn -0.2790 -0.9565 0.0846
vn -0.9524 0.0975 0.2889
vn -0.0942 0.9951 0.0286
vn -0.0942 -0.9951 0.0286
vn -0.9524 -0.0975 0.2889
vn -0.2790 0.9565 0.0846
vn -0.9161 -0.2890 0.2779
vn -0.4528 0.8810 0.1374
vn -0.8448 -0.4696 0.2563
vn -0.6088 0.7715 0.1847
vn -0.7412 -0.6326 0.2248
vn -0.7412 0.6326 0.2248
vn -0.6088 -0.7715 0.1847
vn -0.8448 0.4696 0.2563
vn -0.4528 -0.8810 0.1374
vn -0.9161 0.2890 0.2779
vn -0.6332 0.7715 0.0624
vn -0.7708 -0.6326 0.0759
vn -0.7708 0.6326 0.0759
vn -0.6332 -0.7715 0.0624
vn -0.8786 0.4696 0.0865
vn -0.4709 -0.8810 0.0464
vn -0.9527 0.2890 0.0938
vn -0.2902 -0.9565 0.0286
vn -0.9904 0.0975 0.0975
vn -0.0980 0.9951 0.0097
vn -0.0980 -0.9951 0.0097
vn -0.9904 -0.0975 0.0976
vn -0.2902 0.9565 0.0286
vn -0.9527 -0.2890 0.0938
vn -0.4709 0.8810 0.0464
vn -0.8786 -0.4696 0.0865
vn -0.9904 0.0975 -0.0975
vn -0.0980 0.9951 -0.0097
vn -0.0980 -0.9951 -0.0097
vn -0.9904 -0.0975 -0.0976
vn -0.2902 0.9565 -0.0286
vn -0.9527 -0.2890 -0.0938
vn -0.4709 0.8810 -0.0464
vn -0.8786 -0.4696 -0.0865
vn -0.6332 0.7715 -0.0624
vn -0.7708 -0.6326 -0.0759
vn -0.7708 0.6326 -0.0759
vn -0.6332 -0.7715 -0.0624
vn -0.8786 0.4696 -0.0865
vn -0.4709 -0.8810 -0.0464
vn -0.9527 0.2890 -0.0938
vn -0.2902 -0.9565 -0.0286
vn -0.7412 -0.6326 -0.2248
vn -0.7412 0.6326 -0.2248
vn -0.6088 -0.7715 -0.1847
vn -0.8448 0.4696 -0.2563
vn -0.4528 -0.8810 -0.1374
vn -0.9161 0.2890 -0.2779
vn -0.2790 -0.9565 -0.0846
vn -0.9524 0.0975 -0.2889
vn -0.0942 0.9951 -0.0286
vn -0.0942 -0.9951 -0.0286
vn -0.9524 -0.0975 -0.2889
vn -0.2790 0.9565 -0.0846
vn -0.9161 -0.2890 -0.2779
vn -0.4528 0.8810 -0.1374
vn -0.8448 -0.4696 -0.2563
vn -0.6088 0.7715 -0.1847
vn -0.0869 0.9951 -0.0464
vn -0.0869 -0.9951 -0.0464
vn -0.8777 -0.0975 -0.4691
vn -0.2571 0.9565 -0.1374
vn -0.8443 -0.2890 -0.4513
vn -0.4173 0.8810 -0.2231
vn -0.7786 -0.4696 -0.4162
vn -0.5611 0.7715 -0.2999
vn -0.6831 -0.6326 -0.3651
vn -0.6831 0.6326 -0.3651
vn -0.5611 -0.7715 -0.2999
vn -0.7786 0.4696 -0.4162
vn -0.4173 -0.8810 -0.2231
vn -0.8443 0.2890 -0.4513
vn -0.2571 -0.9565 -0.1374
vn -0.8777 0.0975 -0.4691
vn -0.5987 0.6326 -0.4913
vn -0.4918 -0.7715 -0.4036
vn -0.6825 0.4696 -0.5601
vn -0.3658 -0.8810 -0.3002
vn -0.7400 0.2890 -0.6073
vn -0.2254 -0.9565 -0.1850
vn -0.7693 0.0975 -0.6314
vn -0.0761 0.9951 -0.0625
vn -0.0761 -0.9951 -0.0625
vn -0.7693 -0.0975 -0.6314
vn -0.2254 0.9565 -0.1850
vn -0.7400 -0.2890 -0.6073
vn -0.3658 0.8810 -0.3002
vn -0.6825 -0.4696 -0.5601
vn -0.4918 0.7715 -0.4036
vn -0.5987 -0.6326 -0.4913
vn -0.6314 -0.0975 -0.7693
vn -0.1850 0.9565 -0.2254
vn -0.6073 -0.2890 -0.7400
vn -0.3002 0.8810 -0.3658
vn -0.5601 -0.4696 -0.6825
vn -0.4036 0.7715 -0.4918
vn -0.4913 -0.6326 -0.5987
vn -0.4913 0.6326 -0.5987
vn -0.4036 -0.7715 -0.4918
vn -0.5601 0.4696 -0.6825
vn -0.3002 -0.8810 -0.3658
vn -0.6073 0.2890 -0.7400
vn -0.1850 -0.9565 -0.2254
vn -0.6314 0.0975 -0.7693
vn -0.0625 0.9951 -0.0761
vn -0.0625 -0.9951 -0.0761
vn -0.2999 -0.7715 -0.5611
vn -0.4162 0.4696 -0.7786
vn -0.2230 -0.8810 -0.4173
vn -0.4513 0.2890 -0.8443
vn -0.1374 -0.9565 -0.2571
vn -0.4691 0.0975 -0.8777
vn -0.0464 0.9951 -0.0869
vn -0.0464 -0.9951 -0.0869
vn -0.4691 -0.0975 -0.8777
vn -0.1374 0.9565 -0.2571
vn -0.4513 -0.2890 -0.8443
vn -0.2230 0.8810 -0.4173
vn -0.4162 -0.4696 -0.7786
vn -0.2999 0.7715 -0.5611
vn -0.3651 -0.6326 -0.6831
vn -0.3651 0.6326 -0.6831
vn -0.2779 -0.2890 -0.9161
vn -0.1374 0.8810 -0.4528
vn -0.2563 -0.4696 -0.8448
vn -0.1847 0.7715 -0.6088
vn -0.2248 -0.6326 -0.7412
vn -0.2248 0.6326 -0.7412
vn -0.1847 -0.7715 -0.6088
vn -0.2563 0.4696 -0.8448
vn -0.1374 -0.8810 -0.4528
vn -0.2779 0.2890 -0.9161
vn -0.0846 -0.9565 -0.2790
vn -0.2889 0.0975 -0.9524
vn -0.0286 0.9951 -0.0942
vn -0.0286 -0.9951 -0.0942
vn -0.2889 -0.0975 -0.9524
vn -0.0846 0.9565 -0.2790
vn -0.0464 -0.8810 -0.4709
vn -0.0938 0.2890 -0.9527
vn -0.0286 -0.9565 -0.2902
vn -0.0976 0.0975 -0.9904
vn -0.0097 0.9951 -0.0980
vn -0.0097 -0.9951 -0.0980
vn -0.0976 -0.0975 -0.9904
vn -0.0286 0.9565 -0.2902
vn -0.0938 -0.2890 -0.9527
vn -0.0464 0.8810 -0.4709
vn -0.0865 -0.4696 -0.8786
vn -0.0624 0.7715 -0.6332
vn -0.0759 -0.6326 -0.7708
vn -0.0759 0.6326 -0.7708
vn -0.0624 -0.7715 -0.6332
vn -0.0865 0.4696 -0.8786
vn 0.0975 0.0976 -0.9904
vn 0.0975 -0.0975 -0.9904
vn 0.2230 0.8810 -0.4173
vn 0.2231 -0.8810 -0.4173
vn 0.2254 -0.9565 -0.1850
vn 0.4173 -0.8810 0.2231
vn 0.4173 0.8810 0.2230
vn 0.2231 -0.8810 0.4173
vn -0.0975 0.0975 0.9904
vn -0.0976 -0.0975 0.9904
vn -0.2231 -0.8810 0.4173
vn -0.2231 0.8810 0.4173
vn -0.2254 -0.9565 0.1850
vn -0.4173 -0.8810 0.2230
vn -0.9904 0.0975 0.0976
vn -0.9904 -0.0975 0.0975
vn -0.9904 0.0975 -0.0976
vn -0.9904 -0.0975 -0.0975
vt 0.281773 0.157819
vt 0.342541 0.178057
vt 0.301640 0.197222
vt 0.037517 0.317541
vt 0.035263 0.353539
vt 0.027034 0.337218
vt 0.237664 0.176588
vt 0.258755 0.218418
vt 0.029315 0.361867
vt 0.025120 0.353546
vt 0.215533 0.240832
vt 0.194029 0.198182
vt 0.453041 0.126393
vt 0.468153 0.134296
vt 0.457237 0.134713
vt 0.531847 0.365900
vt 0.538310 0.378394
vt 0.533769 0.370257
vt 0.173636 0.263602
vt 0.152545 0.221772
vt 0.430128 0.123243
vt 0.438357 0.139565
vt 0.134673 0.285853
vt 0.114806 0.246450
vt 0.400291 0.124969
vt 0.412239 0.148664
vt 0.100143 0.306730
vt 0.082263 0.271268
vt 0.364680 0.131504
vt 0.379885 0.161661
vt 0.071371 0.325430
vt 0.056165 0.295272
vt 0.324661 0.142595
vt 0.049464 0.341236
vt 0.087513 0.355840
vt 0.361522 0.213815
vt 0.062147 0.365128
vt 0.322731 0.236954
vt 0.043999 0.369997
vt 0.281145 0.260598
vt 0.033769 0.370257
vt 0.238362 0.283838
vt 0.461690 0.143103
vt 0.529315 0.361867
vt 0.196026 0.305781
vt 0.447093 0.156022
vt 0.155764 0.325585
vt 0.424922 0.172557
vt 0.119124 0.342488
vt 0.396028 0.192071
vt 0.525120 0.353547
vt 0.261638 0.325547
vt 0.218855 0.346689
vt 0.456000 0.171984
vt 0.177269 0.364119
vt 0.437853 0.195729
vt 0.138477 0.377168
vt 0.412486 0.221564
vt 0.103972 0.385333
vt 0.380876 0.248495
vt 0.075078 0.388301
vt 0.344235 0.275488
vt 0.052907 0.385958
vt 0.303974 0.301505
vt 0.038309 0.378394
vt 0.466231 0.151240
vt 0.087761 0.409862
vt 0.365326 0.311344
vt 0.061643 0.400810
vt 0.326364 0.339569
vt 0.042763 0.385965
vt 0.284467 0.364357
vt 0.470685 0.158812
vt 0.521344 0.345615
vt 0.241245 0.384753
vt 0.464737 0.186836
vt 0.198360 0.399975
vt 0.450536 0.217291
vt 0.157459 0.409437
vt 0.428629 0.249007
vt 0.120114 0.412775
vt 0.399857 0.280764
vt 0.472966 0.200007
vt 0.218227 0.431774
vt 0.462483 0.236413
vt 0.175339 0.438055
vt 0.443835 0.273344
vt 0.135320 0.437113
vt 0.417737 0.309383
vt 0.099708 0.428984
vt 0.385194 0.343143
vt 0.069872 0.413981
vt 0.347455 0.373327
vt 0.046958 0.392680
vt 0.305971 0.398775
vt 0.474880 0.165526
vt 0.518133 0.338378
vt 0.262336 0.418510
vt 0.403074 0.369663
vt 0.077278 0.424966
vt 0.366436 0.401480
vt 0.050734 0.398280
vt 0.325324 0.427481
vt 0.478656 0.171127
vt 0.515610 0.332113
vt 0.281317 0.446664
vt 0.480372 0.210992
vt 0.236107 0.458294
vt 0.473235 0.252361
vt 0.191431 0.461922
vt 0.457520 0.293642
vt 0.149005 0.457411
vt 0.433829 0.333250
vt 0.110461 0.444932
vt 0.251313 0.478516
vt 0.482379 0.264521
vt 0.205115 0.480122
vt 0.469158 0.309120
vt 0.160643 0.472888
vt 0.447514 0.351450
vt 0.119604 0.457093
vt 0.418280 0.389885
vt 0.083577 0.433343
vt 0.382579 0.422948
vt 0.053945 0.402551
vt 0.341783 0.449369
vt 0.481867 0.175397
vt 0.513873 0.327061
vt 0.297460 0.468132
vt 0.486671 0.219369
vt 0.088526 0.438789
vt 0.430227 0.403032
vt 0.395262 0.436906
vt 0.056468 0.405327
vt 0.354714 0.463600
vt 0.484390 0.178173
vt 0.512987 0.323415
vt 0.310143 0.482089
vt 0.491619 0.224814
vt 0.263260 0.491663
vt 0.489563 0.272427
vt 0.215868 0.491954
vt 0.478301 0.319182
vt 0.169787 0.482951
vt 0.458266 0.363282
vt 0.126789 0.464999
vt 0.494512 0.275775
vt 0.271489 0.497231
vt 0.223274 0.496965
vt 0.484600 0.323443
vt 0.176085 0.487212
vt 0.465672 0.368292
vt 0.131737 0.468347
vt 0.438456 0.408600
vt 0.502965 0.231735
vt 0.503234 0.273998
vt 0.503234 0.278113
vt 0.403998 0.442816
vt 0.512987 0.321317
vt 0.363622 0.469626
vt 0.486127 0.179349
vt 0.318879 0.487999
vt 0.495028 0.227120
vt 0.442651 0.406373
vt 0.408452 0.440451
vt 0.504972 0.273075
vt 0.513873 0.320847
vt 0.368163 0.467215
vt 0.487013 0.178878
vt 0.631837 0.032981
vt 0.596002 0.057380
vt 0.591548 0.059744
vt 0.496766 0.226198
vt 0.561544 0.091596
vt 0.557348 0.093823
vt 0.497035 0.274436
vt 0.530552 0.133908
vt 0.534328 0.131903
vt 0.487811 0.321739
vt 0.515400 0.176753
vt 0.512189 0.178457
vt 0.469448 0.366288
vt 0.502965 0.225760
vt 0.505488 0.224421
vt 0.569773 0.097163
vt 0.541734 0.136914
vt 0.868262 0.031849
vt 0.830213 0.017245
vt 0.823914 0.012984
vt 0.521698 0.181014
vt 0.776726 0.003231
vt 0.784132 0.008241
vt 0.510436 0.227768
vt 0.736740 0.008532
vt 0.728510 0.002965
vt 0.508381 0.275381
vt 0.681121 0.012196
vt 0.689857 0.018106
vt 0.515610 0.322023
vt 0.636378 0.030570
vt 0.645285 0.036596
vt 0.487013 0.176780
vt 0.604738 0.063290
vt 0.496766 0.222082
vt 0.497035 0.268461
vt 0.513329 0.280827
vt 0.518133 0.324799
vt 0.702540 0.032064
vt 0.658217 0.050827
vt 0.486127 0.173135
vt 0.617421 0.077247
vt 0.943532 0.094869
vt 0.916423 0.066853
vt 0.911474 0.061407
vt 0.581720 0.110311
vt 0.880395 0.043103
vt 0.873211 0.035196
vt 0.552486 0.148746
vt 0.839357 0.027307
vt 0.530842 0.191076
vt 0.794884 0.020074
vt 0.517621 0.235675
vt 0.748687 0.021680
vt 0.542480 0.206554
vt 0.850995 0.042785
vt 0.808569 0.038273
vt 0.526765 0.247835
vt 0.763893 0.041902
vt 0.519628 0.289204
vt 0.718682 0.053531
vt 0.521344 0.329069
vt 0.674676 0.072715
vt 0.484390 0.168083
vt 0.633563 0.098715
vt 0.949266 0.101915
vt 0.922721 0.075229
vt 0.596926 0.130533
vt 0.889539 0.055263
vt 0.566171 0.166946
vt 0.481867 0.161818
vt 0.525120 0.334669
vt 0.652545 0.126869
vt 0.930127 0.086214
vt 0.614806 0.157053
vt 0.900291 0.071211
vt 0.582263 0.190813
vt 0.864680 0.063082
vt 0.556165 0.226851
vt 0.824661 0.062141
vt 0.537517 0.263783
vt 0.781773 0.068422
vt 0.527034 0.300189
vt 0.737664 0.081685
vt 0.694029 0.101420
vt 0.879885 0.087420
vt 0.842541 0.090759
vt 0.571371 0.251189
vt 0.549464 0.282905
vt 0.801640 0.100221
vt 0.535263 0.313360
vt 0.758755 0.115443
vt 0.529315 0.341384
vt 0.715533 0.135839
vt 0.478656 0.154580
vt 0.673636 0.160626
vt 0.953041 0.107515
vt 0.938357 0.099386
vt 0.634673 0.188852
vt 0.912238 0.090333
vt 0.600143 0.219431
vt 0.696026 0.198690
vt 0.957237 0.114230
vt 0.947093 0.114237
vt 0.655764 0.224707
vt 0.924921 0.111895
vt 0.619124 0.251700
vt 0.896028 0.114863
vt 0.587513 0.278632
vt 0.861522 0.123028
vt 0.562147 0.304467
vt 0.822731 0.136076
vt 0.544000 0.328212
vt 0.781145 0.153507
vt 0.533769 0.348955
vt 0.738362 0.174649
vt 0.474880 0.146649
vt 0.603972 0.308125
vt 0.575078 0.327639
vt 0.844235 0.174611
vt 0.552907 0.344173
vt 0.803974 0.194414
vt 0.538310 0.357092
vt 0.761638 0.216358
vt 0.470685 0.138329
vt 0.718855 0.239598
vt 0.961690 0.121801
vt 0.956000 0.130199
vt 0.677269 0.263242
vt 0.937853 0.135067
vt 0.638478 0.286380
vt 0.912486 0.144356
vt 0.880876 0.157708
vt 0.970685 0.138328
vt 0.964737 0.146656
vt 0.698360 0.302974
vt 0.950536 0.158960
vt 0.657459 0.322138
vt 0.928629 0.174765
vt 0.620115 0.338534
vt 0.899857 0.193466
vt 0.587761 0.351532
vt 0.865326 0.214343
vt 0.561643 0.360631
vt 0.826364 0.236594
vt 0.542763 0.365483
vt 0.784467 0.259364
vt 0.466231 0.129939
vt 0.741245 0.281778
vt 0.885194 0.253746
vt 0.569872 0.376952
vt 0.847455 0.278424
vt 0.546959 0.373803
vt 0.805971 0.302013
vt 0.461690 0.121802
vt 0.762336 0.323608
vt 0.974880 0.146649
vt 0.972966 0.162978
vt 0.718227 0.342377
vt 0.962483 0.182655
vt 0.675339 0.357600
vt 0.943835 0.204923
vt 0.635320 0.368692
vt 0.917737 0.228928
vt 0.599709 0.375227
vt 0.736107 0.379937
vt 0.973235 0.205241
vt 0.691431 0.391403
vt 0.957520 0.233670
vt 0.649005 0.397439
vt 0.933829 0.262731
vt 0.610461 0.397813
vt 0.903074 0.291306
vt 0.577279 0.392510
vt 0.866436 0.318297
vt 0.550734 0.381734
vt 0.825324 0.342668
vt 0.457237 0.114230
vt 0.781318 0.363481
vt 0.980372 0.178536
vt 0.583577 0.406707
vt 0.918280 0.325579
vt 0.882579 0.354682
vt 0.553945 0.388972
vt 0.841783 0.379765
vt 0.453042 0.107515
vt 0.797460 0.399866
vt 0.978656 0.154580
vt 0.986670 0.192732
vt 0.751313 0.414210
vt 0.982379 0.225851
vt 0.705116 0.422248
vt 0.969158 0.259902
vt 0.660643 0.423671
vt 0.947514 0.293576
vt 0.619605 0.418423
vt 0.763260 0.443880
vt 0.715868 0.448950
vt 0.978301 0.282610
vt 0.669787 0.446379
vt 0.958266 0.320278
vt 0.626789 0.436265
vt 0.930227 0.355249
vt 0.588526 0.418996
vt 0.895262 0.386179
vt 0.556468 0.395237
vt 0.854714 0.411879
vt 0.449266 0.101915
vt 0.810143 0.431363
vt 0.981867 0.161818
vt 0.991619 0.205022
vt 0.989563 0.243693
vt 0.558206 0.400289
vt 0.903998 0.411578
vt 0.863622 0.437776
vt 0.446055 0.097645
vt 0.818879 0.456762
vt 0.984390 0.168083
vt 0.995028 0.214932
vt 0.771490 0.467806
vt 0.994512 0.258080
vt 0.723274 0.470483
vt 0.984600 0.300922
vt 0.676086 0.464691
vt 0.965672 0.341810
vt 0.631738 0.450652
vt 0.938456 0.379174
vt 0.591935 0.428906
vt 0.987811 0.314134
vt 0.679297 0.477903
vt 0.969448 0.357346
vt 0.634260 0.461033
vt 0.942652 0.396437
vt 0.593672 0.436057
vt 0.908452 0.429904
vt 0.559092 0.403934
vt 0.868163 0.456461
vt 0.443532 0.094869
vt 0.823333 0.475087
vt 0.986127 0.173135
vt 0.996766 0.222082
vt 0.775685 0.485068
vt 0.997035 0.268461
vt 0.727050 0.486019
vt 0.908452 0.440451
vt 0.868163 0.467215
vt 0.441794 0.093693
vt 0.559092 0.406032
vt 0.823333 0.485635
vt 0.408066 0.059101
vt 0.411474 0.061407
vt 0.775685 0.495003
vt 0.373211 0.035197
vt 0.368262 0.031849
vt 0.727050 0.494960
vt 0.987811 0.321738
vt 0.679297 0.485507
vt 0.969448 0.366288
vt 0.634260 0.467008
vt 0.942652 0.406372
vt 0.593672 0.440172
vt 0.676086 0.487212
vt 0.276726 0.003231
vt 0.320704 0.014688
vt 0.272951 0.005235
vt 0.631738 0.468347
vt 0.224315 0.005192
vt 0.228511 0.002965
vt 0.591935 0.441095
vt 0.181121 0.012196
vt 0.176667 0.014560
vt 0.558206 0.406503
vt 0.136378 0.030570
vt 0.131837 0.032981
vt 0.440909 0.094163
vt 0.818879 0.487999
vt 0.406328 0.060023
vt 0.771490 0.497230
vt 0.365740 0.033188
vt 0.723274 0.496965
vt 0.323915 0.012984
vt 0.440909 0.096261
vt 0.556468 0.405327
vt 0.091548 0.070292
vt 0.091548 0.059744
vt 0.406328 0.064139
vt 0.057348 0.103759
vt 0.057348 0.093823
vt 0.365740 0.039163
vt 0.030552 0.133907
vt 0.030552 0.142849
vt 0.320704 0.022293
vt 0.012189 0.186061
vt 0.012189 0.178457
vt 0.272951 0.014177
vt 0.002965 0.225760
vt 0.002965 0.231734
vt 0.224315 0.015128
vt 0.626789 0.464999
vt 0.588526 0.438789
vt 0.176667 0.025108
vt 0.131837 0.043735
vt 0.323915 0.035505
vt 0.276726 0.029713
vt 0.015400 0.199273
vt 0.005488 0.242115
vt 0.228511 0.032390
vt 0.004972 0.285263
vt 0.003234 0.278113
vt 0.181121 0.043434
vt 0.013872 0.327060
vt 0.012987 0.323415
vt 0.136378 0.062419
vt 0.441794 0.099907
vt 0.553945 0.402551
vt 0.096002 0.088617
vt 0.408066 0.071289
vt 0.061544 0.121021
vt 0.368262 0.049543
vt 0.034328 0.158385
vt 0.104738 0.114017
vt 0.411474 0.081200
vt 0.069773 0.144947
vt 0.373211 0.063931
vt 0.041734 0.179917
vt 0.330213 0.053817
vt 0.021698 0.217585
vt 0.284132 0.051245
vt 0.010436 0.256503
vt 0.236740 0.056316
vt 0.008381 0.295174
vt 0.189857 0.068833
vt 0.015610 0.332113
vt 0.145286 0.088316
vt 0.443532 0.104959
vt 0.550734 0.398280
vt 0.030842 0.240293
vt 0.017621 0.274344
vt 0.248687 0.085985
vt 0.013329 0.307463
vt 0.202540 0.100330
vt 0.018133 0.338378
vt 0.158217 0.120430
vt 0.446055 0.111224
vt 0.546959 0.392680
vt 0.117421 0.145514
vt 0.416423 0.093489
vt 0.081720 0.174616
vt 0.380396 0.081773
vt 0.052486 0.206619
vt 0.339357 0.076525
vt 0.294884 0.077947
vt 0.096926 0.208890
vt 0.422721 0.107686
vt 0.389539 0.102383
vt 0.066171 0.237465
vt 0.350995 0.102756
vt 0.042480 0.266525
vt 0.308569 0.108792
vt 0.026765 0.294954
vt 0.263893 0.120259
vt 0.019628 0.321660
vt 0.218682 0.136714
vt 0.021344 0.345615
vt 0.174676 0.157528
vt 0.449266 0.118461
vt 0.542763 0.385966
vt 0.133564 0.181898
vt 0.946055 0.097645
vt 0.966231 0.129938
vt 0.987013 0.176780
vt 0.997035 0.274436
vt 0.863622 0.469625
s 0
usemtl BakedMaterial
f 477/1/1 11/2/1 12/3/1
f 480/4/2 20/5/2 481/6/2
f 3/7/3 12/3/3 13/8/3
f 481/6/4 21/9/4 482/10/4
f 3/7/5 14/11/5 4/12/5
f 474/13/6 82/14/6 7/15/6
f 308/16/7 482/17/7 21/18/7
f 4/12/8 15/19/8 5/20/8
f 475/21/9 7/15/9 8/22/9
f 5/20/10 16/23/10 478/24/10
f 1/25/11 8/22/11 9/26/11
f 478/24/12 17/27/12 6/28/12
f 476/29/13 9/26/13 10/30/13
f 6/28/14 18/31/14 479/32/14
f 2/33/15 10/30/15 11/2/15
f 479/32/16 19/34/16 480/4/16
f 17/27/17 33/35/17 18/31/17
f 10/30/18 26/36/18 11/2/18
f 19/34/19 33/35/19 34/37/19
f 11/2/20 27/38/20 12/3/20
f 20/5/21 34/37/21 35/39/21
f 13/8/22 27/38/22 28/40/22
f 20/5/23 36/41/23 21/9/23
f 13/8/24 29/42/24 14/11/24
f 7/15/25 82/14/25 22/43/25
f 308/16/26 21/18/26 36/44/26
f 14/11/27 30/45/27 15/19/27
f 7/15/28 23/46/28 8/22/28
f 15/19/29 31/47/29 16/23/29
f 8/22/30 24/48/30 9/26/30
f 16/23/31 32/49/31 17/27/31
f 9/26/32 25/50/32 10/30/32
f 308/16/33 36/44/33 51/51/33
f 30/45/34 44/52/34 45/53/34
f 22/43/35 38/54/35 23/46/35
f 30/45/36 46/55/36 31/47/36
f 23/46/37 39/56/37 24/48/37
f 32/49/38 46/55/38 47/57/38
f 24/48/39 40/58/39 25/50/39
f 33/35/40 47/57/40 48/59/40
f 25/50/41 41/60/41 26/36/41
f 34/37/42 48/59/42 49/61/42
f 26/36/43 42/62/43 27/38/43
f 34/37/44 50/63/44 35/39/44
f 27/38/45 43/64/45 28/40/45
f 35/39/46 51/65/46 36/41/46
f 28/40/47 44/52/47 29/42/47
f 22/43/48 82/14/48 37/66/48
f 48/59/49 64/67/49 49/61/49
f 41/60/50 57/68/50 42/62/50
f 49/61/51 65/69/51 50/63/51
f 43/64/52 57/68/52 58/70/52
f 50/63/53 66/71/53 51/65/53
f 44/52/54 58/70/54 59/72/54
f 37/66/55 82/14/55 52/73/55
f 308/16/56 51/51/56 66/74/56
f 44/52/57 60/75/57 45/53/57
f 37/66/58 53/76/58 38/54/58
f 45/53/59 61/77/59 46/55/59
f 38/54/60 54/78/60 39/56/60
f 47/57/61 61/77/61 62/79/61
f 39/56/62 55/80/62 40/58/62
f 47/57/63 63/81/63 48/59/63
f 40/58/64 56/82/64 41/60/64
f 52/73/65 68/83/65 53/76/65
f 60/75/66 76/84/66 61/77/66
f 53/76/67 69/85/67 54/78/67
f 62/79/68 76/84/68 77/86/68
f 54/78/69 70/87/69 55/80/69
f 62/79/70 78/88/70 63/81/70
f 56/82/71 70/87/71 71/89/71
f 63/81/72 79/90/72 64/67/72
f 56/82/73 72/91/73 57/68/73
f 65/69/74 79/90/74 80/92/74
f 58/70/75 72/91/75 73/93/75
f 65/69/76 81/94/76 66/71/76
f 59/72/77 73/93/77 74/95/77
f 52/73/78 82/14/78 67/96/78
f 308/16/79 66/74/79 81/97/79
f 59/72/80 75/98/80 60/75/80
f 71/89/81 88/99/81 72/91/81
f 79/90/82 96/100/82 80/92/82
f 73/93/83 88/99/83 89/101/83
f 81/94/84 96/100/84 97/102/84
f 74/95/85 89/101/85 90/103/85
f 67/96/86 82/14/86 83/104/86
f 308/16/87 81/97/87 97/105/87
f 74/95/88 91/106/88 75/98/88
f 67/96/89 84/107/89 68/83/89
f 75/98/90 92/108/90 76/84/90
f 68/83/91 85/109/91 69/85/91
f 77/86/92 92/108/92 93/110/92
f 69/85/93 86/111/93 70/87/93
f 77/86/94 94/112/94 78/88/94
f 71/89/95 86/111/95 87/113/95
f 78/88/96 95/114/96 79/90/96
f 91/106/97 107/115/97 92/108/97
f 84/107/98 100/116/98 85/109/98
f 93/110/99 107/115/99 108/117/99
f 85/109/100 101/118/100 86/111/100
f 93/110/101 109/119/101 94/112/101
f 87/113/102 101/118/102 102/120/102
f 95/114/103 109/119/103 110/121/103
f 87/113/104 103/122/104 88/99/104
f 96/100/105 110/121/105 111/123/105
f 89/101/106 103/122/106 104/124/106
f 96/100/107 112/125/107 97/102/107
f 90/103/108 104/124/108 105/126/108
f 83/104/109 82/14/109 98/127/109
f 308/16/110 97/105/110 112/128/110
f 90/103/111 106/129/111 91/106/111
f 84/107/112 98/127/112 99/130/112
f 110/121/113 126/131/113 111/123/113
f 104/124/114 118/132/114 119/133/114
f 111/123/115 127/134/115 112/125/115
f 105/126/116 119/133/116 120/135/116
f 98/127/117 82/14/117 113/136/117
f 308/16/118 112/128/118 127/137/118
f 105/126/119 121/138/119 106/129/119
f 99/130/120 113/136/120 114/139/120
f 106/129/121 122/140/121 107/115/121
f 99/130/122 115/141/122 100/116/122
f 108/117/123 122/140/123 123/142/123
f 100/116/124 116/143/124 101/118/124
f 108/117/125 124/144/125 109/119/125
f 102/120/126 116/143/126 117/145/126
f 110/121/127 124/144/127 125/146/127
f 102/120/128 118/132/128 103/122/128
f 114/139/129 130/147/129 115/141/129
f 123/142/130 137/148/130 138/149/130
f 115/141/131 131/150/131 116/143/131
f 123/142/132 139/151/132 124/144/132
f 117/145/133 131/150/133 132/152/133
f 125/146/134 139/151/134 140/153/134
f 117/145/135 133/154/135 118/132/135
f 125/155/136 141/156/136 126/157/136
f 119/133/137 133/154/137 134/158/137
f 126/157/138 142/159/138 127/137/138
f 120/135/139 134/158/139 135/160/139
f 113/136/140 82/14/140 128/161/140
f 308/16/141 127/137/141 142/159/141
f 120/135/142 136/162/142 121/138/142
f 113/136/143 129/163/143 114/139/143
f 121/138/144 137/148/144 122/140/144
f 134/158/145 148/164/145 149/165/145
f 142/159/146 156/166/146 157/167/146
f 135/160/147 149/165/147 150/168/147
f 128/161/148 82/14/148 143/169/148
f 308/16/149 142/159/149 157/167/149
f 135/170/150 151/171/150 136/172/150
f 128/161/151 144/173/151 129/163/151
f 136/172/152 152/174/152 137/175/152
f 130/147/153 144/173/153 145/176/153
f 138/177/154 152/174/154 153/178/154
f 130/147/155 146/179/155 131/150/155
f 138/177/156 154/180/156 139/181/156
f 132/152/157 146/179/157 147/182/157
f 140/183/158 154/180/158 155/184/158
f 132/152/159 148/164/159 133/154/159
f 140/183/160 156/166/160 141/156/160
f 153/178/161 167/185/161 168/186/161
f 145/187/162 161/188/162 146/189/162
f 153/178/163 169/190/163 154/180/163
f 147/191/164 161/188/164 162/192/164
f 155/184/165 169/190/165 170/193/165
f 147/191/166 163/194/166 148/195/166
f 155/184/167 171/196/167 156/166/167
f 149/197/168 163/194/168 164/198/168
f 156/166/169 172/199/169 157/167/169
f 150/200/170 164/198/170 165/201/170
f 143/169/171 82/14/171 158/202/171
f 308/16/172 157/167/172 172/199/172
f 150/200/173 166/203/173 151/171/173
f 143/169/174 159/204/174 144/173/174
f 151/171/175 167/185/175 152/174/175
f 145/176/176 159/204/176 160/205/176
f 172/199/177 186/206/177 187/207/177
f 165/201/178 179/208/178 180/209/178
f 158/202/179 82/14/179 173/210/179
f 308/16/180 172/199/180 187/207/180
f 165/201/181 181/211/181 166/203/181
f 158/212/182 174/213/182 159/214/182
f 166/203/183 182/215/183 167/185/183
f 159/214/184 175/216/184 160/217/184
f 168/186/185 182/215/185 183/218/185
f 160/217/186 176/219/186 161/188/186
f 168/186/187 184/220/187 169/190/187
f 162/192/188 176/219/188 177/221/188
f 169/190/189 185/222/189 170/193/189
f 162/192/190 178/223/190 163/194/190
f 171/196/191 185/222/191 186/206/191
f 164/198/192 178/223/192 179/208/192
f 183/218/193 199/224/193 184/220/193
f 177/221/194 191/225/194 192/226/194
f 185/222/195 199/224/195 200/227/195
f 177/221/196 193/228/196 178/223/196
f 185/222/197 201/229/197 186/206/197
f 179/208/198 193/228/198 194/230/198
f 186/206/199 202/231/199 187/207/199
f 180/209/200 194/230/200 195/232/200
f 173/210/201 82/14/201 188/233/201
f 308/16/202 187/207/202 202/231/202
f 180/209/203 196/234/203 181/211/203
f 174/213/204 188/235/204 189/236/204
f 181/211/205 197/237/205 182/215/205
f 175/216/206 189/236/206 190/238/206
f 183/218/207 197/237/207 198/239/207
f 175/216/208 191/225/208 176/219/208
f 188/233/209 82/14/209 203/240/209
f 308/16/210 202/231/210 217/241/210
f 195/232/211 211/242/211 196/234/211
f 188/235/212 204/243/212 189/236/212
f 196/234/213 212/244/213 197/237/213
f 189/236/214 205/245/214 190/238/214
f 198/239/215 212/244/215 213/246/215
f 190/238/216 206/247/216 191/225/216
f 198/239/217 214/248/217 199/224/217
f 192/226/218 206/247/218 207/249/218
f 200/227/219 214/248/219 215/250/219
f 192/226/220 208/251/220 193/228/220
f 200/227/221 216/252/221 201/229/221
f 194/230/222 208/251/222 209/253/222
f 201/229/223 217/241/223 202/231/223
f 195/232/224 209/253/224 210/254/224
f 207/249/225 221/255/225 222/256/225
f 215/250/226 229/257/226 230/258/226
f 207/249/227 223/259/227 208/251/227
f 215/250/228 231/260/228 216/252/228
f 209/253/229 223/259/229 224/261/229
f 216/252/230 232/262/230 217/241/230
f 210/254/231 224/261/231 225/263/231
f 203/240/232 82/14/232 218/264/232
f 308/16/233 217/241/233 232/262/233
f 210/254/234 226/265/234 211/242/234
f 203/266/235 219/267/235 204/243/235
f 211/242/236 227/268/236 212/244/236
f 204/243/237 220/269/237 205/245/237
f 213/246/238 227/268/238 228/270/238
f 205/245/239 221/255/239 206/247/239
f 213/246/240 229/257/240 214/248/240
f 225/263/241 241/271/241 226/265/241
f 218/272/242 234/273/242 219/267/242
f 226/265/243 242/274/243 227/268/243
f 220/269/244 234/273/244 235/275/244
f 228/270/245 242/274/245 243/276/245
f 220/269/246 236/277/246 221/255/246
f 228/270/247 244/278/247 229/257/247
f 222/256/248 236/277/248 237/279/248
f 230/258/249 244/278/249 245/280/249
f 222/256/250 238/281/250 223/259/250
f 230/258/251 246/282/251 231/260/251
f 224/261/252 238/281/252 239/283/252
f 232/262/253 246/282/253 247/284/253
f 225/263/254 239/283/254 240/285/254
f 218/264/255 82/14/255 233/286/255
f 308/16/256 232/262/256 247/284/256
f 245/280/257 259/287/257 260/288/257
f 237/279/258 253/289/258 238/281/258
f 245/280/259 261/290/259 246/282/259
f 239/283/260 253/289/260 254/291/260
f 246/282/261 262/292/261 247/284/261
f 240/285/262 254/291/262 255/293/262
f 233/286/263 82/14/263 248/294/263
f 308/16/264 247/284/264 262/292/264
f 240/285/265 256/295/265 241/271/265
f 233/296/266 249/297/266 234/273/266
f 241/271/267 257/298/267 242/274/267
f 234/273/268 250/299/268 235/275/268
f 243/276/269 257/298/269 258/300/269
f 235/275/270 251/301/270 236/277/270
f 243/276/271 259/287/271 244/278/271
f 237/279/272 251/301/272 252/302/272
f 249/297/273 263/303/273 264/304/273
f 256/295/274 272/305/274 257/298/274
f 249/297/275 265/306/275 250/299/275
f 258/300/276 272/305/276 273/307/276
f 250/299/277 266/308/277 251/301/277
f 258/300/278 274/309/278 259/287/278
f 252/302/279 266/308/279 267/310/279
f 260/288/280 274/309/280 275/311/280
f 252/302/281 268/312/281 253/289/281
f 260/288/282 276/313/282 261/290/282
f 254/291/283 268/312/283 269/314/283
f 261/290/284 277/315/284 262/292/284
f 255/293/285 269/314/285 270/316/285
f 248/294/286 82/14/286 263/317/286
f 308/16/287 262/292/287 277/315/287
f 255/293/288 271/318/288 256/295/288
f 267/310/289 283/319/289 268/312/289
f 275/311/290 291/320/290 276/313/290
f 269/314/291 283/319/291 284/321/291
f 277/315/292 291/320/292 292/322/292
f 270/316/293 284/321/293 285/323/293
f 263/317/294 82/14/294 278/324/294
f 308/16/295 277/315/295 292/322/295
f 270/316/296 286/325/296 271/318/296
f 264/304/297 278/326/297 279/327/297
f 271/318/298 287/328/298 272/305/298
f 264/304/299 280/329/299 265/306/299
f 273/307/300 287/328/300 288/330/300
f 265/306/301 281/331/301 266/308/301
f 273/307/302 289/332/302 274/309/302
f 267/310/303 281/331/303 282/333/303
f 275/311/304 289/332/304 290/334/304
f 286/325/305 302/335/305 287/328/305
f 279/327/306 295/336/306 280/329/306
f 288/330/307 302/335/307 303/337/307
f 280/329/308 296/338/308 281/331/308
f 288/330/309 304/339/309 289/332/309
f 282/333/310 296/338/310 297/340/310
f 290/334/311 304/339/311 305/341/311
f 282/333/312 298/342/312 283/319/312
f 290/334/313 306/343/313 291/320/313
f 284/321/314 298/342/314 299/344/314
f 292/322/315 306/343/315 307/345/315
f 285/323/316 299/344/316 300/346/316
f 278/324/317 82/14/317 293/347/317
f 308/16/318 292/322/318 307/345/318
f 285/323/319 301/348/319 286/325/319
f 278/326/320 294/349/320 279/327/320
f 305/341/321 322/350/321 306/343/321
f 299/344/322 314/351/322 315/352/322
f 306/343/323 323/353/323 307/345/323
f 300/346/324 315/352/324 316/354/324
f 293/347/325 82/14/325 309/355/325
f 308/16/326 307/345/326 323/353/326
f 300/346/327 317/356/327 301/348/327
f 293/357/328 310/358/328 294/349/328
f 301/348/329 318/359/329 302/335/329
f 294/349/330 311/360/330 295/336/330
f 303/337/331 318/359/331 319/361/331
f 295/336/332 312/362/332 296/338/332
f 303/337/333 320/363/333 304/339/333
f 297/340/334 312/362/334 313/364/334
f 305/341/335 320/363/335 321/365/335
f 297/340/336 314/351/336 298/342/336
f 319/361/337 333/366/337 334/367/337
f 311/360/338 327/368/338 312/362/338
f 319/361/339 335/369/339 320/363/339
f 312/362/340 328/370/340 313/364/340
f 321/365/341 335/369/341 336/371/341
f 313/364/342 329/372/342 314/351/342
f 321/365/343 337/373/343 322/350/343
f 315/352/344 329/372/344 330/374/344
f 322/350/345 338/375/345 323/353/345
f 316/354/346 330/374/346 331/376/346
f 309/355/347 82/14/347 324/377/347
f 308/16/348 323/353/348 338/375/348
f 316/354/349 332/378/349 317/356/349
f 309/379/350 325/380/350 310/358/350
f 317/356/351 333/366/351 318/359/351
f 310/358/352 326/381/352 311/360/352
f 337/373/353 353/382/353 338/375/353
f 331/376/354 345/383/354 346/384/354
f 324/377/355 82/14/355 339/385/355
f 308/16/356 338/375/356 353/382/356
f 331/376/357 347/386/357 332/378/357
f 324/387/358 340/388/358 325/380/358
f 332/378/359 348/389/359 333/366/359
f 325/380/360 341/390/360 326/381/360
f 334/367/361 348/389/361 349/391/361
f 326/381/362 342/392/362 327/368/362
f 334/367/363 350/393/363 335/369/363
f 328/370/364 342/392/364 343/394/364
f 336/371/365 350/393/365 351/395/365
f 328/370/366 344/396/366 329/372/366
f 336/371/367 352/397/367 337/373/367
f 330/374/368 344/396/368 345/383/368
f 341/390/369 357/398/369 342/392/369
f 349/391/370 365/399/370 350/393/370
f 343/394/371 357/398/371 358/400/371
f 351/395/372 365/399/372 366/401/372
f 343/394/373 359/402/373 344/396/373
f 351/395/374 367/403/374 352/397/374
f 345/383/375 359/402/375 360/404/375
f 352/397/376 368/405/376 353/382/376
f 346/384/377 360/404/377 361/406/377
f 339/385/378 82/14/378 354/407/378
f 308/16/379 353/382/379 368/405/379
f 346/384/380 362/408/380 347/386/380
f 339/409/381 355/410/381 340/388/381
f 347/386/382 363/411/382 348/389/382
f 341/390/383 355/410/383 356/412/383
f 349/391/384 363/411/384 364/413/384
f 361/406/385 375/414/385 376/415/385
f 354/407/386 82/14/386 369/416/386
f 308/16/387 368/405/387 383/417/387
f 361/406/388 377/418/388 362/408/388
f 354/407/389 370/419/389 355/420/389
f 362/408/390 378/421/390 363/411/390
f 356/422/391 370/419/391 371/423/391
f 364/413/392 378/421/392 379/424/392
f 356/412/393 372/425/393 357/398/393
f 364/413/394 380/426/394 365/399/394
f 358/400/395 372/425/395 373/427/395
f 366/401/396 380/426/396 381/428/396
f 358/400/397 374/429/397 359/402/397
f 366/401/398 382/430/398 367/403/398
f 360/404/399 374/429/399 375/414/399
f 367/403/400 383/417/400 368/405/400
f 379/424/401 395/431/401 380/426/401
f 373/432/402 387/433/402 388/434/402
f 381/428/403 395/431/403 396/435/403
f 373/432/404 389/436/404 374/437/404
f 381/428/405 397/438/405 382/430/405
f 375/439/406 389/436/406 390/440/406
f 382/430/407 398/441/407 383/417/407
f 376/442/408 390/440/408 391/443/408
f 369/416/409 82/14/409 384/444/409
f 308/16/410 383/417/410 398/441/410
f 376/415/411 392/445/411 377/418/411
f 369/416/412 385/446/412 370/419/412
f 377/418/413 393/447/413 378/421/413
f 371/423/414 385/446/414 386/448/414
f 379/424/415 393/447/415 394/449/415
f 371/423/416 387/433/416 372/450/416
f 384/444/417 82/14/417 399/451/417
f 308/16/418 398/441/418 413/452/418
f 391/443/419 407/453/419 392/454/419
f 385/446/420 399/451/420 400/455/420
f 392/454/421 408/456/421 393/457/421
f 385/446/422 401/458/422 386/448/422
f 394/459/423 408/456/423 409/460/423
f 386/448/424 402/461/424 387/433/424
f 394/459/425 410/462/425 395/463/425
f 388/434/426 402/461/426 403/464/426
f 396/465/427 410/462/427 411/466/427
f 388/434/428 404/467/428 389/436/428
f 397/438/429 411/468/429 412/469/429
f 390/440/430 404/467/430 405/470/430
f 397/438/431 413/452/431 398/441/431
f 391/443/432 405/470/432 406/471/432
f 403/464/433 417/472/433 418/473/433
f 411/466/434 425/474/434 426/475/434
f 403/464/435 419/476/435 404/467/435
f 411/466/436 427/477/436 412/478/436
f 405/470/437 419/476/437 420/479/437
f 412/478/438 428/480/438 413/481/438
f 406/471/439 420/479/439 421/482/439
f 399/451/440 82/14/440 414/483/440
f 308/16/441 413/452/441 428/484/441
f 406/471/442 422/485/442 407/453/442
f 399/451/443 415/486/443 400/455/443
f 407/453/444 423/487/444 408/456/444
f 401/458/445 415/486/445 416/488/445
f 409/460/446 423/487/446 424/489/446
f 401/458/447 417/472/447 402/461/447
f 409/460/448 425/474/448 410/462/448
f 421/482/449 437/490/449 422/485/449
f 414/483/450 430/491/450 415/486/450
f 422/485/451 438/492/451 423/487/451
f 416/488/452 430/491/452 431/493/452
f 424/489/453 438/492/453 439/494/453
f 416/488/454 432/495/454 417/472/454
f 424/489/455 440/496/455 425/474/455
f 418/473/456 432/495/456 433/497/456
f 426/475/457 440/496/457 441/498/457
f 418/473/458 434/499/458 419/476/458
f 426/475/459 442/500/459 427/477/459
f 420/479/460 434/499/460 435/501/460
f 427/477/461 443/502/461 428/480/461
f 421/482/462 435/501/462 436/503/462
f 414/483/463 82/14/463 429/504/463
f 308/16/464 428/484/464 443/505/464
f 441/498/465 455/506/465 456/507/465
f 433/497/466 449/508/466 434/499/466
f 441/498/467 457/509/467 442/500/467
f 435/501/468 449/508/468 450/510/468
f 442/500/469 458/511/469 443/502/469
f 436/503/470 450/510/470 451/512/470
f 429/504/471 82/14/471 444/513/471
f 308/16/472 443/505/472 458/514/472
f 436/503/473 452/515/473 437/490/473
f 430/491/474 444/513/474 445/516/474
f 437/490/475 453/517/475 438/492/475
f 430/491/476 446/518/476 431/493/476
f 439/494/477 453/517/477 454/519/477
f 431/493/478 447/520/478 432/495/478
f 439/494/479 455/506/479 440/496/479
f 433/497/480 447/520/480 448/521/480
f 452/515/481 468/522/481 453/517/481
f 446/518/482 460/523/482 461/524/482
f 454/519/483 468/522/483 469/525/483
f 446/518/484 462/526/484 447/520/484
f 454/519/485 470/527/485 455/506/485
f 448/521/486 462/526/486 463/528/486
f 456/507/487 470/527/487 471/529/487
f 448/521/488 464/530/488 449/508/488
f 456/507/489 472/531/489 457/509/489
f 450/510/490 464/530/490 465/532/490
f 458/511/491 472/531/491 473/533/491
f 451/512/492 465/532/492 466/534/492
f 444/513/493 82/14/493 459/535/493
f 308/16/494 458/514/494 473/536/494
f 451/512/495 467/537/495 452/515/495
f 444/513/496 460/523/496 445/516/496
f 471/529/497 481/6/497 472/531/497
f 465/532/498 477/1/498 3/7/498
f 472/531/499 482/10/499 473/533/499
f 466/534/500 3/7/500 4/12/500
f 459/535/501 82/14/501 474/13/501
f 308/16/502 473/536/502 482/17/502
f 466/534/503 5/20/503 467/537/503
f 460/523/504 474/13/504 475/21/504
f 467/537/505 478/24/505 468/522/505
f 461/524/506 475/21/506 1/25/506
f 468/522/507 6/28/507 469/525/507
f 462/526/508 1/25/508 476/29/508
f 469/525/509 479/32/509 470/527/509
f 463/528/510 476/29/510 2/33/510
f 471/529/511 479/32/511 480/4/511
f 464/530/512 2/33/512 477/1/512
f 477/1/1 2/33/1 11/2/1
f 480/4/2 19/34/2 20/5/2
f 3/7/3 477/1/3 12/3/3
f 481/6/4 20/5/4 21/9/4
f 3/7/513 13/8/513 14/11/513
f 4/12/514 14/11/514 15/19/514
f 475/21/9 474/13/9 7/15/9
f 5/20/10 15/19/10 16/23/10
f 1/25/11 475/21/11 8/22/11
f 478/24/12 16/23/12 17/27/12
f 476/29/13 1/25/13 9/26/13
f 6/28/14 17/27/14 18/31/14
f 2/33/15 476/29/15 10/30/15
f 479/32/16 18/31/16 19/34/16
f 17/27/17 32/49/17 33/35/17
f 10/30/18 25/50/18 26/36/18
f 19/34/19 18/31/19 33/35/19
f 11/2/20 26/36/20 27/38/20
f 20/5/21 19/34/21 34/37/21
f 13/8/22 12/3/22 27/38/22
f 20/5/23 35/39/23 36/41/23
f 13/8/24 28/40/24 29/42/24
f 14/11/27 29/42/27 30/45/27
f 7/15/28 22/43/28 23/46/28
f 15/19/29 30/45/29 31/47/29
f 8/22/30 23/46/30 24/48/30
f 16/23/31 31/47/31 32/49/31
f 9/26/32 24/48/32 25/50/32
f 30/45/34 29/42/34 44/52/34
f 22/43/35 37/66/35 38/54/35
f 30/45/36 45/53/36 46/55/36
f 23/46/515 38/54/515 39/56/515
f 32/49/38 31/47/38 46/55/38
f 24/48/39 39/56/39 40/58/39
f 33/35/40 32/49/40 47/57/40
f 25/50/41 40/58/41 41/60/41
f 34/37/42 33/35/42 48/59/42
f 26/36/43 41/60/43 42/62/43
f 34/37/516 49/61/516 50/63/516
f 27/38/45 42/62/45 43/64/45
f 35/39/46 50/63/46 51/65/46
f 28/40/47 43/64/47 44/52/47
f 48/59/49 63/81/49 64/67/49
f 41/60/50 56/82/50 57/68/50
f 49/61/51 64/67/51 65/69/51
f 43/64/52 42/62/52 57/68/52
f 50/63/53 65/69/53 66/71/53
f 44/52/54 43/64/54 58/70/54
f 44/52/57 59/72/57 60/75/57
f 37/66/58 52/73/58 53/76/58
f 45/53/59 60/75/59 61/77/59
f 38/54/60 53/76/60 54/78/60
f 47/57/61 46/55/61 61/77/61
f 39/56/62 54/78/62 55/80/62
f 47/57/63 62/79/63 63/81/63
f 40/58/64 55/80/64 56/82/64
f 52/73/65 67/96/65 68/83/65
f 60/75/66 75/98/66 76/84/66
f 53/76/67 68/83/67 69/85/67
f 62/79/68 61/77/68 76/84/68
f 54/78/69 69/85/69 70/87/69
f 62/79/70 77/86/70 78/88/70
f 56/82/71 55/80/71 70/87/71
f 63/81/72 78/88/72 79/90/72
f 56/82/73 71/89/73 72/91/73
f 65/69/74 64/67/74 79/90/74
f 58/70/75 57/68/75 72/91/75
f 65/69/517 80/92/517 81/94/517
f 59/72/77 58/70/77 73/93/77
f 59/72/80 74/95/80 75/98/80
f 71/89/81 87/113/81 88/99/81
f 79/90/82 95/114/82 96/100/82
f 73/93/83 72/91/83 88/99/83
f 81/94/84 80/92/84 96/100/84
f 74/95/85 73/93/85 89/101/85
f 74/95/88 90/103/88 91/106/88
f 67/96/89 83/104/89 84/107/89
f 75/98/90 91/106/90 92/108/90
f 68/83/91 84/107/91 85/109/91
f 77/86/92 76/84/92 92/108/92
f 69/85/93 85/109/93 86/111/93
f 77/86/94 93/110/94 94/112/94
f 71/89/95 70/87/95 86/111/95
f 78/88/96 94/112/96 95/114/96
f 91/106/97 106/129/97 107/115/97
f 84/107/98 99/130/98 100/116/98
f 93/110/99 92/108/99 107/115/99
f 85/109/100 100/116/100 101/118/100
f 93/110/101 108/117/101 109/119/101
f 87/113/102 86/111/102 101/118/102
f 95/114/103 94/112/103 109/119/103
f 87/113/104 102/120/104 103/122/104
f 96/100/105 95/114/105 110/121/105
f 89/101/106 88/99/106 103/122/106
f 96/100/107 111/123/107 112/125/107
f 90/103/108 89/101/108 104/124/108
f 90/103/111 105/126/111 106/129/111
f 84/107/112 83/104/112 98/127/112
f 110/121/113 125/146/113 126/131/113
f 104/124/114 103/122/114 118/132/114
f 111/123/115 126/131/115 127/134/115
f 105/126/116 104/124/116 119/133/116
f 105/126/119 120/135/119 121/138/119
f 99/130/120 98/127/120 113/136/120
f 106/129/121 121/138/121 122/140/121
f 99/130/122 114/139/122 115/141/122
f 108/117/123 107/115/123 122/140/123
f 100/116/124 115/141/124 116/143/124
f 108/117/125 123/142/125 124/144/125
f 102/120/126 101/118/126 116/143/126
f 110/121/127 109/119/127 124/144/127
f 102/120/128 117/145/128 118/132/128
f 114/139/129 129/163/129 130/147/129
f 123/142/130 122/140/130 137/148/130
f 115/141/131 130/147/131 131/150/131
f 123/142/132 138/149/132 139/151/132
f 117/145/133 116/143/133 131/150/133
f 125/146/134 124/144/134 139/151/134
f 117/145/135 132/152/135 133/154/135
f 125/155/136 140/183/136 141/156/136
f 119/133/137 118/132/137 133/154/137
f 126/157/138 141/156/138 142/159/138
f 120/135/139 119/133/139 134/158/139
f 120/135/142 135/160/142 136/162/142
f 113/136/143 128/161/143 129/163/143
f 121/138/144 136/162/144 137/148/144
f 134/158/145 133/154/145 148/164/145
f 142/159/146 141/156/146 156/166/146
f 135/160/147 134/158/147 149/165/147
f 135/170/150 150/200/150 151/171/150
f 128/161/151 143/169/151 144/173/151
f 136/172/152 151/171/152 152/174/152
f 130/147/153 129/163/153 144/173/153
f 138/177/154 137/175/154 152/174/154
f 130/147/155 145/176/155 146/179/155
f 138/177/156 153/178/156 154/180/156
f 132/152/157 131/150/157 146/179/157
f 140/183/158 139/181/158 154/180/158
f 132/152/159 147/182/159 148/164/159
f 140/183/160 155/184/160 156/166/160
f 153/178/161 152/174/161 167/185/161
f 145/187/162 160/217/162 161/188/162
f 153/178/163 168/186/163 169/190/163
f 147/191/164 146/189/164 161/188/164
f 155/184/165 154/180/165 169/190/165
f 147/191/166 162/192/166 163/194/166
f 155/184/518 170/193/518 171/196/518
f 149/197/168 148/195/168 163/194/168
f 156/166/169 171/196/169 172/199/169
f 150/200/170 149/197/170 164/198/170
f 150/200/173 165/201/173 166/203/173
f 143/169/174 158/202/174 159/204/174
f 151/171/175 166/203/175 167/185/175
f 145/176/519 144/173/519 159/204/519
f 172/199/177 171/196/177 186/206/177
f 165/201/178 164/198/178 179/208/178
f 165/201/181 180/209/181 181/211/181
f 158/212/182 173/538/182 174/213/182
f 166/203/183 181/211/183 182/215/183
f 159/214/184 174/213/184 175/216/184
f 168/186/185 167/185/185 182/215/185
f 160/217/186 175/216/186 176/219/186
f 168/186/187 183/218/187 184/220/187
f 162/192/188 161/188/188 176/219/188
f 169/190/189 184/220/189 185/222/189
f 162/192/190 177/221/190 178/223/190
f 171/196/191 170/193/191 185/222/191
f 164/198/192 163/194/192 178/223/192
f 183/218/193 198/239/193 199/224/193
f 177/221/194 176/219/194 191/225/194
f 185/222/195 184/220/195 199/224/195
f 177/221/196 192/226/196 193/228/196
f 185/222/197 200/227/197 201/229/197
f 179/208/198 178/223/198 193/228/198
f 186/206/199 201/229/199 202/231/199
f 180/209/200 179/208/200 194/230/200
f 180/209/203 195/232/203 196/234/203
f 174/213/204 173/538/204 188/235/204
f 181/211/205 196/234/205 197/237/205
f 175/216/206 174/213/206 189/236/206
f 183/218/207 182/215/207 197/237/207
f 175/216/208 190/238/208 191/225/208
f 195/232/211 210/254/211 211/242/211
f 188/235/212 203/266/212 204/243/212
f 196/234/213 211/242/213 212/244/213
f 189/236/214 204/243/214 205/245/214
f 198/239/215 197/237/215 212/244/215
f 190/238/216 205/245/216 206/247/216
f 198/239/217 213/246/217 214/248/217
f 192/226/218 191/225/218 206/247/218
f 200/227/219 199/224/219 214/248/219
f 192/226/220 207/249/220 208/251/220
f 200/227/520 215/250/520 216/252/520
f 194/230/222 193/228/222 208/251/222
f 201/229/223 216/252/223 217/241/223
f 195/232/224 194/230/224 209/253/224
f 207/249/225 206/247/225 221/255/225
f 215/250/226 214/248/226 229/257/226
f 207/249/227 222/256/227 223/259/227
f 215/250/228 230/258/228 231/260/228
f 209/253/229 208/251/229 223/259/229
f 216/252/230 231/260/230 232/262/230
f 210/254/231 209/253/231 224/261/231
f 210/254/234 225/263/234 226/265/234
f 203/266/235 218/272/235 219/267/235
f 211/242/236 226/265/236 227/268/236
f 204/243/237 219/267/237 220/269/237
f 213/246/238 212/244/238 227/268/238
f 205/245/239 220/269/239 221/255/239
f 213/246/240 228/270/240 229/257/240
f 225/263/241 240/285/241 241/271/241
f 218/272/242 233/296/242 234/273/242
f 226/265/243 241/271/243 242/274/243
f 220/269/244 219/267/244 234/273/244
f 228/270/245 227/268/245 242/274/245
f 220/269/246 235/275/246 236/277/246
f 228/270/247 243/276/247 244/278/247
f 222/256/248 221/255/248 236/277/248
f 230/258/249 229/257/249 244/278/249
f 222/256/250 237/279/250 238/281/250
f 230/258/251 245/280/251 246/282/251
f 224/261/252 223/259/252 238/281/252
f 232/262/253 231/260/253 246/282/253
f 225/263/254 224/261/254 239/283/254
f 245/280/257 244/278/257 259/287/257
f 237/279/258 252/302/258 253/289/258
f 245/280/259 260/288/259 261/290/259
f 239/283/260 238/281/260 253/289/260
f 246/282/261 261/290/261 262/292/261
f 240/285/521 239/283/521 254/291/521
f 240/285/522 255/293/522 256/295/522
f 233/296/266 248/539/266 249/297/266
f 241/271/267 256/295/267 257/298/267
f 234/273/268 249/297/268 250/299/268
f 243/276/269 242/274/269 257/298/269
f 235/275/270 250/299/270 251/301/270
f 243/276/271 258/300/271 259/287/271
f 237/279/272 236/277/272 251/301/272
f 249/297/273 248/539/273 263/303/273
f 256/295/274 271/318/274 272/305/274
f 249/297/275 264/304/275 265/306/275
f 258/300/276 257/298/276 272/305/276
f 250/299/277 265/306/277 266/308/277
f 258/300/278 273/307/278 274/309/278
f 252/302/279 251/301/279 266/308/279
f 260/288/280 259/287/280 274/309/280
f 252/302/281 267/310/281 268/312/281
f 260/288/282 275/311/282 276/313/282
f 254/291/283 253/289/283 268/312/283
f 261/290/284 276/313/284 277/315/284
f 255/293/285 254/291/285 269/314/285
f 255/293/288 270/316/288 271/318/288
f 267/310/289 282/333/289 283/319/289
f 275/311/523 290/334/523 291/320/523
f 269/314/291 268/312/291 283/319/291
f 277/315/292 276/313/292 291/320/292
f 270/316/293 269/314/293 284/321/293
f 270/316/296 285/323/296 286/325/296
f 264/304/297 263/303/297 278/326/297
f 271/318/298 286/325/298 287/328/298
f 264/304/524 279/327/524 280/329/524
f 273/307/300 272/305/300 287/328/300
f 265/306/301 280/329/301 281/331/301
f 273/307/302 288/330/302 289/332/302
f 267/310/303 266/308/303 281/331/303
f 275/311/304 274/309/304 289/332/304
f 286/325/305 301/348/305 302/335/305
f 279/327/306 294/349/306 295/336/306
f 288/330/307 287/328/307 302/335/307
f 280/329/308 295/336/308 296/338/308
f 288/330/309 303/337/309 304/339/309
f 282/333/310 281/331/310 296/338/310
f 290/334/311 289/332/311 304/339/311
f 282/333/312 297/340/312 298/342/312
f 290/334/313 305/341/313 306/343/313
f 284/321/314 283/319/314 298/342/314
f 292/322/315 291/320/315 306/343/315
f 285/323/316 284/321/316 299/344/316
f 285/323/319 300/346/319 301/348/319
f 278/326/320 293/357/320 294/349/320
f 305/341/321 321/365/321 322/350/321
f 299/344/322 298/342/322 314/351/322
f 306/343/525 322/350/525 323/353/525
f 300/346/324 299/344/324 315/352/324
f 300/346/327 316/354/327 317/356/327
f 293/357/328 309/379/328 310/358/328
f 301/348/329 317/356/329 318/359/329
f 294/349/330 310/358/330 311/360/330
f 303/337/331 302/335/331 318/359/331
f 295/336/332 311/360/332 312/362/332
f 303/337/333 319/361/333 320/363/333
f 297/340/334 296/338/334 312/362/334
f 305/341/335 304/339/335 320/363/335
f 297/340/336 313/364/336 314/351/336
f 319/361/337 318/359/337 333/366/337
f 311/360/338 326/381/338 327/368/338
f 319/361/339 334/367/339 335/369/339
f 312/362/340 327/368/340 328/370/340
f 321/365/341 320/363/341 335/369/341
f 313/364/342 328/370/342 329/372/342
f 321/365/526 336/371/526 337/373/526
f 315/352/344 314/351/344 329/372/344
f 322/350/345 337/373/345 338/375/345
f 316/354/346 315/352/346 330/374/346
f 316/354/349 331/376/349 332/378/349
f 309/379/350 324/387/350 325/380/350
f 317/356/351 332/378/351 333/366/351
f 310/358/352 325/380/352 326/381/352
f 337/373/353 352/397/353 353/382/353
f 331/376/354 330/374/354 345/383/354
f 331/376/357 346/384/357 347/386/357
f 324/387/358 339/409/358 340/388/358
f 332/378/359 347/386/359 348/389/359
f 325/380/360 340/388/360 341/390/360
f 334/367/361 333/366/361 348/389/361
f 326/381/362 341/390/362 342/392/362
f 334/367/363 349/391/363 350/393/363
f 328/370/364 327/368/364 342/392/364
f 336/371/365 335/369/365 350/393/365
f 328/370/366 343/394/366 344/396/366
f 336/371/367 351/395/367 352/397/367
f 330/374/368 329/372/368 344/396/368
f 341/390/369 356/412/369 357/398/369
f 349/391/370 364/413/370 365/399/370
f 343/394/371 342/392/371 357/398/371
f 351/395/372 350/393/372 365/399/372
f 343/394/373 358/400/373 359/402/373
f 351/395/374 366/401/374 367/403/374
f 345/383/375 344/396/375 359/402/375
f 352/397/376 367/403/376 368/405/376
f 346/384/527 345/383/527 360/404/527
f 346/384/528 361/406/528 362/408/528
f 339/409/381 354/540/381 355/410/381
f 347/386/382 362/408/382 363/411/382
f 341/390/383 340/388/383 355/410/383
f 349/391/384 348/389/384 363/411/384
f 361/406/529 360/404/529 375/414/529
f 361/406/530 376/415/530 377/418/530
f 354/407/389 369/416/389 370/419/389
f 362/408/390 377/418/390 378/421/390
f 356/422/391 355/420/391 370/419/391
f 364/413/392 363/411/392 378/421/392
f 356/412/393 371/541/393 372/425/393
f 364/413/394 379/424/394 380/426/394
f 358/400/395 357/398/395 372/425/395
f 366/401/396 365/399/396 380/426/396
f 358/400/397 373/427/397 374/429/397
f 366/401/398 381/428/398 382/430/398
f 360/404/399 359/402/399 374/429/399
f 367/403/400 382/430/400 383/417/400
f 379/424/401 394/449/401 395/431/401
f 373/432/402 372/450/402 387/433/402
f 381/428/403 380/426/403 395/431/403
f 373/432/404 388/434/404 389/436/404
f 381/428/405 396/435/405 397/438/405
f 375/439/406 374/437/406 389/436/406
f 382/430/407 397/438/407 398/441/407
f 376/442/408 375/439/408 390/440/408
f 376/415/411 391/542/411 392/445/411
f 369/416/412 384/444/412 385/446/412
f 377/418/413 392/445/413 393/447/413
f 371/423/414 370/419/414 385/446/414
f 379/424/415 378/421/415 393/447/415
f 371/423/416 386/448/416 387/433/416
f 391/443/419 406/471/419 407/453/419
f 385/446/420 384/444/420 399/451/420
f 392/454/421 407/453/421 408/456/421
f 385/446/422 400/455/422 401/458/422
f 394/459/423 393/457/423 408/456/423
f 386/448/424 401/458/424 402/461/424
f 394/459/425 409/460/425 410/462/425
f 388/434/426 387/433/426 402/461/426
f 396/465/427 395/463/427 410/462/427
f 388/434/428 403/464/428 404/467/428
f 397/438/429 396/435/429 411/468/429
f 390/440/430 389/436/430 404/467/430
f 397/438/431 412/469/431 413/452/431
f 391/443/432 390/440/432 405/470/432
f 403/464/433 402/461/433 417/472/433
f 411/466/434 410/462/434 425/474/434
f 403/464/435 418/473/435 419/476/435
f 411/466/436 426/475/436 427/477/436
f 405/470/437 404/467/437 419/476/437
f 412/478/438 427/477/438 428/480/438
f 406/471/439 405/470/439 420/479/439
f 406/471/442 421/482/442 422/485/442
f 399/451/443 414/483/443 415/486/443
f 407/453/444 422/485/444 423/487/444
f 401/458/445 400/455/445 415/486/445
f 409/460/446 408/456/446 423/487/446
f 401/458/447 416/488/447 417/472/447
f 409/460/448 424/489/448 425/474/448
f 421/482/449 436/503/449 437/490/449
f 414/483/450 429/504/450 430/491/450
f 422/485/451 437/490/451 438/492/451
f 416/488/452 415/486/452 430/491/452
f 424/489/453 423/487/453 438/492/453
f 416/488/454 431/493/454 432/495/454
f 424/489/455 439/494/455 440/496/455
f 418/473/456 417/472/456 432/495/456
f 426/475/457 425/474/457 440/496/457
f 418/473/458 433/497/458 434/499/458
f 426/475/459 441/498/459 442/500/459
f 420/479/460 419/476/460 434/499/460
f 427/477/461 442/500/461 443/502/461
f 421/482/462 420/479/462 435/501/462
f 441/498/465 440/496/465 455/506/465
f 433/497/466 448/521/466 449/508/466
f 441/498/467 456/507/467 457/509/467
f 435/501/468 434/499/468 449/508/468
f 442/500/469 457/509/469 458/511/469
f 436/503/470 435/501/470 450/510/470
f 436/503/473 451/512/473 452/515/473
f 430/491/474 429/504/474 444/513/474
f 437/490/475 452/515/475 453/517/475
f 430/491/476 445/516/476 446/518/476
f 439/494/477 438/492/477 453/517/477
f 431/493/478 446/518/478 447/520/478
f 439/494/479 454/519/479 455/506/479
f 433/497/480 432/495/480 447/520/480
f 452/515/481 467/537/481 468/522/481
f 446/518/482 445/516/482 460/523/482
f 454/519/483 453/517/483 468/522/483
f 446/518/484 461/524/484 462/526/484
f 454/519/485 469/525/485 470/527/485
f 448/521/486 447/520/486 462/526/486
f 456/507/487 455/506/487 470/527/487
f 448/521/488 463/528/488 464/530/488
f 456/507/489 471/529/489 472/531/489
f 450/510/490 449/508/490 464/530/490
f 458/511/491 457/509/491 472/531/491
f 451/512/492 450/510/492 465/532/492
f 451/512/495 466/534/495 467/537/495
f 444/513/496 459/535/496 460/523/496
f 471/529/497 480/4/497 481/6/497
f 465/532/498 464/530/498 477/1/498
f 472/531/499 481/6/499 482/10/499
f 466/534/500 465/532/500 3/7/500
f 466/534/503 4/12/503 5/20/503
f 460/523/504 459/535/504 474/13/504
f 467/537/505 5/20/505 478/24/505
f 461/524/506 460/523/506 475/21/506
f 468/522/507 478/24/507 6/28/507
f 462/526/508 461/524/508 1/25/508
f 469/525/509 6/28/509 479/32/509
f 463/528/510 462/526/510 476/29/510
f 471/529/511 470/527/511 479/32/511
f 464/530/512 463/528/512 2/33/512
