# Blender 4.0.2
# www.blender.org
mtllib vortex1.mtl
o Cylinder
v 0.000000 -3.000000 -1.000000
v -0.000000 3.000000 -2.127886
v 0.195090 -3.000000 -0.980785
v 0.415130 3.000000 -2.086999
v 0.382683 -3.000000 -0.923880
v 0.814307 3.000000 -1.965910
v 0.555570 -3.000000 -0.831470
v 1.182190 3.000000 -1.769273
v 0.707107 -3.000000 -0.707107
v 1.504643 3.000000 -1.504643
v 0.831470 -3.000000 -0.555570
v 1.769273 3.000000 -1.182190
v 0.923880 -3.000000 -0.382683
v 1.965910 3.000000 -0.814307
v 0.980785 -3.000000 -0.195090
v 2.086999 3.000000 -0.415130
v 1.000000 -3.000000 0.000000
v 2.127886 3.000000 0.000000
v 0.980785 -3.000000 0.195090
v 2.086999 3.000000 0.415130
v 0.923880 -3.000000 0.382683
v 1.965910 3.000000 0.814307
v 0.831470 -3.000000 0.555570
v 1.769273 3.000000 1.182190
v 0.707107 -3.000000 0.707107
v 1.504643 3.000000 1.504643
v 0.555570 -3.000000 0.831470
v 1.182190 3.000000 1.769273
v 0.382683 -3.000000 0.923880
v 0.814307 3.000000 1.965910
v 0.195090 -3.000000 0.980785
v 0.415130 3.000000 2.086999
v 0.000000 -3.000000 1.000000
v -0.000000 3.000000 2.127886
v -0.195090 -3.000000 0.980785
v -0.415130 3.000000 2.086999
v -0.382683 -3.000000 0.923880
v -0.814307 3.000000 1.965910
v -0.555570 -3.000000 0.831470
v -1.182190 3.000000 1.769273
v -0.707107 -3.000000 0.707107
v -1.504643 3.000000 1.504643
v -0.831470 -3.000000 0.555570
v -1.769273 3.000000 1.182190
v -0.923880 -3.000000 0.382683
v -1.965910 3.000000 0.814307
v -0.980785 -3.000000 0.195090
v -2.086999 3.000000 0.415130
v -1.000000 -3.000000 0.000000
v -2.127886 3.000000 0.000000
v -0.980785 -3.000000 -0.195090
v -2.086999 3.000000 -0.415130
v -0.923880 -3.000000 -0.382683
v -1.965910 3.000000 -0.814307
v -0.831470 -3.000000 -0.555570
v -1.769273 3.000000 -1.182190
v -0.707107 -3.000000 -0.707107
v -1.504643 3.000000 -1.504643
v -0.555570 -3.000000 -0.831470
v -1.182190 3.000000 -1.769273
v -0.382683 -3.000000 -0.923880
v -0.814307 3.000000 -1.965910
v -0.195090 -3.000000 -0.980785
v -0.415130 3.000000 -2.086999
vn 0.0963 -0.1839 -0.9782
vn 0.2853 -0.1839 -0.9406
vn 0.4634 -0.1839 -0.8669
vn 0.6236 -0.1839 -0.7598
vn 0.7598 -0.1839 -0.6236
vn 0.8669 -0.1839 -0.4634
vn 0.9406 -0.1839 -0.2853
vn 0.9782 -0.1839 -0.0963
vn 0.9782 -0.1839 0.0963
vn 0.9406 -0.1839 0.2853
vn 0.8669 -0.1839 0.4634
vn 0.7598 -0.1839 0.6236
vn 0.6236 -0.1839 0.7598
vn 0.4634 -0.1839 0.8669
vn 0.2853 -0.1839 0.9406
vn 0.0963 -0.1839 0.9782
vn -0.0963 -0.1839 0.9782
vn -0.2853 -0.1839 0.9406
vn -0.4634 -0.1839 0.8669
vn -0.6236 -0.1839 0.7598
vn -0.7598 -0.1839 0.6236
vn -0.8669 -0.1839 0.4634
vn -0.9406 -0.1839 0.2853
vn -0.9782 -0.1839 0.0963
vn -0.9782 -0.1839 -0.0963
vn -0.9406 -0.1839 -0.2853
vn -0.8669 -0.1839 -0.4634
vn -0.7598 -0.1839 -0.6236
vn -0.6236 -0.1839 -0.7598
vn -0.4634 -0.1839 -0.8669
vn -0.0000 1.0000 -0.0000
vn -0.2853 -0.1839 -0.9406
vn -0.0963 -0.1839 -0.9782
vn -0.0000 -1.0000 -0.0000
vt 1.003100 0.500837
vt 0.971850 0.000837
vt 1.003100 0.000837
vt 0.971850 0.500837
vt 0.940600 0.000837
vt 0.940600 0.500837
vt 0.909350 0.000837
vt 0.909350 0.500837
vt 0.878100 0.000837
vt 0.878100 0.500837
vt 0.846850 0.000837
vt 0.846850 0.500837
vt 0.815600 0.000837
vt 0.815600 0.500837
vt 0.784350 0.000837
vt 0.784350 0.500837
vt 0.753100 0.000837
vt 0.753100 0.500837
vt 0.721850 0.000837
vt 0.721850 0.500837
vt 0.690600 0.000837
vt 0.690600 0.500837
vt 0.659350 0.000837
vt 0.659350 0.500837
vt 0.628100 0.000837
vt 0.628100 0.500837
vt 0.596850 0.000837
vt 0.596850 0.500837
vt 0.565600 0.000837
vt 0.565600 0.500837
vt 0.534350 0.000837
vt 0.534350 0.500837
vt 0.503100 0.000837
vt 0.503100 0.500837
vt 0.471850 0.000837
vt 0.471850 0.500837
vt 0.440600 0.000837
vt 0.440600 0.500837
vt 0.409350 0.000837
vt 0.409350 0.500837
vt 0.378100 0.000837
vt 0.378100 0.500837
vt 0.346850 0.000837
vt 0.346850 0.500837
vt 0.315600 0.000837
vt 0.284350 0.500837
vt 0.284350 0.000837
vt 0.253100 0.000837
vt 0.253100 0.500837
vt 0.221850 0.000837
vt 0.221850 0.500837
vt 0.190600 0.000837
vt 0.190600 0.500837
vt 0.159350 0.000837
vt 0.159350 0.500837
vt 0.128100 0.000837
vt 0.128100 0.500837
vt 0.096850 0.000837
vt 0.096850 0.500837
vt 0.065600 0.000837
vt 0.155056 0.515031
vt 0.468631 0.644918
vt 0.338744 0.958493
vt 0.034350 0.500837
vt 0.034350 0.000837
vt 0.003100 0.000837
vt 0.793721 0.501373
vt 0.511511 0.689940
vt 0.700078 0.972150
vt 0.315600 0.500837
vt 0.065600 0.500837
vt 0.293721 0.972150
vt 0.246900 0.976762
vt 0.200078 0.972150
vt 0.155056 0.958493
vt 0.113563 0.936314
vt 0.077194 0.906467
vt 0.047347 0.870098
vt 0.025169 0.828606
vt 0.011511 0.783583
vt 0.006900 0.736762
vt 0.011511 0.689940
vt 0.025169 0.644918
vt 0.047347 0.603425
vt 0.077194 0.567056
vt 0.113563 0.537209
vt 0.200078 0.501373
vt 0.246900 0.496762
vt 0.293721 0.501373
vt 0.338744 0.515031
vt 0.380236 0.537209
vt 0.416605 0.567056
vt 0.446452 0.603425
vt 0.482288 0.689940
vt 0.486900 0.736762
vt 0.482288 0.783583
vt 0.468631 0.828606
vt 0.446452 0.870098
vt 0.416605 0.906467
vt 0.380236 0.936314
vt 0.003100 0.500837
vt 0.746900 0.976762
vt 0.793721 0.972150
vt 0.838744 0.958493
vt 0.880236 0.936314
vt 0.916605 0.906467
vt 0.946452 0.870098
vt 0.968631 0.828606
vt 0.982288 0.783583
vt 0.986900 0.736762
vt 0.982288 0.689940
vt 0.968631 0.644918
vt 0.946452 0.603425
vt 0.916605 0.567056
vt 0.880236 0.537209
vt 0.838744 0.515031
vt 0.746900 0.496762
vt 0.700078 0.501373
vt 0.655056 0.515031
vt 0.613563 0.537209
vt 0.577194 0.567056
vt 0.547347 0.603425
vt 0.525169 0.644918
vt 0.506900 0.736762
vt 0.511511 0.783583
vt 0.525169 0.828606
vt 0.547347 0.870098
vt 0.577194 0.906467
vt 0.613563 0.936314
vt 0.655056 0.958493
s 0
usemtl darkWind
f 2/1/1 3/2/1 1/3/1
f 4/4/2 5/5/2 3/2/2
f 6/6/3 7/7/3 5/5/3
f 8/8/4 9/9/4 7/7/4
f 10/10/5 11/11/5 9/9/5
f 12/12/6 13/13/6 11/11/6
f 14/14/7 15/15/7 13/13/7
f 16/16/8 17/17/8 15/15/8
f 18/18/9 19/19/9 17/17/9
f 20/20/10 21/21/10 19/19/10
f 22/22/11 23/23/11 21/21/11
f 24/24/12 25/25/12 23/23/12
f 26/26/13 27/27/13 25/25/13
f 28/28/14 29/29/14 27/27/14
f 30/30/15 31/31/15 29/29/15
f 32/32/16 33/33/16 31/31/16
f 34/34/17 35/35/17 33/33/17
f 36/36/18 37/37/18 35/35/18
f 38/38/19 39/39/19 37/37/19
f 40/40/20 41/41/20 39/39/20
f 42/42/21 43/43/21 41/41/21
f 44/44/22 45/45/22 43/43/22
f 45/45/23 48/46/23 47/47/23
f 48/46/24 49/48/24 47/47/24
f 50/49/25 51/50/25 49/48/25
f 52/51/26 53/52/26 51/50/26
f 54/53/27 55/54/27 53/52/27
f 56/55/28 57/56/28 55/54/28
f 58/57/29 59/58/29 57/56/29
f 60/59/30 61/60/30 59/58/30
f 38/61/31 22/62/31 6/63/31
f 61/60/32 64/64/32 63/65/32
f 64/64/33 1/66/33 63/65/33
f 31/67/34 47/68/34 63/69/34
f 2/1/1 4/4/1 3/2/1
f 4/4/2 6/6/2 5/5/2
f 6/6/3 8/8/3 7/7/3
f 8/8/4 10/10/4 9/9/4
f 10/10/5 12/12/5 11/11/5
f 12/12/6 14/14/6 13/13/6
f 14/14/7 16/16/7 15/15/7
f 16/16/8 18/18/8 17/17/8
f 18/18/9 20/20/9 19/19/9
f 20/20/10 22/22/10 21/21/10
f 22/22/11 24/24/11 23/23/11
f 24/24/12 26/26/12 25/25/12
f 26/26/13 28/28/13 27/27/13
f 28/28/14 30/30/14 29/29/14
f 30/30/15 32/32/15 31/31/15
f 32/32/16 34/34/16 33/33/16
f 34/34/17 36/36/17 35/35/17
f 36/36/18 38/38/18 37/37/18
f 38/38/19 40/40/19 39/39/19
f 40/40/20 42/42/20 41/41/20
f 42/42/21 44/44/21 43/43/21
f 44/44/22 46/70/22 45/45/22
f 45/45/23 46/70/23 48/46/23
f 48/46/24 50/49/24 49/48/24
f 50/49/25 52/51/25 51/50/25
f 52/51/26 54/53/26 53/52/26
f 54/53/27 56/55/27 55/54/27
f 56/55/28 58/57/28 57/56/28
f 58/57/29 60/59/29 59/58/29
f 60/59/30 62/71/30 61/60/30
f 6/63/31 4/72/31 2/73/31
f 2/73/31 64/74/31 62/75/31
f 62/75/31 60/76/31 58/77/31
f 58/77/31 56/78/31 54/79/31
f 54/79/31 52/80/31 50/81/31
f 50/81/31 48/82/31 46/83/31
f 46/83/31 44/84/31 42/85/31
f 42/85/31 40/86/31 38/61/31
f 38/61/31 36/87/31 34/88/31
f 34/88/31 32/89/31 30/90/31
f 30/90/31 28/91/31 26/92/31
f 26/92/31 24/93/31 22/62/31
f 22/62/31 20/94/31 18/95/31
f 18/95/31 16/96/31 14/97/31
f 14/97/31 12/98/31 10/99/31
f 10/99/31 8/100/31 6/63/31
f 6/63/31 2/73/31 62/75/31
f 62/75/31 58/77/31 54/79/31
f 54/79/31 50/81/31 46/83/31
f 46/83/31 42/85/31 38/61/31
f 38/61/31 34/88/31 30/90/31
f 30/90/31 26/92/31 22/62/31
f 22/62/31 18/95/31 14/97/31
f 14/97/31 10/99/31 6/63/31
f 6/63/31 62/75/31 54/79/31
f 54/79/31 46/83/31 38/61/31
f 38/61/31 30/90/31 22/62/31
f 22/62/31 14/97/31 6/63/31
f 6/63/31 54/79/31 38/61/31
f 61/60/32 62/71/32 64/64/32
f 64/64/33 2/101/33 1/66/33
f 63/69/34 1/102/34 3/103/34
f 3/103/34 5/104/34 7/105/34
f 7/105/34 9/106/34 11/107/34
f 11/107/34 13/108/34 15/109/34
f 15/109/34 17/110/34 19/111/34
f 19/111/34 21/112/34 23/113/34
f 23/113/34 25/114/34 27/115/34
f 27/115/34 29/116/34 31/67/34
f 31/67/34 33/117/34 35/118/34
f 35/118/34 37/119/34 39/120/34
f 39/120/34 41/121/34 43/122/34
f 43/122/34 45/123/34 47/68/34
f 47/68/34 49/124/34 51/125/34
f 51/125/34 53/126/34 55/127/34
f 55/127/34 57/128/34 59/129/34
f 59/129/34 61/130/34 63/69/34
f 63/69/34 3/103/34 7/105/34
f 7/105/34 11/107/34 15/109/34
f 15/109/34 19/111/34 23/113/34
f 23/113/34 27/115/34 31/67/34
f 31/67/34 35/118/34 39/120/34
f 39/120/34 43/122/34 47/68/34
f 47/68/34 51/125/34 55/127/34
f 55/127/34 59/129/34 63/69/34
f 63/69/34 7/105/34 15/109/34
f 15/109/34 23/113/34 31/67/34
f 31/67/34 39/120/34 47/68/34
f 47/68/34 55/127/34 63/69/34
f 63/69/34 15/109/34 31/67/34
